<?xml version="1.0" encoding="UTF-8"?>
<svg width="336px" height="322px" viewBox="0 0 336 322" version="1.1" xmlns="http://www.w3.org/2000/svg" xmlns:xlink="http://www.w3.org/1999/xlink">
    <title>cloud</title>
    <defs>
        <path d="M40.8195929,32.3037055 L77,11.6002738 C69.6208518,15.8243296 59.4029494,15.228833 48.1233367,8.81731964 C43.961981,6.45121316 39.953047,3.45785025 36.1808103,0 L0,20.7034318 C3.77263991,24.161282 7.78117063,27.1546449 11.9429296,29.5207514 C23.2205261,35.9322648 33.4400415,36.5237914 40.8195929,32.3037055 L40.8195929,32.3037055 Z" id="path-1"></path>
        <path d="M2.59204492,21.8229654 L37.016376,2.12790785 C40.7712737,5.50635855 44.6652865,8.3528323 48.6076872,10.5918995 C56.1747415,14.8953549 63.4546946,16.7493343 69.8560049,16.0903181 L41.3007175,32.4267748 L41.3007175,32.4267748 C33.9054401,36.6587706 23.9964134,35.6702463 13.3958437,29.6438207 C9.73207644,27.5595826 6.10298717,24.9314576 2.59204492,21.8229654 Z M37.1486362,0 C36.9816981,0 36.81476,0.0396997733 36.661935,0.127039274 L0.481124657,20.8265011 C0.214991444,20.9773602 0.0403919268,21.2473187 0.00571396264,21.545067 C-0.0273510729,21.8467852 0.0843442302,22.1445335 0.308138069,22.3509724 C4.22231246,25.9398319 8.30019911,28.9490747 12.4268768,31.2913613 C23.6560855,37.6750848 34.2534294,38.6636092 42.2741199,34.0743154 L78.4549303,13.3748536 C78.9178408,13.1088651 79.0738916,12.5252785 78.8045325,12.0727011 C78.5367864,11.6201236 77.9444384,11.4613245 77.4811247,11.727313 C70.0878633,15.9553389 60.1768205,14.9707845 49.5762508,8.94435892 C45.5753815,6.66956191 41.6156419,3.7476586 37.8087272,0.254078549 C37.6228372,0.0873395012 37.3865432,0 37.1486362,0 L37.1486362,0 Z" id="path-3"></path>
    </defs>
    <g id="Page-1" stroke="none" stroke-width="1" fill="none" fill-rule="evenodd">
        <g id="Small" transform="translate(-342.000000, -92.000000)">
            <g id="cloud" transform="translate(342.000000, 92.000000)">
                <path d="M221.800149,177.476039 C206.919247,186.124863 186.31604,184.906037 163.572464,171.773385 C118.370158,145.669514 81.852378,82.3914388 82,30.4379557 C82.0036764,28.9487275 82.039988,27.4877501 82.104542,26.0429162 L118.30399,5 C118.24105,6.44483391 118.204738,7.90177537 118.198686,9.39503947 C118.05344,61.3444867 154.570009,124.626598 199.773526,150.730468 C222.515487,163.863121 243.120712,165.081947 258,156.433123 L221.800149,177.476039" id="path402" fill="#D5D6E0" fill-rule="nonzero" transform="translate(170.000000, 94.000000) scale(-1, 1) rotate(-180.000000) translate(-170.000000, -94.000000) "></path>
                <path d="M57.1910327,161 L21.2331168,181.938186 C11.858018,187.395607 6.047172,199.005177 6,215.501929 C5.9061087,248.700238 29.2059983,289.146998 58.0378132,305.828476 C67.0939166,311.069046 75.6098116,313.333936 83.0440878,312.96047 L119,292.022284 C111.567327,292.39575 103.051432,290.126844 93.9957292,284.89029 C65.1623112,268.208812 41.8640246,227.762052 41.9577997,194.559727 C42.0046872,178.066991 47.8155332,166.457421 57.1910327,161 L57.1910327,161" id="path404" fill="#D5D6E0" fill-rule="nonzero" transform="translate(62.500000, 237.000000) scale(-1, 1) rotate(-180.000000) translate(-62.500000, -237.000000) "></path>
                <path d="M283.819593,109.303706 L320,88.6002738 C312.620852,92.8243296 302.402949,92.228833 291.123337,85.8173196 C286.961981,83.4512132 282.953047,80.4578503 279.18081,77 L243,97.7034318 C246.77264,101.161282 250.781171,104.154645 254.94293,106.520751 C266.220526,112.932265 276.440041,113.523791 283.819593,109.303706" id="path406" fill="#FFFFFF" fill-rule="nonzero" transform="translate(281.500000, 94.500000) scale(-1, 1) rotate(-180.000000) translate(-281.500000, -94.500000) "></path>
                <path d="M244.594131,97.8707678 L279.046162,78.1325689 C282.804082,81.51842 286.701228,84.3711289 290.646801,86.6151007 C298.219944,90.9279826 305.505755,92.7860231 311.912217,92.1255633 L283.333951,108.497804 L283.333951,108.497804 C275.932723,112.73907 266.015723,111.748381 255.406623,105.708754 C251.739908,103.619951 248.107898,100.986069 244.594131,97.8707678 Z M279.178529,76 C279.011457,76 278.844384,76.0397867 278.691436,76.1273175 L242.481512,96.8721207 C242.215164,97.0233103 242.040424,97.2938601 242.005719,97.5922606 C241.972627,97.8946398 242.084412,98.1930403 242.308386,98.3999313 C246.22571,101.996652 250.306878,105.012487 254.436877,107.359904 C265.675121,113.757611 276.280993,114.7483 284.308137,110.148954 L320.518061,89.4041507 C320.981344,89.1375796 321.137521,88.5527146 320.867945,88.0991459 C320.599983,87.6455771 320.007159,87.4864301 319.543472,87.7530013 C312.144262,91.9902884 302.225244,91.0035774 291.616144,84.9639512 C287.612055,82.6841713 283.649129,79.7558677 279.839151,76.2546351 C279.653112,76.0875308 279.416627,76 279.178529,76" id="path408" fill="#1A1835" fill-rule="nonzero" transform="translate(281.500000, 94.500000) scale(-1, 1) rotate(-180.000000) translate(-281.500000, -94.500000) "></path>
                <g id="g412-Clipped" transform="translate(281.500000, 94.500000) scale(-1, 1) rotate(-180.000000) translate(-281.500000, -94.500000) translate(243.000000, 77.000000)">
                    <mask id="mask-2" fill="white">
                        <use xlink:href="#path-1"></use>
                    </mask>
                    <g id="path414"></g>
                    <g id="g412" mask="url(#mask-2)">
                        <g transform="translate(-0.967826, -0.948825)" id="g418-Clipped">
                            <mask id="mask-4" fill="white">
                                <use xlink:href="#path-3"></use>
                            </mask>
                            <g id="path420"></g>
                            <g id="g418" mask="url(#mask-4)" fill="#1A1835" fill-rule="nonzero">
                                <g transform="translate(0.967826, 0.948825)" id="path424">
                                    <path d="M40.8195929,32.3037055 C33.4400415,36.5237914 23.2205261,35.9322648 11.9429296,29.5207514 C7.78117063,27.1546449 3.77263991,24.161282 0,20.7034318 L36.1808103,0 C39.953047,3.45785025 43.961981,6.45121316 48.1233367,8.81731964 C59.4029494,15.228833 69.6208518,15.8243296 77,11.6002738 L40.8195929,32.3037055"></path>
                                </g>
                            </g>
                        </g>
                    </g>
                </g>
                <path d="M281.664012,259.199599 C281.690991,249.978939 280.550619,240.400547 278.414437,230.745785 C282.181447,234.246741 286.184827,237.27742 290.340417,239.673023 C312.721815,252.571496 330.927086,242.217346 331,216.545004 C331.072048,190.868642 312.985969,159.597181 290.604571,146.698708 L93.6311978,33.180893 C64.6576325,16.4840228 41.0951935,29.8969876 41,63.1259296 C40.9063396,96.3588911 64.3165681,136.842973 93.2885227,153.539843 C102.387735,158.781229 110.944547,161.052229 118.412932,160.678418 C118.350115,162.117388 118.313875,163.568416 118.307834,165.055619 C118.162872,216.794211 154.608044,279.81947 199.723179,305.817389 C244.832273,331.815308 281.51623,310.938191 281.664012,259.199599 Z" id="path426" fill="#FFFFFF" fill-rule="nonzero" transform="translate(186.000000, 171.500000) scale(-1, 1) rotate(-180.000000) translate(-186.000000, -171.500000) "></path>
                <path d="M117.040109,157 C116.876571,157 116.709843,157.044101 116.557076,157.132302 L77.4724705,180.208942 C77.0173583,180.477555 76.8645906,181.066899 77.1310366,181.523941 C77.4006737,181.984993 77.9866157,182.137341 78.4429245,181.864719 L117.52753,158.792088 C117.982642,158.523475 118.135409,157.934131 117.868963,157.473079 C117.68987,157.168384 117.370374,157 117.040109,157" id="path428" fill="#1A1835" fill-rule="nonzero" transform="translate(97.500000, 169.500000) scale(-1, 1) rotate(-180.000000) translate(-97.500000, -169.500000) "></path>
                <path d="M200.322033,322 C188.016172,322 174.866203,318.015698 161.237973,310.155757 C138.682333,297.152445 117.556239,274.928895 101.752665,247.586122 C86.0200046,220.364084 77.3637575,191.186117 77.3573109,165.38072 C70.1314156,164.764964 62.5392696,162.185229 54.7388161,157.685785 C39.9949113,149.181917 26.2026941,134.685498 15.9033556,116.864803 C5.60039091,99.040083 -0.0466378284,79.8993363 0.000290147984,62.9640415 C0.0525197963,45.1956655 6.34659132,31.7738004 17.7225213,25.1695184 L53.8749642,4.18150458 C54.014776,4.10101364 54.1582141,4.02857179 54.3044726,3.96015448 C58.9964293,1.33212514 64.3145174,0 70.1314156,0 C78.3380084,0 87.063557,2.63205389 96.0691323,7.82774438 L293.161129,121.489007 C304.718371,128.153658 315.515311,139.494832 323.567184,153.427814 C331.621071,167.360797 336.035822,182.348211 335.999781,195.621168 C335.95685,209.759402 330.903075,220.456649 321.76212,225.756977 L321.763732,225.765026 L286.308736,246.342536 C284.548799,268.863903 275.484801,285.960179 260.609949,294.71357 C260.537827,294.761864 260.462079,294.810159 260.385122,294.850404 L224.232679,315.838418 C217.188096,319.927358 209.143878,322 200.322033,322 L200.322033,322 Z M200.322033,317.170543 C208.313065,317.170543 215.563941,315.283031 221.804304,311.660938 L257.955135,290.676949 C257.907591,290.701096 257.858839,290.725243 257.811697,290.753415 C271.583366,282.837131 280.47411,266.497469 281.656266,243.364372 C282.178848,243.118874 282.686925,242.861303 283.181303,242.571536 L319.333343,221.583522 C319.309973,221.59962 319.28459,221.611694 319.262832,221.623767 C326.58301,217.414091 331.125082,208.415203 331.163173,195.605069 C331.235481,169.896262 313.138509,138.585284 290.743633,125.670512 L93.6516364,12.009249 C85.2000706,7.13552225 77.212664,4.82945669 70.1314156,4.82945669 C64.6416852,4.82945669 59.698309,6.21792548 55.5083856,8.86607757 C55.7747131,8.69704658 56.0309676,8.51594196 56.3049505,8.35898461 L20.1525077,29.3429739 C10.726691,34.8123336 4.8844092,46.4472997 4.83698201,62.9801397 C4.74258277,96.2510718 28.1685212,136.786312 57.156312,153.504281 C65.6207711,158.386057 73.6162359,160.692122 80.7051398,160.692122 C81.2402123,160.692122 81.7704497,160.680048 82.2978667,160.651877 C82.2334002,162.092665 82.1971377,163.549551 82.1939144,165.034609 C82.0460442,216.842605 118.514373,279.943481 163.655469,305.974253 C176.830419,313.572598 189.28294,317.170543 200.322033,317.170543 L200.322033,317.170543" id="path430" fill="#1A1835" fill-rule="nonzero" transform="translate(168.000000, 161.000000) scale(-1, 1) rotate(-180.000000) translate(-168.000000, -161.000000) "></path>
                <path d="M70.0689871,25 C64.8974564,25 60.1117767,26.2059077 55.8855406,28.6338018 C45.6890865,34.4904933 40.0471238,46.7344757 40,63.1147215 C40,63.6453208 40.4293498,64.0794476 40.9642246,64.0834673 L40.9674468,64.0834673 C41.4995022,64.0834673 41.9336853,63.6533602 41.9352963,63.1187412 C41.9775869,47.4580203 47.276392,35.8049326 56.8517791,30.3059937 C66.4944283,24.7668579 79.3769368,26.0812972 93.1257975,34.0041105 L290.148228,147.528258 C312.231147,160.254603 330.138579,191.214273 330.066484,216.542353 C330.033054,228.553193 325.980411,237.488969 318.656492,241.697587 C311.277797,245.934343 301.402349,244.91736 290.849848,238.839586 C286.853592,236.536302 282.898419,233.577809 279.095894,230.04048 C278.784152,229.755081 278.323386,229.698806 277.956868,229.90783 C277.588739,230.116854 277.399841,230.542941 277.492477,230.95295 C279.658962,240.74492 280.74442,250.247472 280.719448,259.195307 C280.650172,283.775725 272.30685,302.085423 257.228455,310.74384 C242.044535,319.466572 221.792595,317.420549 200.211523,304.983621 C155.429048,279.181217 119.115559,216.409703 119.261763,165.054116 C119.264985,163.623105 119.298012,162.204154 119.365677,160.716868 C119.376552,160.443529 119.272638,160.178229 119.080921,159.989304 C118.88719,159.796358 118.614919,159.699886 118.350704,159.711945 C110.864873,160.077737 102.361249,157.657882 93.7521005,152.697582 C93.2881127,152.432282 92.6980588,152.58905 92.4306214,153.051315 C92.164795,153.513579 92.3218742,154.104474 92.7846537,154.369774 C101.319693,159.285857 109.814053,161.814244 117.392521,161.669535 C117.351841,162.815147 117.3313,163.928602 117.328078,165.046076 C117.180262,217.020697 153.926324,280.543892 199.244077,306.655813 C221.44984,319.450493 242.384067,321.496517 258.191068,312.416032 C273.896169,303.399862 282.582246,284.49927 282.653133,259.203347 C282.676494,250.999155 281.781545,242.340738 279.992453,233.4331 C283.214591,236.206687 286.53299,238.578306 289.882402,240.507758 C301.059191,246.947305 311.619344,247.964287 319.619509,243.369779 C327.566105,238.803409 331.963517,229.280758 332,216.546373 C332.075487,190.603279 313.733872,158.891928 291.112855,145.856066 L94.0936471,32.3319186 C85.6371472,27.4600516 77.4605705,25 70.0689871,25" id="path432" fill="#1A1835" fill-rule="nonzero" transform="translate(186.000000, 171.500000) scale(-1, 1) rotate(-180.000000) translate(-186.000000, -171.500000) "></path>
                <path d="M41.930322,274 C41.4176854,274 41.0018458,274.445952 41.000297,274.996098 C40.9956508,276.646538 41.045598,278.351158 41.1439437,280.059946 C41.1741443,280.610093 41.6294771,281.035206 42.1285621,280.997696 C42.6411987,280.960186 43.0299351,280.48506 42.9981858,279.934913 C42.9013888,278.27197 42.8545391,276.609028 42.8591854,275.000266 C42.8607341,274.445952 42.446056,274 41.9318707,274 L41.930322,274" id="path434" fill="#1A1835" fill-rule="nonzero" transform="translate(42.000000, 277.500000) scale(-1, 1) rotate(-180.000000) translate(-42.000000, -277.500000) "></path>
                <path d="M41.9011111,269 C41.8703216,269 41.8365282,269 41.8046123,269.004328 C41.308601,269.06492 40.9522689,269.579955 41.0052118,270.146925 C41.063787,270.796128 41.1313737,271.441003 41.2045926,272.094534 C41.2676735,272.661505 41.7253857,273.068338 42.2135118,272.990434 C42.7065192,272.916858 43.0557172,272.397495 42.9926363,271.830525 C42.9205438,271.194306 42.854459,270.558087 42.7958839,269.926196 C42.7459448,269.39385 42.3558194,269 41.9011111,269" id="path436" fill="#1A1835" fill-rule="nonzero" transform="translate(42.000000, 271.000000) scale(-1, 1) rotate(-180.000000) translate(-42.000000, -271.000000) "></path>
                <path d="M85.5899981,263.992244 C85.3006654,263.992244 85.0125415,264.124902 84.8219365,264.370119 C84.4963364,264.792213 84.5781394,265.399225 85.0000495,265.720821 C85.4864347,266.094676 85.97282,266.456471 86.4608172,266.814246 C86.8919955,267.127802 87.4964511,267.035343 87.8127829,266.605209 C88.1291147,266.175075 88.0348196,265.572083 87.6036413,265.258527 C87.1265243,264.908792 86.6510192,264.551017 86.177126,264.189221 C86.0026398,264.056563 85.7947071,263.992244 85.5899981,263.992244 L85.5899981,263.992244 Z M76.1173728,255.691056 C75.868337,255.691056 75.6213162,255.783515 75.4323231,255.972452 C75.0547398,256.350327 75.0563517,256.961359 75.4339349,257.339234 C77.6172286,259.514024 79.8807134,261.572237 82.1538695,263.457591 C82.5665112,263.795267 83.1737876,263.738988 83.5155065,263.332973 C83.8572254,262.922939 83.8004066,262.311907 83.3897797,261.970211 C81.1621593,260.125056 78.9442102,258.107043 76.8004076,255.972452 C76.6098026,255.783515 76.3627817,255.691056 76.1173728,255.691056 L76.1173728,255.691056 Z M72.3850608,251.783669 C72.1537558,251.783669 71.9220478,251.868087 71.7350696,252.036925 C71.3397556,252.3947 71.3099358,253.005732 71.6701913,253.399687 C72.0763855,253.845901 72.4890272,254.288095 72.9012659,254.734309 C73.267969,255.120224 73.880484,255.140323 74.2693505,254.778528 C74.6582169,254.412713 74.6783654,253.801681 74.3148861,253.411747 C73.9070801,252.977592 73.5041097,252.543438 73.1027511,252.101244 C72.9109372,251.892207 72.6477975,251.783669 72.3850608,251.783669 Z M64.4280072,242.02324 C64.2281338,242.02324 64.0298724,242.083539 63.8565951,242.208157 C63.4254168,242.521713 63.3307187,243.124705 63.6454386,243.558859 C65.4414777,246.011026 67.3338268,248.406914 69.2696966,250.674163 C69.6162512,251.080178 70.2255424,251.132437 70.6329455,250.782702 C71.0375278,250.436987 71.0878991,249.829975 70.7417475,249.42396 C68.8385183,247.19289 66.9780039,244.833182 65.2085608,242.421215 C65.0199707,242.159918 64.7237874,242.02324 64.4280072,242.02324 L64.4280072,242.02324 Z M61.3299707,237.59326 C61.1442013,237.59326 60.9600438,237.641499 60.794826,237.754057 C60.3511555,238.051533 60.2298615,238.646485 60.5256417,239.092699 C60.8609131,239.595193 61.202632,240.097686 61.5443509,240.596159 C61.8465787,241.034333 62.4478106,241.146892 62.8886602,240.845396 C63.3291069,240.5439 63.4411326,239.944928 63.1405167,239.502734 C62.8020216,239.0123 62.4667502,238.517847 62.1359115,238.023394 C61.9501421,237.741998 61.6434816,237.59326 61.3299707,237.59326 L61.3299707,237.59326 Z M54.8635045,226.783625 C54.7111817,226.783625 54.5552322,226.815785 54.4101628,226.896184 C53.9394934,227.14542 53.7601716,227.732332 54.0104162,228.202666 C55.4272601,230.85583 56.9557269,233.492915 58.5535046,236.04156 C58.8367928,236.495814 59.4348008,236.636512 59.8881425,236.351096 C60.3398724,236.06568 60.4784942,235.474748 60.195206,235.020494 C58.6195917,232.508028 57.1128854,229.911143 55.7186077,227.294158 C55.5453305,226.968543 55.211671,226.783625 54.8635045,226.783625 L54.8635045,226.783625 Z M52.4283544,221.97175 C52.2885236,221.97175 52.1450662,221.99989 52.01128,222.064209 C51.5297303,222.293346 51.3250214,222.872218 51.5563264,223.350591 C51.8162423,223.897304 52.0822028,224.435977 52.351387,224.978669 C52.5875277,225.457043 53.168208,225.65 53.6469369,225.416844 C54.1268746,225.179667 54.3223153,224.600795 54.0829509,224.122421 C53.8202141,223.587768 53.5570745,223.057135 53.3007853,222.518463 C53.1351645,222.172747 52.7890129,221.97175 52.4283544,221.97175 L52.4283544,221.97175 Z M47.5786055,210.362146 C47.4702065,210.362146 47.3597926,210.382246 47.2546173,210.422445 C46.7509043,210.599323 46.4877646,211.150056 46.6674894,211.652549 C47.666856,214.450431 48.8004118,217.280473 50.0375309,220.062276 C50.254732,220.548689 50.8277559,220.769786 51.3125293,220.556729 C51.8037502,220.339652 52.024175,219.76882 51.806974,219.278386 C50.5883915,216.544823 49.4725664,213.759 48.4885127,211.005338 C48.3470701,210.611383 47.9755314,210.362146 47.5786055,210.362146 L47.5786055,210.362146 Z M45.883309,205.240735 C45.7922377,205.240735 45.6975396,205.252795 45.6032446,205.280935 C45.093084,205.437713 44.8037513,205.976385 44.957686,206.486918 C45.1325751,207.061771 45.3135088,207.640643 45.5008901,208.219515 C45.6628842,208.726028 46.2060883,209.007424 46.7162488,208.842607 C47.2260064,208.677789 47.5064738,208.135096 47.3424648,207.628583 C47.1583074,207.061771 46.9822093,206.494958 46.808932,205.924126 C46.6832053,205.510072 46.2991745,205.240735 45.883309,205.240735 L45.883309,205.240735 Z M42.9682211,193 C42.914626,193 42.8594191,193.00804 42.8046151,193.01608 C42.2771268,193.108539 41.9229158,193.602992 42.0143901,194.129605 C42.5100437,197.036026 43.1648706,200.018825 43.9615431,202.997605 C44.1001649,203.512158 44.6240265,203.817674 45.1434553,203.680996 C45.6616753,203.544318 45.9683358,203.013685 45.8313258,202.499132 C45.0507721,199.576631 44.4068254,196.654131 43.9204401,193.803989 C43.840249,193.337675 43.4308311,193 42.9682211,193" id="path438" fill="#1A1835" fill-rule="nonzero" transform="translate(65.000000, 230.000000) scale(-1, 1) rotate(-180.000000) translate(-65.000000, -230.000000) "></path>
                <path d="M89.9623077,189 C89.651254,189 89.3462052,189.136436 89.1600533,189.384174 C88.867815,189.782709 88.9867119,190.317681 89.4274715,190.57978 C90.7941863,191.398394 92.1845204,192.173923 93.5592417,192.884824 C94.0172153,193.121791 94.6068963,192.981765 94.8727131,192.568868 C95.1353273,192.155971 94.9787996,191.62818 94.5208261,191.391213 C93.1805328,190.698264 91.8262281,189.940687 90.4939414,189.147207 C90.3298075,189.046675 90.1436557,189 89.9623077,189" id="path440" fill="#1A1835" fill-rule="nonzero" transform="translate(92.000000, 191.000000) scale(-1, 1) rotate(-180.000000) translate(-92.000000, -191.000000) "></path>
            </g>
        </g>
    </g>
</svg>