<?xml version="1.0" encoding="UTF-8"?>
<svg width="144px" height="147px" viewBox="0 0 144 147" version="1.1" xmlns="http://www.w3.org/2000/svg" xmlns:xlink="http://www.w3.org/1999/xlink">
    <title>gmail_icon</title>
    <g id="Page-1" stroke="none" stroke-width="1" fill="none" fill-rule="evenodd">
        <g id="gmail_icon" transform="translate(0.498655, 0.176058)" fill="#282727" fill-rule="nonzero">
            <path d="M60.1506652,1.45066663 C61.7866651,1.45066663 63.1506652,2.8146666 63.1506652,4.45066663 C63.1506652,6.08533318 61.7866651,7.45066663 60.1506652,7.45066663 C58.5159985,7.45066663 57.1506652,6.08533318 57.1506652,4.45066663 C57.1506652,2.8146666 58.5159985,1.45066663 60.1506652,1.45066663" id="path52" transform="translate(60.150665, 4.450667) scale(-1, 1) rotate(-180.000000) translate(-60.150665, -4.450667) "></path>
            <path d="M48.5159989,4.78133321 C50.1519987,4.78133321 51.5159989,6.14666651 51.5159989,7.78133321 C51.5159989,9.4173331 50.1519987,10.7813332 48.5159989,10.7813332 C46.8813322,10.7813332 45.5159989,9.4173331 45.5159989,7.78133321 C45.5159989,6.14666651 46.8813322,4.78133321 48.5159989,4.78133321" id="path54" transform="translate(48.515999, 7.781333) scale(-1, 1) rotate(-180.000000) translate(-48.515999, -7.781333) "></path>
            <path d="M37.4959991,9.63066643 C39.131999,9.63066643 40.4959991,10.9946664 40.4959991,12.6306664 C40.4959991,14.265333 39.131999,15.6306664 37.4959991,15.6306664 C35.8613324,15.6306664 34.4959991,14.265333 34.4959991,12.6306664 C34.4959991,10.9946664 35.8613324,9.63066643 37.4959991,9.63066643" id="path56" transform="translate(37.495999, 12.630666) scale(-1, 1) rotate(-180.000000) translate(-37.495999, -12.630666) "></path>
            <path d="M27.4693327,17.7199996 C29.1039993,17.7199996 30.4693327,19.0853329 30.4693327,20.7199996 C30.4693327,22.3559994 29.1039993,23.7199996 27.4693327,23.7199996 C25.8333327,23.7199996 24.4693327,22.3559994 24.4693327,20.7199996 C24.4693327,19.0853329 25.8333327,17.7199996 27.4693327,17.7199996" id="path58" transform="translate(27.469333, 20.719999) scale(-1, 1) rotate(-180.000000) translate(-27.469333, -20.719999) "></path>
            <path d="M19.3186663,25.586666 C20.9546661,25.586666 22.3186663,26.950666 22.3186663,28.586666 C22.3186663,30.2213326 20.9546661,31.586666 19.3186663,31.586666 C17.6839996,31.586666 16.3186663,30.2213326 16.3186663,28.586666 C16.3186663,26.950666 17.6839996,25.586666 19.3186663,25.586666" id="path60" transform="translate(19.318666, 28.586666) scale(-1, 1) rotate(-180.000000) translate(-19.318666, -28.586666) "></path>
            <path d="M12.0746664,34.0306658 C13.709333,34.0306658 15.0746664,35.3946658 15.0746664,37.0306658 C15.0746664,38.6666657 13.709333,40.0306658 12.0746664,40.0306658 C10.4386664,40.0306658 9.07466644,38.6666657 9.07466644,37.0306658 C9.07466644,35.3946658 10.4386664,34.0306658 12.0746664,34.0306658" id="path62" transform="translate(12.074666, 37.030666) scale(-1, 1) rotate(-180.000000) translate(-12.074666, -37.030666) "></path>
            <path d="M6.66666658,45.2493322 C8.30133313,45.2493322 9.66533309,46.6146655 9.66533309,48.2493322 C9.66533309,49.8853321 8.30133313,51.2493322 6.66666658,51.2493322 C5.02933321,51.2493322 3.66666658,49.8853321 3.66666658,48.2493322 C3.66666658,46.6146655 5.02933321,45.2493322 6.66666658,45.2493322" id="path64" transform="translate(6.666000, 48.249332) scale(-1, 1) rotate(-180.000000) translate(-6.666000, -48.249332) "></path>
            <path d="M3.96666664,55.6693319 C5.60133319,55.6693319 6.96666664,57.0333319 6.96666664,58.6693319 C6.96666664,60.3039985 5.60133319,61.6693319 3.96666664,61.6693319 C2.33066661,61.6693319 0.966666643,60.3039985 0.966666643,58.6693319 C0.966666643,57.0333319 2.33066661,55.6693319 3.96666664,55.6693319" id="path66" transform="translate(3.966667, 58.669332) scale(-1, 1) rotate(-180.000000) translate(-3.966667, -58.669332) "></path>
            <path d="M3,68.0333316 C4.63466655,68.0333316 6,69.3986649 6,71.0333316 C6,72.6693315 4.63466655,74.0333316 3,74.0333316 C1.36399997,74.0333316 -5.68434189e-14,72.6693315 -5.68434189e-14,71.0333316 C-5.68434189e-14,69.3986649 1.36399997,68.0333316 3,68.0333316" id="path68" transform="translate(3.000000, 71.033332) scale(-1, 1) rotate(-180.000000) translate(-3.000000, -71.033332) "></path>
            <path d="M6.04,82.979998 C6.04,84.6159979 4.67599988,85.979998 3.04,85.979998 C1.4053333,85.979998 0.039999999,84.6159979 0.039999999,82.979998 C0.039999999,81.3453313 1.4053333,79.979998 3.04,79.979998 C4.67599988,79.979998 6.04,81.3453313 6.04,82.979998" id="path70" transform="translate(3.040000, 82.979998) scale(-1, 1) rotate(-180.000000) translate(-3.040000, -82.979998) "></path>
            <path d="M8.53733327,96.445331 C8.53733327,98.0799975 7.17199982,99.445331 5.53733327,99.445331 C3.90133324,99.445331 2.53733327,98.0799975 2.53733327,96.445331 C2.53733327,94.809331 3.90133324,93.445331 5.53733327,93.445331 C7.17199982,93.445331 8.53733327,94.809331 8.53733327,96.445331" id="path72" transform="translate(5.537333, 96.445331) scale(-1, 1) rotate(-180.000000) translate(-5.537333, -96.445331) "></path>
            <path d="M10.1093332,111.129331 C8.47333312,111.129331 7.10933316,109.765331 7.10933316,108.129331 C7.10933316,106.493331 8.47333312,105.129331 10.1093332,105.129331 C11.7439997,105.129331 13.1093332,106.493331 13.1093332,108.129331 C13.1093332,109.765331 11.7439997,111.129331 10.1093332,111.129331" id="path74" transform="translate(10.109333, 108.129331) scale(-1, 1) rotate(-180.000000) translate(-10.109333, -108.129331) "></path>
            <path d="M16.8906663,119.807997 C15.2546663,119.807997 13.8906663,118.442664 13.8906663,116.807997 C13.8906663,115.171997 15.2546663,113.807997 16.8906663,113.807997 C18.5266662,113.807997 19.8906663,115.171997 19.8906663,116.807997 C19.8906663,118.442664 18.5266662,119.807997 16.8906663,119.807997" id="path76" transform="translate(16.890666, 116.807997) scale(-1, 1) rotate(-180.000000) translate(-16.890666, -116.807997) "></path>
            <path d="M23.6466662,128.271997 C22.0106661,128.271997 20.6466662,126.906663 20.6466662,125.271997 C20.6466662,123.635997 22.0106661,122.271997 23.6466662,122.271997 C25.2813327,122.271997 26.6466662,123.635997 26.6466662,125.271997 C26.6466662,126.906663 25.2813327,128.271997 23.6466662,128.271997" id="path78" transform="translate(23.646666, 125.271997) scale(-1, 1) rotate(-180.000000) translate(-23.646666, -125.271997) "></path>
            <path d="M34.1573326,136.02933 C32.5213325,136.02933 31.1573326,134.66533 31.1573326,133.02933 C31.1573326,131.394663 32.5213325,130.02933 34.1573326,130.02933 C35.7919991,130.02933 37.1573326,131.394663 37.1573326,133.02933 C37.1573326,134.66533 35.7919991,136.02933 34.1573326,136.02933" id="path80" transform="translate(34.157332, 133.029330) scale(-1, 1) rotate(-180.000000) translate(-34.157332, -133.029330) "></path>
            <path d="M44.911999,141.96133 C43.2773323,141.96133 41.911999,140.59733 41.911999,138.96133 C41.911999,137.326663 43.2773323,135.96133 44.911999,135.96133 C46.5479988,135.96133 47.911999,137.326663 47.911999,138.96133 C47.911999,140.59733 46.5479988,141.96133 44.911999,141.96133" id="path82" transform="translate(44.911999, 138.961330) scale(-1, 1) rotate(-180.000000) translate(-44.911999, -138.961330) "></path>
            <path d="M56.1359987,145.08933 C54.501332,145.08933 53.1359987,143.723996 53.1359987,142.08933 C53.1359987,140.45333 54.501332,139.08933 56.1359987,139.08933 C57.7719986,139.08933 59.1359987,140.45333 59.1359987,142.08933 C59.1359987,143.723996 57.7719986,145.08933 56.1359987,145.08933" id="path84" transform="translate(56.135999, 142.089330) scale(-1, 1) rotate(-180.000000) translate(-56.135999, -142.089330) "></path>
            <path d="M69.2999983,146.039996 C67.6639983,146.039996 66.298665,144.674663 66.298665,143.039996 C66.298665,141.403996 67.6639983,140.039996 69.2999983,140.039996 C70.9346649,140.039996 72.2999982,141.403996 72.2999982,143.039996 C72.2999982,144.674663 70.9346649,146.039996 69.2999983,146.039996" id="path86" transform="translate(69.299332, 143.039996) scale(-1, 1) rotate(-180.000000) translate(-69.299332, -143.039996) "></path>
            <path d="M81.9066647,146.08133 C80.2706647,146.08133 78.9066647,144.715996 78.9066647,143.08133 C78.9066647,141.44533 80.2706647,140.08133 81.9066647,140.08133 C83.5413312,140.08133 84.9066647,141.44533 84.9066647,143.08133 C84.9066647,144.715996 83.5413312,146.08133 81.9066647,146.08133" id="path88" transform="translate(81.906665, 143.081330) scale(-1, 1) rotate(-180.000000) translate(-81.906665, -143.081330) "></path>
            <path d="M92.9933311,143.611997 C91.3586644,143.611997 89.9933311,142.247996 89.9933311,140.611997 C89.9933311,138.97733 91.3586644,137.611997 92.9933311,137.611997 C94.629331,137.611997 95.9933311,138.97733 95.9933311,140.611997 C95.9933311,142.247996 94.629331,143.611997 92.9933311,143.611997" id="path90" transform="translate(92.993331, 140.611996) scale(-1, 1) rotate(-180.000000) translate(-92.993331, -140.611996) "></path>
            <path d="M103.177331,138.435997 C101.541331,138.435997 100.177331,137.070663 100.177331,135.435997 C100.177331,133.799997 101.541331,132.435997 103.177331,132.435997 C104.811997,132.435997 106.177331,133.799997 106.177331,135.435997 C106.177331,137.070663 104.811997,138.435997 103.177331,138.435997" id="path92" transform="translate(103.177331, 135.435997) scale(-1, 1) rotate(-180.000000) translate(-103.177331, -135.435997) "></path>
            <path d="M71.0413316,0 C72.6773315,0 74.0413316,1.36399997 74.0413316,3 C74.0413316,4.63466655 72.6773315,6 71.0413316,6 C69.4066649,6 68.0413316,4.63466655 68.0413316,3 C68.0413316,1.36399997 69.4066649,0 71.0413316,0" id="path94" transform="translate(71.041332, 3.000000) scale(-1, 1) rotate(-180.000000) translate(-71.041332, -3.000000) "></path>
            <path d="M81.223998,1.89466662 C82.8599979,1.89466662 84.223998,3.25866659 84.223998,4.89466662 C84.223998,6.52933317 82.8599979,7.89466662 81.223998,7.89466662 C79.587998,7.89466662 78.223998,6.52933317 78.223998,4.89466662 C78.223998,3.25866659 79.587998,1.89466662 81.223998,1.89466662" id="path96" transform="translate(81.223998, 4.894667) scale(-1, 1) rotate(-180.000000) translate(-81.223998, -4.894667) "></path>
            <path d="M91.9319978,5.86266652 C93.5679977,5.86266652 94.9319978,7.22666649 94.9319978,8.86266652 C94.9319978,10.4973331 93.5679977,11.8626665 91.9319978,11.8626665 C90.2973311,11.8626665 88.9319978,10.4973331 88.9319978,8.86266652 C88.9319978,7.22666649 90.2973311,5.86266652 91.9319978,5.86266652" id="path98" transform="translate(91.931998, 8.862666) scale(-1, 1) rotate(-180.000000) translate(-91.931998, -8.862666) "></path>
            <path d="M102.531998,11.545333 C104.167997,11.545333 105.531998,12.909333 105.531998,14.545333 C105.531998,16.1813329 104.167997,17.545333 102.531998,17.545333 C100.897331,17.545333 99.5319975,16.1813329 99.5319975,14.545333 C99.5319975,12.909333 100.897331,11.545333 102.531998,11.545333" id="path100" transform="translate(102.531997, 14.545333) scale(-1, 1) rotate(-180.000000) translate(-102.531997, -14.545333) "></path>
            <path d="M112.646664,16.8599996 C114.282664,16.8599996 115.646664,18.2239995 115.646664,19.8599996 C115.646664,21.4959995 114.282664,22.8599996 112.646664,22.8599996 C111.011997,22.8599996 109.646664,21.4959995 109.646664,19.8599996 C109.646664,18.2239995 111.011997,16.8599996 112.646664,16.8599996" id="path102" transform="translate(112.646664, 19.860000) scale(-1, 1) rotate(-180.000000) translate(-112.646664, -19.860000) "></path>
            <path d="M121.659997,25.7399994 C123.295997,25.7399994 124.659997,27.1039993 124.659997,28.7399994 C124.659997,30.3746659 123.295997,31.7399994 121.659997,31.7399994 C120.02533,31.7399994 118.659997,30.3746659 118.659997,28.7399994 C118.659997,27.1039993 120.02533,25.7399994 121.659997,25.7399994" id="path104" transform="translate(121.659997, 28.739999) scale(-1, 1) rotate(-180.000000) translate(-121.659997, -28.739999) "></path>
            <path d="M128.354664,35.4599991 C129.98933,35.4599991 131.354664,36.8239991 131.354664,38.4599991 C131.354664,40.095999 129.98933,41.4599991 128.354664,41.4599991 C126.718663,41.4599991 125.354664,40.095999 125.354664,38.4599991 C125.354664,36.8239991 126.718663,35.4599991 128.354664,35.4599991" id="path106" transform="translate(128.354663, 38.459999) scale(-1, 1) rotate(-180.000000) translate(-128.354663, -38.459999) "></path>
            <path d="M134.44933,45.8866655 C136.08533,45.8866655 137.44933,47.2506655 137.44933,48.8866655 C137.44933,50.5213321 136.08533,51.8866655 134.44933,51.8866655 C132.81333,51.8866655 131.44933,50.5213321 131.44933,48.8866655 C131.44933,47.2506655 132.81333,45.8866655 134.44933,45.8866655" id="path108" transform="translate(134.449330, 48.886665) scale(-1, 1) rotate(-180.000000) translate(-134.449330, -48.886665) "></path>
            <path d="M135.511997,60.7439986 C135.511997,59.1079985 136.875997,57.7439986 138.511997,57.7439986 C140.146663,57.7439986 141.511997,59.1079985 141.511997,60.7439986 C141.511997,62.3799984 140.146663,63.7439986 138.511997,63.7439986 C136.875997,63.7439986 135.511997,62.3799984 135.511997,60.7439986" id="path110" transform="translate(138.511997, 60.743998) scale(-1, 1) rotate(-180.000000) translate(-138.511997, -60.743998) "></path>
            <path d="M137.25333,73.0653316 C137.25333,71.4293315 138.618663,70.0653316 140.25333,70.0653316 C141.88933,70.0653316 143.25333,71.4293315 143.25333,73.0653316 C143.25333,74.6999981 141.88933,76.0653316 140.25333,76.0653316 C138.618663,76.0653316 137.25333,74.6999981 137.25333,73.0653316" id="path112" transform="translate(140.253330, 73.065332) scale(-1, 1) rotate(-180.000000) translate(-140.253330, -73.065332) "></path>
            <path d="M139.987997,88.2479979 C138.35333,88.2479979 136.987997,86.8826645 136.987997,85.2479979 C136.987997,83.6119979 138.35333,82.2479979 139.987997,82.2479979 C141.623996,82.2479979 142.987997,83.6119979 142.987997,85.2479979 C142.987997,86.8826645 141.623996,88.2479979 139.987997,88.2479979" id="path114" transform="translate(139.987997, 85.247998) scale(-1, 1) rotate(-180.000000) translate(-139.987997, -85.247998) "></path>
            <path d="M136.279997,100.265331 C134.643997,100.265331 133.279997,98.9013309 133.279997,97.265331 C133.279997,95.6306643 134.643997,94.265331 136.279997,94.265331 C137.915997,94.265331 139.279997,95.6306643 139.279997,97.265331 C139.279997,98.9013309 137.915997,100.265331 136.279997,100.265331" id="path116" transform="translate(136.279997, 97.265331) scale(-1, 1) rotate(-180.000000) translate(-136.279997, -97.265331) "></path>
            <path d="M131.666663,111.746664 C130.030663,111.746664 128.666663,110.382664 128.666663,108.746664 C128.666663,107.111997 130.030663,105.746664 131.666663,105.746664 C133.302663,105.746664 134.666663,107.111997 134.666663,108.746664 C134.666663,110.382664 133.302663,111.746664 131.666663,111.746664" id="path118" transform="translate(131.666663, 108.746664) scale(-1, 1) rotate(-180.000000) translate(-131.666663, -108.746664) "></path>
            <path d="M124.110664,122.80533 C122.474664,122.80533 121.110664,121.439997 121.110664,119.80533 C121.110664,118.16933 122.474664,116.80533 124.110664,116.80533 C125.746664,116.80533 127.110664,118.16933 127.110664,119.80533 C127.110664,121.439997 125.746664,122.80533 124.110664,122.80533" id="path120" transform="translate(124.110664, 119.805330) scale(-1, 1) rotate(-180.000000) translate(-124.110664, -119.805330) "></path>
            <path d="M115.871997,130.943997 C114.23733,130.943997 112.871997,129.579997 112.871997,127.943997 C112.871997,126.30933 114.23733,124.943997 115.871997,124.943997 C117.507997,124.943997 118.871997,126.30933 118.871997,127.943997 C118.871997,129.579997 117.507997,130.943997 115.871997,130.943997" id="path122" transform="translate(115.871997, 127.943997) scale(-1, 1) rotate(-180.000000) translate(-115.871997, -127.943997) "></path>
            <path d="M118.551997,73.8906648 C118.530664,73.3279982 118.478664,72.7653315 118.411997,72.2133315 C118.306664,71.5306649 118.171997,70.8639982 117.931997,70.2239982 C117.806664,69.9733316 117.671997,69.7386649 117.515997,69.5106649 C117.38533,69.3639983 117.250664,69.2239983 117.103997,69.0879983 C117.046664,69.0519983 116.98933,69.0146649 116.931997,68.9786649 C116.83333,68.9533316 116.739997,68.9266649 116.639997,68.9053316 C116.087997,68.8533316 115.530664,68.8533316 114.983997,68.8173316 C114.510664,68.7906649 114.030664,68.7493316 113.55733,68.6919983 C112.573331,68.5773316 111.578664,68.478665 110.619997,68.2079983 C109.958664,68.0253316 109.265331,67.7239983 108.750664,67.2599983 C108.437331,66.9839983 108.187997,66.6719983 108.041331,66.2813317 C107.921331,65.962665 107.901331,65.6199984 107.863997,65.286665 C107.797331,64.6453317 107.854664,63.9733317 107.869331,63.3279984 C107.885331,62.7546651 107.911997,62.1813318 107.937331,61.6093318 C107.989331,60.3333318 108.125331,59.0413319 107.999997,57.7653319 C107.969331,57.5573319 107.926664,57.3586652 107.869331,57.1559986 C107.833331,57.0933319 107.797331,57.0359986 107.759997,56.9733319 C107.729331,56.9533319 107.697331,56.9373319 107.666664,56.9159986 C107.603997,56.8999986 107.541331,56.8853319 107.478664,56.8693319 C106.473331,56.8173319 105.469331,56.8959986 104.463997,57.0146652 C103.639997,57.1399986 102.833331,57.2959986 102.046664,57.5879986 C101.843997,57.6866652 101.650664,57.7906652 101.463997,57.9159986 C101.363997,58.0106652 101.270664,58.1039985 101.177331,58.2026652 C101.109331,58.3066652 101.041331,58.4159985 100.983997,58.5306652 C100.859997,58.8906652 100.781331,59.2546652 100.723997,59.6293318 C100.458664,62.1919984 100.895997,64.7493317 100.885331,67.3013317 C100.879997,67.6773316 100.827997,68.0413316 100.775997,68.410665 C100.729331,68.7439983 100.562664,69.0573316 100.426664,69.3533316 C100.306664,69.6239983 100.078664,69.8853316 99.8493308,70.0626649 C99.7186642,70.1919982 99.5679975,70.2959982 99.4013308,70.3693316 C99.2399975,70.4479982 99.0733309,70.5146649 98.9013309,70.5719982 C98.6399975,70.6719982 98.3173309,70.6666649 98.0413309,70.6813316 C97.9013309,70.6919982 97.7599976,70.6973316 97.6199976,70.7079982 C97.3959976,70.7186649 97.1773309,70.7186649 96.9533309,70.7239982 C96.5106643,70.7293316 96.0679976,70.7239982 95.6253309,70.7133316 C95.3119976,70.7079982 95.005331,70.7026649 94.693331,70.7026649 C94.2026643,70.7026649 93.7186643,70.7186649 93.229331,70.7706649 C92.8066643,70.8439982 92.4066644,70.9373316 92.0106644,71.0773316 C91.797331,71.1813316 91.5986644,71.2959982 91.4066644,71.4266649 C91.2919977,71.5306649 91.1826644,71.6399982 91.0839977,71.7546649 C91.0573311,71.7906649 91.0359977,71.8333315 91.0159977,71.8693315 C90.9839977,71.9573315 90.9586644,72.0466649 90.9373311,72.1346649 C90.9266644,72.3439982 90.9317816,72.5519982 90.9479977,72.7653315 C91.0933311,73.6399982 91.3226644,74.5146648 91.6359977,75.3439981 C91.745331,75.5773314 91.8599977,75.7959981 91.9946644,76.0106648 C92.0266644,76.0466648 92.057331,76.0773314 92.0879977,76.1093314 C92.1506644,76.1453314 92.2079977,76.1813314 92.2706644,76.2186648 C93.2026643,76.5106648 94.1719976,76.6613314 95.1399976,76.8013314 C95.4213309,76.8226647 95.6973309,76.8439981 95.9839976,76.8639981 C96.4839976,76.8999981 96.9786642,76.9053314 97.4786642,76.9573314 C97.9733309,77.0106647 98.3799975,77.0879981 98.8173309,77.3439981 C99.2653309,77.5986647 99.5306642,78.0306647 99.6826642,78.5106647 C99.8333308,78.983998 99.7026642,79.5106647 99.6199975,79.9946647 C99.5573308,80.5826647 99.5053308,81.191998 99.5359975,81.7866646 C99.5626642,82.4626646 99.6253308,83.1293313 99.7026642,83.8013312 C99.8693308,84.8493312 100.023997,85.9239979 100.303997,86.9546645 C101.209331,87.0013312 102.117331,87.0439978 103.025331,87.0919978 C104.297331,87.1639978 105.565331,87.3013312 106.837331,87.4146645 C106.906664,87.3853311 106.974664,87.3559978 107.046664,87.3439978 C107.338664,87.2906645 107.630664,87.2333312 107.921331,87.1919978 C108.234664,87.1453312 108.546664,87.1039978 108.859997,87.0359978 C108.953331,85.6919979 108.937331,84.3439979 108.947997,82.9999979 C108.953331,82.1613313 108.973331,81.327998 109.073331,80.4946647 C109.119997,80.071998 109.182664,79.6506647 109.270664,79.2333314 C109.374664,78.7333314 109.567997,78.2546647 109.786664,77.7906647 C110.030664,77.2653314 110.437331,76.8639981 110.926664,76.5666648 C111.349331,76.3066648 111.839997,76.3066648 112.313331,76.3533314 L112.311997,76.3533314 C112.319997,76.3533314 112.330664,76.3546648 112.339997,76.3559981 C112.347997,76.3573314 112.357331,76.3586648 112.363997,76.3586648 C112.366664,76.3586648 112.369331,76.3586648 112.371997,76.3599981 C112.402664,76.3639981 112.431997,76.3679981 112.463997,76.3719981 C112.495997,76.3759981 112.529331,76.3799981 112.562664,76.3853314 C112.558664,76.3853314 112.555997,76.3839981 112.551997,76.3839981 C112.563997,76.3853314 112.577331,76.3879981 112.587997,76.3893314 C112.591997,76.3893314 112.594664,76.3893314 112.598664,76.3906648 C114.254664,76.5986648 115.958664,76.7813314 117.62533,76.6146648 C117.81733,76.5826648 117.999997,76.5359981 118.182664,76.4733314 C118.275997,76.4213314 118.363997,76.3746648 118.45333,76.3173314 C118.463997,76.3066648 118.46933,76.3013314 118.478664,76.2906648 C118.50533,76.2439981 118.530664,76.1973314 118.55733,76.1506648 C118.562664,76.1346648 118.567997,76.1199981 118.57333,76.1039981 C118.62533,75.3639981 118.578664,74.6239981 118.551997,73.8906648 L118.551997,73.8906648 Z M110.243997,64.9733317 C110.243997,65.1279984 110.249331,65.2839984 110.259997,65.4373317 C110.267997,65.4453317 110.275997,65.4559984 110.283997,65.4653317 C110.261331,65.298665 110.249331,65.134665 110.243997,64.9733317 Z M97.5853309,67.750665 C97.7039976,67.7493316 97.8226642,67.746665 97.9426642,67.7439983 C97.9519976,67.7159983 97.9573309,67.686665 97.9626642,67.662665 C97.8306642,67.7119983 97.7053309,67.7373316 97.5853309,67.750665 Z M81.7453313,66.786665 C81.7186646,66.254665 81.6933313,65.718665 81.6666646,65.186665 C81.6453313,64.7959984 81.583998,64.4053317 81.535998,64.0199984 C81.2706646,62.5199984 80.9786646,61.0306651 80.567998,59.5666652 C80.103998,57.9159986 79.619998,56.2706653 78.963998,54.681332 C78.447998,53.505332 77.8119981,52.385332 77.0413314,51.3479987 C76.4013314,50.5573321 75.6773314,49.8533321 74.8746648,49.2133321 C74.5839981,48.9893321 74.2919981,48.7599988 73.9839982,48.5626655 C73.5266648,48.2599988 73.0679982,47.9573321 72.5879982,47.6813321 C71.7293315,47.1773322 70.8279982,46.7706655 69.9119983,46.3746655 C69.3439983,46.1399988 68.7759983,45.9106655 68.2079983,45.6866655 C67.7453316,45.4999989 67.286665,45.3226655 66.8119983,45.1559989 C65.9639984,44.8479989 65.078665,44.6506656 64.1826651,44.5106656 C62.7866651,44.3439989 61.3799985,44.3906656 59.9693318,44.3999989 C59.0266652,44.4053322 58.0839985,44.4479989 57.1453319,44.4839989 C56.1453319,44.5253322 55.1559986,44.5879989 54.161332,44.6559989 C53.3639987,44.7133322 52.573332,44.8226655 51.781332,44.9213322 C50.3906654,45.1506655 48.9946654,45.4479989 47.6666655,45.9319989 C47.0519988,46.1559988 46.4319988,46.3853322 45.8119989,46.6146655 C45.0413322,46.9573322 44.2759989,47.2959988 43.5213322,47.6919988 C43.0106656,47.9573321 42.4946656,48.2133321 41.9893323,48.4946655 C40.7973323,49.1613321 39.6453323,49.8799988 38.5573324,50.7026654 C38.5466657,50.7079987 38.5413324,50.7186654 38.5306657,50.7239987 C37.1453324,51.817332 35.9319991,53.0519987 34.8493325,54.4266653 C34.0306658,55.5199986 33.3386658,56.6813319 32.6506659,57.8639986 C32.2973325,58.4786652 31.9999992,59.1293319 31.6933325,59.7759985 C31.5306659,60.1719985 31.3693325,60.5719985 31.2079992,60.9679985 C31.0573326,61.3439985 30.9426659,61.7333318 30.8119992,62.1239984 C30.5359992,62.9839984 30.3066659,63.8479984 30.0786659,64.7239984 C29.9426659,65.2239984 29.8599993,65.7439984 29.7506659,66.2493317 C29.6666659,66.634665 29.5986659,67.0199983 29.5306659,67.4053316 C29.3693326,68.3279983 29.2293326,69.2493316 29.0933326,70.1719982 C29.0266659,70.7186649 28.9479993,71.2706649 28.9119993,71.8173315 C28.8746659,72.4946649 28.8026659,73.1773315 28.8173326,73.8479982 C28.8226659,74.2653315 28.8279993,74.6813315 28.8386659,75.0986648 C28.8439993,75.3906648 28.8279993,75.6919981 28.8546659,75.9839981 C28.9213326,76.6719981 28.9786659,77.3639981 29.0413326,78.051998 C29.1399993,78.6973314 29.2399993,79.3533313 29.3386659,79.999998 C29.4733326,80.8853313 29.7186659,81.7706646 29.9693326,82.6293313 C30.2453326,83.5879979 30.5839992,84.5306646 30.9639992,85.4573312 C30.9533326,85.4426645 30.9479992,85.4266645 30.9373326,85.4053312 C30.9479992,85.4266645 30.9533326,85.4426645 30.9639992,85.4626645 C30.9999992,85.5466645 31.0306659,85.6346645 31.0679992,85.7186645 C31.0359992,85.6399979 31.0053326,85.5626645 30.9733326,85.4839979 C31.6719992,87.0826645 32.5839992,88.5719978 33.6039992,89.9839978 C34.1879991,90.7293311 34.7653325,91.4839977 35.4066658,92.1866644 C35.8226658,92.6399977 36.2346658,93.093331 36.6453324,93.5466643 C37.1039991,94.0466643 37.6093324,94.5146643 38.0986657,94.9786643 C38.7026657,95.5466643 39.343999,96.0679976 39.9946657,96.5773309 C41.895999,97.9893309 43.9893322,99.1453309 46.1666655,100.077331 C48.2639988,100.933331 50.4386654,101.601331 52.6746653,101.951997 C52.6879987,101.954664 52.6999987,101.955997 52.713332,101.957331 C52.7199987,101.957331 52.7239987,101.957331 52.729332,101.957331 C52.729332,101.957331 52.7346653,101.957331 52.7399987,101.957331 C53.6359987,102.073331 54.5266653,102.130664 55.4266653,102.155997 C55.9786653,102.177331 56.5359986,102.207997 57.0933319,102.207997 C58.3799985,102.207997 59.6666652,102.207997 60.9479985,102.191997 C62.0306651,102.182664 63.1146651,102.139997 64.1973317,102.087997 C64.4386651,102.075997 64.6799984,102.059997 64.9199984,102.046664 C65.194665,101.921331 65.4693317,101.797331 65.738665,101.670664 C66.3013317,101.403997 66.8679983,101.170664 67.4359983,100.925331 C68.4573316,100.487997 69.4519983,99.9879975 70.4626649,99.5253308 C71.4519982,99.0666642 72.3999982,98.5146642 73.3426648,97.9666642 C74.1986648,97.4759976 75.0546648,96.9599976 75.8719981,96.3999976 C76.0239981,96.2679976 76.1653314,96.1306643 76.2973314,95.9786643 C76.3306648,95.9266643 76.3613314,95.8746643 76.3879981,95.8213309 C76.3986648,95.7866643 76.4079981,95.7519976 76.4159981,95.7173309 C76.4319981,95.4119976 76.4186648,95.1159976 76.3853314,94.8119976 C76.3493314,94.5666643 76.3053314,94.3239976 76.2439981,94.081331 C76.1853314,93.8519977 76.0946648,93.629331 76.0133314,93.4039977 C75.8919981,93.2146643 75.7813314,93.0159977 75.6506648,92.833331 C75.2973315,92.421331 74.9066648,92.0466644 74.4839981,91.7026644 C73.8066648,91.1973311 73.0679982,90.7706644 72.2973315,90.4266644 C71.3279982,90.0519977 70.3333316,89.7959978 69.3119983,89.6146644 C68.9639983,89.5773311 68.614665,89.5626644 68.2599983,89.5826644 C68.182665,89.6039978 68.1039983,89.6199978 68.026665,89.6453311 C68.0213316,89.6453311 68.0213316,89.6453311 68.0213316,89.6453311 C67.958665,89.7026644 67.906665,89.7653311 67.8493316,89.8226644 C67.2399983,90.6813311 66.6933317,91.5986644 65.942665,92.353331 C65.3173317,92.989331 64.5306651,93.437331 63.7133317,93.765331 C62.7759984,94.1506643 61.8066651,94.3279976 60.8026651,94.4426643 C59.2346652,94.629331 57.6719986,94.453331 56.1199986,94.233331 C55.7973319,94.1866643 55.4586653,94.161331 55.1399986,94.093331 C54.693332,93.9999976 54.2506653,93.905331 53.8026653,93.8066643 C52.073332,93.4426643 50.3853321,92.801331 48.8493321,91.9319977 C47.9839988,91.4426644 47.1613322,90.8799977 46.3693322,90.2813311 C45.5213322,89.6346644 44.7079989,88.9373311 44.0106656,88.1239978 C42.6879989,86.5773312 41.8746656,84.6093312 41.1773323,82.7239979 C41.0573323,82.3906646 40.9586656,82.0466646 40.843999,81.707998 C40.7546656,81.4213313 40.6506657,81.1346646 40.567999,80.843998 C39.7293323,77.9319981 38.843999,74.9159981 39.2133324,71.8533315 C39.463999,69.7546649 40.2866657,67.7493316 41.3066656,65.9159984 C41.775999,65.0719984 42.2973323,64.2599984 42.8066656,63.4426651 C43.5786656,62.2079984 44.4173322,61.0146651 45.2399989,59.8173318 C45.7506655,59.0773319 46.3386655,58.3799985 46.9319988,57.7079986 C47.6306655,56.9373319 48.4213321,56.2493319 49.2919988,55.6773319 C50.0786654,55.1559986 50.9733321,54.8119986 51.8639987,54.5106653 C52.489332,54.301332 53.125332,54.129332 53.765332,53.973332 C54.197332,53.869332 54.625332,53.765332 55.0519986,53.661332 C55.9533319,53.4426653 56.8799986,53.3119987 57.7973319,53.1919987 C59.9893318,52.921332 62.1453318,53.505332 64.1146651,54.4319986 C64.9893317,54.8439986 65.8173317,55.3746653 66.5839983,55.9626653 C66.9839983,56.2706653 67.374665,56.5933319 67.7453316,56.9373319 C68.1719983,57.3386652 68.530665,57.8013319 68.8853316,58.2653319 C69.4893316,59.0519985 70.0213316,59.8799985 70.4586649,60.7653318 C70.9533316,61.7706651 71.3279982,62.8906651 71.3119982,64.0253317 C71.2919982,65.0719984 70.8026649,66.014665 70.0786649,66.7493317 C69.7239983,67.1093317 69.2546649,67.3799983 68.7919983,67.5719983 C68.218665,67.8173316 67.6613316,67.978665 67.0413317,68.066665 C66.0519983,68.2133316 65.0413317,68.218665 64.0413317,68.1813316 C63.2919984,68.1559983 62.5466651,68.114665 61.7973318,68.066665 C61.0306651,68.0199983 60.2653318,67.9053316 59.5053318,67.8119983 C59.1879985,67.7759983 58.8693319,67.7293316 58.5519985,67.6813316 C58.4919985,67.6733316 58.4306652,67.6653316 58.3693319,67.658665 C58.3746652,67.6599983 58.3799985,67.6599983 58.3853319,67.6613316 C58.3719985,67.6613316 58.3599985,67.658665 58.3493319,67.6573316 C58.3439985,67.6573316 58.3386652,67.6559983 58.3333319,67.6559983 C58.3266652,67.654665 58.3199985,67.6533316 58.3119985,67.6519983 C58.2959985,67.650665 58.2799985,67.6493316 58.2653319,67.6453316 C58.2679985,67.646665 58.2706652,67.646665 58.2746652,67.646665 C58.2653319,67.6453316 58.2573319,67.6439983 58.2493319,67.642665 C58.2519985,67.6439983 58.2546652,67.6439983 58.2573319,67.6453316 C57.8693319,67.5973316 57.4719986,67.562665 57.0839986,67.5773316 C57.0519986,67.6919983 57.0266652,67.8119983 57.0053319,67.9319983 C56.9173319,68.666665 56.8599986,69.4053316 56.8119986,70.1453316 C56.7186652,71.7546649 56.5733319,73.3906648 56.7133319,74.9999981 C56.7546652,75.2653315 56.8026652,75.5199981 56.8693319,75.7759981 C58.4999985,76.2079981 60.1253318,76.6506648 61.7706651,77.0253314 C63.2706651,77.3693314 64.786665,77.6613314 66.302665,77.8799981 C66.3333317,77.8853314 66.3599983,77.8853314 66.3853317,77.8906647 L66.3799983,77.8906647 C66.390665,77.8906647 66.4013317,77.8959981 66.406665,77.8959981 C66.406665,77.8959981 66.406665,77.8959981 66.4013317,77.8906647 C66.406665,77.8959981 66.4119983,77.8959981 66.4119983,77.8959981 C66.4159983,77.8959981 66.418665,77.8959981 66.422665,77.8959981 C66.4453317,77.8999981 66.470665,77.8999981 66.4973317,77.9039981 C66.4919983,77.9026647 66.486665,77.8999981 66.478665,77.8999981 C66.4893317,77.8999981 66.4999983,77.9053314 66.510665,77.9053314 L66.5053317,77.9053314 C66.526665,77.9106647 66.5519983,77.9106647 66.5733317,77.9159981 C66.5573317,77.9159981 66.546665,77.9106647 66.530665,77.9106647 C66.5719983,77.9173314 66.6119983,77.9213314 66.6533317,77.9266647 C66.6559983,77.9266647 66.6599983,77.9266647 66.6613317,77.9266647 C66.6559983,77.9266647 66.6453317,77.9266647 66.6359983,77.9213314 C67.2079983,78.0053314 67.786665,78.0773314 68.3639983,78.155998 C68.3439983,78.1506647 68.322665,78.1506647 68.302665,78.1453314 C68.3373316,78.1506647 68.366665,78.1546647 68.4013316,78.159998 C68.4053316,78.1613314 68.4093316,78.1613314 68.4119983,78.1613314 C68.4319983,78.1666647 68.4479983,78.1666647 68.4693316,78.171998 C68.4613316,78.1693314 68.454665,78.167998 68.446665,78.167998 C68.4519983,78.167998 68.458665,78.1693314 68.4639983,78.171998 C68.4653316,78.171998 68.4679983,78.171998 68.4693316,78.171998 C68.4733316,78.171998 68.4773316,78.171998 68.4839983,78.171998 C68.562665,78.1813314 68.6399983,78.191998 68.7186649,78.2026647 C68.6453316,78.191998 68.5679983,78.1813314 68.494665,78.171998 C69.7919983,78.3226647 71.0986649,78.4573314 72.4066649,78.571998 C72.9999982,78.6293314 73.5879982,78.6506647 74.1879981,78.6813314 C75.3226648,78.7333314 76.4533314,78.7493314 77.5839981,78.619998 C78.1973314,78.5106647 78.791998,78.3533314 79.3746647,78.139998 C79.6306647,78.019998 79.8746647,77.8906647 80.1093313,77.7293314 C80.2346647,77.6199981 80.3493313,77.5053314 80.4586647,77.3799981 C80.567998,77.2079981 80.6613313,77.0359981 80.7506646,76.8586647 C80.9173313,76.3813314 81.0133313,75.8919981 81.0853313,75.3893314 C81.1973313,74.4893315 81.303998,73.5866648 81.4066646,72.6866648 C81.515998,71.6973315 81.6506646,70.7026649 81.6933313,69.7133316 C81.7346646,68.7386649 81.791998,67.7599983 81.7453313,66.786665 L81.7453313,66.786665 Z M79.963998,17.6199996 L79.963998,17.6293329 C80.1133313,17.6506662 80.2653313,17.6719996 80.4186647,17.6959996 C80.2666647,17.6706662 80.115998,17.6453329 79.963998,17.6199996 Z M79.9066647,17.6106662 C79.919998,17.6173329 79.943998,17.6239996 79.947998,17.6239996 L79.9573313,17.6199996 C79.939998,17.6159996 79.9226647,17.6133329 79.9066647,17.6106662 L79.9066647,17.6106662 Z M79.8973313,17.6053329 C79.8973313,17.6053329 79.8986647,17.6066662 79.9013313,17.6079996 C79.9213313,17.6093329 79.943998,17.6106662 79.963998,17.6146662 C79.9413313,17.6106662 79.9186647,17.6079996 79.8973313,17.6053329 L79.8973313,17.6053329 Z M76.0213314,129.42133 L76.0226648,129.42133 C75.9813314,129.42533 75.9426648,129.430663 75.9039981,129.43733 C75.9026648,129.43733 75.9026648,129.43733 75.9013314,129.43733 C75.9413314,129.431997 75.9799981,129.426663 76.0213314,129.42133 L76.0213314,129.42133 Z M76.0573314,129.410663 C76.0079981,129.419997 75.9586648,129.427997 75.9093314,129.435997 C75.9533314,129.42933 75.9986648,129.422663 76.0426648,129.414663 L76.0573314,129.410663 Z M25.8293327,38.091999 L25.7653327,38.1866657 C25.9733327,37.9399991 26.1799993,37.6959991 26.3893327,37.4533324 C26.2013327,37.6653324 26.014666,37.8786657 25.8293327,38.091999 Z M25.8813327,38.0146657 L25.870666,38.0293324 C25.9159994,37.9706657 25.9599994,37.9119991 26.0053327,37.8533324 C25.9639994,37.9066657 25.922666,37.9613324 25.8813327,38.0146657 L25.8813327,38.0146657 Z M128.682663,72.4733315 C128.635997,73.1666648 128.603997,73.8586648 128.526663,74.5466648 C128.431997,75.3386648 128.338663,76.1239981 128.234663,76.9106647 C128.04133,78.379998 127.838663,79.847998 127.567997,81.3066646 C127.291997,82.7906646 126.994663,84.2759979 126.76533,85.7653312 C126.322664,88.5826645 126.046664,91.4426644 125.19333,94.177331 C124.96933,94.8999976 124.750664,95.6306643 124.494664,96.3439976 C124.22933,97.0986642 123.95333,97.8439976 123.650664,98.5879975 C123.327997,99.3799975 122.963997,100.150664 122.598664,100.921331 C122.33333,101.483997 122.030664,102.041331 121.71333,102.573331 C121.526664,102.874664 121.359997,103.197331 121.155997,103.489331 C120.91733,103.838664 120.67733,104.182664 120.43733,104.530664 C120.046664,105.093331 119.630664,105.645331 119.234664,106.202664 C118.38533,107.395997 117.567997,108.613331 116.702664,109.797331 C115.822664,110.999997 114.786664,112.093331 113.770664,113.182664 C112.806664,114.207997 111.879997,115.279997 110.859997,116.254664 C108.639997,118.374664 106.281331,120.354664 103.843997,122.223997 C102.693331,123.103997 101.442664,123.83333 100.193331,124.551997 C98.9786642,125.239997 97.7546642,125.90133 96.5466643,126.59333 C95.9266643,126.946663 95.3066643,127.30133 94.6826643,127.639997 C93.9999977,128.010663 93.2919977,128.327997 92.5786644,128.630663 C91.2653311,129.17733 89.9373311,129.67733 88.5986645,130.155997 C87.8386645,130.431997 87.0733312,130.687997 86.3026645,130.93733 C86.0466645,131.02133 85.7973312,131.087997 85.5359979,131.16133 C85.1666645,131.259997 84.8026645,131.379997 84.4266646,131.463997 C83.6933312,131.623997 82.9639979,131.790663 82.2239979,131.926663 C81.4893313,132.062663 80.7506646,132.182663 80.0106647,132.30133 C78.463998,132.551997 76.9119981,132.779997 75.3546648,132.978663 C73.9533315,133.155997 72.5413315,133.21333 71.1359982,133.234663 C70.9373316,133.234663 70.7399982,133.239997 70.5413316,133.239997 C69.3119983,133.239997 68.078665,133.187997 66.8493317,133.16133 C65.4213317,133.130663 63.9999984,132.967997 62.5733318,132.84933 C61.0839985,132.723997 59.6039985,132.510663 58.1399985,132.19733 C56.6773319,131.879997 55.2079986,131.567997 53.745332,131.24933 C50.5519987,130.562663 47.5879988,129.098663 44.6039989,127.83333 C43.3853322,127.33333 42.1719989,126.81733 40.9693323,126.279997 C39.8026657,125.76533 38.6666657,125.171997 37.5359991,124.57733 C36.1306658,123.843997 34.7079991,123.051997 33.4533325,122.087997 C32.7293325,121.530664 32.0573325,120.93733 31.4319992,120.270664 C30.9533326,119.759997 30.5213326,119.19733 30.0933326,118.634664 C29.8066659,118.26533 29.5306659,117.895997 29.2546659,117.52133 C29.1306659,117.415997 29.0106659,117.306664 28.8853326,117.202664 C28.6253326,116.978664 28.3493326,116.759997 28.098666,116.52133 C27.546666,116.00533 26.994666,115.499997 26.4733327,114.951997 C25.9213327,114.36933 25.3959994,113.779997 24.8693327,113.171997 C24.6306661,112.895997 24.4119994,112.593331 24.1879994,112.301331 C23.9733327,112.030664 23.7599994,111.765331 23.5679994,111.478664 C21.9426661,109.062664 20.4426662,106.535997 19.2919995,103.854664 C18.6719995,102.406664 18.1306662,100.931997 17.5986662,99.4466642 C17.1359996,98.1346642 16.7026662,96.8013309 16.3546663,95.4519976 C15.9786663,94.0146643 15.6306663,92.5719977 15.281333,91.1293311 C14.9479996,89.7759978 14.6506663,88.4053311 14.421333,87.0306645 C14.1559996,85.4626645 13.9319997,83.8906646 13.7759997,82.3066646 C13.625333,80.8226646 13.5266663,79.3386647 13.4319997,77.8479981 C13.2506663,75.0306648 13.1666663,72.2079982 13.3066663,69.3906649 C13.453333,66.426665 13.557333,63.4573317 13.8546663,60.5053318 C14.1399996,57.5879986 14.7239996,54.7026653 15.5359996,51.885332 C15.7399996,51.1919987 15.9373329,50.4946654 16.1506663,49.8066654 C16.3853329,49.0626654 16.6359996,48.3333321 16.8959996,47.5986655 C17.1559996,46.8639988 17.4999996,46.1506655 17.8119996,45.4373322 C17.9479996,45.1093322 18.1359995,44.7959989 18.2919995,44.4839989 C18.4319995,44.2079989 18.5626662,43.9373322 18.7079995,43.6666656 C19.4319995,42.3439989 20.1719995,41.0253323 20.9266661,39.7133323 C21.2813328,39.1093324 21.6506661,38.5106657 22.0266661,37.9213324 C22.1933328,37.6666657 22.3493328,37.4159991 22.5306661,37.1773324 C22.8439994,36.7546657 23.1399994,36.3066658 23.4839994,35.9053324 C24.3906661,34.8333325 25.3173327,33.7866658 26.3333327,32.8066658 C26.8693327,32.2906659 27.406666,31.7759992 27.9693326,31.2866659 C28.578666,30.7599992 29.2133326,30.2599992 29.8639993,29.7906659 C31.0626659,28.9266659 32.2866659,28.082666 33.4946658,27.2293327 C34.6719991,26.3999993 35.8546658,25.5773327 37.0679991,24.8013327 C38.259999,24.0359994 39.5213323,23.3853327 40.7706656,22.7186661 C42.1199989,22.0053328 43.5053322,21.3799995 44.9173322,20.8013328 C46.2186655,20.2706662 47.5466655,19.7959995 48.8546654,19.2906662 C50.2239987,18.7599995 51.573332,18.1973329 52.9479987,17.6866662 C53.5679987,17.4533329 54.2239986,17.2813329 54.8639986,17.0933329 C55.5053319,16.9053329 56.1453319,16.7293329 56.7813319,16.5253329 C58.1973319,16.0773329 59.6093318,15.6146663 61.0519985,15.2706663 C61.7919985,15.093333 62.5626651,14.9999996 63.3173318,14.905333 C64.0679984,14.8119996 64.822665,14.729333 65.578665,14.6506663 C66.994665,14.4999996 68.406665,14.3386663 69.8279983,14.2186663 C70.5413316,14.1559996 71.2706649,14.1399996 71.9893315,14.1146663 C72.6559982,14.093333 73.3226648,14.0719996 73.9946648,14.0666663 C74.7759981,14.0666663 75.5573314,14.0666663 76.3386648,14.077333 C77.0679981,14.0879996 77.7919981,14.1506663 78.5213314,14.2079996 C78.9266647,14.233333 79.3333313,14.3119996 79.7293313,14.369333 C80.0786647,14.421333 80.4266647,14.457333 80.7706646,14.5199996 C81.535998,14.6559996 82.2973313,14.7906663 83.0573313,14.9426663 C83.6879979,15.0666663 84.3173312,15.1866663 84.9479979,15.317333 C85.6199979,15.4533329 86.3066645,15.5773329 86.9693312,15.7546663 C88.4426645,16.1453329 89.8746644,16.6293329 91.3173311,17.1239996 C92.005331,17.3639996 92.693331,17.6199996 93.3639977,17.9053329 C93.7706643,18.0826662 94.1826643,18.2599995 94.5879976,18.4373329 C94.9319976,18.5826662 95.2546643,18.7759995 95.5839976,18.9426662 C96.8333309,19.5826662 97.9946642,20.3959995 99.1453309,21.1973328 C100.374664,22.0519994 101.587997,22.9266661 102.791997,23.8226661 C103.458664,24.3226661 104.093331,24.8693327 104.745331,25.390666 C105.259997,25.8119994 105.765331,26.254666 106.270664,26.6973327 C107.411997,27.686666 108.562664,28.6773326 109.713331,29.6613326 C110.234664,30.1039992 110.750664,30.5519992 111.254664,31.0106659 C111.838664,31.5359992 112.379997,32.1039992 112.926664,32.6666658 C113.426664,33.1773325 113.890664,33.7239992 114.363997,34.2546658 C114.770664,34.7133325 115.166664,35.1773325 115.562664,35.6453324 C116.55733,36.8173324 117.54133,37.999999 118.431997,39.2546657 C119.239997,40.3906657 120.010664,41.551999 120.72933,42.7439989 C121.139997,43.4213322 121.526664,44.1039989 121.906664,44.7959989 C122.259997,45.4373322 122.546664,46.1146655 122.854664,46.7866655 C123.499997,48.2079988 123.994664,49.7079988 124.510664,51.1866654 C124.96933,52.4999987 125.395997,53.8279987 125.822664,55.1559986 C126.24533,56.4533319 126.635997,57.7813319 126.942663,59.1093319 C127.114663,59.8333318 127.28133,60.5519985 127.42133,61.2866651 C127.562663,62.0199984 127.69733,62.7546651 127.81733,63.4946651 C128.078663,65.0773317 128.306663,66.666665 128.478663,68.2599983 C128.562663,69.0146649 128.60933,69.7706649 128.655997,70.5306649 C128.671997,70.7906649 128.67733,71.0466649 128.67733,71.3066649 C128.67733,71.6919982 128.707997,72.0879982 128.682663,72.4733315" id="path124" transform="translate(70.964619, 73.653331) scale(-1, 1) rotate(-180.000000) translate(-70.964619, -73.653331) "></path>
            <path d="M30.9639992,61.8279985 C30.9639992,61.8279985 30.9639992,61.8279985 30.9639992,61.8226651 C30.9693326,61.8333318 30.9693326,61.8439985 30.9733326,61.8493318 C30.9693326,61.8439985 30.9693326,61.8333318 30.9639992,61.8279985" id="path126" transform="translate(30.968666, 61.835998) scale(-1, 1) rotate(-180.000000) translate(-30.968666, -61.835998) "></path>
        </g>
    </g>
</svg>