<?xml version="1.0" encoding="UTF-8"?>
<svg width="129px" height="129px" viewBox="0 0 129 129" version="1.1" xmlns="http://www.w3.org/2000/svg" xmlns:xlink="http://www.w3.org/1999/xlink">
    <title>half_circle_1</title>
    <g id="Page-1" stroke="none" stroke-width="1" fill="none" fill-rule="evenodd">
        <g id="data_circle" transform="translate(0.989515, 1.383349)" stroke="#0C0C0C" stroke-width="1.3333333">
            <g id="half_circle_1" transform="translate(0.000000, 0.000000)">
                <g id="g882" transform="translate(63.423832, 63.423332) scale(-1, 1) rotate(-180.000000) translate(-63.423832, -63.423332) ">
                    <path d="M108.271664,18.5759995 C83.5036646,-6.19199985 43.3449989,-6.19199985 18.5769995,18.5759995 C-6.19233318,43.3439989 -6.19233318,83.5013312 18.5769995,108.270664 C43.3449989,133.038663 83.5036646,133.038663 108.271664,108.270664 C133.039663,83.5013312 133.039663,43.3439989 108.271664,18.5759995 Z" id="path884"></path>
                </g>
                <g id="g886" transform="translate(63.423932, 63.423098) scale(-1, 1) rotate(-180.000000) translate(-63.423932, -63.423098) translate(16.042933, 16.042266)">
                    <path d="M80.884998,13.8769997 C62.3809984,-4.62566655 32.3809992,-4.62566655 13.8769997,13.8769997 C-4.62566655,32.3809992 -4.62566655,62.3796651 13.8769997,80.8836646 C32.3809992,99.3876642 62.3809984,99.3876642 80.884998,80.8836646 C99.3876642,62.3796651 99.3876642,32.3809992 80.884998,13.8769997 Z" id="path888"></path>
                </g>
                <g id="g890" transform="translate(63.424198, 63.423198) scale(-1, 1) rotate(-180.000000) translate(-63.424198, -63.423198) translate(32.519533, 32.517866)">
                    <path d="M52.757332,9.05199977 C40.687999,-3.01733326 21.1199995,-3.01733326 9.05199977,9.05199977 C-3.01733326,21.1213328 -3.01733326,40.6893323 9.05199977,52.7586653 C21.1199995,64.8279984 40.687999,64.8279984 52.757332,52.7586653 C64.826665,40.6893323 64.826665,21.1213328 52.757332,9.05199977 Z" id="path892"></path>
                </g>
                <g id="g894" transform="translate(63.424198, 63.423198) scale(-1, 1) rotate(-180.000000) translate(-63.424198, -63.423198) translate(47.363532, 47.362532)">
                    <path d="M27.4173326,4.70399988 C21.1453328,-1.56799996 10.9759997,-1.56799996 4.70399988,4.70399988 C-1.56799996,10.9759997 -1.56799996,21.1453328 4.70399988,27.4173326 C10.9759997,33.6893325 21.1453328,33.6893325 27.4173326,27.4173326 C33.6893325,21.1453328 33.6893325,10.9759997 27.4173326,4.70399988 Z" id="path896"></path>
                </g>
            </g>
        </g>
    </g>
</svg>