<?xml version="1.0" encoding="UTF-8"?>
<svg width="149px" height="146px" viewBox="0 0 149 146" version="1.1" xmlns="http://www.w3.org/2000/svg" xmlns:xlink="http://www.w3.org/1999/xlink">
    <title>instagram_icon</title>
    <g id="Page-1" stroke="none" stroke-width="1" fill="none" fill-rule="evenodd">
        <g id="instagram_icon" transform="translate(0.089090, 0.661391)" fill="#282727" fill-rule="nonzero">
            <path d="M144.601571,78.9217963 C144.473571,78.1551297 144.261571,77.4137964 143.977571,76.6924631 C143.296237,75.1831298 142.457571,73.7457965 141.760238,72.2417965 C141.166904,70.9711299 140.692238,69.6631299 140.406904,68.2884633 C140.333571,67.9391299 140.234904,67.5857966 140.182904,67.23113 C140.114904,66.7684633 140.046904,66.3044633 139.978904,65.8404633 C139.754904,64.28313 139.688238,62.7111301 139.682904,61.1377968 C139.677571,60.4391301 139.749571,59.7311301 139.812238,59.0337968 C139.874904,58.3297968 139.958904,57.6271302 140.030904,56.9244636 C140.226904,55.1191303 140.358904,53.3004636 140.166904,51.4911304 C140.046904,50.769797 139.866904,50.0711304 139.606904,49.3831304 C139.377571,48.8977971 139.105571,48.4444638 138.790904,48.0071304 C138.097571,47.1577971 137.357571,46.3431305 136.640238,45.5177972 C136.328238,45.1591305 136.036238,44.7724639 135.734904,44.4031305 C134.854904,43.3204639 134.134904,42.1631306 133.620238,40.872464 C133.410904,40.356464 133.218904,39.840464 133.041571,39.3151307 C132.890904,38.872464 132.792238,38.408464 132.688238,37.9497974 C132.582904,37.512464 132.521571,37.0591307 132.442904,36.6164641 C132.318904,35.9391307 132.122904,35.2777974 131.873571,34.6404641 C131.564238,33.9751308 131.232238,33.3404641 130.808238,32.7377975 C129.362904,30.9551309 127.546905,29.5711309 125.768238,28.1457976 C125.552238,27.9817976 125.337571,27.8191309 125.124238,27.6537976 C124.861571,27.455131 124.598905,27.2577976 124.336238,27.0564643 C124.392238,27.1004643 124.448238,27.1444643 124.505571,27.1897976 C124.120238,26.9084643 123.734905,26.6324643 123.344238,26.3617976 C122.926905,26.0804643 122.620238,25.7417977 122.484238,25.247131 C122.366905,24.8297977 122.414905,24.3817977 122.592238,23.987131 C120.493571,22.4857977 118.154905,21.3684644 115.890905,20.1564645 C115.349572,19.8697978 114.797572,19.5991312 114.270905,19.2911312 C113.292238,18.7177978 112.349572,18.1457979 111.453572,17.4471312 C110.858905,16.9897979 110.338905,16.4791312 109.864238,15.8897979 C109.525572,15.4737979 109.213572,15.0417979 108.896238,14.6044646 C108.449572,13.9951313 108.022905,13.3684646 107.569572,12.7591313 C107.105572,12.1911313 106.617572,11.6684647 106.057572,11.1991314 C105.166905,10.5684647 104.197572,10.1111314 103.202905,9.68446473 C102.000239,9.20846474 100.790905,8.75913142 99.5522386,8.38046476 C98.9015719,8.1817981 98.2495719,8.02579811 97.5829053,7.86446478 C97.0109053,7.73113145 96.425572,7.64446478 95.8442387,7.54313145 C95.185572,7.46179812 94.525572,7.38446479 93.8642387,7.32313146 C93.1509054,7.25513146 92.4375721,7.19779813 91.7295721,7.11379813 C90.1255721,6.9324648 88.4949055,6.7604648 86.9429056,6.30179815 C85.5109056,5.86979816 84.140239,5.24979818 82.7029057,4.82313152 C81.2869057,4.40046486 79.8549057,4.01513154 78.3855724,3.78046488 C78.1109058,3.74046488 77.8335725,3.69513155 77.5549058,3.65113155 C76.7002391,3.56579822 75.8442392,3.52846489 74.9842392,3.55113155 C74.5682392,3.56179822 74.1509059,3.59913155 73.7402392,3.62979822 C73.1869059,3.66846488 72.6415726,3.73513155 72.0949059,3.80046488 C70.862906,4.01913154 69.6455727,4.2537982 68.4375727,4.57779819 C67.874906,4.72846486 67.3175727,4.89513152 66.7549061,5.05113151 C66.1669061,5.21379818 65.5629061,5.39513151 64.9589061,5.50446484 C63.5882395,5.74979816 62.1829062,5.99913149 60.7869062,5.99513149 C60.1455729,5.98979816 59.5002396,5.97913149 58.8589063,5.95779816 C58.0775729,5.93513149 57.2909063,5.91113149 56.5109063,5.98713149 C55.5749063,6.15779815 54.6869064,6.46046481 53.8055731,6.81113147 C53.0802397,7.17779813 52.3775731,7.55513145 51.7189064,8.04046477 C49.6309065,9.70179806 47.7369065,11.589798 45.7551733,13.3751313 C45.0469066,14.0151313 44.2655733,14.5937979 43.45824,15.0991313 C42.5989067,15.6404646 41.64064,16.0364646 40.6874401,16.3804646 C39.8697067,16.6711312 39.0103734,16.8751312 38.1666401,17.0671312 C37.5103735,17.2231312 36.8489068,17.3591312 36.2030402,17.5617979 C35.5114402,17.7737979 34.8395735,18.0057979 34.1573069,18.2644645 C32.8057069,18.8511312 31.4661069,19.4871312 30.2630403,20.3431311 C29.7723737,20.7497978 29.324907,21.1937978 28.914507,21.6817978 C28.4051737,22.3844644 28.0223737,23.1391311 27.6447737,23.9164644 C27.2781071,24.827131 26.9390404,25.7417977 26.5833071,26.6564643 C26.3437071,27.2657976 26.0781071,27.8591309 25.8177071,28.4577976 C25.2499738,29.7657976 24.4166405,30.9631309 23.3541072,31.9111308 C22.4791738,32.6924642 21.4791739,33.2551308 20.4322406,33.7711308 C19.9843739,33.9897975 19.5259739,34.1924641 19.0885073,34.4217974 C17.8354406,35.0777974 16.6010407,35.7577974 15.460374,36.5977974 C14.717174,37.2057974 14.0458407,37.868464 13.4374407,38.6111307 C12.8718407,39.404464 12.3395741,40.1977973 11.9317074,41.0844639 C11.6239741,41.9057973 11.4155741,42.7404639 11.2759741,43.6071306 C11.1557075,44.6471305 11.0931741,45.6924638 11.0103741,46.7391305 C10.9010408,48.0884638 10.7499741,49.4377971 10.5259741,50.7751304 C10.4218408,51.3951304 10.2811741,52.009797 10.1145075,52.613797 C9.90624082,53.353797 9.60410749,54.061797 9.2969075,54.7657969 C8.71357418,56.1191302 7.81770754,57.2657969 6.8802409,58.3897968 C6.28170758,59.1084635 5.65104093,59.7937968 5.06664094,60.5191301 C4.62757428,61.1071301 4.23224096,61.7177968 3.9087743,62.3751301 C3.78904097,62.7071301 3.70357431,63.0444634 3.64010764,63.3924634 C3.57544098,64.1177967 3.58637431,64.84713 3.66397431,65.5764633 C3.84584097,66.6897966 4.14730763,67.7697966 4.56970762,68.8151299 C5.04064094,69.8377966 5.61824093,70.8071299 6.17704091,71.7857965 C6.6614409,72.6244632 7.15624089,73.4577965 7.62490754,74.3071298 C8.16144086,75.2804631 8.63024085,76.3017964 9.00517418,77.348463 C9.39064083,78.4271297 9.56770749,79.5511297 9.64064083,80.692463 C9.70824082,81.8284629 9.5521075,82.9897962 9.39584083,84.1137962 C9.29157417,84.8844629 9.16664084,85.6457962 9.03637417,86.4057961 C8.90624084,87.1817961 8.69784085,87.9471294 8.51037419,88.7084628 C8.10104086,90.361796 7.49064088,91.9764627 7.21557422,93.657796 C7.15624089,94.2284626 7.15210756,94.7884626 7.20677422,95.3604626 C7.38597422,96.3631292 7.69784087,97.3377959 8.0759742,98.2844625 C8.48744086,99.2231292 8.96304084,100.108462 9.57024083,100.933796 C10.3817075,101.936462 11.2797075,102.863129 12.1874408,103.775129 C12.6458408,104.239129 13.1041074,104.703129 13.5469074,105.181796 C13.9895741,105.656462 14.4010407,106.145796 14.8177074,106.635129 C15.3177074,107.217796 15.770774,107.853796 16.1770407,108.504462 C16.6093073,109.208462 16.9114406,109.973796 17.2082406,110.739129 C17.6302406,111.832462 17.8593073,112.968462 18.0781073,114.113795 C18.1822406,114.660462 18.2499739,115.212462 18.3333073,115.760462 C18.5245073,117.012462 18.7469073,118.240462 19.2046406,119.420462 C19.4073072,119.848462 19.6469072,120.243129 19.9265072,120.628462 C20.5489072,121.389795 21.2745072,122.051129 22.0415738,122.665795 C22.9087738,123.315129 23.8202405,123.917795 24.8073071,124.369795 C25.2051738,124.552462 25.6030404,124.735129 26.0015738,124.917795 C26.8734404,125.263129 27.7494404,125.591129 28.6354404,125.911128 C29.5259737,126.228462 30.4374403,126.515128 31.333307,126.823128 C31.5311736,126.889795 31.7239736,126.984462 31.9218403,127.061795 C32.2135736,127.181795 32.5259736,127.285795 32.8073069,127.427128 C33.2082402,127.624462 33.6302402,127.801795 34.0155736,128.031128 C34.9687735,128.593795 35.9010402,129.165795 36.7811735,129.848462 C36.6978401,129.780462 36.6093068,129.717795 36.5259735,129.651128 C36.6978401,129.780462 36.8645068,129.911128 37.0311735,130.041795 C37.1197068,130.108462 37.2030401,130.171128 37.2863735,130.233795 C37.2901068,130.236462 37.2931735,130.240462 37.2958401,130.243128 C37.2369068,130.197795 37.1786401,130.153795 37.1197068,130.108462 C37.7863735,130.624462 38.4114401,131.187128 39.0259734,131.769795 C39.6145067,132.332462 40.1458401,132.952462 40.6822401,133.567128 C41.73544,134.759128 42.60624,136.105795 43.5385066,137.387128 C43.6499733,137.529795 43.76664,137.664462 43.88064,137.801795 C44.0359733,137.897795 44.1797066,138.008462 44.3385066,138.100462 C44.9447733,138.448462 45.5937066,138.729795 46.2306399,139.013795 C46.6931732,139.191128 47.1473066,139.351128 47.6354399,139.460461 C48.0297065,139.552461 48.4375732,139.609795 48.8375732,139.665795 C50.2669065,139.845795 51.7295731,140.020461 53.1669064,139.875128 C53.7429064,139.779128 54.313573,139.660461 54.885573,139.533795 C55.6882397,139.351128 56.4949063,139.205795 57.317573,139.116461 C57.9949063,139.039128 58.6882396,139.085795 59.3642396,139.163128 C60.2029062,139.257795 61.0255729,139.413795 61.8549062,139.585795 C63.2762395,139.877795 64.7029061,140.163128 66.1349061,140.419128 C67.5575727,140.673795 68.958906,141.017795 70.358906,141.356461 C71.2975726,141.589795 72.2402393,141.781795 73.1949059,141.928461 C74.3522392,142.044461 75.4962392,142.119128 76.6522392,141.993795 C77.1922391,141.893795 77.7122391,141.751128 78.2269058,141.556461 C79.5629057,140.951128 80.840239,140.212461 82.0935723,139.460461 C82.6095723,139.153795 83.120239,138.835128 83.656239,138.564462 C84.5575723,138.116462 85.5162389,137.747128 86.5002389,137.517795 C87.9589055,137.173795 89.4589055,137.263128 90.9375721,137.381795 C92.2135721,137.487128 93.5055721,137.653795 94.7869054,137.627128 C95.1882387,137.621795 95.593572,137.611128 95.9949053,137.605795 C96.333572,137.600462 96.6722387,137.553795 97.005572,137.523128 C97.545572,137.480462 98.0775719,137.407128 98.6122386,137.335128 C100.748239,137.029795 102.952238,136.821795 104.968238,136.032462 C105.516238,135.777795 106.034905,135.479128 106.529572,135.129795 C107.300238,134.513795 107.996238,133.813795 108.702905,133.127128 C110.082905,131.793795 111.541572,130.517795 113.328238,129.772462 C114.677572,129.211128 116.109571,128.908462 117.525571,128.569795 C118.826905,128.263128 120.132238,127.941795 121.373571,127.455128 C122.078905,127.132462 122.733571,126.739128 123.354905,126.277795 C124.344238,125.484462 125.242905,124.583129 126.041571,123.595129 C126.572238,122.876462 127.001571,122.117795 127.373571,121.303129 C127.916238,119.967129 128.441571,118.605795 129.192238,117.372462 C129.926904,116.163129 130.849571,115.059129 131.749571,113.971129 C133.105571,112.337795 134.514904,110.753796 135.845571,109.100462 C136.070904,108.800462 136.294904,108.500462 136.516238,108.205796 C137.078904,107.453796 137.544238,106.612462 137.933571,105.759129 C138.270904,104.903129 138.508238,104.029796 138.657571,103.123129 C138.830904,101.653796 138.817571,100.168462 138.964238,98.6951292 C139.005571,98.2364625 139.041571,97.7777959 139.114904,97.3204625 C139.177571,96.9297959 139.218904,96.5284626 139.306904,96.1431292 C139.478904,95.3671293 139.672238,94.6057959 139.885571,93.845796 C140.265571,92.4964627 140.849571,91.2004627 141.385571,89.9137961 C141.964238,88.5391294 142.530904,87.1631295 143.068237,85.7724628 C143.685571,84.1844629 144.340237,82.5764629 144.616237,80.884463 C144.673571,80.2297963 144.666904,79.5777963 144.601571,78.9217963 L144.601571,78.9217963 Z M132.853571,117.668462 C132.842904,117.680462 132.832238,117.692462 132.822904,117.705795 C132.817571,117.711129 132.812238,117.715129 132.812238,117.720462 C132.826904,117.703129 132.838904,117.685795 132.853571,117.668462 L132.853571,117.668462 Z M147.432237,83.6217962 C146.550904,86.2204628 145.458904,88.7511294 144.389571,91.2751294 C143.924237,92.3911293 143.489571,93.5124626 143.104237,94.6631293 C142.734904,95.7524626 142.533571,96.8951292 142.352238,98.0284625 C142.286904,98.7391292 142.230904,99.4484625 142.188238,100.157796 C142.145571,100.867129 142.109571,101.569796 142.046904,102.272462 C141.989571,102.913796 141.916238,103.548462 141.812238,104.184462 C141.634904,105.263129 141.249571,106.277796 140.822904,107.277796 C140.270904,108.564462 139.448238,109.684462 138.609571,110.788462 C137.692238,111.987129 136.692238,113.121795 135.702904,114.263129 C134.769571,115.340462 133.846904,116.427129 132.954904,117.541795 C132.461571,118.220462 131.981571,118.895129 131.582904,119.632462 C131.273571,120.196462 131.030904,120.795129 130.780238,121.392462 C130.793571,121.361795 130.805571,121.329795 130.817571,121.299129 C130.801571,121.336462 130.786904,121.375129 130.772238,121.412462 C130.733571,121.503129 130.694904,121.593795 130.656238,121.684462 C130.692238,121.600462 130.726904,121.520462 130.761571,121.437795 C130.514904,122.043129 130.270904,122.652462 130.000238,123.247129 C129.494904,124.367129 128.776238,125.351129 127.984238,126.288462 C126.786905,127.705795 125.369571,128.981795 123.754905,129.892462 C122.218905,130.757795 120.468238,131.200462 118.760238,131.596462 C117.296238,131.932462 115.809572,132.221795 114.405572,132.767128 C113.788238,133.059128 113.216238,133.428462 112.665572,133.832462 C111.404238,134.853795 110.326905,136.063128 109.098905,137.121795 C108.354905,137.763128 107.552238,138.320462 106.666905,138.752462 C105.634905,139.257795 104.536238,139.600461 103.416238,139.824461 C102.593572,139.991128 101.760239,140.116461 100.932239,140.241795 C100.145572,140.361795 99.3642386,140.481795 98.5775719,140.591128 C97.7349053,140.705795 96.8962386,140.793795 96.0522387,140.872461 C95.6722387,140.908461 95.2709054,140.892461 94.885572,140.903128 C94.5629054,140.908461 94.2402387,140.892461 93.9162387,140.881795 C93.1309054,140.845795 92.3549054,140.788461 91.5735721,140.720461 C90.2549055,140.603128 88.9389055,140.455128 87.6162389,140.587128 C86.8882389,140.712461 86.1949056,140.927128 85.5109056,141.195128 C84.5655723,141.625795 83.684239,142.176461 82.7709057,142.673795 C82.1149057,143.033795 81.4589057,143.381795 80.7869057,143.711128 C80.1562391,144.023128 79.5162391,144.315128 78.8549058,144.559128 C77.8122391,144.944461 76.6722392,145.075128 75.5735725,145.105795 C75.4629058,145.108461 75.3509059,145.111128 75.2402392,145.111128 C74.3589059,145.111128 73.4575726,145.023128 72.5882393,144.897795 C71.8909059,144.799128 71.1975726,144.689795 70.5055726,144.533795 C69.754906,144.367128 69.0055727,144.179128 68.2602394,143.991128 C66.8855727,143.653795 65.5002394,143.381795 64.1095728,143.111128 C62.3109062,142.756461 60.5455729,142.268461 58.7322396,141.979128 C58.3629063,141.952461 58.001573,141.933795 57.6349063,141.933795 C57.2642396,141.933795 56.8962396,141.969795 56.5282397,142.015128 C55.8482397,142.117795 55.165573,142.236461 54.4842397,142.320461 C53.8602397,142.395128 53.2215731,142.483128 52.5909064,142.448461 C51.8735731,142.519128 51.1562398,142.584461 50.4349065,142.584461 C50.2242398,142.584461 50.0135732,142.579128 49.8015732,142.567128 C49.0109065,142.520461 48.2239732,142.369795 47.4582399,142.165795 C46.5989066,141.941795 45.7811733,141.572461 44.9843733,141.192461 C43.7499733,140.608461 42.7817067,139.631128 41.9415734,138.573795 C41.32184,138.076462 40.7363734,137.539128 40.2030401,136.949795 C39.1093068,135.741795 38.0573068,134.507128 36.9895735,133.283128 C36.9130401,133.192462 36.8619735,133.089795 36.8259735,132.984462 C36.7879735,132.951128 36.7521068,132.916462 36.7135735,132.884462 C35.9322402,132.287128 35.1395735,131.723128 34.3021069,131.197795 C33.8177069,130.895128 33.3125069,130.624462 32.8073069,130.348462 C32.4259736,130.136462 32.0197069,129.969795 31.6249069,129.795128 C30.9671736,129.551128 30.3150403,129.327128 29.6458403,129.113795 C29.0155737,128.916462 28.3802404,128.728462 27.7499737,128.515128 C26.1197071,127.957795 24.5051738,127.359128 22.9582405,126.588462 C22.1041072,126.165795 21.3125072,125.640462 20.5469072,125.067129 C19.7030406,124.432462 18.8958406,123.744462 18.1822406,122.963129 C17.520774,122.244462 16.973974,121.432462 16.5885073,120.541795 C16.1354407,119.493795 15.8489073,118.421795 15.6302407,117.307129 C15.489574,116.567129 15.3697073,115.823129 15.229174,115.077795 C15.0193074,113.923129 14.7125074,112.787129 14.2833074,111.697796 C13.9291741,110.908462 13.5078407,110.176462 12.9958407,109.477796 C12.4702408,108.821796 11.9078408,108.192462 11.3229075,107.593796 C10.8021075,107.067129 10.2655741,106.561796 9.73957416,106.045796 C9.16664084,105.473796 8.59370752,104.911129 8.0415742,104.317796 C7.64584088,103.889796 7.26557422,103.463129 6.90104089,103.004462 C6.54690757,102.556462 6.21357425,102.093796 5.91144092,101.608462 C5.60410759,101.119129 5.3593076,100.588462 5.11970761,100.056462 C4.2135743,98.0671292 3.50517431,95.8844626 3.70824097,93.6711293 C3.81770764,92.437796 4.13024096,91.249796 4.45304096,90.0617961 C4.86450761,88.5564628 5.23437427,87.0471295 5.54157426,85.5151295 C5.62864093,85.0617962 5.68797426,84.6057962 5.75824092,84.1564629 C5.92290759,82.8017962 6.05357425,81.4511296 5.92184092,80.0871296 C5.79010759,79.332463 5.57077426,78.6097963 5.29637427,77.8977964 C4.62864095,76.3831297 3.76930764,74.9817964 2.95824099,73.5471298 C2.58330767,72.8897965 2.20824101,72.2391298 1.85410769,71.5777965 C1.12490771,70.2031299 0.588507719,68.7137966 0.281174394,67.18713 C-0.0156255989,65.6924633 -0.10415893,64.1617967 0.145841064,62.6511301 C0.390641058,61.1564634 1.14064104,59.8484635 2.04690768,58.6511302 C2.92490766,57.4897969 3.92810764,56.4324636 4.84317428,55.3004636 C5.11970761,54.9311303 5.38277427,54.5511303 5.62490759,54.1564636 C5.85464092,53.777797 6.04117425,53.3764636 6.21770758,52.9684636 C6.67650757,51.7871303 6.95824089,50.5724637 7.13904089,49.3191304 C7.30264088,47.9457971 7.39690755,46.5697971 7.49477421,45.1924638 C7.59890754,43.7391305 7.71877421,42.2804639 8.12490753,40.8751306 C8.39064086,39.952464 8.79690751,39.056464 9.26557417,38.2177974 C9.53117416,37.744464 9.85930749,37.312464 10.1770408,36.8697974 C10.5937075,36.2911307 11.0363741,35.7337974 11.5259741,35.2177974 C12.2187741,34.4897974 13.0207741,33.8644641 13.8281074,33.2751308 C14.286374,32.9471308 14.760374,32.6564642 15.249974,32.3751308 C15.5469073,32.2031308 15.8437073,32.0097975 16.1510407,31.8537975 C16.7969073,31.5204642 17.4426406,31.1924642 18.0989073,30.8804642 C18.9811739,30.4604642 19.8541072,30.0471309 20.6473072,29.4777976 C21.0041072,29.1777976 21.3322405,28.8564643 21.6369072,28.5071309 C22.2458405,27.6551309 22.6661072,26.7084643 23.0791738,25.7497977 C23.6291738,24.3137977 24.1447738,22.8644644 24.8177071,21.4791311 C25.1249071,20.8431311 25.4843738,20.2444645 25.9062404,19.6764645 C26.2603737,19.2031312 26.6354404,18.7604645 27.0521071,18.3377978 C27.4530404,17.9324645 27.9114404,17.5831312 28.369707,17.2337979 C29.1302403,16.6564646 29.9947737,16.2084646 30.838507,15.7657979 C31.4478403,15.4471313 32.0937069,15.1871313 32.7291736,14.9164646 C33.5729069,14.5511313 34.4322402,14.265798 35.3125069,13.9951313 C36.0051735,13.7751313 36.7291735,13.6351313 37.4426401,13.473798 C38.4469068,13.2444646 39.4369067,12.9764646 40.4005067,12.5991313 C41.21504,12.2231313 41.9729067,11.7711313 42.6911733,11.2364647 C43.9109066,10.2404647 45.0130399,9.11113141 46.1614399,8.04179811 C47.4843732,6.81779814 48.8282398,5.57779817 50.2922398,4.53113153 C51.2029065,3.88446488 52.2495731,3.46313155 53.2762397,3.0364649 C53.5775731,2.91113157 53.8962397,2.8284649 54.2029064,2.72313157 C55.213573,2.38446491 56.317573,2.26579825 57.3802396,2.26046492 C58.1509063,2.24979825 58.9269063,2.32313158 59.6975729,2.35913158 C60.4589062,2.39513158 61.2082395,2.38046491 61.9682395,2.35379825 C62.3122395,2.34179825 62.6562395,2.29779825 63.0002395,2.25513158 C63.3375728,2.19779825 63.6789061,2.14179825 64.0162395,2.08313159 C64.4015728,2.02046492 64.7815728,1.91113159 65.1615728,1.82313159 C65.8855728,1.65646493 66.5989061,1.43246494 67.3175727,1.22846494 C68.8015727,0.812464953 70.338906,0.495131628 71.8695726,0.296464966 C72.7135726,0.192464969 73.5522392,0.104464971 74.4015725,0.0417983059 C75.8802392,-0.0675350247 77.3549058,0.0471316391 78.8229058,0.275131633 C80.3495724,0.520464961 81.844239,0.875131618 83.3175723,1.33246494 C84.5989056,1.73379826 85.8335723,2.26579825 87.0829056,2.74446491 C88.2429055,3.19113156 89.4869055,3.41779822 90.7122388,3.59513155 C92.2029054,3.76046488 93.7029054,3.84446488 95.197572,3.99913154 C96.1669053,4.10446487 97.125572,4.23913153 98.0882386,4.38446486 C98.4015719,4.4377982 98.7135719,4.51513153 99.0215719,4.58313153 C99.3589053,4.65646486 99.6975719,4.71779819 100.030905,4.81779819 C101.500239,5.23379818 102.958905,5.68179816 104.374905,6.26046482 C104.906905,6.47913148 105.437572,6.68713147 105.958905,6.92179813 C107.005572,7.40046479 107.942905,8.01513144 108.828238,8.74446476 C109.634905,9.41113141 110.281572,10.2804647 110.890905,11.1191314 C111.208238,11.561798 111.510905,12.009798 111.817572,12.457798 C112.086905,12.8551313 112.356238,13.249798 112.637572,13.633798 C113.045572,14.137798 113.489572,14.5764646 113.992238,14.9884646 C115.041572,15.7537979 116.180238,16.3764646 117.328238,16.9897979 C118.254905,17.4844645 119.192238,17.9524645 120.130905,18.4324645 C121.098905,18.9271312 122.052238,19.4524645 122.989571,20.0044645 C123.978905,20.5831311 124.910905,21.2177978 125.786905,21.9524644 C126.778905,22.7777977 127.460238,23.879131 128.088238,24.991131 C128.393571,25.2217977 128.704238,25.4457977 129.008238,25.6804643 C129.941571,26.4017976 130.856238,27.1417976 131.724238,27.9391309 C132.150904,28.3297976 132.546904,28.7471309 132.948238,29.1631309 C133.374904,29.6057976 133.749571,30.1017976 134.125571,30.5911309 C134.489571,31.0644642 134.812238,31.6017975 135.062904,32.1484642 C135.478904,33.0804641 135.901571,34.0177975 136.109571,35.0231308 C136.224238,35.5751308 136.312238,36.1271307 136.406904,36.6844641 C136.580238,37.704464 136.897571,38.6791307 137.266904,39.6417973 C137.628238,40.4177973 138.069571,41.1377973 138.576238,41.8311306 C138.998904,42.3511306 139.421571,42.8684639 139.858904,43.3777972 C140.401571,44.0071305 140.953571,44.6324639 141.478904,45.2777972 C141.833571,45.7111305 142.166904,46.1591305 142.464238,46.6324638 C142.760237,47.1111305 142.968237,47.6431304 143.188237,48.1631304 C143.625571,49.2257971 143.792237,50.3724637 143.906904,51.5124637 C143.984237,52.2631303 143.994904,53.0284636 143.953571,53.777797 C143.932237,54.1844636 143.921571,54.5964636 143.885571,55.0017969 C143.729571,56.5124636 143.521571,58.0124635 143.358904,59.5231302 C143.202904,60.9444635 143.224237,62.3617967 143.276237,63.7884634 C143.292237,64.27113 143.333571,64.77913 143.394904,65.2604633 C143.460237,65.7524633 143.525571,66.24313 143.625571,66.73113 C143.697571,67.11113 143.776237,67.4964633 143.854904,67.8831299 C144.012237,68.6511299 144.276237,69.4044632 144.568237,70.1337966 C145.141571,71.3777965 145.764237,72.5964632 146.396237,73.8097965 C146.682904,74.3671298 146.942904,74.9351298 147.182904,75.5124631 C147.593571,76.5071297 147.849571,77.512463 147.984237,78.580463 C148.197571,80.2831296 147.978904,82.0017963 147.432237,83.6217962" id="path26" transform="translate(74.032445, 72.555564) scale(-1, 1) rotate(-180.000000) translate(-74.032445, -72.555564) "></path>
            <path d="M130.780238,23.6733327 C130.773571,23.6879994 130.768238,23.7039994 130.761571,23.7186661 C130.764238,23.7106661 130.768238,23.7013327 130.772238,23.6933327 C130.773571,23.6866661 130.777571,23.6799994 130.780238,23.6733327" id="path28" transform="translate(130.770904, 23.695999) scale(-1, 1) rotate(-180.000000) translate(-130.770904, -23.695999) "></path>
            <path d="M129.249571,119.55733 C129.169571,119.495997 129.088238,119.43733 129.008238,119.375997 C128.954905,119.334664 128.902905,119.290664 128.849571,119.24933 C128.978905,119.34933 129.114905,119.45333 129.249571,119.55733" id="path30" transform="translate(129.049571, 119.403330) scale(-1, 1) rotate(-180.000000) translate(-129.049571, -119.403330) "></path>
            <path d="M98.1042386,87.0363027 C98.1549053,87.1789694 98.2042386,87.321636 98.2522386,87.4643027 C98.2522386,87.457636 98.2535719,87.449636 98.2535719,87.441636 C98.2055719,87.309636 98.1562386,87.173636 98.1042386,87.0363027 Z M96.1629053,89.8549693 C96.033572,89.0949693 95.7882387,88.385636 95.5069053,87.6669694 C95.3509054,87.333636 95.1789054,87.0163027 94.9709054,86.7043027 C94.861572,86.5843027 94.7522387,86.4696361 94.6322387,86.3656361 C94.4602387,86.2563027 94.2882387,86.1576361 94.105572,86.0683027 C93.7989054,85.9589694 93.4869054,85.8763027 93.1682387,85.8189694 C92.9869054,85.7976361 92.8042387,85.7923027 92.6215721,85.7923027 C92.4495721,85.7923027 92.2829054,85.7976361 92.1109054,85.8136361 C91.6109054,85.8909694 91.1215721,86.0163027 90.6269055,86.1256361 C89.8042388,86.3083027 88.9655722,86.4749694 88.1682389,86.7669694 C87.8829055,86.901636 87.6015722,87.057636 87.3402389,87.245636 C87.0335722,87.505636 86.7522389,87.7869694 86.4962389,88.1003027 C86.3402389,88.313636 86.2002389,88.537636 86.0855722,88.7763027 C86.0335722,88.9483027 85.9922389,89.1203027 85.9602389,89.297636 C85.9295723,89.7349693 85.9495723,90.161636 86.0015723,90.6003026 C86.0962389,91.1936359 86.2202389,91.7763026 86.4242389,92.3389692 C86.5229056,92.5483026 86.6322389,92.7456359 86.7629056,92.9389692 C86.9189056,93.1203026 87.0855722,93.2816359 87.2682389,93.4389692 C87.7055722,93.7616359 88.1589055,94.0429692 88.6429055,94.2669692 C89.0695722,94.4229692 89.5015722,94.5269692 89.9495722,94.6003025 C90.5802388,94.6523025 91.2109055,94.6203025 91.8349054,94.5576359 C91.9709054,94.4389692 92.1269054,94.3443025 92.2882388,94.3136359 C93.1682387,94.1669692 94.0909054,94.0896359 94.9389054,93.8083025 C95.1269054,93.7243025 95.3042387,93.6256359 95.4762387,93.5163025 C95.605572,93.4016359 95.725572,93.2816359 95.8402387,93.1576359 C95.8922387,93.0736359 95.9442387,92.9856359 95.9922387,92.8963026 C96.069572,92.6669692 96.1109053,92.4283026 96.1482387,92.1829692 C96.225572,91.4069693 96.2469053,90.6363026 96.1629053,89.8549693 L96.1629053,89.8549693 Z M89.1215722,70.8283031 C89.0749055,70.1149698 89.0122388,69.4123031 88.9295722,68.7043032 C88.5749055,66.7763032 88.0749055,64.8656366 87.3455722,63.0483033 C87.3402389,63.0323033 87.3295722,63.0163033 87.3255722,63.0003033 C87.2935722,62.9176366 87.2629056,62.83897 87.2255722,62.7616366 C87.2522389,62.8336366 87.2829056,62.90697 87.3149056,62.9803033 C86.9922389,62.2723033 86.5909056,61.6003033 86.1682389,60.9429702 C85.7989056,60.3656367 85.4242389,59.7976367 85.0175723,59.2456367 C84.5069056,58.6203034 83.8829056,58.1203034 83.2469057,57.6256368 C81.7255724,56.4643035 80.1949057,55.3136368 78.4442391,54.5163035 C77.7362391,54.2296369 77.0015725,53.9749702 76.2575725,53.8136369 C75.9495725,53.7456369 75.6429058,53.6523035 75.3349059,53.6056369 C75.1055725,53.5683035 74.8775725,53.5376369 74.6482392,53.5056369 C74.3402392,53.4803035 74.0335725,53.4429702 73.7255726,53.4429702 C73.1735726,53.4429702 72.6322393,53.4483035 72.0855726,53.5109702 C70.9655726,53.7043035 69.902906,54.0483035 68.8295727,54.4229702 C67.9135727,54.7403035 66.9962394,55.0576368 66.0909061,55.4016368 C65.3149061,55.7616368 64.5909061,56.1936368 63.9029061,56.7096368 C63.3615728,57.1523035 62.8042395,57.5949701 62.3202395,58.0949701 C62.0535728,58.3709701 61.7629062,58.6416368 61.5175729,58.9336367 C61.2575729,59.2403034 60.9962395,59.5483034 60.7309062,59.8496367 C60.5122396,60.1363034 60.2882396,60.42297 60.0962396,60.7243034 C59.7989062,61.19897 59.5069062,61.66697 59.2362396,62.1523033 C58.8402396,62.8603033 58.5015729,63.5896366 58.1735729,64.3283033 C58.1429063,64.4283033 58.1055729,64.5163033 58.0535729,64.6003033 C58.0535729,64.6056366 58.0535729,64.6056366 58.0535729,64.6096366 C57.777573,65.3136366 57.5282396,66.0216366 57.325573,66.7563032 C57.1482396,67.4016365 57.0282396,68.0629698 56.9349063,68.7243032 C56.877573,69.2456365 56.8149063,69.7669698 56.7882396,70.2923031 C56.7722396,70.6523031 56.7522396,71.0109698 56.7362396,71.3709698 C56.7002396,72.1829697 56.7682396,73.0056364 56.8722396,73.8189697 C57.085573,75.2296363 57.465573,76.584303 57.9922396,77.9069696 C58.1789063,78.3243029 58.3669063,78.7456362 58.5589063,79.1616362 C59.0175729,80.1776362 59.6429062,81.1363029 60.3149062,82.0323028 C61.0015729,82.8963028 61.7469062,83.7149695 62.4962395,84.5269694 C62.8855728,84.9416361 63.2829062,85.3536361 63.6909061,85.7536361 C64.6629061,86.2523027 65.6389061,86.741636 66.6255727,87.2083027 C66.6775727,87.201636 66.7242394,87.177636 66.7775727,87.177636 C66.8722394,87.177636 66.9655727,87.1883027 67.0589061,87.209636 C68.058906,87.4283027 69.0642393,87.6523027 70.074906,87.8083027 C71.2202393,87.9429702 72.3562393,88.005636 73.5069059,87.8963027 C74.5962392,87.7189694 75.6535725,87.433636 76.6789058,87.0269694 C77.6842391,86.5949694 78.6842391,86.1576361 79.6429057,85.6309694 C80.6322391,85.0896361 81.5909057,84.5056361 82.5069057,83.8496361 C83.0855723,83.3603028 83.648239,82.8496361 84.200239,82.3243028 C85.0069056,81.5523028 85.8202389,80.8029695 86.5335722,79.9389696 C86.8255722,79.5483029 87.0962389,79.1469696 87.3562389,78.7296362 C87.6429055,78.2669696 87.8669055,77.7723029 88.0855722,77.272303 C88.5175722,76.1669696 88.9349055,75.0629697 89.1215722,73.8909697 C89.2309055,72.8816364 89.1949055,71.8443031 89.1215722,70.8283031 L89.1215722,70.8283031 Z M89.5802388,96.4176358 C89.5669055,96.4149691 89.5522388,96.4136358 89.5389055,96.4123025 C89.4469055,96.4336358 89.3549055,96.4549691 89.2642388,96.4736358 C89.3695722,96.4563025 89.4749055,96.4363025 89.5802388,96.4176358 Z M100.804239,90.2563026 C100.694905,91.2243026 100.574905,92.1883026 100.236239,93.1096359 C100.074905,93.5523025 99.8775719,93.9856359 99.6535719,94.3963025 C99.4135719,94.8389692 99.0909053,95.2403025 98.7722386,95.6256358 C98.2629053,96.2563025 97.5962386,96.7349691 96.9349053,97.1883025 C96.0442387,97.7976358 95.0642387,98.2616358 94.0389054,98.5949691 C93.2055721,98.8603024 92.3202388,98.9803024 91.4602388,99.1469691 C90.8149055,99.2723024 90.1735721,99.4229691 89.5175722,99.5163024 C88.6842389,99.6416357 87.8509055,99.7403024 87.0122389,99.7976357 C85.6055723,99.8963024 84.200239,99.9429691 82.788239,99.9803024 C81.460239,100.016302 80.1269057,99.9389691 78.7989058,99.9176357 C78.0642391,99.9016357 77.3349058,99.8909691 76.6055725,99.8963024 C75.9295725,99.9069691 75.2522392,99.9749691 74.5802392,100.032302 C73.2309059,100.136302 71.8775726,100.162969 70.5282393,100.214969 C70.074906,100.234969 69.6162393,100.250969 69.162906,100.250969 C68.9135727,100.250969 68.6682394,100.245636 68.418906,100.234969 C67.762906,100.218969 67.1109061,100.157636 66.4602394,100.109636 C65.1322394,100.016302 63.8149061,99.8443024 62.4962395,99.6776357 C62.0495728,99.6256357 61.6015729,99.5683024 61.1535729,99.4963024 C60.6269062,99.4909691 60.1015729,99.4856357 59.5749062,99.4749691 C58.6055729,99.4589691 57.653573,99.3136357 56.741573,98.9963024 C55.7829063,98.6669691 54.9189064,98.1523024 54.1269064,97.5216358 C53.4242397,96.9589691 52.7829064,96.3243025 52.1789064,95.6523025 C51.4962398,94.8963025 50.8615731,94.0683025 50.3202398,93.1989692 C48.9962398,91.0523026 48.7109065,88.485636 48.4442399,86.0269694 C48.2989065,84.6776361 48.1791732,83.3243028 48.1114399,81.9696362 C48.0385065,80.4229695 47.9915732,78.8763029 47.9964948,77.3283029 C47.9964948,76.688303 48.0437065,76.048303 48.0906399,75.412303 C48.1478399,74.6056364 48.2155732,73.7976364 48.2829065,72.9909697 C48.5229065,70.1936365 48.6629065,67.3909699 48.9295732,64.5949699 C49.0642398,63.1616366 49.1949065,61.7243033 49.2309065,60.28697 C49.2682398,58.7923034 49.2882398,57.2976368 49.3975732,55.8083035 C49.4495732,55.1363035 49.5335732,54.4643035 49.6055732,53.7923035 C49.7162398,52.8336369 49.8202398,51.8389703 50.1015731,50.9123036 C50.3829065,49.9803036 50.9762398,49.229637 51.6949064,48.5949703 C52.0642398,48.2723037 52.4602398,47.969637 52.8722397,47.693637 C53.3455731,47.3763037 53.8922397,47.1469704 54.4242397,46.9389704 C55.033573,46.6989704 55.6429063,46.4483037 56.2629063,46.2403037 C56.5909063,46.1256371 56.913573,46.0003037 57.241573,45.9069704 C57.621573,45.7976371 58.001573,45.6576371 58.3869063,45.5736371 C58.7682396,45.4909704 59.1482396,45.4123037 59.5282396,45.3283037 C59.8775729,45.2509704 60.2469062,45.2189704 60.6015729,45.1669704 C61.3922395,45.0523038 62.1949062,45.0003038 62.9922395,44.9336371 C63.6482395,44.8763038 64.3042395,44.7976371 64.9602394,44.7149704 C66.3562394,44.5323038 67.762906,44.3603038 69.1735727,44.3243038 C70.610906,44.2816371 72.0442393,44.2923038 73.4762392,44.2616371 C74.9242392,44.2296371 76.3722392,44.1576371 77.8149058,44.1416371 C78.3722391,44.1309704 78.9295724,44.1363038 79.4922391,44.1363038 C80.3922391,44.1363038 81.2989057,44.1416371 82.200239,44.1056371 C83.5749056,44.0483038 84.9495723,43.9643038 86.3295722,44.0163038 C87.0749056,44.0429704 87.8042389,44.1003038 88.5442389,44.1883038 C89.3509055,44.2869704 90.1535721,44.4536371 90.9495721,44.6096371 C91.2575721,44.6723038 91.5642388,44.7456371 91.8669054,44.8283038 C92.3669054,44.9696371 92.8455721,45.1883038 93.3095721,45.4229704 C94.1842387,45.8549704 95.017572,46.4749704 95.6429053,47.2243037 C95.9442387,47.5843037 96.225572,47.9643037 96.4762387,48.365637 C96.725572,48.761637 96.913572,49.2043037 97.101572,49.6309703 C97.3869053,50.281637 97.6322386,50.9429703 97.861572,51.6096369 C98.3295719,52.9483036 98.8095719,54.2869702 99.2055719,55.6523035 C99.3255719,56.0576368 99.4442386,56.4643035 99.5642386,56.8709701 C99.6682386,57.2189701 99.7309052,57.5843034 99.8149052,57.9389701 C99.9869052,58.6829701 100.090905,59.4429701 100.210905,60.19897 C100.434905,61.6096367 100.590905,63.04297 100.694905,64.4643033 C100.804239,66.0056366 100.902905,67.5483032 101.017572,69.0843032 C101.126905,70.5269698 101.277572,71.9643031 101.402905,73.4016364 C101.522905,74.7816363 101.538905,76.172303 101.549572,77.5523029 C101.564239,79.0056362 101.585572,80.4536362 101.558905,81.9016362 C101.538905,83.3189695 101.345572,84.7296361 101.216239,86.1363027 C101.085572,87.5109694 100.954905,88.885636 100.804239,90.2563026" id="path32" transform="translate(74.783876, 72.125484) scale(-1, 1) rotate(-180.000000) translate(-74.783876, -72.125484) "></path>
            <path d="M126.334905,81.4397959 L126.338905,81.4744626 C126.348238,81.3984626 126.358905,81.3211293 126.368238,81.243796 L126.377571,81.059796 L126.334905,81.4397959 Z M126.325571,81.5597959 L126.310905,81.6837959 C126.316238,81.6437959 126.321571,81.6037959 126.326905,81.5637959 C126.325571,81.5624626 126.325571,81.5597959 126.325571,81.5597959 L126.325571,81.5597959 Z M126.338905,81.4797959 C126.348238,81.4064626 126.357571,81.3331293 126.368238,81.259796 L126.368238,81.2504626 C126.358905,81.3264626 126.349571,81.4024626 126.338905,81.4797959 L126.338905,81.4797959 Z M109.424238,71.7064629 C109.424238,68.9197963 109.397572,66.1331297 109.236238,63.3517964 C109.153572,61.8304631 109.069572,60.3051298 108.944238,58.7784632 C108.882905,57.9864632 108.834905,57.1957966 108.757572,56.4037966 C108.678905,55.6491299 108.626905,54.8931299 108.533572,54.14913 C108.444238,53.5077966 108.361572,52.8677967 108.272238,52.2264633 C108.189572,51.6224634 108.069572,51.0184634 107.960238,50.4144634 C107.850905,49.7997967 107.710905,49.2011301 107.569572,48.5957968 C107.309572,47.4451301 106.996238,46.3104635 106.558905,45.2104635 C106.064238,44.0864635 105.438905,43.0291302 104.716238,42.0344636 C103.632238,40.7211303 102.517572,39.419797 101.184239,38.3464637 C100.544239,37.8771304 99.8775719,37.4824637 99.1535719,37.1531304 C96.8562386,36.2677971 94.361572,35.9397971 91.9295721,35.5864638 C90.6055721,35.4251304 89.2829055,35.2997971 87.9442389,35.2157971 C87.2162389,35.1744638 86.4762389,35.1797971 85.7415723,35.1691304 C85.1109056,35.1584638 84.4869056,35.1491304 83.856239,35.1331304 C82.3095723,35.0957971 80.7629057,35.0544638 79.2162391,35.0237971 C77.8042391,34.9971304 76.3869058,35.0704638 74.9762392,35.1331304 C73.5389059,35.2011304 72.0962393,35.2477971 70.6535726,35.2784638 C69.230906,35.3051304 67.798906,35.2677971 66.3722394,35.2477971 C63.6682395,35.2104638 60.9709062,35.4197971 58.2935729,35.7784638 C58.4295729,35.7584638 58.5589063,35.7424638 58.6949063,35.7211304 C58.0282396,35.8104638 57.361573,35.9037971 56.6949063,35.9917971 C56.829573,35.9717971 56.965573,35.9557971 57.0962396,35.9344638 C56.3402397,36.0397971 55.585573,36.1491304 54.829573,36.2584637 C54.277573,36.3411304 53.7309064,36.4291304 53.1842397,36.5344637 C52.1949064,36.7211304 51.2309065,37.0077971 50.2989065,37.3824637 C49.3095732,37.819797 48.3775732,38.3411304 47.4395732,38.8824637 C46.7729066,39.2624637 46.1270399,39.6744637 45.5125066,40.1331303 C45.0333066,40.523797 44.59584,40.9451303 44.1999733,41.4144636 C43.4291733,42.4717969 42.7677067,43.6171302 42.2363733,44.8051302 C41.83544,45.8571302 41.63224,46.9611301 41.4499734,48.0757968 C41.33544,48.7784634 41.2311734,49.4824634 41.12704,50.1851301 C40.9707734,51.54913 40.83544,52.9144633 40.8041067,54.2944633 C40.7677067,55.7784633 40.7677067,57.2677966 40.7521067,58.7584632 C40.7363734,60.1851298 40.6739734,61.6117964 40.5749067,63.0344631 C40.4759734,64.4717964 40.3093067,65.898463 40.1530401,67.330463 C39.8354401,70.2157962 39.6374401,73.1117962 39.4863734,76.0131294 C39.4082401,77.4971294 39.3510401,78.9864627 39.3093068,80.471796 C39.2677068,81.9291293 39.2937068,83.3877959 39.3197068,84.8517959 C39.3458401,85.9824625 39.4811734,87.1117958 39.6218401,88.2371291 C39.8302401,89.3197957 40.0489067,90.3984624 40.3145067,91.4664624 C40.6843734,92.9304623 41.0385067,94.409129 41.59584,95.8104623 C42.0333067,96.7731289 42.5593067,97.6797955 43.1843733,98.5291289 C43.7469066,99.2317955 44.38224,99.8517955 45.0802399,100.419795 C45.8822399,101.023795 46.7415732,101.534462 47.6062399,102.054462 C48.4442399,102.554462 49.3255732,103.007795 50.2162398,103.398462 C51.0069065,103.710462 51.8255731,103.982462 52.6629064,104.133129 C53.0642397,104.206462 53.4709064,104.283795 53.8775731,104.357129 C55.049573,104.373129 56.2162397,104.409129 57.3869063,104.502462 C58.0909063,104.559795 58.7882396,104.601129 59.4869062,104.627795 C59.8562396,104.638462 60.2255729,104.638462 60.6015729,104.633129 C60.7362395,104.633129 60.8722395,104.627795 61.0069062,104.627795 C61.1429062,104.627795 61.2775729,104.633129 61.4135729,104.633129 C62.8869062,104.663795 64.3509061,104.778462 65.8202394,104.841129 C67.1735727,104.898462 68.538906,104.862462 69.886906,104.767795 C71.2682393,104.669129 72.6429059,104.491795 74.0229059,104.393129 C75.3775725,104.294462 76.7309058,104.221129 78.0909058,104.185129 C79.5175724,104.153129 80.9389057,104.075795 82.3669057,104.007795 C84.252239,103.919795 86.1535722,103.909129 88.0282389,103.685129 C89.8775722,103.471795 91.7202388,103.231795 93.5695721,103.013129 C94.1629054,102.930462 94.7522387,102.835795 95.3402387,102.715795 C95.9442387,102.597129 96.5442387,102.450462 97.1322386,102.273129 C98.4442386,101.887795 99.7309052,101.450462 101.012239,100.977129 C101.216239,100.893129 101.418905,100.810462 101.616239,100.721129 C102.386905,100.393129 103.121572,99.9504622 103.793572,99.4557955 C104.408238,98.9611288 104.981572,98.4304622 105.486905,97.8251289 C105.840238,97.3197955 106.137572,96.7891289 106.392238,96.2211289 C107.173572,94.2104623 107.574905,92.0864623 107.908238,89.9611291 C107.996238,89.2584624 108.074905,88.5544624 108.148238,87.8464625 C108.225572,87.0917958 108.293572,86.3304625 108.392238,85.5757958 C108.616238,83.8984626 108.856238,82.2211293 109.090905,80.5491293 C109.162905,79.7944627 109.236238,79.043796 109.304238,78.2891294 C109.329572,78.039796 109.325572,77.7891294 109.334905,77.539796 C109.356238,77.0344627 109.372238,76.5291294 109.392238,76.0184627 C109.449572,74.5864628 109.424238,73.1437962 109.424238,71.7064629 L109.424238,71.7064629 Z M130.137571,80.695796 C129.924238,82.3517959 129.736238,84.0077959 129.481571,85.6584625 C129.356238,86.4864625 129.194905,87.2944625 129.022905,88.1117958 C128.872238,88.8464624 128.653571,89.5597957 128.444238,90.2837957 C128.252238,90.9717957 127.992238,91.653129 127.757571,92.3304623 C127.501571,93.0597957 127.252238,93.789129 126.996238,94.5184623 C126.454905,96.0971289 125.886905,97.6531289 125.268238,99.2064622 C124.668238,100.701129 124.022905,102.201129 123.325571,103.653129 C122.970905,104.382462 122.626905,105.117129 122.236238,105.830462 C121.829571,106.586462 121.408238,107.325129 120.976238,108.065129 C120.194905,109.393129 119.392238,110.710462 118.553571,112.002462 C117.658905,113.393128 116.632238,114.715795 115.486905,115.909128 C114.424238,117.013128 113.293572,118.059795 112.096238,119.018462 C111.320238,119.643795 110.544238,120.258462 109.746905,120.851795 C108.653572,121.674462 107.481572,122.335795 106.236238,122.887795 C104.673572,123.586462 103.096238,124.237128 101.486905,124.815795 C99.9549052,125.367795 98.3922386,125.835795 96.829572,126.299795 C95.4082387,126.715795 93.9815721,127.138461 92.5442388,127.491795 C89.4815722,128.247795 86.3615722,128.763795 83.252239,129.267795 C80.0855724,129.778461 76.8669058,129.638461 73.6735726,129.830461 C72.1055726,129.925128 70.538906,129.997128 68.970906,130.081128 C67.506906,130.158461 66.0442394,130.258461 64.5749061,130.289128 C63.7309061,130.305128 62.8869062,130.325128 62.0442395,130.325128 C61.3349062,130.325128 60.6269062,130.310461 59.9242396,130.273128 C58.2255729,130.190461 56.5442397,129.939795 54.8669064,129.674461 C54.137573,129.559795 53.4189064,129.382461 52.7002397,129.206461 C51.9922398,129.029128 51.3095731,128.731795 50.6322398,128.461128 C49.0535732,127.830461 47.5697065,126.986461 46.1270399,126.091795 C45.4863733,125.690462 44.8770399,125.221128 44.2677073,124.778462 C43.6739733,124.351795 43.09064,123.914462 42.5021067,123.482462 C41.14784,122.491795 39.8093067,121.482462 38.4811734,120.455795 C36.6062402,118.997128 34.7625069,117.513128 32.9655736,115.966462 C31.7937069,115.206462 30.7155736,114.319795 29.7415737,113.310462 C28.788507,112.330462 28.007307,111.226462 27.2155737,110.117129 C26.8145071,109.559795 26.4603737,108.961129 26.1062404,108.373129 C25.6895738,107.674462 25.2781071,106.977129 24.8822404,106.267795 C23.3041072,103.450462 21.8978405,100.534462 20.4655739,97.6384622 C19.7677073,96.2264622 19.1635739,94.7677956 18.7677073,93.2477957 C18.5645073,92.4824623 18.3614406,91.721129 18.1947739,90.945129 C17.8666406,89.4291291 17.5489073,87.9144625 17.2833073,86.3877958 C16.986374,84.6957959 16.663574,82.9971292 16.475974,81.2891293 C16.3874407,80.4864626 16.2833073,79.6904627 16.231174,78.887796 C16.168774,78.0291294 16.1166407,77.1744627 16.0749073,76.3157961 C15.9969073,74.7997961 15.9030407,73.2891295 15.8354407,71.7731295 C15.7989073,71.0597962 15.7677073,70.3357962 15.7677073,69.6171296 C15.7677073,68.7624629 15.7885073,67.9197963 15.8249073,67.0651296 C15.8666407,66.262463 15.981174,65.4451297 16.0906407,64.6491297 C16.205174,63.8411297 16.3145073,63.0344631 16.429174,62.2264631 C16.673974,60.5344631 16.913574,58.8304632 17.2937073,57.1531299 C17.7729073,55.0024633 18.6478406,52.9397967 19.4447739,50.8877967 C20.0229072,49.3824634 20.5802406,47.8731301 21.1635739,46.3731302 C21.4759739,45.5811302 21.8197072,44.8051302 22.1582405,44.0237969 C22.7729072,42.5957969 23.6687738,41.3051303 24.5697071,40.0491303 C25.5229071,38.7211303 26.5489071,37.4344637 27.564507,36.1531304 C28.533307,34.9251304 29.538507,33.7477971 30.7677073,32.7624638 C31.9030403,31.8571305 33.1582402,31.1584639 34.4187735,30.4504639 C35.7415735,29.7104639 37.0229068,28.9144639 38.2833068,28.0864639 C39.4969067,27.2837973 40.7051734,26.4611307 41.89784,25.6277973 C43.2469067,24.6797974 44.5541066,23.6851307 45.8666399,22.6904641 C46.4811732,22.2211308 47.1114399,21.7784641 47.7521065,21.3464641 C48.3869065,20.9144641 49.0695732,20.5344641 49.7309065,20.1384641 C51.0695731,19.3411308 52.4189064,18.5651309 53.7882397,17.8197975 C55.2309064,17.0437976 56.7629063,16.4037976 58.2722396,15.7837976 C59.6629062,15.2157976 61.0535729,14.6384643 62.5015728,14.237131 C62.9295728,14.117131 63.3562395,13.997131 63.7882395,13.877131 C64.1949061,13.7624643 64.6162395,13.6957976 65.0282394,13.6064643 C65.8509061,13.429131 66.6949061,13.2997977 67.5335727,13.2104643 C69.1482393,13.029131 70.762906,12.873131 72.3775726,12.7104643 C73.9242392,12.5597977 75.4762392,12.4197977 77.0282391,12.3104643 C77.7829058,12.253131 78.5442391,12.237131 79.2989058,12.2157977 C80.0442391,12.1957977 80.788239,12.1797977 81.5335724,12.2104643 C83.2255723,12.2677977 84.9189056,12.4504643 86.5695722,12.8104643 C88.2629055,13.1744643 89.8829055,13.7677976 91.4549054,14.4824643 C92.8455721,15.1171309 94.2002387,15.8304643 95.5802387,16.4917976 C96.9922386,17.1637976 98.4295719,17.8197975 99.7775719,18.6171309 C102.528239,20.2584641 105.252238,21.9291308 107.986905,23.5917974 C109.325572,24.398464 110.621572,25.262464 111.872238,26.2011307 C113.038905,27.0811306 114.153572,28.0024639 115.126905,29.0957973 C115.700238,29.7424639 116.252238,30.3984639 116.798905,31.0704639 C118.829571,33.5544638 120.782905,36.1064637 122.486905,38.835797 C123.334905,40.195797 124.132238,41.5704636 124.902905,42.9717969 C125.090905,43.3051302 125.252238,43.6584636 125.429571,44.0024635 C125.569571,44.2891302 125.730905,44.5757969 125.861571,44.8677969 C126.241571,45.7371302 126.668238,46.5957968 127.001571,47.4824635 C127.288238,48.2477968 127.580238,49.0184634 127.872238,49.7837967 C128.001571,50.1331301 128.090905,50.5024634 128.205571,50.85713 C128.314905,51.2157967 128.449571,51.5704634 128.538905,51.9344634 C128.924238,53.46113 129.293571,54.9824633 129.574904,56.5291299 C129.877571,58.1637965 130.132238,59.7997965 130.361571,61.4451298 C130.601571,63.1384631 130.716238,64.846463 130.845571,66.5491297 C131.074904,69.5864629 131.101571,72.6584628 130.768238,75.6904628 C130.580238,77.3624627 130.356238,79.0291293 130.137571,80.695796" id="path34" transform="translate(73.393021, 71.259231) scale(-1, 1) rotate(-180.000000) translate(-73.393021, -71.259231) "></path>
            <path d="M83.0695723,78.7015899 C82.7989057,79.3375899 82.5015723,79.9575899 82.1535723,80.5562565 C81.408239,81.8322565 80.5015724,83.0402565 79.2109058,83.8162564 C78.4922391,84.2482564 77.7055725,84.5869231 76.8775725,84.7642564 C76.0642392,84.9362564 75.2309059,85.0615898 74.3975725,85.0669231 C74.3829059,85.0669231 74.3669059,85.0669231 74.3509059,85.0669231 C73.5282392,85.0669231 72.6949059,84.9362564 71.9082393,84.7175898 C71.5069059,84.6082564 71.1215726,84.4415898 70.7362393,84.2909231 C70.210906,84.0815898 69.6895727,83.8375898 69.1735727,83.6082565 C69.0695727,83.5615898 68.986906,83.4935898 68.9135727,83.4149231 C68.3975727,83.1602565 67.9082394,82.8629231 67.454906,82.5095898 C66.7469061,81.9469232 66.1322394,81.3055898 65.5855728,80.5922565 C65.2935728,80.2069232 65.0229061,79.8109232 64.7775728,79.3949232 C64.4922395,78.9149232 64.2775728,78.3895899 64.0802395,77.8682566 C63.8829061,77.3322566 63.7722395,76.7642566 63.6482395,76.2069233 C63.6215728,76.08159 63.6015728,75.95759 63.5802395,75.8322566 C63.5389061,75.56159 63.4815728,75.28559 63.4549061,75.00959 C63.3922395,74.1962567 63.3295728,73.3842567 63.3509062,72.5615901 C63.4029061,70.6295901 64.3922395,68.8735902 65.5962394,67.4255902 C66.1949061,66.7069235 66.9815727,66.1442569 67.7722394,65.6655902 C68.3255727,65.3269236 68.9135727,65.0815902 69.506906,64.8322569 C69.886906,64.6709236 70.2682393,64.5189236 70.6535726,64.3682569 C70.9442393,64.2535903 71.246906,64.1495903 71.5495726,64.0509236 C72.1055726,63.8735903 72.6735726,63.7909236 73.2575726,63.728257 C73.7415726,63.676257 74.2415725,63.7335903 74.7255725,63.7962569 C75.1322392,63.8482569 75.5442392,63.9055903 75.9389058,64.0042569 C76.2989058,64.0922569 76.6629058,64.1709236 77.0175725,64.2855903 C78.0749058,64.6295903 79.1949058,64.9669236 80.1055724,65.6135902 C81.5909057,66.6549235 82.4709057,68.2749235 82.976239,69.9775901 C83.0855723,70.3322568 83.184239,70.6815901 83.268239,71.0402568 C83.356239,71.3895901 83.408239,71.7482567 83.4709056,72.1029234 C83.6015723,72.8789234 83.632239,73.6762567 83.6789056,74.45759 C83.7055723,74.8322567 83.7055723,75.2069233 83.7055723,75.58159 C83.700239,76.1082566 83.632239,76.62959 83.5535723,77.1495899 C83.476239,77.6909233 83.2829057,78.2015899 83.0695723,78.7015899" id="path36" transform="translate(73.526112, 74.387461) scale(-1, 1) rotate(-180.000000) translate(-73.526112, -74.387461) "></path>
        </g>
    </g>
</svg>