<?xml version="1.0" encoding="UTF-8"?>
<svg width="144px" height="144px" viewBox="0 0 144 144" version="1.1" xmlns="http://www.w3.org/2000/svg" xmlns:xlink="http://www.w3.org/1999/xlink">
    <title>linkedin_icon</title>
    <g id="Page-1" stroke="none" stroke-width="1" fill="none" fill-rule="evenodd">
        <g id="linkedin_icon" transform="translate(0.851952, 0.588039)" fill="#282727" fill-rule="nonzero">
            <path d="M29.1267119,8.40400834 C30.1329786,9.43067498 31.1688452,10.4333416 32.2907119,11.3360083 C33.8256452,12.4973416 35.4881784,13.4986749 37.2537784,14.2786749 C37.7064451,14.4640082 38.1043117,14.6373415 38.465245,14.9933415 C38.8715117,15.3946748 39.0277784,16.0040081 38.8767117,16.5560081 C38.7007117,17.1933415 38.0835117,17.7333414 37.4048451,17.7333414 C37.3797784,17.7333414 37.3543117,17.7333414 37.3297784,17.7320081 C36.7829784,17.7066748 36.3715118,17.5506748 35.8871118,17.3106748 C35.6267118,17.1800081 35.3767118,17.0400081 35.1163118,16.9040081 C34.6267118,16.6493415 34.1423118,16.3893415 33.6579118,16.1186748 C31.0953786,14.6906748 28.8819119,12.7893416 26.8349787,10.7013416 C26.2152453,10.070675 26.2048453,9.03467499 26.8349787,8.40400834 C27.4548453,7.78534169 28.5068453,7.77467502 29.1267119,8.40400834" id="path192" transform="translate(32.649778, 12.834671) scale(-1, 1) rotate(-180.000000) translate(-32.649778, -12.834671) "></path>
            <path d="M21.0907121,20.2721554 C21.2625788,20.1321554 21.4240455,19.9961554 21.6272455,19.9081554 C21.9449788,19.7628221 22.2731121,19.6948221 22.6220454,19.7308221 C23.1116454,19.7828221 23.5387121,19.9708221 23.9344454,20.2574887 C24.2625787,20.5014887 24.5855121,20.7521554 24.7677787,21.1321554 C24.8980454,21.4134887 24.9657787,21.6481554 24.9553787,21.954822 C24.9501787,22.230822 24.8616454,22.542822 24.7209787,22.7774887 C24.4292454,23.282822 23.8668454,23.5854886 23.3095121,23.6681553 C23.1668454,23.6894886 23.0329788,23.7041553 22.9016454,23.7041553 C22.6865788,23.7041553 22.4808454,23.662822 22.2657788,23.5454886 C22.0095121,23.5414886 21.7543121,23.442822 21.5647121,23.2521553 C21.5485788,23.234822 21.5329788,23.2174886 21.5168455,23.202822 C21.3564455,23.0974887 21.2095121,22.974822 21.0751121,22.8241553 C20.8928455,22.6214887 20.7835121,22.4241553 20.6897788,22.1734887 C20.6220455,21.9961553 20.5491122,21.7414887 20.5647122,21.5534887 C20.5855122,21.3401554 20.6011122,21.1374887 20.6844455,20.938822 C20.7677788,20.7254887 20.9032455,20.4241554 21.0907121,20.2721554" id="path194" transform="translate(22.759502, 21.712744) scale(-1, 1) rotate(-180.000000) translate(-22.759502, -21.712744) "></path>
            <path d="M11.6939124,25.3484429 C12.365779,24.9577762 13.4016457,25.1497762 13.7616457,25.8897762 C14.731379,27.8871095 15.9797789,29.6924428 17.2673789,31.4884427 C17.7709789,32.125776 18.2735122,32.7684427 18.7928455,33.4004427 C19.0527122,33.7124427 19.2297789,34.025776 19.2297789,34.4524427 C19.2297789,34.8431093 19.0683122,35.2231093 18.7928455,35.5044426 C18.5168455,35.7804426 18.1308455,35.9364426 17.7401789,35.9364426 C17.3808456,35.9364426 16.9231122,35.7911093 16.6887122,35.5044426 C15.5897789,34.165776 14.5064456,32.8071094 13.5272457,31.3791094 C12.589779,30.0097761 11.5631124,28.6244428 11.0007124,27.0511095 C10.7720457,26.4217762 11.1412457,25.6711095 11.6939124,25.3484429" id="path196" transform="translate(15.080833, 30.543554) scale(-1, 1) rotate(-180.000000) translate(-15.080833, -30.543554) "></path>
            <path d="M6.34911251,39.6824296 C7.06257916,39.2024297 8.06777913,39.4424297 8.72924578,39.8850963 C8.99231244,40.0610963 9.20644577,40.287763 9.35071243,40.547763 C9.38404577,40.5784296 9.41631243,40.6090963 9.44804576,40.6410963 C9.72404576,40.9117629 9.82311242,41.2237629 9.96884575,41.5730963 C10.0573791,41.8957629 10.0573791,42.2237629 9.96884575,42.5464296 C9.88031253,42.8597629 9.72404576,43.1304296 9.4949791,43.3597629 C9.2605791,43.6304295 8.95324578,43.8277629 8.60431245,43.9264295 C8.42617912,43.9770962 8.24964579,43.9984295 8.07511246,43.9984295 C7.71631247,43.9984295 7.36631248,43.9024295 7.02617916,43.7450962 C6.67724583,43.5837629 6.38031253,43.3330962 6.12511251,43.0410962 C5.88551252,42.7650962 5.5261792,42.3024296 5.46364586,41.9210963 C5.42724586,41.7344296 5.40111253,41.5410963 5.38031253,41.3490963 C5.40111253,41.1610963 5.42724586,40.9744296 5.46364586,40.791763 C5.55217919,40.2970963 5.95844585,39.9424296 6.34911251,39.6824296" id="path198" transform="translate(7.707779, 41.708548) scale(-1, 1) rotate(-180.000000) translate(-7.707779, -41.708548) "></path>
            <path d="M2.6095126,47.0413322 C3.43764591,47.0413322 4.08871256,47.7186655 4.10951256,48.5359988 C4.10951256,48.6786654 4.11777923,48.8213321 4.13031256,48.9653321 C4.35537922,50.2533321 4.72671255,51.5026654 5.08871254,52.7546653 C5.2297792,53.2439987 5.42204586,53.729332 5.59391253,54.2079986 C5.86471252,54.9839986 6.14644585,55.7546653 6.44804584,56.5146653 C6.5939125,56.8906652 6.48497917,57.3999986 6.28764584,57.7333319 C6.08351251,58.0879985 5.74017919,58.3533319 5.34391253,58.4626652 C5.21004587,58.4999985 5.07044587,58.5173319 4.93137921,58.5173319 C4.65017922,58.5173319 4.36937922,58.4453319 4.12617923,58.3013319 C3.74017924,58.0773319 3.55791258,57.7599986 3.40164592,57.3586652 C3.07871259,56.5466653 2.78137926,55.7333319 2.49017927,54.9106653 C2.31311261,54.4159986 2.12617928,53.9266653 1.97977928,53.421332 C1.80271262,52.8279987 1.60431263,52.229332 1.45951263,51.6239987 C1.3761793,51.2759987 1.28764597,50.9266654 1.20431264,50.5773321 C1.00537931,49.7653321 1.00017931,48.9479988 1.17204597,48.1346655 C1.30791263,47.4893321 1.97977928,47.0413322 2.6095126,47.0413322" id="path200" transform="translate(3.782015, 52.779332) scale(-1, 1) rotate(-180.000000) translate(-3.782015, -52.779332) "></path>
            <path d="M0.68711265,64.5466651 C0.706445982,64.5919984 0.726179315,64.6386651 0.746445981,64.6853317 C0.727779315,64.6439984 0.708445982,64.6013317 0.690179316,64.5573317 C0.689779316,64.5533317 0.68871265,64.5493317 0.68711265,64.5466651" id="path202" transform="translate(0.716779, 64.615998) scale(-1, 1) rotate(-180.000000) translate(-0.716779, -64.615998) "></path>
            <path d="M0.679779316,64.9479984 C0.79644598,64.2279984 1.3849793,63.6586651 2.14857928,63.6586651 C2.54444594,63.6586651 2.92457926,63.8146651 3.20071259,64.0959984 C3.31631258,64.2093317 3.40111258,64.3293317 3.46417925,64.4573317 C3.57351258,64.5706651 3.66937924,64.6973317 3.74751257,64.830665 C3.89857924,65.090665 3.98191257,65.466665 3.98711257,65.7679984 C3.99751257,66.1479983 3.91417924,66.466665 3.72151257,66.7999983 C3.56524591,67.0719983 3.33191258,67.2773317 3.06311259,67.406665 C2.88604593,67.602665 2.65377927,67.750665 2.39857927,67.8199983 C2.27871261,67.8533316 2.15591261,67.8679983 2.03297928,67.8679983 C1.78764596,67.8679983 1.54337929,67.8053316 1.33084597,67.6799983 C1.03351264,67.5079983 0.880312645,67.2773317 0.749645981,66.9879983 C0.684045983,66.8293317 0.616845985,66.6733317 0.560045986,66.518665 C0.518312654,66.314665 0.487112655,66.1119983 0.466312655,65.9093317 C0.481912655,65.710665 0.507912654,65.518665 0.539245987,65.3199984 C0.585512652,65.198665 0.627245984,65.070665 0.679779316,64.9479984" id="path204" transform="translate(2.227144, 65.763332) scale(-1, 1) rotate(-180.000000) translate(-2.227144, -65.763332) "></path>
            <path d="M0.746445981,64.4399984 C0.746979315,64.4426651 0.748579315,64.4453317 0.749645981,64.4479984 C0.763112648,64.4813317 0.776179314,64.5133317 0.78924598,64.5466651 C0.775112647,64.5093317 0.760579314,64.4759984 0.746445981,64.4399984" id="path206" transform="translate(0.767846, 64.493332) scale(-1, 1) rotate(-180.000000) translate(-0.767846, -64.493332) "></path>
            <path d="M2.51684594,71.0839011 C3.35017925,71.3132344 3.75071257,72.1412344 3.57871258,72.9479011 C3.54911258,73.0892344 3.52351258,73.2292344 3.49911258,73.3705677 C3.35431258,74.8825677 3.27404592,76.3905676 3.20951259,77.9065676 C3.17831259,78.6572343 3.24537925,79.4225676 3.26684592,80.1719009 C3.29751258,81.3345675 3.35017925,82.4905675 3.41204591,83.6519008 C3.45951258,84.5159008 2.65164593,85.2452341 1.82351262,85.2452341 C0.917379311,85.2452341 0.277245993,84.5159008 0.229779328,83.6519008 C0.162045996,82.4385675 0.105379331,81.2292342 0.0683126651,80.0159009 C0.0428459991,79.2719009 -0.020220666,78.5105676 0.006446,77.7665676 C0.0376459992,76.9532343 0.0428459991,76.1412343 0.115779331,75.3292343 C0.209512662,74.271901 0.256445994,73.1412344 0.651645984,72.1412344 C0.802712647,71.7612344 0.979779309,71.4532344 1.3501793,71.2345678 C1.69911262,71.0319011 2.12617928,70.9745678 2.51684594,71.0839011" id="path208" transform="translate(1.808977, 78.137283) scale(-1, 1) rotate(-180.000000) translate(-1.808977, -78.137283) "></path>
            <path d="M6.31991251,89.7821861 C6.75737916,90.4635194 6.5335125,91.3448527 6.24177918,92.0208527 C6.11164585,92.3288527 5.95537918,92.5995194 5.73657919,92.8488527 C5.4553792,93.1675193 5.13244587,93.3395193 4.73137922,93.4688527 C4.71057922,93.4728527 4.68977922,93.4715193 4.66884588,93.4755193 C4.42871256,93.6955193 4.1188459,93.830186 3.79391257,93.830186 C3.45017925,93.830186 3.11684592,93.6888527 2.87204593,93.4448527 C2.60644593,93.1795193 2.5387126,92.8875193 2.49177927,92.5275194 C2.48657927,92.482186 2.4871126,92.4368527 2.48297927,92.3915194 C2.46057927,92.3528527 2.43244594,92.310186 2.41364594,92.2768527 C2.36257927,92.182186 2.31684594,92.0888527 2.27511261,91.994186 C2.23977928,91.9475194 2.20591261,91.8995194 2.17404595,91.8488527 C1.86471262,91.358186 1.75844596,90.7981861 1.86884595,90.2608527 C1.86471262,90.2208527 1.86057929,90.1808527 1.85644595,90.1408527 C1.79911262,89.5781861 2.29391261,89.0368528 2.8043126,88.8968528 C2.87511259,88.8768528 2.94697926,88.8635194 3.01831259,88.8555194 C3.07724592,88.8328528 3.13604592,88.8128528 3.19497925,88.7968528 C3.65844591,88.6675194 4.08551256,88.6515195 4.55951255,88.7195194 C4.91364588,88.7715194 5.2157792,88.8915194 5.54391253,89.0315194 C5.88244585,89.1781861 6.13244585,89.4848528 6.31991251,89.7821861" id="path210" transform="translate(4.195931, 91.255092) scale(-1, 1) rotate(-180.000000) translate(-4.195931, -91.255092) "></path>
            <path d="M12.2360457,99.1755232 C11.6631124,100.31659 10.9652457,101.373923 10.3559124,102.48859 C9.59537909,103.873923 8.94964578,105.325923 8.30377913,106.76459 C8.13711246,107.149923 7.67871247,107.44059 7.29337915,107.545923 C7.14591249,107.585923 6.99497916,107.60459 6.84497916,107.60459 C6.54337917,107.60459 6.24497918,107.525923 5.98084585,107.373923 C5.60591253,107.155256 5.3193792,106.78459 5.20484587,106.363256 C5.06937921,105.883256 5.17871254,105.48859 5.37671253,105.055256 C6.57977917,102.33659 7.75164581,99.5031232 9.77777909,97.2791233 C10.2516457,96.7645899 11.0901791,96.6968566 11.6735124,97.0353899 C12.4444457,97.4885899 12.6215124,98.4151232 12.2360457,99.1755232" id="path212" transform="translate(8.788842, 102.215627) scale(-1, 1) rotate(-180.000000) translate(-8.788842, -102.215627) "></path>
            <path d="M43.6324449,4.13462378 C44.0021782,4.01995711 44.3980449,4.09729044 44.7625782,4.16529044 C44.9449782,4.23329044 45.1272449,4.30662377 45.3043115,4.3839571 C45.5387115,4.51462377 45.7627115,4.67062376 45.9600449,4.84795709 C46.2000448,5.05595709 46.4027115,5.27462375 46.5853782,5.53595707 C46.8360448,5.8892904 46.8773782,6.24929039 46.9240448,6.67595705 C46.9920448,7.29595703 46.4080448,8.03995701 45.7987115,8.14529034 C45.5800449,8.18662367 45.3564449,8.22262367 45.1324449,8.23329034 C45.1188449,8.23329034 45.1043115,8.23329034 45.0907115,8.23329034 C44.7095115,8.23329034 44.3287116,8.02929035 43.9969782,7.86395702 C43.9209782,7.82529035 43.8507116,7.77995702 43.7860449,7.72795702 C43.6704449,7.67729035 43.5595116,7.62129036 43.4605782,7.56662369 C42.8772449,7.24395703 42.2939116,6.57195705 42.2990771,5.8732904 C42.2990771,5.50929041 42.3616449,5.21195708 42.5491116,4.89995709 C42.7939116,4.49329043 43.1897783,4.26929044 43.6324449,4.13462378" id="path214" transform="translate(44.614267, 6.154645) scale(-1, 1) rotate(-180.000000) translate(-44.614267, -6.154645) "></path>
            <path d="M52.7107113,1.19544269 C54.4867113,1.58610934 56.2680446,1.944776 58.0547112,2.29944266 C59.0067112,2.49010932 59.9627112,2.61410932 60.9240445,2.74610931 C61.9253778,2.84610931 62.9227111,2.94610931 63.9293777,2.98210931 C64.830711,3.01277597 65.586711,3.71144262 65.586711,4.63810927 C65.586711,5.51944258 64.8453777,6.28877589 63.9560444,6.28877589 C63.9480444,6.28877589 63.9387111,6.28877589 63.9293777,6.28877589 C61.9400445,6.25810923 59.9667112,5.90344257 58.0027112,5.61144257 C57.2267112,5.49277591 56.4507113,5.30477592 55.6800446,5.14877592 C54.3987113,4.88877593 53.1227113,4.61677593 51.8467114,4.33544261 C50.9813781,4.14344261 50.4813781,3.1541093 50.7107114,2.33144266 C50.9560447,1.44477601 51.8467114,1.00210936 52.7107113,1.19544269" id="path216" transform="translate(58.120917, 3.719721) scale(-1, 1) rotate(-180.000000) translate(-58.120917, -3.719721) "></path>
            <path d="M69.4680443,1.03141022 C69.5947109,0.682076891 69.8413776,0.386076898 70.1587109,0.199410236 C70.5547109,-0.0299230915 70.9453776,-0.0299230915 71.3827109,0.04341024 C71.7213775,0.100743572 72.0187109,0.163410237 72.3413775,0.308743567 C72.5600442,0.412743564 72.7480442,0.554076894 72.9147108,0.73007689 C73.2533775,1.06874355 73.3827108,1.48074354 73.4293775,1.94474353 C73.4973775,2.53807684 73.1120442,3.17807683 72.6067109,3.47541015 C72.3147109,3.64607682 71.9853775,3.72074348 71.6520442,3.72074348 C71.5600442,3.72074348 71.4680442,3.71407681 71.3760442,3.70341015 C71.2987109,3.69807682 71.2267109,3.68474348 71.1547109,3.66874348 C70.9813776,3.63141015 70.8093776,3.57807682 70.6480442,3.51141015 C70.3253776,3.37674349 70.0600442,3.27807683 69.8093776,3.02207683 C69.6013776,2.81941017 69.3987109,2.50207685 69.3200443,2.22074352 C69.2373776,1.92341019 69.2427109,1.59007687 69.3520443,1.29807688 C69.3867109,1.20341021 69.4253776,1.11407688 69.4680443,1.03141022" id="path218" transform="translate(71.350268, 1.860372) scale(-1, 1) rotate(-180.000000) translate(-71.350268, -1.860372) "></path>
            <path d="M79.080044,3.2006797 C80.2307107,3.11801304 81.376044,3.0286797 82.5213773,2.88601304 C84.0467106,2.64467971 85.4960439,2.16201306 86.9400438,1.61667974 C87.5493771,1.38734641 88.1587105,1.17401308 88.8040438,1.04334642 C89.4813771,0.914013091 90.1587104,1.12201309 90.5173771,1.74201307 C90.9240437,2.43401305 90.7053771,3.43401303 89.9760438,3.81934635 C89.0080438,4.33534634 88.0173771,4.78867966 87.0027105,5.20067965 C85.8040439,5.68467964 84.5693772,6.03401296 83.2880439,6.22067962 C81.8933773,6.43001295 80.4867107,6.53934628 79.080044,6.63801295 C79.0467107,6.64067961 79.0133774,6.64201295 78.9813774,6.64201295 C78.088044,6.64201295 77.3613774,5.77667964 77.3613774,4.91934632 C77.3613774,4.466013 77.5440441,4.02867968 77.8613774,3.70601302 C78.2053774,3.36734636 78.612044,3.2366797 79.080044,3.2006797" id="path220" transform="translate(84.040616, 3.824340) scale(-1, 1) rotate(-180.000000) translate(-84.040616, -3.824340) "></path>
            <path d="M94.9240436,4.89033596 C95.4493769,4.71300263 96.0480436,4.74900263 96.5333769,5.04100262 C96.8760436,5.24500262 97.2000436,5.49966928 97.3613769,5.87433594 C97.5333769,6.27566926 97.6373769,6.62500258 97.5173769,7.06766924 C97.4387102,7.34366923 97.2573769,7.68766922 97.0533769,7.89033589 C96.8680436,8.07700255 96.6453769,8.21966921 96.4053769,8.31966921 C96.1667103,8.55300254 95.8373769,8.68233587 95.5013769,8.68233587 C95.189377,8.68233587 94.7827103,8.55700254 94.5800436,8.30233588 C94.481377,8.18100255 94.3787103,8.05966922 94.2827103,7.93566922 C94.117377,7.78900256 94.0080436,7.59966923 93.9427103,7.39300257 C93.861377,7.21300257 93.817377,7.04233591 93.7880437,6.84366925 C93.7720437,6.72366925 93.757377,6.60900258 93.741377,6.48900259 C93.7520437,6.30633593 93.7827103,6.13033593 93.8347103,5.9530026 C93.9600437,5.44766928 94.449377,5.05166929 94.9240436,4.89033596" id="path222" transform="translate(95.655243, 6.732501) scale(-1, 1) rotate(-180.000000) translate(-95.655243, -6.732501) "></path>
            <path d="M100.31871,13.1771361 C100.681377,13.1238027 101.02271,13.0398027 101.36671,12.9238027 C101.96271,12.6478027 102.545377,12.3264694 103.120043,12.0051361 C103.68271,11.6931361 104.252043,11.3851361 104.809377,11.0624694 C105.91471,10.4198028 107.001377,9.77446947 108.048043,9.03980282 C108.441377,8.70913616 108.829377,8.37446951 109.204043,8.02646951 C109.85471,7.42246953 110.865377,7.37980286 111.51071,8.02646951 C112.148043,8.66113616 112.137377,9.70380281 111.51071,10.3384695 C110.220043,11.6558028 108.625377,12.6091361 107.037377,13.521136 C106.277377,13.953136 105.516043,14.3744694 104.752043,14.7918027 C103.625377,15.4118027 102.453377,16.089136 101.173377,16.2704693 C101.009377,16.2958026 100.85471,16.313136 100.704043,16.313136 C100.44271,16.313136 100.19471,16.2624693 99.9333768,16.109136 C99.5800435,15.901136 99.3093769,15.5518027 99.1987102,15.1518027 C99.0853769,14.7398027 99.1427102,14.2864694 99.3600435,13.917136 C99.5480435,13.5944694 99.9333768,13.2344694 100.31871,13.1771361" id="path224" transform="translate(105.563293, 11.935235) scale(-1, 1) rotate(-180.000000) translate(-105.563293, -11.935235) "></path>
            <path d="M115.237376,17.0365151 C115.513376,16.9578484 115.91471,16.9791818 116.19071,17.0525151 C116.497376,17.1405151 116.79471,17.3485151 116.997376,17.5938484 C117.368043,18.0311817 117.53471,18.5631817 117.576043,19.1298484 C117.62271,19.7911817 117.388043,20.348515 116.93471,20.8231817 C116.633376,21.1338483 116.19471,21.2938483 115.761376,21.2938483 C115.59471,21.2938483 115.429376,21.2711816 115.273376,21.224515 C115.197376,21.200515 115.125376,21.172515 115.05871,21.140515 C114.87471,21.1191817 114.697376,21.0631817 114.560043,20.9631817 C114.08671,20.6151817 113.648043,20.2711817 113.481376,19.672515 C113.300043,19.020515 113.524043,18.3538484 113.977376,17.8645151 C114.31471,17.5005151 114.748043,17.1671818 115.237376,17.0365151" id="path226" transform="translate(115.500145, 19.140257) scale(-1, 1) rotate(-180.000000) translate(-115.500145, -19.140257) "></path>
            <path d="M126.03871,27.4758736 C126.724043,26.5652069 127.272043,25.6012069 127.733376,24.5665403 C127.816043,24.353207 127.886709,24.1398736 127.950709,23.9185403 C128.185376,23.0638737 129.096043,22.5425404 129.945376,22.7825403 C130.830709,23.0225403 131.278709,23.9185403 131.081376,24.7825403 C130.925376,25.4758736 130.596043,26.1265403 130.258709,26.7465402 C129.690709,27.7932069 128.970709,28.7518735 128.226709,29.6785402 C126.669376,31.6052068 124.737376,33.1998734 122.820043,34.74654 C122.48671,35.0172067 122.17471,35.1998734 121.737376,35.1998734 C121.33071,35.1998734 120.940043,35.0332067 120.653376,34.74654 C120.36671,34.4652067 120.205376,34.0692067 120.205376,33.6678734 C120.205376,33.2985401 120.357376,32.8238734 120.653376,32.5852068 C122.585376,31.0212068 124.472043,29.4132068 126.03871,27.4758736" id="path228" transform="translate(125.666390, 28.961936) scale(-1, 1) rotate(-180.000000) translate(-125.666390, -28.961936) "></path>
            <path d="M129.845376,41.4464296 C129.658709,41.1344296 129.642709,40.8064296 129.617376,40.4570963 C129.574709,39.9410963 129.918709,39.4890963 130.226709,39.1184296 C130.372043,39.0024296 130.522709,38.8890963 130.674709,38.7744296 C130.893376,38.663763 131.117376,38.5664296 131.356043,38.5024296 C131.442709,38.4824296 131.529376,38.463763 131.617376,38.451763 C131.909376,38.3384296 132.196043,38.2930963 132.538709,38.2744296 C133.028043,38.2530963 133.460043,38.5464296 133.814709,38.8410963 C134.076043,39.0584296 134.277376,39.5024296 134.342709,39.8930963 C134.589376,40.5770963 134.458709,41.3877629 133.888043,41.8944296 C133.700043,42.0597629 133.486709,42.1864295 133.262709,42.2637629 C133.098709,42.3664295 132.922709,42.4477629 132.741376,42.5024295 C132.500043,42.5770962 132.278709,42.6037629 132.056043,42.6037629 C131.834709,42.6037629 131.612043,42.5770962 131.366709,42.5410962 C131.017376,42.4837629 130.440043,42.1864295 130.210709,41.9104296 C130.080043,41.7584296 129.960043,41.6037629 129.845376,41.4464296" id="path230" transform="translate(132.037656, 40.438548) scale(-1, 1) rotate(-180.000000) translate(-132.037656, -40.438548) "></path>
            <path d="M133.737376,56.9106652 C133.633376,56.5306653 133.654709,55.9786653 133.904043,55.6506653 C134.070709,55.4333319 134.237376,55.2199986 134.402709,55.005332 C134.394709,55.0159986 134.386709,55.025332 134.378709,55.0359986 C134.960043,54.2466653 135.470709,53.3826653 135.885376,52.493332 C136.144043,51.7986654 136.293376,51.0839987 136.405376,50.3533321 C136.522709,49.1653321 136.454709,47.9653321 136.540043,46.7746655 C136.597376,45.9159989 137.206709,45.1973322 138.113376,45.1973322 C138.530709,45.1973322 138.930709,45.3639989 139.228043,45.6599989 C139.540043,45.9733322 139.649376,46.3426655 139.686709,46.7746655 C139.794709,48.0199988 139.853376,49.2693321 139.697376,50.5146654 C139.618709,51.1546654 139.509376,51.7906654 139.364043,52.4159987 C139.222709,53.0359987 138.961376,53.6186653 138.706709,54.2026653 C138.210709,55.3119986 137.498709,56.3266653 136.753376,57.2839986 C136.748043,57.2919986 136.742709,57.2986652 136.737376,57.3066652 C136.713376,57.3373319 136.689376,57.3679986 136.665376,57.3973319 C136.657376,57.4079986 136.648043,57.4199986 136.638709,57.4306652 C136.644043,57.4253319 136.649376,57.4186652 136.654709,57.4119986 C136.408043,57.7133319 136.161376,57.9439986 135.758709,58.0559985 C135.616043,58.0959985 135.468043,58.1159985 135.321376,58.1159985 C135.032043,58.1159985 134.745376,58.0399985 134.493376,57.8946652 C134.129376,57.6759986 133.853376,57.3213319 133.737376,56.9106652" id="path232" transform="translate(136.735640, 51.656665) scale(-1, 1) rotate(-180.000000) translate(-136.735640, -51.656665) "></path>
            <path d="M138.858709,66.8419562 C138.436043,66.6859562 138.134709,66.5192895 137.796043,66.2272895 C137.525376,66.0032895 137.296043,65.7126228 137.140043,65.3992895 C136.957376,65.0352895 136.873376,64.6859562 136.873376,64.2739562 C136.873376,63.6232896 137.280043,62.9979562 137.837376,62.6699563 C138.670709,62.1859563 139.670709,62.4259563 140.425376,62.9312896 C140.816042,63.1912896 141.113376,63.5246229 141.238709,63.9886229 C141.364042,64.4406229 141.301376,64.9406229 141.061376,65.3472895 C141.052042,65.3632895 141.042709,65.3792895 141.033376,65.3939562 C141.025376,65.4899562 141.009376,65.5859562 140.982709,65.6806228 C140.873376,66.0819562 140.592042,66.4312895 140.244042,66.6499562 C139.985376,66.8126228 139.642709,66.9152895 139.310709,66.9152895 C139.153376,66.9152895 139.000043,66.8912895 138.858709,66.8419562" id="path234" transform="translate(139.087576, 64.660977) scale(-1, 1) rotate(-180.000000) translate(-139.087576, -64.660977) "></path>
            <path d="M140.674709,85.2534873 C140.185376,85.2534873 139.705376,85.0548206 139.362709,84.7054873 C138.992043,84.336154 138.857376,83.8988206 138.814709,83.388154 C138.708043,82.1334873 138.569376,80.876154 138.432043,79.6214874 C138.024043,77.2188208 137.541376,74.8214875 137.273376,72.4041543 C137.185376,71.6228209 137.888043,70.866821 138.596043,70.6694876 C139.534709,70.4094876 140.549376,70.9814876 140.805376,71.9241543 C141.248042,73.5601542 141.492042,75.2534875 141.758709,76.9241541 C141.909376,77.8414875 142.070709,78.7574874 142.169376,79.6854874 C142.300042,80.920154 142.434709,82.1534873 142.534709,83.388154 C142.622709,84.404154 141.628042,85.2534873 140.674709,85.2534873" id="path236" transform="translate(139.903020, 77.930076) scale(-1, 1) rotate(-180.000000) translate(-139.903020, -77.930076) "></path>
            <path d="M138.962709,94.1664407 C138.804043,94.3811074 138.601376,94.567774 138.394709,94.6891074 C138.024043,94.9091074 137.622709,94.979774 137.196043,94.991774 C137.185376,94.991774 137.176043,94.991774 137.165376,94.991774 C136.318709,94.991774 135.569376,94.3637741 135.040043,93.7664407 C134.832043,93.5264407 134.638709,93.2664407 134.477376,92.9971074 C134.289376,92.6784408 134.097376,92.1357741 134.118709,91.7557741 C134.138709,91.3504408 134.196043,90.9691075 134.446709,90.6411075 C134.613376,90.3651075 134.826709,90.1464408 135.102709,89.9864408 C135.342709,89.8397742 135.581376,89.7424408 135.857376,89.7037742 C136.092043,89.6317742 136.326709,89.6211075 136.561376,89.6637742 C136.805376,89.6731075 137.045376,89.7144408 137.274709,89.7877742 C137.638709,89.8811075 138.009376,90.0944408 138.310709,90.3131075 C138.842709,90.7091075 139.217376,91.1531075 139.586709,91.6984408 C140.045376,92.3651074 139.852043,93.3504407 139.305376,93.9037741 C139.204043,94.0051074 139.088043,94.0931074 138.962709,94.1664407" id="path238" transform="translate(136.980334, 92.315219) scale(-1, 1) rotate(-180.000000) translate(-136.980334, -92.315219) "></path>
            <path d="M135.221376,111.313331 C134.966709,111.462664 134.666709,111.535997 134.365376,111.535997 C133.770709,111.535997 133.172043,111.251997 132.898709,110.703997 C132.280043,109.449331 131.592043,108.246664 130.846709,107.063997 C130.180043,106.006531 129.436043,105.001331 128.701376,103.990931 C128.065376,103.126797 127.430709,102.265331 126.785376,101.417464 C126.644043,101.177331 126.576043,100.917464 126.576043,100.641464 C126.576043,100.236264 126.737376,99.8398642 127.024043,99.5533308 C127.310709,99.2653309 127.705376,99.0986642 128.113376,99.0986642 C128.560043,99.0986642 128.862709,99.2882642 129.201376,99.5533308 C130.054709,100.219997 130.690709,101.089331 131.352043,101.943997 C133.065376,104.157597 134.592043,106.479997 135.832043,108.990664 C136.038709,109.413331 136.128043,109.834664 136.004043,110.298664 C135.882709,110.719997 135.602709,111.089331 135.221376,111.313331" id="path240" transform="translate(131.318383, 105.317331) scale(-1, 1) rotate(-180.000000) translate(-131.318383, -105.317331) "></path>
            <path d="M124.15871,119.666805 C123.836043,119.978671 123.420043,120.202671 122.961376,120.202671 C122.372043,120.202671 121.929376,119.901605 121.492043,119.552138 C121.325376,119.421471 121.169376,119.182938 121.049376,119.026671 C120.91471,118.849605 120.79471,118.666805 120.67471,118.484005 C120.41471,118.073472 120.221376,117.645338 120.180043,117.155872 C120.153376,116.833472 120.22671,116.541205 120.377376,116.254805 C120.53871,115.964138 120.72671,115.797472 120.98671,115.604272 C121.216043,115.437605 121.57071,115.297472 121.86271,115.328272 C121.91471,115.333472 121.96671,115.343872 122.013376,115.349605 C122.300043,115.349605 122.565376,115.421472 122.81071,115.562538 C123.701376,115.942805 124.57071,116.874538 124.45071,117.901605 C124.45071,117.906805 124.449376,117.912005 124.449376,117.917338 C124.661376,118.516271 124.660043,119.172005 124.15871,119.666805" id="path242" transform="translate(122.378866, 117.763334) scale(-1, 1) rotate(-180.000000) translate(-122.378866, -117.763334) "></path>
            <path d="M118.224043,130.889973 C118.092043,130.923307 117.95871,130.940507 117.828043,130.940507 C117.697376,130.940507 117.565376,130.923307 117.432043,130.889973 C117.181376,130.81664 116.964043,130.69104 116.781376,130.50984 C114.97471,129.108773 113.161377,127.718107 111.365377,126.31144 C109.84271,125.124907 108.265377,123.972907 106.880043,122.630107 C106.47471,122.22864 106.396043,121.572907 106.681377,121.08224 C107.041377,120.467174 107.813377,120.300507 108.42671,120.630107 C109.317377,121.108774 110.125377,121.72864 110.948043,122.32184 C111.693377,122.86344 112.416043,123.436907 113.15071,123.99424 C114.969376,125.37384 116.77071,126.78064 118.577376,128.176507 C118.900043,128.425973 119.14671,128.655173 119.260043,129.061973 C119.365376,129.447307 119.308043,129.86344 119.109376,130.207173 C118.916043,130.540507 118.593376,130.78584 118.224043,130.889973" id="path244" transform="translate(112.911627, 125.702318) scale(-1, 1) rotate(-180.000000) translate(-112.911627, -125.702318) "></path>
            <path d="M16.1407123,110.648545 C16.2917789,111.008545 16.4168456,111.289745 16.4168456,111.689745 C16.4168456,112.028812 16.2969789,112.470945 16.1251123,112.763212 C15.8277789,113.275212 15.260579,113.625745 14.6683123,113.705879 C14.532979,113.743345 14.3907123,113.763212 14.244979,113.763212 C13.7231123,113.763212 13.2491123,113.512679 12.9392457,113.124679 C12.302179,112.587212 11.924579,111.764812 12.1668457,110.903345 C12.3283124,110.325745 12.807379,109.799079 13.4064457,109.664812 C13.4220457,109.659079 13.4324457,109.659079 13.4480457,109.653879 C13.5324457,109.634012 13.617779,109.622012 13.7048457,109.612679 C14.0803123,109.455345 14.520979,109.413745 14.8699123,109.544412 C15.1616456,109.648545 15.4844456,109.758012 15.6928456,110.008545 C15.8595123,110.211079 16.0365789,110.403345 16.1407123,110.648545" id="path246" transform="translate(14.254864, 111.614938) scale(-1, 1) rotate(-180.000000) translate(-14.254864, -111.614938) "></path>
            <path d="M23.5527121,117.612532 C23.2283121,117.840132 22.9027121,118.068265 22.5777788,118.301599 C22.4496454,118.400532 22.3220454,118.500532 22.1939121,118.597999 C21.5469788,119.103199 20.9808455,119.715199 20.4600455,120.352665 C19.6835122,121.428665 19.0897789,122.633865 18.5007122,123.821865 C18.2464455,124.337598 17.6824456,124.607332 17.1240456,124.607332 C16.8387122,124.607332 16.5548456,124.536532 16.3131123,124.393732 C15.5168456,123.931332 15.3501789,122.988532 15.7349789,122.207332 C16.2193789,121.227065 16.7095122,120.258932 17.2720456,119.327065 C17.8553789,118.357865 18.6105789,117.467199 19.4120455,116.669865 C19.7564455,116.327065 20.1261788,115.988532 20.5007122,115.685999 C20.9387121,115.332399 21.3605788,114.972399 21.8657788,114.727065 C22.2824454,114.524532 22.6991121,114.431332 23.1568454,114.560399 C23.5735121,114.675065 23.9387121,114.951065 24.1568454,115.327065 C24.3808454,115.712532 24.4439121,116.185999 24.3235121,116.617732 C24.2043121,117.060399 23.9231121,117.363065 23.5527121,117.612532" id="path248" transform="translate(19.960197, 119.554198) scale(-1, 1) rotate(-180.000000) translate(-19.960197, -119.554198) "></path>
            <path d="M28.7683119,129.298683 C28.7308453,129.298683 28.6939119,129.297083 28.655912,129.294417 C28.1089786,129.26535 27.6037786,129.020017 27.2340453,128.614817 C26.8693787,128.21735 26.697512,127.77575 26.655912,127.232017 C26.6261787,126.798684 26.8116453,126.421084 27.0985787,126.13615 C27.1105787,126.108017 27.1225787,126.079884 27.1349787,126.050684 C27.2652453,125.75855 27.473512,125.598684 27.723512,125.41055 C28.2704453,124.994417 28.9735119,125.020017 29.5725786,125.299617 C30.1297786,125.561084 30.4423119,126.091884 30.5725786,126.672017 C30.7079119,127.249217 30.6507119,127.91055 30.3433786,128.425217 C30.0240452,128.97575 29.3901786,129.298683 28.7683119,129.298683" id="path250" transform="translate(28.647197, 127.195940) scale(-1, 1) rotate(-180.000000) translate(-28.647197, -127.195940) "></path>
            <path d="M43.7152449,132.03636 C43.4605782,132.107294 43.2100449,132.212494 42.9641783,132.309827 C42.3397783,132.583294 41.7267116,132.87396 41.1111116,133.16716 C39.4819117,133.94996 38.029245,134.970227 36.6007118,136.05516 C36.2725784,136.316627 35.9444451,136.583294 35.6163118,136.84996 C35.2464451,137.142094 34.9027118,137.34476 34.4079118,137.34476 C33.9600452,137.34476 33.5225785,137.16716 33.2048452,136.84996 C32.8871118,136.53276 32.7048452,136.094227 32.7048452,135.642094 C32.7048452,135.235294 32.8715118,134.70876 33.2048452,134.43796 C34.2881785,133.57396 35.3767118,132.71916 36.5016451,131.913027 C37.4600451,131.230094 38.480845,130.642094 39.5433783,130.136894 C40.1371117,129.85516 40.725645,129.579694 41.3349783,129.328627 C41.689245,129.178094 42.0381783,129.032761 42.4183116,128.964494 C42.8401783,128.891027 43.0381783,128.885827 43.4600449,128.948894 C43.8453782,129.000494 44.1163116,129.178094 44.4027116,129.437961 C45.2881782,130.230094 44.8037782,131.740627 43.7152449,132.03636" id="path252" transform="translate(38.783492, 133.124979) scale(-1, 1) rotate(-180.000000) translate(-38.783492, -133.124979) "></path>
            <path d="M53.005378,138.966315 C52.9267113,139.132982 52.817378,139.290849 52.7187113,139.446582 C52.541378,139.712182 52.3280447,139.884049 52.073378,140.072049 C51.9067114,140.196049 51.6667114,140.253382 51.4640447,140.296049 C51.3387114,140.322582 51.2173781,140.333515 51.0973781,140.333515 C50.8933781,140.333515 50.6933781,140.301249 50.4800447,140.269515 C50.2600447,140.233515 50.0467114,140.102849 49.8600448,140.003915 C49.7293781,139.905382 49.6040448,139.810582 49.4800448,139.706449 C49.3747114,139.586715 49.2707114,139.462715 49.1773781,139.331915 C49.0240448,139.057515 48.9173781,138.763782 48.8760448,138.461115 C48.8587114,138.378849 48.8493781,138.296049 48.8547114,138.217382 C48.8547114,138.202849 48.8560448,138.189249 48.8573781,138.177249 C48.8573781,138.087649 48.8640448,138.000182 48.8747114,137.909115 C48.9013781,137.701249 48.9173781,137.514849 48.9840448,137.320982 C49.0893781,137.024182 49.2507114,136.763782 49.4947114,136.561115 C49.9147114,136.205382 50.3893781,136.085115 50.9040447,136.110582 C51.2827114,136.012182 51.681378,135.984049 52.057378,136.045515 C52.3027114,136.081515 52.4947114,136.165249 52.7080447,136.285115 C52.9800447,136.441382 53.2240447,136.774715 53.2867113,137.081515 C53.3600447,137.414849 53.3800447,137.712182 53.317378,138.045515 C53.2600447,138.373115 53.1360447,138.660049 53.005378,138.966315" id="path254" transform="translate(51.104003, 138.173289) scale(-1, 1) rotate(-180.000000) translate(-51.104003, -138.173289) "></path>
            <path d="M71.3853775,142.070789 C71.1933776,142.101455 70.9947109,142.139055 70.8027109,142.153589 C70.6147109,142.163989 70.4320442,142.180122 70.2453776,142.190522 C69.8653776,142.216122 69.4840443,142.221322 69.1040443,142.242655 C68.2653776,142.289455 67.426711,142.335855 66.5893777,142.387989 C65.802711,142.439989 65.0213777,142.481189 64.2400444,142.575989 C63.4013777,142.682789 62.5587111,142.790522 61.7187111,142.894655 C61.1880445,142.975989 60.6613778,143.069189 60.1360445,143.158789 C60.0053778,143.178522 59.8787112,143.192122 59.7573778,143.192122 C59.5307112,143.192122 59.3147112,143.146789 59.0933779,143.018655 C58.7920445,142.841589 58.5680445,142.549455 58.4747112,142.210922 C58.3747112,141.862922 58.4267112,141.481189 58.6093779,141.169189 C58.7707112,140.893189 59.0893779,140.606655 59.4173778,140.549455 C60.7453778,140.330655 62.0787111,140.147855 63.4173777,139.977589 C63.8853777,139.920255 64.3547111,139.857189 64.822711,139.799989 C65.1880444,139.753589 65.5680444,139.747855 65.9320444,139.721322 C66.9013777,139.658789 67.870711,139.595722 68.8387109,139.538522 C69.2560443,139.513455 69.6667109,139.492122 70.0840442,139.472389 C70.6200442,139.445189 71.2760442,139.393189 71.7453775,139.685322 C72.0320442,139.862922 72.2453775,140.122789 72.3387109,140.450389 C72.4480442,140.851989 72.3547109,141.429055 72.0053775,141.701455 C71.8173775,141.846789 71.6360442,142.029589 71.3853775,142.070789" id="path256" transform="translate(65.403268, 141.321326) scale(-1, 1) rotate(-180.000000) translate(-65.403268, -141.321326) "></path>
            <path d="M80.1027107,141.051131 C80.012044,141.248464 79.8933773,141.430731 79.7533773,141.593797 C79.368044,142.036464 78.7947107,142.327131 78.2013774,142.348464 C78.1747107,142.349531 78.148044,142.349531 78.1213774,142.349531 C77.5933774,142.349531 77.1467107,142.201664 76.6760441,141.962997 C76.3053774,141.774997 75.8933774,141.430731 75.6853774,141.061531 C75.4093774,140.556331 75.3373775,140.088597 75.4253774,139.525531 C75.5093774,138.968331 75.8320441,138.525531 76.2800441,138.203131 C76.7053774,137.889664 77.2427107,137.780197 77.7640441,137.796331 C78.6907107,137.827131 79.6853773,138.244331 80.1653773,139.056331 C80.420044,139.493797 80.4147107,139.910997 80.3373773,140.389664 C80.3027107,140.620331 80.2267107,140.852597 80.1027107,141.051131" id="path258" transform="translate(77.887042, 140.072164) scale(-1, 1) rotate(-180.000000) translate(-77.887042, -140.072164) "></path>
            <path d="M96.4347103,140.770803 C96.3373769,141.012003 96.1760436,141.222403 95.9520436,141.353203 C95.7693769,141.459869 95.5400436,141.521336 95.3147103,141.521336 C95.1107103,141.521336 94.9067103,141.470269 94.7427103,141.353203 C94.637377,141.281203 94.5227103,141.218803 94.413377,141.147869 C94.1507103,141.058936 93.893377,140.940136 93.641377,140.833336 C93.285377,140.681203 92.9307103,140.519869 92.5760437,140.364136 C91.8400437,140.077069 91.1053771,139.816136 90.3440437,139.605203 C89.6013771,139.393203 88.8160438,139.293203 88.0573771,139.165069 C87.3320438,139.067736 86.6067105,138.971869 85.8813772,138.886536 C85.3973772,138.828136 85.0000439,138.730803 84.6413772,138.376003 C84.3133772,138.047869 84.1253772,137.600003 84.1253772,137.136003 C84.1253772,136.671869 84.3133772,136.219869 84.6413772,135.89747 C84.9373772,135.600003 85.4480439,135.328136 85.8813772,135.381203 C87.9013771,135.616136 89.9480438,135.838536 91.917377,136.386536 C92.8387103,136.641203 93.7307103,137.053203 94.5987103,137.438536 C95.5893769,137.870269 96.9173769,138.547869 96.8387102,139.813069 C96.8173769,140.214536 96.6693769,140.524003 96.4347103,140.770803" id="path260" transform="translate(90.483713, 138.447933) scale(-1, 1) rotate(-180.000000) translate(-90.483713, -138.447933) "></path>
            <path d="M103.42671,135.302906 C103.204043,135.532506 102.969377,135.636239 102.68271,135.756506 C102.469377,135.842906 102.244043,135.877839 102.017377,135.877839 C101.777377,135.877839 101.536043,135.837706 101.30271,135.781439 C100.584043,135.604373 99.9267102,135.016373 99.5467102,134.407039 C99.2813769,133.975306 99.2293769,133.339306 99.3653768,132.860639 C99.5267102,132.266906 100.057377,131.688239 100.672043,131.557573 C101.00271,131.489839 101.26671,131.483039 101.564043,131.512239 C101.796043,131.483039 102.032043,131.495039 102.25071,131.568506 C102.641377,131.699173 102.912043,131.865839 103.21871,132.136239 C103.573377,132.442906 103.77071,132.896639 103.917377,133.328373 C103.94271,133.521573 103.969377,133.713839 103.989377,133.907039 C104.021377,134.152373 103.89071,134.620506 103.765377,134.828373 C103.672043,135.000239 103.557377,135.156506 103.42671,135.302906" id="path262" transform="translate(101.643509, 133.686851) scale(-1, 1) rotate(-180.000000) translate(-101.643509, -133.686851) "></path>
            <path d="M78.284044,102.745331 C78.284044,102.745331 78.284044,102.746664 78.2827107,102.747997 C78.2827107,102.750664 78.2827107,102.753331 78.2813774,102.757331 C78.2827107,102.753331 78.2827107,102.749331 78.284044,102.745331" id="path264" transform="translate(78.282711, 102.751331) scale(-1, 1) rotate(-180.000000) translate(-78.282711, -102.751331) "></path>
            <path d="M105.21471,65.3398761 C105.177377,64.2718761 105.125377,63.2038762 105.073377,62.1318762 C105.053377,61.7505429 105.016043,61.3758762 104.985377,61.0012096 C104.940043,60.5158762 104.91871,60.0305429 104.869377,59.5465429 C104.86671,59.5252096 104.864043,59.5065429 104.860043,59.4852096 C104.860043,59.4692096 104.85471,59.4492096 104.85471,59.4332096 C104.857377,59.4425429 104.85871,59.4545429 104.860043,59.4665429 C104.860043,59.4492096 104.85871,59.4318763 104.85471,59.4172096 C104.756043,58.6878763 104.657377,57.9598763 104.55871,57.230543 C104.573377,57.3598763 104.593377,57.490543 104.609377,57.6212096 C104.360043,56.006543 104.07871,54.3865431 103.897377,52.7612098 C103.688043,50.8598765 103.54271,48.9492099 103.308043,47.0478766 C103.084043,45.5118766 102.652043,44.01721 102.068043,42.5785433 C101.94271,42.3185434 101.808043,42.06921 101.657377,41.82921 C101.625377,41.7985434 101.59871,41.7665434 101.568043,41.7305434 C100.397377,41.5998767 99.2200435,41.5065434 98.0480435,41.3758767 C97.3973769,41.3025434 96.7453769,41.2305434 96.0893769,41.1678767 C95.0000436,41.0638767 93.897377,40.9438767 92.8027103,41.0372101 C92.7560437,41.0425434 92.7147103,41.0532101 92.6720437,41.0638767 C92.641377,41.6678767 92.657377,42.2825434 92.6520437,42.8865433 C92.6467104,43.5745433 92.6360437,44.2665433 92.625377,44.9598766 C92.609377,46.4172099 92.625377,47.8758765 92.6307104,49.3398765 C92.6467104,52.1932098 92.5427104,55.0478764 92.3600437,57.8972096 C92.265377,59.3078763 92.0640437,60.7198762 91.9320437,62.1265429 C91.7920437,63.6265428 91.693377,65.1265428 91.5640437,66.6212094 C91.4320437,68.099876 91.2507104,69.5692093 90.7867104,70.979876 C90.5000437,71.8545426 90.1040437,72.6985426 89.6200438,73.4852092 C89.3707104,73.8972092 89.0587104,74.2718759 88.7560438,74.6412092 C88.4227105,75.0532092 88.0373771,75.4172092 87.6093771,75.7305425 C87.2253772,76.0172092 86.8133772,76.2038758 86.3600438,76.3812092 C85.9267105,76.5532092 85.4120439,76.5785425 84.9480439,76.5838758 C84.4267106,76.5945425 83.8867106,76.4598758 83.3867106,76.3452092 C82.8080439,76.2092092 82.2600439,75.9798758 81.7253773,75.7358759 C80.8707106,75.3452092 80.084044,74.7505425 79.4267107,74.0892092 C78.6827107,73.3398759 78.188044,72.4118759 77.8240441,71.4332093 C77.4947107,70.5532093 77.3493774,69.615876 77.2253774,68.687876 C77.0987107,67.7665427 77.0733774,66.8185427 77.1040441,65.8918761 C77.1307107,65.1732094 77.1467107,64.4492095 77.1933774,63.7252095 C77.2867107,62.1985429 77.4013774,60.6732096 77.5107107,59.1465429 C77.7093774,56.3398763 77.7147107,53.5372097 77.7347107,50.7252098 C77.7453774,49.1412098 77.7453774,47.5585432 77.8333774,45.9798766 C77.9173774,44.3598766 78.048044,42.7505433 78.2507107,41.1465434 C78.256044,41.14121 78.256044,41.1358767 78.256044,41.1318767 C78.260044,41.0785434 78.2653774,41.0318767 78.276044,40.9852101 C78.280044,40.9665434 78.2813774,40.9478767 78.2827107,40.9292101 C78.284044,40.9198767 78.2853774,40.9105434 78.2867107,40.9025434 C78.2867107,40.8972101 78.288044,40.8918767 78.2893774,40.8852101 C78.2947107,40.8452101 78.3027107,40.8078767 78.308044,40.7665434 C78.308044,40.7452101 78.3133774,40.7252101 78.3133774,40.7038767 C78.3187107,40.6265434 78.328044,40.5478767 78.344044,40.4652101 C78.360044,40.2878767 78.360044,40.1052101 78.360044,39.9281434 C77.7867107,39.8812101 77.2147107,39.8505434 76.6413774,39.8401434 C75.6933774,39.8188101 74.7347108,39.7770768 73.7920442,39.8702767 C73.4907108,39.9281434 73.1880442,40.0012101 72.8920442,40.0745434 C72.7973775,40.0998767 72.7040442,40.1158767 72.6040442,40.1318767 C72.5787109,40.1412101 72.5480442,40.1518767 72.5160442,40.1625434 C71.8240442,40.3505434 71.1200442,40.3812101 70.4120442,40.3652101 C70.3867109,40.3652101 70.3653776,40.3705434 70.3387109,40.3705434 C70.2507109,40.3812101 70.1613776,40.3758767 70.0680442,40.3545434 C69.9947109,40.3505434 69.9267109,40.3505434 69.8547109,40.3452101 C69.0533776,40.3025434 68.254711,40.2545434 67.4560443,40.2545434 C66.958711,40.2545434 66.462711,40.2732101 65.9640444,40.3238767 C65.802711,40.3505434 65.6413777,40.3758767 65.4800444,40.4078767 C65.4640444,40.8865434 65.4800444,41.3705434 65.4800444,41.8545434 C65.4800444,42.53721 65.4853777,43.2198767 65.474711,43.9078766 C65.4533777,45.3452099 65.4171712,46.7878766 65.4171712,48.2305432 C65.4120444,51.1838765 65.510711,54.1318764 65.630711,57.0838763 C65.6693777,58.0772096 65.6960444,59.0692096 65.7240444,60.0612096 C65.814711,60.8732096 65.898711,61.6878762 65.9653777,62.5025428 C66.0813777,63.9492095 66.142711,65.3932094 66.2160443,66.8412094 C66.2880443,68.2465427 66.4093777,69.6532093 66.486711,71.059876 C66.5653777,72.4812093 66.5813777,73.9038759 66.6640443,75.3198759 C66.7320443,76.3465425 66.8413777,77.3705425 66.8933777,78.3985425 C66.954711,79.5318758 66.9600443,80.6638757 66.9760443,81.793209 C66.9773777,81.9425424 66.986711,82.0905424 66.9893777,82.241209 C67.006711,82.457209 67.0160443,82.673209 67.010711,82.8918757 C67.010711,82.901209 67.0093777,82.9105423 67.0093777,82.921209 C67.0240443,83.6705423 67.0413777,84.4198756 67.0720443,85.1692089 C67.398711,85.2278756 67.726711,85.2838756 68.058711,85.3345423 C69.1827109,85.4652089 70.2973776,85.5998756 71.4227109,85.7505423 C72.2507109,85.8452089 73.0787108,85.9332089 73.9173775,85.9905423 C74.9800441,86.0585423 76.0787108,86.1212089 77.1413774,86.0065423 C77.3080441,85.9745423 77.4747107,85.9385423 77.6413774,85.8972089 C77.6360441,85.7985423 77.6253774,85.7038756 77.6147107,85.6052089 C77.5213774,84.9118756 77.3973774,84.225209 77.2347107,83.5478757 C77.1520441,83.2145423 77.0587107,82.881209 76.9640441,82.5478757 C76.8813774,82.241209 76.7867107,81.933209 76.7147107,81.621209 C76.6520441,81.3758757 76.5840441,81.1358757 76.5733774,80.8865424 C76.5533774,80.7038757 76.5680441,80.5265424 76.6093774,80.3505424 C76.6773774,80.1878757 76.7453774,80.0318757 76.8133774,79.8705424 C76.9373774,79.5892091 77.2867107,79.3652091 77.5680441,79.2932091 C77.9227107,79.1932091 78.2307107,79.2665424 78.548044,79.4172091 C78.9067107,79.5892091 79.1773774,79.8865424 79.4693773,80.1518757 C79.604044,80.2772091 79.7453773,80.3972091 79.8867107,80.5212091 C80.1573773,80.7558757 80.4267107,80.9852091 80.7093773,81.2198757 C81.2347106,81.6265424 81.760044,82.021209 82.3080439,82.4078757 C83.6360439,83.3505423 84.9747105,84.2985423 86.4640438,84.969209 C87.6573771,85.4385423 88.9013771,85.7358756 90.1667104,85.9278756 C91.437377,86.0892089 92.7040437,86.1052089 93.9747103,85.9745423 C94.9267103,85.8345423 95.8547103,85.6212089 96.7560436,85.2718756 C97.4267102,84.965209 98.0533769,84.5838756 98.6413769,84.141209 C99.6307102,83.3345423 100.505377,82.365209 101.308043,81.3705424 C101.776043,80.7452091 102.225377,80.1052091 102.584043,79.4118758 C102.813377,78.9798758 103.037377,78.5478758 103.265377,78.1105425 C103.537377,77.5838758 103.760043,77.0318758 103.99471,76.4798758 C104.141377,76.0532092 104.292043,75.6212092 104.44271,75.1932092 C104.75071,74.3132092 104.95871,73.3972092 105.104043,72.4745426 C105.265377,71.115876 105.265377,69.7505427 105.292043,68.3865427 C105.308043,67.3758761 105.25071,66.3545428 105.21471,65.3398761 L105.21471,65.3398761 Z M89.2680438,67.819876 C89.2653771,67.8465427 89.2627104,67.8705427 89.2600438,67.8972094 C89.2640438,67.8745427 89.2667104,67.8545427 89.2693771,67.831876 L89.2680438,67.819876 Z M89.2600438,67.7612094 C89.2280438,68.0265427 89.1893771,68.2812094 89.1467104,68.5265427 C89.1907104,68.2905427 89.2307104,68.051876 89.2667104,67.8105427 L89.2600438,67.7612094 Z M58.7600445,84.2038756 L58.7627112,84.2038756 C58.7640445,84.197209 58.7653779,84.1905423 58.7653779,84.185209 C58.7640445,84.1905423 58.7627112,84.197209 58.7600445,84.2038756 Z M58.6040445,99.4798753 C58.4267112,98.386542 58.0987112,97.302542 57.6880446,96.2772087 C57.4013779,95.6412087 57.0640446,95.0478754 56.6573779,94.4852087 C56.3600446,94.1265421 56.0373779,93.7932087 55.6773779,93.4905421 C55.0480446,93.0372088 54.3760446,92.6572088 53.661378,92.3345421 C53.1200447,92.1265421 52.5680447,91.9598754 51.9947114,91.8545421 C51.5947114,91.8092088 51.1907114,91.7892088 50.7853781,91.7892088 C50.2120447,91.7892088 49.6400448,91.8292088 49.0787114,91.8972088 C48.7093781,91.9492088 48.3493781,92.0172088 47.9853781,92.1052088 C47.5733781,92.2038754 47.1667115,92.3452088 46.7760448,92.5065421 C46.1827115,92.7825421 45.5987115,93.0838754 45.0209782,93.3865421 C44.0683116,93.8918754 43.0939116,94.3705421 42.2141783,95.0012087 C41.8335116,95.318542 41.4901783,95.6678754 41.177245,96.0478753 C41.066845,96.2012087 40.9673783,96.3598753 40.8647116,96.518542 C40.7131116,97.0158753 40.5829783,97.5212086 40.4985783,98.0278753 C40.4595117,98.5718753 40.530845,99.1158753 40.5751117,99.6585419 C40.6089783,100.027875 40.6501783,100.397209 40.6949783,100.762542 C40.841245,101.631875 41.0417783,102.505209 41.341245,103.333208 C41.529245,103.423875 41.6969783,103.557208 41.8079116,103.745208 C41.8761783,103.859875 41.948045,103.974542 42.0261783,104.083875 C42.6147116,104.787875 43.3335116,105.381208 44.0527116,105.954542 C44.3387116,106.157208 44.6261782,106.334542 44.9428449,106.485208 C45.5640449,106.725208 46.2147115,106.875875 46.8600448,107.021208 C47.4373781,107.151875 48.0160448,107.255875 48.5987115,107.345208 C49.2867114,107.433208 49.9747114,107.506542 50.6667114,107.558542 C51.4267114,107.614542 52.177378,107.594542 52.937378,107.543875 C53.109378,107.521208 53.2827113,107.505208 53.453378,107.469208 C53.9267113,107.365208 54.381378,107.255875 54.833378,107.094542 C55.1467113,106.943875 55.4373779,106.766542 55.7200446,106.569208 C56.3493779,106.037208 56.8813779,105.391875 57.3973779,104.745208 C57.6773779,104.370542 57.9227112,103.979875 58.1253779,103.558542 C58.3493779,102.959875 58.5000445,102.334542 58.6040445,101.698542 C58.6827112,100.954542 58.6827112,100.219875 58.6040445,99.4798753 L58.6040445,99.4798753 Z M56.7147112,64.7198761 C56.5933779,61.7932095 56.3867113,58.8705429 56.2307113,55.9492097 C56.0840446,53.0998764 55.9120446,50.2505432 55.5533779,47.4172099 C55.4693779,46.7985432 55.3920446,46.1785433 55.313378,45.5585433 C55.245378,45.0785433 55.177378,44.5998766 55.1040446,44.12121 C54.985378,43.29321 54.8600446,42.44921 54.5787113,41.65721 C54.537378,41.5745434 54.4907113,41.4958767 54.4427113,41.41721 C53.953378,41.3758767 53.4640447,41.36521 52.9800447,41.3398767 C52.5000447,41.31321 52.0160447,41.2825434 51.537378,41.2505434 C50.2680447,41.1758767 48.9920448,41.0572101 47.7200448,41.0572101 C47.1520448,41.0572101 46.5867115,41.0798767 46.0213782,41.14121 C45.5213782,41.22521 45.0376449,41.3345434 44.5631116,41.5118767 C44.3335116,41.62121 44.1209782,41.74121 43.9120449,41.8865434 C43.7761782,42.00121 43.6568449,42.12121 43.5376449,42.2505434 C43.4595116,42.3758767 43.3912449,42.4958767 43.3235116,42.6265433 C43.1876449,43.0118767 43.1043116,43.4025433 43.0428449,43.8025433 C42.8761783,45.2932099 42.8079116,46.7932099 42.7349783,48.2825432 C42.6568449,49.8398765 42.5787116,51.4025431 42.5105783,52.9652098 C42.3860449,55.8598763 42.4068449,58.7558763 42.3491116,61.6518762 C42.2975116,64.6265428 42.0579116,67.5945427 41.8543116,70.563876 C41.8027116,71.271876 41.8079116,71.9852093 41.792845,72.6985426 C41.7709783,73.4078759 41.7813783,74.1105426 41.787645,74.8185425 C41.7975116,76.2612092 41.8235116,77.7038758 41.8491116,79.1465424 C41.8647116,80.0012091 41.891245,80.8505424 41.9901783,81.6985424 C42.0376449,81.9545424 42.0939116,82.1985424 42.1772449,82.449209 C42.2193783,82.5318757 42.2657783,82.6105423 42.3131116,82.6878757 C42.3808449,82.7665423 42.4543116,82.8345423 42.5313783,82.9025423 C42.6772449,82.9905423 42.8287116,83.0745423 42.9849783,83.1465423 C45.6093782,83.2558757 48.2307115,83.3865423 50.8547114,83.5478757 C51.9907114,83.6158757 53.125378,83.7038757 54.2560446,83.813209 C54.609378,83.8025423 54.9587113,83.777209 55.313378,83.7358757 C55.5160446,83.7038757 55.7147113,83.6678757 55.9067113,83.621209 C56.0933779,83.0318757 56.1933779,82.4118757 56.2813779,81.8025424 C56.4533779,80.4438757 56.5840446,79.0838758 56.6573779,77.7145425 C56.7307112,76.2505425 56.6880446,74.7772092 56.6987112,73.3132092 C56.7040446,71.9598759 56.7560446,70.6052093 56.7760446,69.2452093 C56.7973779,67.7358761 56.7760446,66.2305428 56.7147112,64.7198761 L56.7147112,64.7198761 Z M49.2520448,18.6292106 L49.2733781,18.6213439 C49.3000448,18.6093439 49.3280448,18.5958773 49.3547114,18.5838773 C49.3200448,18.5984106 49.2867114,18.6130773 49.2520448,18.6292106 L49.2520448,18.6292106 Z M35.5053784,120.255875 C35.5053784,120.235875 35.5053784,120.214541 35.5053784,120.193208 C35.5053784,120.190541 35.5064451,120.187875 35.5064451,120.185208 L35.1616451,120.001208 C35.2761785,120.085208 35.3907118,120.170541 35.5053784,120.255875 Z M77.6467107,85.9385423 C77.6467107,85.9385423 77.6467107,85.9385423 77.6467107,85.9332089 C77.6253774,85.9438756 77.6040441,85.9545423 77.5840441,85.9652089 C77.6040441,85.9545423 77.6253774,85.9492089 77.6467107,85.9385423 Z M77.6093774,86.2452089 C77.6253774,86.2092089 77.6413774,86.1732089 77.6520441,86.1358756 C77.6520441,86.1358756 77.6520441,86.1358756 77.6520441,86.1318756 C77.6360441,86.1678756 77.6200441,86.2092089 77.6093774,86.2452089 Z M80.4813773,84.2705423 C80.3893773,84.1998756 80.296044,84.129209 80.204044,84.0585423 C80.204044,84.065209 80.2053773,84.0705423 80.208044,84.077209 C80.300044,84.1398756 80.392044,84.205209 80.4813773,84.2705423 L80.4813773,84.2705423 Z M97.3933769,123.187875 L97.4067102,123.182541 C97.4053769,123.182541 97.4053769,123.182541 97.4040436,123.183875 L97.3920436,123.189208 L97.3933769,123.187875 Z M97.4640436,123.153208 L97.6200436,123.074541 L97.4613769,123.153208 C97.4627102,123.153208 97.4640436,123.153208 97.4640436,123.153208 Z M21.2193788,46.5318766 C21.2215121,46.5252099 21.2240455,46.5212099 21.2267121,46.5145432 L21.2335121,46.4972099 C21.2287121,46.5092099 21.2240455,46.5212099 21.2193788,46.5318766 L21.2193788,46.5318766 Z M128.256043,72.0945426 C128.324043,73.5172092 128.397376,74.9385425 128.376043,76.3598758 C128.349376,77.8545425 128.245376,79.3452091 128.125376,80.8345424 C128.016043,82.225209 127.892043,83.6158757 127.756043,85.001209 C127.677376,85.8705423 127.604043,86.7452089 127.464043,87.6052089 C127.344043,88.3398755 127.214709,89.0745422 127.068043,89.8025422 C126.797376,91.1678755 126.532043,92.5425421 126.193376,93.8918754 C126.016043,94.6052087 125.83871,95.318542 125.620043,96.0212087 C125.500043,96.3972087 125.38671,96.7718753 125.265376,97.146542 C125.157376,97.5012086 124.99471,97.8452086 124.865376,98.1878753 C124.57871,98.9225419 124.28671,99.6625419 123.937376,100.365209 C123.59871,101.053209 123.256043,101.735875 122.901376,102.411875 C122.240043,103.678542 121.59871,104.954542 120.932043,106.214542 C120.265376,107.465208 119.553376,108.687875 118.745376,109.850542 C117.828043,111.167875 116.844043,112.427875 115.808043,113.646542 C114.897376,114.725208 113.865376,115.683875 112.828043,116.631875 C111.80271,117.574541 110.781377,118.517208 109.77071,119.474541 C109.157377,120.058541 108.52671,120.651875 107.83871,121.151875 C107.532043,121.375875 107.225377,121.599875 106.917377,121.829208 C106.625377,122.037208 106.30271,122.214541 105.99471,122.407875 C104.776043,123.167875 103.532043,123.886541 102.292043,124.615875 C101.005377,125.375875 99.6360435,125.990541 98.2560435,126.558541 C96.8653769,127.131875 95.4693769,127.687875 94.0587103,128.209208 C92.797377,128.678541 91.4907104,129.006541 90.1987104,129.365208 C88.8187104,129.745208 87.4373771,130.131874 86.0373772,130.427874 C85.3653772,130.569208 84.6987105,130.698541 84.0213772,130.813208 C83.2253773,130.949208 82.4227106,131.083874 81.620044,131.162541 C80.172044,131.302541 78.7253774,131.397208 77.2707107,131.454541 C75.3667108,131.533208 73.4627108,131.577208 71.5600442,131.605208 C71.0467109,131.670541 70.5347109,131.738541 70.0200442,131.795874 C69.3427109,131.873208 68.6600443,131.905208 67.978711,131.919874 C67.5813776,131.930541 67.182711,131.935874 66.7853777,131.935874 C65.7853777,131.935874 64.7853777,131.902541 63.7907111,131.831874 C63.0907111,131.779874 62.3933778,131.698541 61.6933778,131.631874 C61.6027111,131.626541 61.5133778,131.627874 61.4227111,131.621208 C61.2293778,131.611874 61.0347111,131.578541 60.8387111,131.550541 C60.4200445,131.507874 60.0000445,131.477208 59.5827112,131.430541 C58.8373779,131.347874 58.0987112,131.263874 57.3533779,131.175874 C56.5920446,131.081208 55.8373779,130.957208 55.0827113,130.815874 C54.3947113,130.690541 53.713378,130.471874 53.041378,130.263874 C52.3320447,130.045208 51.629378,129.815874 50.9320447,129.577208 C50.9227114,129.573208 50.9133781,129.569208 50.9040447,129.566541 C50.8013781,129.729208 50.6253781,129.825208 50.4320447,129.782541 C48.5427115,129.370541 46.7307115,128.651875 45.0053782,127.787875 C43.9745782,127.271875 43.0053783,126.657208 42.0261783,126.058541 C41.5991116,125.798541 41.172045,125.526541 40.7501783,125.261208 C40.5105783,125.115875 40.2709783,124.965208 40.037645,124.802541 C39.4745783,124.443875 38.906845,124.078541 38.3387117,123.725208 C37.7245784,123.339875 37.1043117,122.965208 36.4901784,122.583875 C35.8595118,122.193208 35.2553785,121.771875 34.6412451,121.365208 C34.0475118,120.965208 33.4901785,120.517208 32.9272452,120.083875 C32.3183119,119.621208 31.7553785,119.121208 31.1824452,118.615875 C30.6308452,118.131875 30.1209786,117.610541 29.5991119,117.099875 C29.1568453,116.673208 28.7349786,116.230542 28.313112,115.782542 C27.333512,114.735875 26.349112,113.693208 25.4693787,112.563875 C25.0001787,111.959875 24.5053787,111.370542 24.0835121,110.730542 C23.6772454,110.126542 23.2605788,109.531875 22.8808454,108.907875 C22.1261788,107.657208 21.3808455,106.397208 20.6360455,105.141208 C19.7297788,103.621208 18.8079122,102.110542 18.0105789,100.531875 C17.1043122,98.7452086 16.3860456,96.8238753 15.8964456,94.8758754 C15.6980456,94.1052087 15.5053789,93.3292087 15.3079123,92.5532088 C14.969379,91.1985421 14.6668456,89.8292088 14.3491123,88.4692089 C14.1928456,87.7878755 14.026179,87.0945422 13.9068457,86.4078756 C13.760579,85.6052089 13.5887123,84.8025423 13.490179,83.9958756 C13.4016457,83.2825423 13.276179,82.569209 13.224579,81.8505424 C13.1668457,81.0838757 13.1095123,80.3238757 13.0579123,79.5585424 C12.995379,78.7452091 13.000179,77.9278758 12.969379,77.1212091 C12.9480457,76.3865425 12.9428457,75.6518759 12.9272457,74.9172092 C12.9168457,74.1985426 12.9220457,73.4798759 12.9168457,72.7612093 C12.9168457,72.0212093 12.9543123,71.287876 12.984979,70.547876 C13.0376457,69.1052094 13.224579,67.6572094 13.3912457,66.2252094 C13.5475123,64.8292095 13.714179,63.4332095 13.876179,62.0425429 C14.0527123,60.5585429 14.3131123,59.0785429 14.719379,57.6412096 C15.1095123,56.2612097 15.5475123,54.8918764 15.9272456,53.5118764 C16.3387123,52.0372098 16.7095122,50.5532098 17.0939122,49.0745432 C17.4693789,47.6465432 17.9595122,46.2505433 18.5428455,44.89721 C19.1360455,43.5118767 19.7501788,42.1318767 20.3647122,40.7505434 C21.1824455,38.8973434 22.0527121,37.0786768 23.2297788,35.4224102 C23.5209787,35.0172102 23.8439121,34.6317435 24.1516454,34.2453436 C24.3543121,33.9906769 24.5527121,33.7358769 24.7657787,33.4906769 C25.2876454,32.8864103 25.807912,32.2932103 26.349112,31.7093436 C27.297512,30.673477 28.323512,29.7093437 29.3543119,28.761477 C30.3964452,27.8025437 31.4543119,26.8546771 32.5261785,25.9333438 C34.7813785,23.9906771 37.0157784,22.0213439 39.5209783,20.4025439 C40.7813783,19.5890773 42.0475116,18.7880106 43.3235116,17.9958773 C44.5376449,17.2412106 45.8133782,16.5948107 47.1200448,16.021344 C47.8973781,15.6838774 48.6827114,15.3812107 49.4693781,15.074544 C50.0533781,14.850544 50.6520447,14.6358774 51.2507114,14.4494774 C52.661378,14.0068107 54.073378,13.5786774 55.5213779,13.2666774 C57.0373779,12.9437441 58.5587112,12.6734774 60.0893778,12.4333441 C61.5320445,12.2093441 63.0053778,12.0172108 64.4693777,11.9385441 C67.406711,11.7828108 70.3547109,11.7358775 73.2920442,11.7505441 C74.7453775,11.7614775 76.1880441,11.8292108 77.6360441,11.9385441 C79.0933774,12.0530774 80.548044,12.2358774 82.000044,12.4224108 C82.7813773,12.5213441 83.5587106,12.6317441 84.3333772,12.7666774 C85.6413772,12.9854774 86.9480438,13.2557441 88.1773771,13.7614774 C88.9373771,14.0745441 89.7040438,14.3702774 90.4533771,14.709344 C91.1880437,15.036944 91.917377,15.3702774 92.641377,15.709344 C95.265377,16.938544 97.8240436,18.302544 100.281377,19.8453439 C101.51071,20.6213439 102.709377,21.4494772 103.892043,22.2932105 C105.093377,23.1464105 106.27071,24.0588105 107.376043,25.0317438 C109.573377,26.9745437 111.693377,29.0213437 113.548043,31.307877 C114.568043,32.5692103 115.564043,33.8453436 116.521376,35.1521435 C117.37071,36.3078768 118.120043,37.5369435 118.844043,38.7718768 C119.532043,39.9385434 120.18271,41.1265434 120.813376,42.3238767 C121.521376,43.6838767 122.19871,45.0478766 122.78671,46.4598766 C123.37071,47.8652099 123.90671,49.2772098 124.412043,50.7145431 C124.88671,52.0692098 125.25071,53.4652097 125.609376,54.854543 C126.33871,57.662543 126.892043,60.5172096 127.406709,63.3758762 C127.926709,66.2505428 128.109376,69.1785427 128.256043,72.0945426" id="path266" transform="translate(70.648326, 71.841937) scale(-1, 1) rotate(-180.000000) translate(-70.648326, -71.841937) "></path>
        </g>
    </g>
</svg>