<?xml version="1.0" encoding="UTF-8"?>
<svg width="186px" height="172px" viewBox="0 0 186 172" version="1.1" xmlns="http://www.w3.org/2000/svg" xmlns:xlink="http://www.w3.org/1999/xlink">
    <title>Group</title>
    <g id="Page-1" stroke="none" stroke-width="1" fill="none" fill-rule="evenodd">
        <g id="Group" transform="translate(0.077329, 0.501069)" fill="#000000" fill-rule="nonzero">
            <path d="M53.0210686,43.3349344 C55.5544019,43.3349344 57.6148018,41.2736011 57.6148018,38.7402678 C57.6148018,36.2069346 55.5544019,34.1469346 53.0210686,34.1469346 C50.4877353,34.1469346 48.4273354,36.2069346 48.4273354,38.7402678 C48.4273354,41.2736011 50.4877353,43.3349344 53.0210686,43.3349344 Z M150.102666,78.3056002 C152.635999,78.3056002 154.695999,76.2442669 154.695999,73.7109336 C154.695999,71.1789337 152.635999,69.1176004 150.102666,69.1176004 C147.569333,69.1176004 145.508,71.1789337 145.508,73.7109336 C145.508,76.2442669 147.569333,78.3056002 150.102666,78.3056002 Z M53.0210686,26.5056015 C59.7680018,26.5056015 65.256535,31.9949347 65.256535,38.7402678 C65.256535,44.153601 61.7221351,48.7536009 56.8420019,50.3616009 L56.8420019,69.8909337 L138.481333,69.8909337 C140.090666,65.0109338 144.690666,61.4762673 150.102666,61.4762673 C156.849333,61.4762673 162.337333,66.9656005 162.337333,73.7109336 C162.337333,80.4589334 156.849333,85.9469333 150.102666,85.9469333 C144.690666,85.9469333 140.090666,82.4136001 138.481333,77.5322669 L53.0210686,77.5322669 C50.911202,77.5322669 49.200802,75.8216002 49.200802,73.7109336 L49.200802,50.3616009 C44.3200022,48.7536009 40.7857356,44.153601 40.7857356,38.7402678 C40.7857356,31.9949347 46.2748021,26.5056015 53.0210686,26.5056015" id="path24" transform="translate(101.561534, 56.226267) scale(-1, 1) rotate(-180.000000) translate(-101.561534, -56.226267) "></path>
            <path d="M52.9759987,72.8295997 C55.5093319,72.8295997 57.5706652,70.7682664 57.5706652,68.2349331 C57.5706652,65.7029332 55.5093319,63.6415999 52.9759987,63.6415999 C50.4426654,63.6415999 48.3826655,65.7029332 48.3826655,68.2349331 C48.3826655,70.7682664 50.4426654,72.8295997 52.9759987,72.8295997 Z M172.710662,8.1469346 C170.177329,8.1469346 168.117329,10.2069346 168.117329,12.7402678 C168.117329,15.2736011 170.177329,17.3349344 172.710662,17.3349344 C175.243996,17.3349344 177.305329,15.2736011 177.305329,12.7402678 C177.305329,10.2069346 175.243996,8.1469346 172.710662,8.1469346 Z M52.9759987,56.0002667 C58.3893319,56.0002667 62.9893318,59.5349333 64.5973317,64.4149332 L168.890662,64.4149332 L168.890662,24.3616009 C164.009329,22.7522676 160.475996,18.1522677 160.475996,12.7402678 C160.475996,5.99360133 165.963996,0.505601462 172.710662,0.505601462 C179.457329,0.505601462 184.946662,5.99360133 184.946662,12.7402678 C184.946662,18.1522677 181.411995,22.7522676 176.531996,24.3616009 L176.531996,68.2349331 C176.531996,70.3455997 174.821329,72.0562663 172.710662,72.0562663 L64.5973317,72.0562663 C62.9893318,76.9375996 58.3893319,80.4709328 52.9759987,80.4709328 C46.2293322,80.4709328 40.7413323,74.9829329 40.7413323,68.2349331 C40.7413323,61.4895999 46.2293322,56.0002667 52.9759987,56.0002667" id="path30" transform="translate(112.843997, 40.488267) scale(-1, 1) rotate(-180.000000) translate(-112.843997, -40.488267) "></path>
            <path d="M172.710662,154.522931 C170.177329,154.522931 168.117329,156.584264 168.117329,159.117597 C168.117329,161.650931 170.177329,163.710931 172.710662,163.710931 C175.243996,163.710931 177.305329,161.650931 177.305329,159.117597 C177.305329,156.584264 175.243996,154.522931 172.710662,154.522931 Z M12.2359997,94.9109324 C9.70266642,94.9109324 7.64133314,96.9722657 7.64133314,99.505599 C7.64133314,102.037599 9.70266642,104.098932 12.2359997,104.098932 C14.769333,104.098932 16.8293329,102.037599 16.8293329,99.505599 C16.8293329,96.9722657 14.769333,94.9109324 12.2359997,94.9109324 Z M172.710662,171.352264 C165.963996,171.352264 160.475996,165.864264 160.475996,159.117597 C160.475996,153.704264 164.009329,149.104264 168.890662,147.496264 L168.890662,103.325599 L23.8573327,103.325599 C22.2479994,108.206932 17.6479996,111.740265 12.2359997,111.740265 C5.4893332,111.740265 0,106.250932 0,99.505599 C0,92.7589325 5.4893332,87.2695993 12.2359997,87.2695993 C17.6479996,87.2695993 22.2479994,90.8042659 23.8573327,95.6842657 L172.710662,95.6842657 C174.821329,95.6842657 176.531996,97.3949324 176.531996,99.505599 L176.531996,147.496264 C181.411995,149.104264 184.946662,153.704264 184.946662,159.117597 C184.946662,165.864264 179.457329,171.352264 172.710662,171.352264" id="path32" transform="translate(92.473331, 129.310932) scale(-1, 1) rotate(-180.000000) translate(-92.473331, -129.310932) "></path>
            <path d="M104.378664,102.270932 C101.84533,102.270932 99.783997,104.332266 99.783997,106.864266 C99.783997,109.397599 101.84533,111.458932 104.378664,111.458932 C106.911997,111.458932 108.971997,109.397599 108.971997,106.864266 C108.971997,104.332266 106.911997,102.270932 104.378664,102.270932 Z M82.5319975,68.3962665 C79.9986642,68.3962665 77.9373309,70.4575998 77.9373309,72.9909331 C77.9373309,75.5242664 79.9986642,77.5842663 82.5319975,77.5842663 C85.0653307,77.5842663 87.1253307,75.5242664 87.1253307,72.9909331 C87.1253307,70.4575998 85.0653307,68.3962665 82.5319975,68.3962665 Z M82.5319975,85.2255994 C75.785331,85.2255994 70.2959978,79.7375996 70.2959978,72.9909331 C70.2959978,66.2442666 75.785331,60.7562667 82.5319975,60.7562667 C87.9439973,60.7562667 92.5439972,64.2896 94.1519972,69.1695998 L128.30533,69.1695998 C130.415996,69.1695998 132.126663,70.8802665 132.126663,72.9909331 L132.126663,106.864266 C132.126663,108.974932 130.415996,110.685599 128.30533,110.685599 L115.999997,110.685599 C114.390663,115.565599 109.790663,119.100265 104.378664,119.100265 C97.6319971,119.100265 92.1426639,113.610932 92.1426639,106.864266 C92.1426639,100.117599 97.6319971,94.6295992 104.378664,94.6295992 C109.790663,94.6295992 114.390663,98.1629325 115.999997,103.044266 L124.48533,103.044266 L124.48533,76.810933 L94.1519972,76.810933 C92.5439972,81.6922662 87.9439973,85.2255994 82.5319975,85.2255994 Z" id="path36" transform="translate(101.211330, 89.928266) scale(-1, 1) rotate(-180.000000) translate(-101.211330, -89.928266) "></path>
            <path d="M53.4268013,140.333598 C55.9596013,140.333598 58.0205345,138.273598 58.0205345,135.740265 C58.0205345,133.206931 55.9596013,131.145598 53.4268013,131.145598 C50.893468,131.145598 48.8325348,133.206931 48.8325348,135.740265 C48.8325348,138.273598 50.893468,140.333598 53.4268013,140.333598 Z M150.561332,106.460265 C153.094665,106.460265 155.155999,104.398932 155.155999,101.865599 C155.155999,99.3322656 153.094665,97.2722657 150.561332,97.2722657 C148.029332,97.2722657 145.967999,99.3322656 145.967999,101.865599 C145.967999,104.398932 148.029332,106.460265 150.561332,106.460265 Z M53.4268013,98.045599 L138.941333,98.045599 C140.549332,93.1642658 145.149332,89.6309325 150.561332,89.6309325 C157.307999,89.6309325 162.797332,95.1189324 162.797332,101.865599 C162.797332,108.612265 157.307999,114.101599 150.561332,114.101599 C145.149332,114.101599 140.549332,110.566932 138.941333,105.686932 L57.2472012,105.686932 L57.2472012,124.118932 C62.1278678,125.726932 65.6622677,130.328265 65.6622677,135.740265 C65.6622677,142.486931 60.1732011,147.974931 53.4268013,147.974931 C46.6800015,147.974931 41.1914683,142.486931 41.1914683,135.740265 C41.1914683,130.328265 44.7253349,125.726932 49.6060014,124.118932 L49.6060014,101.865599 C49.6060014,99.7562656 51.3164014,98.045599 53.4268013,98.045599" id="path40" transform="translate(101.994400, 118.802932) scale(-1, 1) rotate(-180.000000) translate(-101.994400, -118.802932) "></path>
            <path d="M-12.5731987,82.3335979 C-10.0403987,82.3335979 -7.97946547,80.273598 -7.97946547,77.7402647 C-7.97946547,75.2069315 -10.0403987,73.1455982 -12.5731987,73.1455982 C-15.106532,73.1455982 -17.1674652,75.2069315 -17.1674652,77.7402647 C-17.1674652,80.273598 -15.106532,82.3335979 -12.5731987,82.3335979 Z M84.5613322,48.4602655 C87.0946655,48.4602655 89.1559988,46.3989322 89.1559988,43.8655989 C89.1559988,41.3322656 87.0946655,39.2722657 84.5613322,39.2722657 C82.0293323,39.2722657 79.967999,41.3322656 79.967999,43.8655989 C79.967999,46.3989322 82.0293323,48.4602655 84.5613322,48.4602655 Z M72.9413325,40.045599 C74.5493325,35.1642658 79.1493324,31.6309325 84.5613322,31.6309325 C91.3079987,31.6309325 96.7973319,37.1189324 96.7973319,43.8655989 C96.7973319,50.6122654 91.3079987,56.1015986 84.5613322,56.1015986 C79.1493324,56.1015986 74.5493325,52.566932 72.9413325,47.6869321 L-8.75279878,47.6869321 L-8.75279878,66.1189317 C-3.87213224,67.7269316 -0.337732325,72.3282649 -0.337732325,77.7402647 C-0.337732325,84.4869312 -5.82679885,89.9749311 -12.5731987,89.9749311 C-19.3199985,89.9749311 -24.8085317,84.4869312 -24.8085317,77.7402647 C-24.8085317,72.3282649 -21.2746651,67.7269316 -16.3939986,66.1189317 L-16.3939986,43.8655989 C-16.3939986,41.7562656 -14.6835986,40.045599 -12.5731987,40.045599 L72.9413325,40.045599 Z" id="path40" transform="translate(35.994400, 60.802932) scale(-1, 1) rotate(90.000000) translate(-35.994400, -60.802932) "></path>
        </g>
    </g>
</svg>