<?xml version="1.0" encoding="UTF-8"?>
<svg width="142px" height="142px" viewBox="0 0 142 142" version="1.1" xmlns="http://www.w3.org/2000/svg" xmlns:xlink="http://www.w3.org/1999/xlink">
    <title>polka</title>
    <g id="Page-1" stroke="none" stroke-width="1" fill="none" fill-rule="evenodd">
        <g id="Artboard" transform="translate(-388.000000, -262.000000)" fill="#0C0C0C" fill-rule="nonzero">
            <g id="polka" transform="translate(388.000000, 262.000000)">
                <path d="M75.2714648,4.36133322 C75.2714648,1.95333328 73.3194648,0 70.9101316,0 C68.503465,0 66.551465,1.95333328 66.551465,4.36133322 C66.551465,6.7706665 68.503465,8.72266645 70.9101316,8.72266645 C73.3194648,8.72266645 75.2714648,6.7706665 75.2714648,4.36133322" id="path532" transform="translate(70.911465, 4.361333) scale(-1, 1) rotate(-180.000000) translate(-70.911465, -4.361333) "></path>
                <path d="M57.8990652,7.75721095 C58.5217319,5.43187767 57.1417319,3.04121107 54.8150653,2.41721108 C52.4883987,1.7932111 50.0977321,3.17321106 49.4750654,5.501211 C48.8523988,7.82654428 50.2323987,10.2185442 52.557732,10.8412109 C54.8843986,11.4638775 57.2750652,10.0838776 57.8990652,7.75721095" id="path536" transform="translate(53.687062, 6.628939) scale(-1, 1) rotate(-180.000000) translate(-53.687062, -6.628939) "></path>
                <path d="M41.4121323,15.4565213 C42.6161323,13.3711881 41.9014656,10.7045215 39.8174657,9.5005215 C37.7307991,8.29652153 35.0641325,9.01118818 33.8601325,11.0951881 C32.6561325,13.1818547 33.3707992,15.8485213 35.4561324,17.0525213 C37.5414657,18.2578546 40.2094657,17.5418546 41.4121323,15.4565213" id="path540" transform="translate(37.636156, 13.276794) scale(-1, 1) rotate(-180.000000) translate(-37.636156, -13.276794) "></path>
                <g id="g542" transform="translate(23.853599, 23.853099) scale(-1, 1) rotate(-180.000000) translate(-23.853599, -23.853099) translate(19.493266, 19.493266)">
                    <path d="M7.44366648,7.44266648 C9.1463331,5.74133319 9.1463331,2.97866659 7.44366648,1.27599997 C5.74099986,-0.425333323 2.97966659,-0.425333323 1.27699997,1.27599997 C-0.425666656,2.97866659 -0.425666656,5.74133319 1.27699997,7.44266648 C2.97966659,9.1453331 5.74099986,9.1453331 7.44366648,7.44266648" id="path544"></path>
                </g>
                <g id="g546" transform="translate(13.277066, 37.636132) scale(-1, 1) rotate(-180.000000) translate(-13.277066, -37.636132) translate(8.915572, 33.275304)">
                    <path d="M6.54216126,8.13682789 C8.62749454,6.93282792 9.34216119,4.26616132 8.13816122,2.18082804 C6.93416125,0.0954947543 4.26749465,-0.619171894 2.18082804,0.584828075 C0.0954947543,1.78882805 -0.619171894,4.45549465 0.584828075,6.54082793 C1.79016138,8.62616121 4.45682798,9.34082786 6.54216126,8.13682789" id="path548"></path>
                </g>
                <path d="M7.75719981,57.898215 C10.0838664,57.274215 11.4638664,54.8835484 10.8411997,52.5568818 C10.2171997,50.2315486 7.82653314,48.8515486 5.50119986,49.4742152 C3.17319992,50.0968819 1.79319996,52.4875485 2.41719994,54.8142151 C3.03986659,57.1408817 5.43186653,58.522215 7.75719981,57.898215" id="path552" transform="translate(6.628928, 53.686440) scale(-1, 1) rotate(-180.000000) translate(-6.628928, -53.686440) "></path>
                <path d="M4.36133322,75.2714648 C6.76933316,75.2714648 8.72266645,73.3181315 8.72266645,70.9101316 C8.72266645,68.5021316 6.76933316,66.5501317 4.36133322,66.5501317 C1.95199995,66.5501317 -5.68434189e-14,68.5021316 -5.68434189e-14,70.9101316 C-5.68434189e-14,73.3181315 1.95199995,75.2714648 4.36133322,75.2714648" id="path556" transform="translate(4.361333, 70.910798) scale(-1, 1) rotate(-180.000000) translate(-4.361333, -70.910798) "></path>
                <g id="g558" transform="translate(137.461597, 70.910798) scale(-1, 1) rotate(-180.000000) translate(-137.461597, -70.910798) translate(133.100263, 66.550132)">
                    <path d="M4.36133322,0 C1.95199995,0 0,1.95199995 0,4.36133322 C0,6.76799983 1.95199995,8.72133312 4.36133322,8.72133312 C6.76933316,8.72133312 8.72266645,6.76799983 8.72266645,4.36133322 C8.72266645,1.95199995 6.76933316,0 4.36133322,0" id="path560"></path>
                </g>
                <g id="g562" transform="translate(135.193991, 53.686968) scale(-1, 1) rotate(-180.000000) translate(-135.193991, -53.686968) translate(130.832286, 49.325305)">
                    <path d="M5.48997694,0.149432599 C3.16464367,-0.473234052 0.772643725,0.906765914 0.149977074,3.23343252 C-0.474022911,5.56009913 0.905977055,7.95076574 3.233977,8.57343239 C5.55931027,9.19743237 7.94997688,7.81609907 8.57397686,5.4907658 C9.19664351,3.16409919 7.81664355,0.773432584 5.48997694,0.149432599" id="path564"></path>
                </g>
                <g id="g566" transform="translate(128.545330, 37.636132) scale(-1, 1) rotate(-180.000000) translate(-128.545330, -37.636132) translate(124.183835, 33.275304)">
                    <path d="M6.54216126,0.584828075 C4.45682798,-0.619171894 1.79016138,0.0954947543 0.584828075,2.18082804 C-0.619171894,4.26616132 0.0954947543,6.93282792 2.18082804,8.13682789 C4.26749465,9.34082786 6.93416125,8.62616121 8.13816122,6.54082793 C9.34216119,4.45549465 8.62749454,1.78882805 6.54216126,0.584828075" id="path568"></path>
                </g>
                <g id="g570" transform="translate(117.969464, 23.853099) scale(-1, 1) rotate(-180.000000) translate(-117.969464, -23.853099) translate(113.609130, 19.493266)">
                    <path d="M7.44366648,1.27599997 C5.74099986,-0.425333323 2.97966659,-0.425333323 1.27699997,1.27599997 C-0.425666656,2.97866659 -0.425666656,5.74133319 1.27699997,7.44266648 C2.97966659,9.1453331 5.74099986,9.1453331 7.44366648,7.44266648 C9.1463331,5.74133319 9.1463331,2.97866659 7.44366648,1.27599997" id="path572"></path>
                </g>
                <g id="g574" transform="translate(104.186706, 13.276720) scale(-1, 1) rotate(-180.000000) translate(-104.186706, -13.276720) translate(99.825653, 8.915572)">
                    <path d="M8.13727795,2.18013482 C6.93327798,0.0961348756 4.26661138,-0.619865106 2.17994476,0.585468197 C0.0959448135,1.78813483 -0.618721835,4.45480143 0.583944801,6.54146805 C1.78794477,8.62680133 4.45461137,9.34146798 6.54127799,8.13746801 C8.62661127,6.9321347 9.34127792,4.2654681 8.13727795,2.18013482" id="path576"></path>
                </g>
                <g id="g578" transform="translate(88.136167, 6.628928) scale(-1, 1) rotate(-180.000000) translate(-88.136167, -6.628928) translate(83.774504, 2.267223)">
                    <path d="M8.57389402,3.23343252 C7.94989403,0.906765914 5.55789409,-0.473234052 3.23256082,0.149432599 C0.907227544,0.773432584 -0.474105755,3.16409919 0.149894229,5.48943247 C0.77256088,7.81743241 3.16322749,9.19743237 5.4898941,8.57343239 C7.8165607,7.95076574 9.19656067,5.5587658 8.57389402,3.23343252" id="path580"></path>
                </g>
                <g id="g582" transform="translate(70.911465, 17.638666) scale(-1, 1) rotate(-180.000000) translate(-70.911465, -17.638666) translate(66.551465, 13.277333)">
                    <path d="M8.71999978,4.36133322 C8.71999978,1.95333328 6.76799983,0 4.35866656,0 C1.95199995,0 0,1.95333328 0,4.36133322 C0,6.7706665 1.95199995,8.72266645 4.35866656,8.72266645 C6.76799983,8.72266645 8.71999978,6.7706665 8.71999978,4.36133322" id="path584"></path>
                </g>
                <g id="g586" transform="translate(57.123557, 19.453644) scale(-1, 1) rotate(-180.000000) translate(-57.123557, -19.453644) translate(52.761894, 15.091589)">
                    <path d="M8.5734381,5.4907658 C9.19743809,3.16543252 7.81610479,0.773432584 5.48943818,0.149432599 C3.16277157,-0.473234052 0.772104963,0.906765914 0.149438312,3.23343252 C-0.473228339,5.56009913 0.906771627,7.95076574 3.2321049,8.57476572 C5.55877151,9.19743237 7.94943812,7.81609907 8.5734381,5.4907658" id="path588"></path>
                </g>
                <g id="g590" transform="translate(44.274799, 24.775436) scale(-1, 1) rotate(-180.000000) translate(-44.274799, -24.775436) translate(39.913897, 20.414312)">
                    <path d="M8.13756869,6.54082793 C9.34023533,4.45682798 8.62690202,1.78882805 6.54156873,0.584828075 C4.45490212,-0.619171894 1.78823552,0.0954947543 0.58423555,2.18082804 C-0.618431086,4.26616132 0.0949022291,6.93282792 2.18023551,8.13682789 C4.26690212,9.34216119 6.93356872,8.62616121 8.13756869,6.54082793" id="path592"></path>
                </g>
                <g id="g594" transform="translate(33.241599, 33.241599) scale(-1, 1) rotate(-180.000000) translate(-33.241599, -33.241599) translate(28.881266, 28.881266)">
                    <path d="M7.44366648,7.44366648 C9.1463331,5.74099986 9.1463331,2.97966659 7.44366648,1.27699997 C5.74099986,-0.425666656 2.97966659,-0.425666656 1.27699997,1.27699997 C-0.425666656,2.97966659 -0.425666656,5.74099986 1.27699997,7.44366648 C2.97966659,9.1463331 5.74099986,9.1463331 7.44366648,7.44366648" id="path596"></path>
                </g>
                <g id="g598" transform="translate(24.775386, 44.274799) scale(-1, 1) rotate(-180.000000) translate(-24.775386, -44.274799) translate(20.414238, 39.913897)">
                    <path d="M6.54216126,8.13756869 C8.62616121,6.93356872 9.34216119,4.26690212 8.13682789,2.18023551 C6.93416125,0.0949022291 4.26616132,-0.618431086 2.18082804,0.58423555 C0.0954947543,1.78823552 -0.619171894,4.45490212 0.584828075,6.54156873 C1.79016138,8.62690202 4.45682798,9.34023533 6.54216126,8.13756869" id="path600"></path>
                </g>
                <g id="g602" transform="translate(19.453500, 57.123029) scale(-1, 1) rotate(-180.000000) translate(-19.453500, -57.123029) translate(15.091444, 52.761366)">
                    <path d="M5.4912217,8.57389402 C7.81655497,7.94989403 9.19655494,5.55922743 8.57522162,3.23256082 C7.95122164,0.907227544 5.56055503,-0.474105755 3.23388842,0.149894229 C0.907221814,0.77256088 -0.474111484,3.16322749 0.1498885,5.4898941 C0.773888484,7.8165607 3.16455509,9.19656067 5.4912217,8.57389402" id="path604"></path>
                </g>
                <g id="g606" transform="translate(17.638666, 70.910798) scale(-1, 1) rotate(-180.000000) translate(-17.638666, -70.910798) translate(13.277333, 66.550132)">
                    <path d="M4.36133322,8.72133312 C6.76933316,8.72133312 8.72266645,6.76799983 8.72266645,4.35999989 C8.72266645,1.95199995 6.76933316,0 4.36133322,0 C1.95199995,0 0,1.95199995 0,4.35999989 C0,6.76799983 1.95199995,8.72133312 4.36133322,8.72133312" id="path608"></path>
                </g>
                <g id="g610" transform="translate(19.453644, 84.699067) scale(-1, 1) rotate(-180.000000) translate(-19.453644, -84.699067) translate(15.091589, 80.337754)">
                    <path d="M3.23334419,8.57264927 C5.5600108,9.19664925 7.95067741,7.81664929 8.57467739,5.48864935 C9.19734404,3.16331607 7.81734408,0.77131613 5.49067747,0.149982813 C3.16401086,-0.474017172 0.773344251,0.905982794 0.149344267,3.2326494 C-0.473322384,5.55798268 0.908010915,7.94998262 3.23334419,8.57264927" id="path612"></path>
                </g>
                <g id="g614" transform="translate(122.368974, 84.699462) scale(-1, 1) rotate(-180.000000) translate(-122.368974, -84.699462) translate(118.006919, 80.338149)">
                    <path d="M3.23334419,0.149977074 C0.908010915,0.772643725 -0.473322384,3.16464367 0.149344267,5.48997694 C0.773344251,7.81664355 3.16401086,9.19664351 5.49067747,8.57264353 C7.81734408,7.95131021 9.19734404,5.55931027 8.57467739,3.233977 C7.95067741,0.905977055 5.5600108,-0.474022911 3.23334419,0.149977074" id="path616"></path>
                </g>
                <g id="g618" transform="translate(124.184264, 70.910798) scale(-1, 1) rotate(-180.000000) translate(-124.184264, -70.910798) translate(119.822930, 66.550132)">
                    <path d="M4.36133322,0 C1.95333328,0 0,1.95199995 0,4.36133322 C0,6.76799983 1.95333328,8.72133312 4.36133322,8.72133312 C6.7706665,8.72133312 8.72266645,6.76799983 8.72266645,4.36133322 C8.72266645,1.95199995 6.7706665,0 4.36133322,0" id="path620"></path>
                </g>
                <g id="g622" transform="translate(122.368964, 57.123557) scale(-1, 1) rotate(-180.000000) translate(-122.368964, -57.123557) translate(118.006909, 52.761894)">
                    <path d="M5.4912217,0.1498885 C3.16455509,-0.474111484 0.773888484,0.907221814 0.1498885,3.23388842 C-0.474111484,5.56055503 0.907221814,7.95122164 3.23388842,8.57388829 C5.56055503,9.19655494 7.95122164,7.81655497 8.57522162,5.4912217 C9.19655494,3.16455509 7.81655497,0.773888484 5.4912217,0.1498885" id="path624"></path>
                </g>
                <g id="g626" transform="translate(117.047123, 44.274799) scale(-1, 1) rotate(-180.000000) translate(-117.047123, -44.274799) translate(112.685628, 39.913897)">
                    <path d="M6.54156873,0.58423555 C4.45623545,-0.618431086 1.78956885,0.0949022291 0.58423555,2.18023551 C-0.618431086,4.26690212 0.0949022291,6.93356872 2.18023551,8.13756869 C4.26690212,9.34023533 6.93356872,8.62690202 8.13756869,6.54156873 C9.342902,4.45490212 8.62690202,1.78823552 6.54156873,0.58423555" id="path628"></path>
                </g>
                <g id="g630" transform="translate(108.580964, 33.241599) scale(-1, 1) rotate(-180.000000) translate(-108.580964, -33.241599) translate(104.221131, 28.881266)">
                    <path d="M7.44366648,1.27699997 C5.74099986,-0.425666656 2.97833326,-0.425666656 1.27699997,1.27699997 C-0.425666656,2.97966659 -0.425666656,5.74099986 1.27699997,7.44366648 C2.97833326,9.1463331 5.74099986,9.1463331 7.44366648,7.44366648 C9.14499977,5.74099986 9.14499977,2.97966659 7.44366648,1.27699997" id="path632"></path>
                </g>
                <g id="g634" transform="translate(97.547621, 24.775362) scale(-1, 1) rotate(-180.000000) translate(-97.547621, -24.775362) translate(93.186770, 20.414238)">
                    <path d="M8.13682789,2.18142056 C6.93416125,0.0960872796 4.26616132,-0.619912702 2.18082804,0.585420601 C0.0954947543,1.78808724 -0.619171894,4.45608717 0.584828075,6.54142045 C1.78882805,8.62675373 4.45549465,9.34142038 6.54216126,8.13742041 C8.62616121,6.93208711 9.34082786,4.26542051 8.13682789,2.18142056" id="path636"></path>
                </g>
                <g id="g638" transform="translate(84.699462, 19.453500) scale(-1, 1) rotate(-180.000000) translate(-84.699462, -19.453500) translate(80.338149, 15.091444)">
                    <path d="M8.57264927,3.23288871 C7.94998262,0.907555437 5.55798268,-0.472444529 3.2326494,0.148888789 C0.905982794,0.772888773 -0.474017172,3.16488871 0.149982813,5.49022199 C0.772649464,7.8168886 3.16331607,9.1982219 5.48864935,8.57422191 C7.81664929,7.95022193 9.19664925,5.55955532 8.57264927,3.23288871" id="path640"></path>
                </g>
                <g id="g642" transform="translate(70.911465, 30.897866) scale(-1, 1) rotate(-180.000000) translate(-70.911465, -30.897866) translate(66.551465, 26.536533)">
                    <path d="M8.71999978,4.36133322 C8.71999978,1.95333328 6.76799983,0 4.35866656,0 C1.95199995,0 0,1.95333328 0,4.36133322 C0,6.7706665 1.95199995,8.72266645 4.35866656,8.72266645 C6.76799983,8.72266645 8.71999978,6.7706665 8.71999978,4.36133322" id="path644"></path>
                </g>
                <g id="g646" transform="translate(60.555368, 32.261204) scale(-1, 1) rotate(-180.000000) translate(-60.555368, -32.261204) translate(56.193704, 27.899377)">
                    <path d="M8.57389402,5.4907658 C9.19656067,3.16409919 7.8165607,0.773432584 5.4898941,0.149432599 C3.16322749,-0.473234052 0.77256088,0.906765914 0.149894229,3.23343252 C-0.474105755,5.56009913 0.907227544,7.95076574 3.23256082,8.57476572 C5.55789409,9.19609904 7.94989403,7.81609907 8.57389402,5.4907658" id="path648"></path>
                </g>
                <g id="g650" transform="translate(50.904423, 36.258503) scale(-1, 1) rotate(-180.000000) translate(-50.904423, -36.258503) translate(46.543571, 31.897379)">
                    <path d="M8.13682789,6.54082793 C9.34082786,4.45682798 8.62616121,1.78882805 6.54216126,0.584828075 C4.45549465,-0.619171894 1.78882805,0.0954947543 0.584828075,2.18082804 C-0.619171894,4.26616132 0.0954947543,6.93282792 2.18082804,8.13682789 C4.26749465,9.34216119 6.93416125,8.62616121 8.13682789,6.54082793" id="path652"></path>
                </g>
                <g id="g654" transform="translate(42.617866, 42.617866) scale(-1, 1) rotate(-180.000000) translate(-42.617866, -42.617866) translate(38.257532, 38.257532)">
                    <path d="M7.44366648,7.44366648 C9.1463331,5.74099986 9.1463331,2.97966659 7.44366648,1.27699997 C5.74099986,-0.425666656 2.97966659,-0.425666656 1.27699997,1.27699997 C-0.425666656,2.97966659 -0.425666656,5.74099986 1.27699997,7.44366648 C2.97966659,9.1463331 5.74099986,9.1463331 7.44366648,7.44366648" id="path656"></path>
                </g>
                <g id="g658" transform="translate(36.258452, 50.904289) scale(-1, 1) rotate(-180.000000) translate(-36.258452, -50.904289) translate(31.897304, 46.543437)">
                    <path d="M6.54216126,8.13687548 C8.62616121,6.93287551 9.34216119,4.26620891 8.13682789,2.1795423 C6.93416125,0.0955423489 4.26616132,-0.6191243 2.18082804,0.58487567 C0.0954947543,1.78754231 -0.619171894,4.45554224 0.584828075,6.54087552 C1.79016138,8.6262088 4.45682798,9.34087545 6.54216126,8.13687548" id="path660"></path>
                </g>
                <g id="g662" transform="translate(32.261288, 60.554535) scale(-1, 1) rotate(-180.000000) translate(-32.261288, -60.554535) translate(27.899233, 56.193222)">
                    <path d="M5.4907658,8.57264927 C7.81609907,7.94864928 9.19743237,5.55798268 8.57476572,3.2326494 C7.95076574,0.905982794 5.56009913,-0.474017172 3.23343252,0.149982813 C0.906765914,0.77131613 -0.473234052,3.16331607 0.149432599,5.48864935 C0.773432584,7.81664929 3.16409919,9.19664925 5.4907658,8.57264927" id="path664"></path>
                </g>
                <g id="g666" transform="translate(30.897866, 70.910798) scale(-1, 1) rotate(-180.000000) translate(-30.897866, -70.910798) translate(26.536533, 66.550132)">
                    <path d="M4.36133322,8.72133312 C6.7706665,8.72133312 8.72266645,6.76799983 8.72266645,4.35999989 C8.72266645,1.95199995 6.7706665,0 4.36133322,0 C1.95333328,0 0,1.95199995 0,4.35999989 C0,6.76799983 1.95333328,8.72133312 4.36133322,8.72133312" id="path668"></path>
                </g>
                <g id="g670" transform="translate(32.261432, 81.267106) scale(-1, 1) rotate(-180.000000) translate(-32.261432, -81.267106) translate(27.899377, 76.905443)">
                    <path d="M3.23288871,8.5734381 C5.55955532,9.19743809 7.95022193,7.81610479 8.57422191,5.48943818 C9.1982219,3.16277157 7.8168886,0.772104963 5.49022199,0.149438312 C3.16355538,-0.473228339 0.772888773,0.906771627 0.148888789,3.2321049 C-0.472444529,5.55877151 0.907555437,7.94943812 3.23288871,8.5734381" id="path672"></path>
                </g>
                <g id="g674" transform="translate(109.561203, 81.267634) scale(-1, 1) rotate(-180.000000) translate(-109.561203, -81.267634) translate(105.199498, 76.905971)">
                    <path d="M3.23343252,0.149432599 C0.906765914,0.773432584 -0.473234052,3.16409919 0.149432599,5.4907658 C0.772099251,7.81609907 3.16409919,9.19743237 5.48943247,8.57343239 C7.81743241,7.95076574 9.19743237,5.56009913 8.57343239,3.23343252 C7.95076574,0.906765914 5.5587658,-0.473234052 3.23343252,0.149432599" id="path676"></path>
                </g>
                <g id="g678" transform="translate(110.924531, 70.910798) scale(-1, 1) rotate(-180.000000) translate(-110.924531, -70.910798) translate(106.563864, 66.550132)">
                    <path d="M4.36133322,0 C1.95199995,0 0,1.95199995 0,4.36133322 C0,6.76799983 1.95199995,8.72133312 4.36133322,8.72133312 C6.76933316,8.72133312 8.72133312,6.76799983 8.72133312,4.36133322 C8.72133312,1.95199995 6.76933316,0 4.36133322,0" id="path680"></path>
                </g>
                <g id="g682" transform="translate(109.561192, 60.554929) scale(-1, 1) rotate(-180.000000) translate(-109.561192, -60.554929) translate(105.199487, 56.193616)">
                    <path d="M5.48997694,0.149977074 C3.16464367,-0.474022911 0.772643725,0.905977055 0.149977074,3.233977 C-0.474022911,5.55931027 0.905977055,7.94997688 3.233977,8.57264353 C5.55931027,9.19664351 7.95131021,7.81664355 8.57397686,5.48997694 C9.19664351,3.16464367 7.81664355,0.772643725 5.48997694,0.149977074" id="path684"></path>
                </g>
                <g id="g686" transform="translate(105.564057, 50.904423) scale(-1, 1) rotate(-180.000000) translate(-105.564057, -50.904423) translate(101.202562, 46.543571)">
                    <path d="M6.54156873,0.58487567 C4.45623545,-0.6191243 1.78956885,0.0955423489 0.58423555,2.1795423 C-0.618431086,4.26620891 0.0949022291,6.93287551 2.18023551,8.13687548 C4.26690212,9.34087545 6.93356872,8.6262088 8.13756869,6.54087552 C9.342902,4.45554224 8.62690202,1.78754231 6.54156873,0.58487567" id="path688"></path>
                </g>
                <g id="g690" transform="translate(99.205064, 42.617866) scale(-1, 1) rotate(-180.000000) translate(-99.205064, -42.617866) translate(94.844731, 38.257532)">
                    <path d="M7.44366648,1.27699997 C5.74099986,-0.425666656 2.97966659,-0.425666656 1.27699997,1.27699997 C-0.425666656,2.97966659 -0.425666656,5.74099986 1.27699997,7.44366648 C2.97966659,9.1463331 5.74099986,9.1463331 7.44366648,7.44366648 C9.1463331,5.74099986 9.1463331,2.97966659 7.44366648,1.27699997" id="path692"></path>
                </g>
                <g id="g694" transform="translate(90.917998, 36.258429) scale(-1, 1) rotate(-180.000000) translate(-90.917998, -36.258429) translate(86.557096, 31.897304)">
                    <path d="M8.13756869,2.18142056 C6.93356872,0.0960872796 4.26690212,-0.619912702 2.18023551,0.585420601 C0.0949022291,1.78808724 -0.618431086,4.45608717 0.58423555,6.54142045 C1.78823552,8.62675373 4.45490212,9.34142038 6.54156873,8.13742041 C8.62690202,6.93208711 9.34023533,4.26542051 8.13756869,2.18142056" id="path696"></path>
                </g>
                <g id="g698" transform="translate(81.267862, 32.261061) scale(-1, 1) rotate(-180.000000) translate(-81.267862, -32.261061) translate(76.906426, 27.899233)">
                    <path d="M8.5734381,3.23288871 C7.94943812,0.907555437 5.55877151,-0.472444529 3.2321049,0.148888789 C0.906771627,0.772888773 -0.473228339,3.16355538 0.149438312,5.49022199 C0.772104963,7.8168886 3.16277157,9.19688856 5.48943818,8.57422191 C7.81610479,7.95022193 9.19610475,5.55955532 8.5734381,3.23288871" id="path700"></path>
                </g>
                <g id="g702" transform="translate(70.911465, 44.274799) scale(-1, 1) rotate(-180.000000) translate(-70.911465, -44.274799) translate(66.551465, 39.914132)">
                    <path d="M8.71999978,4.35999989 C8.71999978,1.95199995 6.76799983,0 4.35866656,0 C1.95199995,0 0,1.95199995 0,4.35999989 C0,6.76933316 1.95199995,8.72133312 4.35866656,8.72133312 C6.76799983,8.72133312 8.71999978,6.76933316 8.71999978,4.35999989" id="path704"></path>
                </g>
                <g id="g706" transform="translate(57.593199, 47.843193) scale(-1, 1) rotate(-180.000000) translate(-57.593199, -47.843193) translate(53.232371, 43.482045)">
                    <path d="M8.13682789,6.54087552 C9.34082786,4.45687557 8.62616121,1.78887564 6.54082793,0.58487567 C4.45549465,-0.6191243 1.78882805,0.0955423489 0.584828075,2.1795423 C-0.619171894,4.26620891 0.0954947543,6.93287551 2.18082804,8.13687548 C4.26616132,9.34220878 6.93282792,8.6262088 8.13682789,6.54087552" id="path708"></path>
                </g>
                <g id="g710" transform="translate(47.843119, 57.593041) scale(-1, 1) rotate(-180.000000) translate(-47.843119, -57.593041) translate(43.481971, 53.232190)">
                    <path d="M6.54216126,8.13682789 C8.62616121,6.93416125 9.34216119,4.26616132 8.13682789,2.18082804 C6.93416125,0.0954947543 4.26749465,-0.619171894 2.18082804,0.584828075 C0.0954947543,1.78882805 -0.619171894,4.45549465 0.584828075,6.54216126 C1.79016138,8.62616121 4.45682798,9.34082786 6.54216126,8.13682789" id="path712"></path>
                </g>
                <g id="g714" transform="translate(44.274799, 70.910798) scale(-1, 1) rotate(-180.000000) translate(-44.274799, -70.910798) translate(39.914132, 66.550132)">
                    <path d="M4.36133322,8.72133312 C6.76933316,8.72133312 8.72133312,6.76799983 8.72133312,4.35999989 C8.72133312,1.95199995 6.76933316,0 4.36133322,0 C1.95199995,0 0,1.95199995 0,4.35999989 C0,6.76799983 1.95199995,8.72133312 4.36133322,8.72133312" id="path716"></path>
                </g>
                <g id="g718" transform="translate(47.843193, 84.229841) scale(-1, 1) rotate(-180.000000) translate(-47.843193, -84.229841) translate(43.482045, 79.868989)">
                    <path d="M2.18142056,8.13682789 C4.26675384,9.34082786 6.93342044,8.62616121 8.13742041,6.54216126 C9.34142038,4.45549465 8.62675373,1.78882805 6.54275379,0.584828075 C4.45608717,-0.619171894 1.78942057,0.0954947543 0.585420601,2.18082804 C-0.619912702,4.26749465 0.0960872796,6.93416125 2.18142056,8.13682789" id="path720"></path>
                </g>
                <g id="g722" transform="translate(93.979301, 84.229841) scale(-1, 1) rotate(-180.000000) translate(-93.979301, -84.229841) translate(89.618103, 79.868989)">
                    <path d="M2.18082804,0.584828075 C0.0954947543,1.78882805 -0.619171894,4.45549465 0.584828075,6.54216126 C1.78882805,8.62616121 4.45549465,9.34082786 6.54216126,8.13682789 C8.62749454,6.93416125 9.34082786,4.26749465 8.13816122,2.18082804 C6.93282792,0.0954947543 4.26616132,-0.619171894 2.18082804,0.584828075" id="path724"></path>
                </g>
                <g id="g726" transform="translate(97.547598, 70.910798) scale(-1, 1) rotate(-180.000000) translate(-97.547598, -70.910798) translate(93.186264, 66.550132)">
                    <path d="M4.36133322,0 C1.95333328,0 0,1.95199995 0,4.36133322 C0,6.76799983 1.95333328,8.72133312 4.36133322,8.72133312 C6.7706665,8.72133312 8.72266645,6.76799983 8.72266645,4.36133322 C8.72266645,1.95199995 6.7706665,0 4.36133322,0" id="path728"></path>
                </g>
                <g id="g730" transform="translate(93.979227, 57.593175) scale(-1, 1) rotate(-180.000000) translate(-93.979227, -57.593175) translate(89.618029, 53.232323)">
                    <path d="M6.54156873,0.584828075 C4.45623545,-0.619171894 1.78956885,0.0954947543 0.58423555,2.18082804 C-0.618431086,4.26616132 0.0949022291,6.93416125 2.18023551,8.13682789 C4.26690212,9.34082786 6.93356872,8.62616121 8.13756869,6.54216126 C9.34156866,4.45549465 8.62690202,1.78882805 6.54156873,0.584828075" id="path732"></path>
                </g>
                <g id="g734" transform="translate(84.229841, 47.843119) scale(-1, 1) rotate(-180.000000) translate(-84.229841, -47.843119) translate(79.868989, 43.481971)">
                    <path d="M8.13687548,2.18013482 C6.93287551,0.0961348756 4.26620891,-0.619865106 2.1795423,0.585468197 C0.0955423489,1.78813483 -0.6191243,4.45613477 0.58487567,6.54146805 C1.78754231,8.62680133 4.45420891,9.34146798 6.54087552,8.13746801 C8.6262088,6.9321347 9.34087545,4.2654681 8.13687548,2.18013482" id="path736"></path>
                </g>
                <g id="g738" transform="translate(70.911465, 57.123065) scale(-1, 1) rotate(-180.000000) translate(-70.911465, -57.123065) translate(66.551465, 52.761732)">
                    <path d="M8.71999978,4.36133322 C8.71999978,1.95199995 6.76799983,0 4.35866656,0 C1.95199995,0 0,1.95199995 0,4.36133322 C0,6.76933316 1.95199995,8.72266645 4.35866656,8.72266645 C6.76799983,8.72266645 8.71999978,6.76933316 8.71999978,4.36133322" id="path740"></path>
                </g>
                <g id="g742" transform="translate(61.161632, 61.161632) scale(-1, 1) rotate(-180.000000) translate(-61.161632, -61.161632) translate(56.801799, 56.801799)">
                    <path d="M7.44366648,7.44266648 C9.14499977,5.74133319 9.14499977,2.97866659 7.44366648,1.27599997 C5.74099986,-0.425333323 2.97966659,-0.425333323 1.27699997,1.27599997 C-0.425666656,2.97866659 -0.425666656,5.74133319 1.27699997,7.44266648 C2.97966659,9.1453331 5.74099986,9.1453331 7.44366648,7.44266648" id="path744"></path>
                </g>
                <g id="g746" transform="translate(57.123065, 70.910798) scale(-1, 1) rotate(-180.000000) translate(-57.123065, -70.910798) translate(52.761732, 66.550132)">
                    <path d="M4.36133322,8.72133312 C6.7706665,8.72133312 8.72266645,6.76799983 8.72266645,4.35999989 C8.72266645,1.95199995 6.7706665,0 4.36133322,0 C1.95333328,0 0,1.95199995 0,4.35999989 C0,6.76799983 1.95333328,8.72133312 4.36133322,8.72133312" id="path748"></path>
                </g>
                <g id="g750" transform="translate(61.161632, 80.660798) scale(-1, 1) rotate(-180.000000) translate(-61.161632, -80.660798) translate(56.801799, 76.300465)">
                    <path d="M1.27699997,7.44366648 C2.97966659,9.1463331 5.74099986,9.1463331 7.44366648,7.44366648 C9.14499977,5.74099986 9.14499977,2.97966659 7.44366648,1.27699997 C5.74099986,-0.425666656 2.97966659,-0.425666656 1.27699997,1.27699997 C-0.425666656,2.97966659 -0.425666656,5.74099986 1.27699997,7.44366648" id="path752"></path>
                </g>
                <g id="g754" transform="translate(80.660798, 80.660798) scale(-1, 1) rotate(-180.000000) translate(-80.660798, -80.660798) translate(76.300465, 76.300465)">
                    <path d="M1.27699997,1.27699997 C-0.425666656,2.97966659 -0.425666656,5.74099986 1.27699997,7.44366648 C2.97966659,9.1463331 5.74099986,9.1463331 7.44366648,7.44366648 C9.1463331,5.74099986 9.1463331,2.97966659 7.44366648,1.27699997 C5.74099986,-0.425666656 2.97966659,-0.425666656 1.27699997,1.27699997" id="path756"></path>
                </g>
                <g id="g758" transform="translate(84.699198, 70.910798) scale(-1, 1) rotate(-180.000000) translate(-84.699198, -70.910798) translate(80.338531, 66.550132)">
                    <path d="M4.36133322,0 C1.95199995,0 0,1.95199995 0,4.36133322 C0,6.76799983 1.95199995,8.72133312 4.36133322,8.72133312 C6.76933316,8.72133312 8.72133312,6.76799983 8.72133312,4.36133322 C8.72133312,1.95199995 6.76933316,0 4.36133322,0" id="path760"></path>
                </g>
                <g id="g762" transform="translate(80.660798, 61.161632) scale(-1, 1) rotate(-180.000000) translate(-80.660798, -61.161632) translate(76.300465, 56.801799)">
                    <path d="M7.44366648,1.27599997 C5.74099986,-0.425333323 2.97966659,-0.425333323 1.27699997,1.27599997 C-0.425666656,2.97866659 -0.425666656,5.74133319 1.27699997,7.44266648 C2.97966659,9.1453331 5.74099986,9.1453331 7.44366648,7.44266648 C9.1463331,5.74133319 9.1463331,2.97866659 7.44366648,1.27599997" id="path764"></path>
                </g>
                <g id="g766" transform="translate(70.911465, 70.910798) scale(-1, 1) rotate(-180.000000) translate(-70.911465, -70.910798) translate(66.551465, 66.549465)">
                    <path d="M8.71999978,4.36133322 C8.71999978,1.95199995 6.76799983,0 4.35866656,0 C1.95199995,0 0,1.95199995 0,4.36133322 C0,6.76933316 1.95199995,8.72266645 4.35866656,8.72266645 C6.76799983,8.72266645 8.71999978,6.76933316 8.71999978,4.36133322" id="path768"></path>
                </g>
                <path d="M75.2714648,136.699442 C75.2714648,134.291442 73.3194648,132.338108 70.9101316,132.338108 C68.503465,132.338108 66.551465,134.291442 66.551465,136.699442 C66.551465,139.108775 68.503465,141.060775 70.9101316,141.060775 C73.3194648,141.060775 75.2714648,139.108775 75.2714648,136.699442" id="path532" transform="translate(70.911465, 136.699442) scale(-1, -1) rotate(-180.000000) translate(-70.911465, -136.699442) "></path>
                <path d="M57.8990652,135.560108 C58.5217319,133.234775 57.1417319,130.844108 54.8150653,130.220108 C52.4883987,129.596108 50.0977321,130.976108 49.4750654,133.304108 C48.8523988,135.629442 50.2323987,138.021442 52.557732,138.644108 C54.8843986,139.266775 57.2750652,137.886775 57.8990652,135.560108" id="path536" transform="translate(53.687062, 134.431836) scale(-1, -1) rotate(-180.000000) translate(-53.687062, -134.431836) "></path>
                <path d="M41.4121323,129.963708 C42.6161323,127.878375 41.9014656,125.211709 39.8174657,124.007709 C37.7307991,122.803709 35.0641325,123.518375 33.8601325,125.602375 C32.6561325,127.689042 33.3707992,130.355708 35.4561324,131.559708 C37.5414657,132.765042 40.2094657,132.049042 41.4121323,129.963708" id="path540" transform="translate(37.636156, 127.783981) scale(-1, -1) rotate(-180.000000) translate(-37.636156, -127.783981) "></path>
                <g id="g542" transform="translate(23.853599, 117.207675) scale(-1, -1) rotate(-180.000000) translate(-23.853599, -117.207675) translate(19.493266, 112.847842)">
                    <path d="M7.44366648,7.44266648 C9.1463331,5.74133319 9.1463331,2.97866659 7.44366648,1.27599997 C5.74099986,-0.425333323 2.97966659,-0.425333323 1.27699997,1.27599997 C-0.425666656,2.97866659 -0.425666656,5.74133319 1.27699997,7.44266648 C2.97966659,9.1453331 5.74099986,9.1453331 7.44366648,7.44266648" id="path544"></path>
                </g>
                <g id="g546" transform="translate(13.277066, 103.424642) scale(-1, -1) rotate(-180.000000) translate(-13.277066, -103.424642) translate(8.915572, 99.063814)">
                    <path d="M6.54216126,8.13682789 C8.62749454,6.93282792 9.34216119,4.26616132 8.13816122,2.18082804 C6.93416125,0.0954947543 4.26749465,-0.619171894 2.18082804,0.584828075 C0.0954947543,1.78882805 -0.619171894,4.45549465 0.584828075,6.54082793 C1.79016138,8.62616121 4.45682798,9.34082786 6.54216126,8.13682789" id="path548"></path>
                </g>
                <path d="M7.75719981,91.5861094 C10.0838664,90.9621094 11.4638664,88.5714428 10.8411997,86.2447762 C10.2171997,83.9194429 7.82653314,82.539443 5.50119986,83.1621096 C3.17319992,83.7847763 1.79319996,86.1754429 2.41719994,88.5021095 C3.03986659,90.8287761 5.43186653,92.2101094 7.75719981,91.5861094" id="path552" transform="translate(6.628928, 87.374335) scale(-1, -1) rotate(-180.000000) translate(-6.628928, -87.374335) "></path>
                <path d="M4.36133322,74.5106432 C6.76933316,74.5106432 8.72266645,72.5573099 8.72266645,70.14931 C8.72266645,67.74131 6.76933316,65.7893101 4.36133322,65.7893101 C1.95199995,65.7893101 -5.68434189e-14,67.74131 -5.68434189e-14,70.14931 C-5.68434189e-14,72.5573099 1.95199995,74.5106432 4.36133322,74.5106432" id="path556" transform="translate(4.361333, 70.149977) scale(-1, -1) rotate(-180.000000) translate(-4.361333, -70.149977) "></path>
                <g id="g558" transform="translate(137.461597, 70.149977) scale(-1, -1) rotate(-180.000000) translate(-137.461597, -70.149977) translate(133.100263, 65.789310)">
                    <path d="M4.36133322,0 C1.95199995,0 0,1.95199995 0,4.36133322 C0,6.76799983 1.95199995,8.72133312 4.36133322,8.72133312 C6.76933316,8.72133312 8.72266645,6.76799983 8.72266645,4.36133322 C8.72266645,1.95199995 6.76933316,0 4.36133322,0" id="path560"></path>
                </g>
                <g id="g562" transform="translate(135.193991, 87.373807) scale(-1, -1) rotate(-180.000000) translate(-135.193991, -87.373807) translate(130.832286, 83.012144)">
                    <path d="M5.48997694,0.149432599 C3.16464367,-0.473234052 0.772643725,0.906765914 0.149977074,3.23343252 C-0.474022911,5.56009913 0.905977055,7.95076574 3.233977,8.57343239 C5.55931027,9.19743237 7.94997688,7.81609907 8.57397686,5.4907658 C9.19664351,3.16409919 7.81664355,0.773432584 5.48997694,0.149432599" id="path564"></path>
                </g>
                <g id="g566" transform="translate(128.545330, 103.424642) scale(-1, -1) rotate(-180.000000) translate(-128.545330, -103.424642) translate(124.183835, 99.063814)">
                    <path d="M6.54216126,0.584828075 C4.45682798,-0.619171894 1.79016138,0.0954947543 0.584828075,2.18082804 C-0.619171894,4.26616132 0.0954947543,6.93282792 2.18082804,8.13682789 C4.26749465,9.34082786 6.93416125,8.62616121 8.13816122,6.54082793 C9.34216119,4.45549465 8.62749454,1.78882805 6.54216126,0.584828075" id="path568"></path>
                </g>
                <g id="g570" transform="translate(117.969464, 117.207675) scale(-1, -1) rotate(-180.000000) translate(-117.969464, -117.207675) translate(113.609130, 112.847842)">
                    <path d="M7.44366648,1.27599997 C5.74099986,-0.425333323 2.97966659,-0.425333323 1.27699997,1.27599997 C-0.425666656,2.97866659 -0.425666656,5.74133319 1.27699997,7.44266648 C2.97966659,9.1453331 5.74099986,9.1453331 7.44366648,7.44266648 C9.1463331,5.74133319 9.1463331,2.97866659 7.44366648,1.27599997" id="path572"></path>
                </g>
                <g id="g574" transform="translate(104.186706, 127.784055) scale(-1, -1) rotate(-180.000000) translate(-104.186706, -127.784055) translate(99.825653, 123.422907)">
                    <path d="M8.13727795,2.18013482 C6.93327798,0.0961348756 4.26661138,-0.619865106 2.17994476,0.585468197 C0.0959448135,1.78813483 -0.618721835,4.45480143 0.583944801,6.54146805 C1.78794477,8.62680133 4.45461137,9.34146798 6.54127799,8.13746801 C8.62661127,6.9321347 9.34127792,4.2654681 8.13727795,2.18013482" id="path576"></path>
                </g>
                <g id="g578" transform="translate(88.136167, 134.431847) scale(-1, -1) rotate(-180.000000) translate(-88.136167, -134.431847) translate(83.774504, 130.070143)">
                    <path d="M8.57389402,3.23343252 C7.94989403,0.906765914 5.55789409,-0.473234052 3.23256082,0.149432599 C0.907227544,0.773432584 -0.474105755,3.16409919 0.149894229,5.48943247 C0.77256088,7.81743241 3.16322749,9.19743237 5.4898941,8.57343239 C7.8165607,7.95076574 9.19656067,5.5587658 8.57389402,3.23343252" id="path580"></path>
                </g>
                <g id="g582" transform="translate(70.911465, 123.422109) scale(-1, -1) rotate(-180.000000) translate(-70.911465, -123.422109) translate(66.551465, 119.060775)">
                    <path d="M8.71999978,4.36133322 C8.71999978,1.95333328 6.76799983,0 4.35866656,0 C1.95199995,0 0,1.95333328 0,4.36133322 C0,6.7706665 1.95199995,8.72266645 4.35866656,8.72266645 C6.76799983,8.72266645 8.71999978,6.7706665 8.71999978,4.36133322" id="path584"></path>
                </g>
                <g id="g586" transform="translate(57.123557, 121.607131) scale(-1, -1) rotate(-180.000000) translate(-57.123557, -121.607131) translate(52.761894, 117.245076)">
                    <path d="M8.5734381,5.4907658 C9.19743809,3.16543252 7.81610479,0.773432584 5.48943818,0.149432599 C3.16277157,-0.473234052 0.772104963,0.906765914 0.149438312,3.23343252 C-0.473228339,5.56009913 0.906771627,7.95076574 3.2321049,8.57476572 C5.55877151,9.19743237 7.94943812,7.81609907 8.5734381,5.4907658" id="path588"></path>
                </g>
                <g id="g590" transform="translate(44.274799, 116.285338) scale(-1, -1) rotate(-180.000000) translate(-44.274799, -116.285338) translate(39.913897, 111.924214)">
                    <path d="M8.13756869,6.54082793 C9.34023533,4.45682798 8.62690202,1.78882805 6.54156873,0.584828075 C4.45490212,-0.619171894 1.78823552,0.0954947543 0.58423555,2.18082804 C-0.618431086,4.26616132 0.0949022291,6.93282792 2.18023551,8.13682789 C4.26690212,9.34216119 6.93356872,8.62616121 8.13756869,6.54082793" id="path592"></path>
                </g>
                <g id="g594" transform="translate(33.241599, 107.819176) scale(-1, -1) rotate(-180.000000) translate(-33.241599, -107.819176) translate(28.881266, 103.458842)">
                    <path d="M7.44366648,7.44366648 C9.1463331,5.74099986 9.1463331,2.97966659 7.44366648,1.27699997 C5.74099986,-0.425666656 2.97966659,-0.425666656 1.27699997,1.27699997 C-0.425666656,2.97966659 -0.425666656,5.74099986 1.27699997,7.44366648 C2.97966659,9.1463331 5.74099986,9.1463331 7.44366648,7.44366648" id="path596"></path>
                </g>
                <g id="g598" transform="translate(24.775386, 96.785976) scale(-1, -1) rotate(-180.000000) translate(-24.775386, -96.785976) translate(20.414238, 92.425074)">
                    <path d="M6.54216126,8.13756869 C8.62616121,6.93356872 9.34216119,4.26690212 8.13682789,2.18023551 C6.93416125,0.0949022291 4.26616132,-0.618431086 2.18082804,0.58423555 C0.0954947543,1.78823552 -0.619171894,4.45490212 0.584828075,6.54156873 C1.79016138,8.62690202 4.45682798,9.34023533 6.54216126,8.13756869" id="path600"></path>
                </g>
                <g id="g602" transform="translate(19.453500, 83.937745) scale(-1, -1) rotate(-180.000000) translate(-19.453500, -83.937745) translate(15.091444, 79.576082)">
                    <path d="M5.4912217,8.57389402 C7.81655497,7.94989403 9.19655494,5.55922743 8.57522162,3.23256082 C7.95122164,0.907227544 5.56055503,-0.474105755 3.23388842,0.149894229 C0.907221814,0.77256088 -0.474111484,3.16322749 0.1498885,5.4898941 C0.773888484,7.8165607 3.16455509,9.19656067 5.4912217,8.57389402" id="path604"></path>
                </g>
                <g id="g606" transform="translate(17.638666, 70.149977) scale(-1, -1) rotate(-180.000000) translate(-17.638666, -70.149977) translate(13.277333, 65.789310)">
                    <path d="M4.36133322,8.72133312 C6.76933316,8.72133312 8.72266645,6.76799983 8.72266645,4.35999989 C8.72266645,1.95199995 6.76933316,0 4.36133322,0 C1.95199995,0 0,1.95199995 0,4.35999989 C0,6.76799983 1.95199995,8.72133312 4.36133322,8.72133312" id="path608"></path>
                </g>
                <g id="g610" transform="translate(19.453644, 56.361707) scale(-1, -1) rotate(-180.000000) translate(-19.453644, -56.361707) translate(15.091589, 52.000394)">
                    <path d="M3.23334419,8.57264927 C5.5600108,9.19664925 7.95067741,7.81664929 8.57467739,5.48864935 C9.19734404,3.16331607 7.81734408,0.77131613 5.49067747,0.149982813 C3.16401086,-0.474017172 0.773344251,0.905982794 0.149344267,3.2326494 C-0.473322384,5.55798268 0.908010915,7.94998262 3.23334419,8.57264927" id="path612"></path>
                </g>
                <g id="g614" transform="translate(122.368974, 56.361313) scale(-1, -1) rotate(-180.000000) translate(-122.368974, -56.361313) translate(118.006919, 52.000000)">
                    <path d="M3.23334419,0.149977074 C0.908010915,0.772643725 -0.473322384,3.16464367 0.149344267,5.48997694 C0.773344251,7.81664355 3.16401086,9.19664351 5.49067747,8.57264353 C7.81734408,7.95131021 9.19734404,5.55931027 8.57467739,3.233977 C7.95067741,0.905977055 5.5600108,-0.474022911 3.23334419,0.149977074" id="path616"></path>
                </g>
                <g id="g618" transform="translate(124.184264, 70.149977) scale(-1, -1) rotate(-180.000000) translate(-124.184264, -70.149977) translate(119.822930, 65.789310)">
                    <path d="M4.36133322,0 C1.95333328,0 0,1.95199995 0,4.36133322 C0,6.76799983 1.95333328,8.72133312 4.36133322,8.72133312 C6.7706665,8.72133312 8.72266645,6.76799983 8.72266645,4.36133322 C8.72266645,1.95199995 6.7706665,0 4.36133322,0" id="path620"></path>
                </g>
                <g id="g622" transform="translate(122.368964, 83.937218) scale(-1, -1) rotate(-180.000000) translate(-122.368964, -83.937218) translate(118.006909, 79.575555)">
                    <path d="M5.4912217,0.1498885 C3.16455509,-0.474111484 0.773888484,0.907221814 0.1498885,3.23388842 C-0.474111484,5.56055503 0.907221814,7.95122164 3.23388842,8.57388829 C5.56055503,9.19655494 7.95122164,7.81655497 8.57522162,5.4912217 C9.19655494,3.16455509 7.81655497,0.773888484 5.4912217,0.1498885" id="path624"></path>
                </g>
                <g id="g626" transform="translate(117.047123, 96.785976) scale(-1, -1) rotate(-180.000000) translate(-117.047123, -96.785976) translate(112.685628, 92.425074)">
                    <path d="M6.54156873,0.58423555 C4.45623545,-0.618431086 1.78956885,0.0949022291 0.58423555,2.18023551 C-0.618431086,4.26690212 0.0949022291,6.93356872 2.18023551,8.13756869 C4.26690212,9.34023533 6.93356872,8.62690202 8.13756869,6.54156873 C9.342902,4.45490212 8.62690202,1.78823552 6.54156873,0.58423555" id="path628"></path>
                </g>
                <g id="g630" transform="translate(108.580964, 107.819176) scale(-1, -1) rotate(-180.000000) translate(-108.580964, -107.819176) translate(104.221131, 103.458842)">
                    <path d="M7.44366648,1.27699997 C5.74099986,-0.425666656 2.97833326,-0.425666656 1.27699997,1.27699997 C-0.425666656,2.97966659 -0.425666656,5.74099986 1.27699997,7.44366648 C2.97833326,9.1463331 5.74099986,9.1463331 7.44366648,7.44366648 C9.14499977,5.74099986 9.14499977,2.97966659 7.44366648,1.27699997" id="path632"></path>
                </g>
                <g id="g634" transform="translate(97.547621, 116.285413) scale(-1, -1) rotate(-180.000000) translate(-97.547621, -116.285413) translate(93.186770, 111.924288)">
                    <path d="M8.13682789,2.18142056 C6.93416125,0.0960872796 4.26616132,-0.619912702 2.18082804,0.585420601 C0.0954947543,1.78808724 -0.619171894,4.45608717 0.584828075,6.54142045 C1.78882805,8.62675373 4.45549465,9.34142038 6.54216126,8.13742041 C8.62616121,6.93208711 9.34082786,4.26542051 8.13682789,2.18142056" id="path636"></path>
                </g>
                <g id="g638" transform="translate(84.699462, 121.607275) scale(-1, -1) rotate(-180.000000) translate(-84.699462, -121.607275) translate(80.338149, 117.245220)">
                    <path d="M8.57264927,3.23288871 C7.94998262,0.907555437 5.55798268,-0.472444529 3.2326494,0.148888789 C0.905982794,0.772888773 -0.474017172,3.16488871 0.149982813,5.49022199 C0.772649464,7.8168886 3.16331607,9.1982219 5.48864935,8.57422191 C7.81664929,7.95022193 9.19664925,5.55955532 8.57264927,3.23288871" id="path640"></path>
                </g>
                <g id="g642" transform="translate(70.911465, 110.162909) scale(-1, -1) rotate(-180.000000) translate(-70.911465, -110.162909) translate(66.551465, 105.801576)">
                    <path d="M8.71999978,4.36133322 C8.71999978,1.95333328 6.76799983,0 4.35866656,0 C1.95199995,0 0,1.95333328 0,4.36133322 C0,6.7706665 1.95199995,8.72266645 4.35866656,8.72266645 C6.76799983,8.72266645 8.71999978,6.7706665 8.71999978,4.36133322" id="path644"></path>
                </g>
                <g id="g646" transform="translate(60.555368, 108.799570) scale(-1, -1) rotate(-180.000000) translate(-60.555368, -108.799570) translate(56.193704, 104.437743)">
                    <path d="M8.57389402,5.4907658 C9.19656067,3.16409919 7.8165607,0.773432584 5.4898941,0.149432599 C3.16322749,-0.473234052 0.77256088,0.906765914 0.149894229,3.23343252 C-0.474105755,5.56009913 0.907227544,7.95076574 3.23256082,8.57476572 C5.55789409,9.19609904 7.94989403,7.81609907 8.57389402,5.4907658" id="path648"></path>
                </g>
                <g id="g650" transform="translate(50.904423, 104.802272) scale(-1, -1) rotate(-180.000000) translate(-50.904423, -104.802272) translate(46.543571, 100.441148)">
                    <path d="M8.13682789,6.54082793 C9.34082786,4.45682798 8.62616121,1.78882805 6.54216126,0.584828075 C4.45549465,-0.619171894 1.78882805,0.0954947543 0.584828075,2.18082804 C-0.619171894,4.26616132 0.0954947543,6.93282792 2.18082804,8.13682789 C4.26749465,9.34216119 6.93416125,8.62616121 8.13682789,6.54082793" id="path652"></path>
                </g>
                <g id="g654" transform="translate(42.617866, 98.442909) scale(-1, -1) rotate(-180.000000) translate(-42.617866, -98.442909) translate(38.257532, 94.082576)">
                    <path d="M7.44366648,7.44366648 C9.1463331,5.74099986 9.1463331,2.97966659 7.44366648,1.27699997 C5.74099986,-0.425666656 2.97966659,-0.425666656 1.27699997,1.27699997 C-0.425666656,2.97966659 -0.425666656,5.74099986 1.27699997,7.44366648 C2.97966659,9.1463331 5.74099986,9.1463331 7.44366648,7.44366648" id="path656"></path>
                </g>
                <g id="g658" transform="translate(36.258452, 90.156486) scale(-1, -1) rotate(-180.000000) translate(-36.258452, -90.156486) translate(31.897304, 85.795634)">
                    <path d="M6.54216126,8.13687548 C8.62616121,6.93287551 9.34216119,4.26620891 8.13682789,2.1795423 C6.93416125,0.0955423489 4.26616132,-0.6191243 2.18082804,0.58487567 C0.0954947543,1.78754231 -0.619171894,4.45554224 0.584828075,6.54087552 C1.79016138,8.6262088 4.45682798,9.34087545 6.54216126,8.13687548" id="path660"></path>
                </g>
                <g id="g662" transform="translate(32.261288, 80.506240) scale(-1, -1) rotate(-180.000000) translate(-32.261288, -80.506240) translate(27.899233, 76.144927)">
                    <path d="M5.4907658,8.57264927 C7.81609907,7.94864928 9.19743237,5.55798268 8.57476572,3.2326494 C7.95076574,0.905982794 5.56009913,-0.474017172 3.23343252,0.149982813 C0.906765914,0.77131613 -0.473234052,3.16331607 0.149432599,5.48864935 C0.773432584,7.81664929 3.16409919,9.19664925 5.4907658,8.57264927" id="path664"></path>
                </g>
                <g id="g666" transform="translate(30.897866, 70.149977) scale(-1, -1) rotate(-180.000000) translate(-30.897866, -70.149977) translate(26.536533, 65.789310)">
                    <path d="M4.36133322,8.72133312 C6.7706665,8.72133312 8.72266645,6.76799983 8.72266645,4.35999989 C8.72266645,1.95199995 6.7706665,0 4.36133322,0 C1.95333328,0 0,1.95199995 0,4.35999989 C0,6.76799983 1.95333328,8.72133312 4.36133322,8.72133312" id="path668"></path>
                </g>
                <g id="g670" transform="translate(32.261432, 59.793669) scale(-1, -1) rotate(-180.000000) translate(-32.261432, -59.793669) translate(27.899377, 55.432005)">
                    <path d="M3.23288871,8.5734381 C5.55955532,9.19743809 7.95022193,7.81610479 8.57422191,5.48943818 C9.1982219,3.16277157 7.8168886,0.772104963 5.49022199,0.149438312 C3.16355538,-0.473228339 0.772888773,0.906771627 0.148888789,3.2321049 C-0.472444529,5.55877151 0.907555437,7.94943812 3.23288871,8.5734381" id="path672"></path>
                </g>
                <g id="g674" transform="translate(109.561203, 59.793141) scale(-1, -1) rotate(-180.000000) translate(-109.561203, -59.793141) translate(105.199498, 55.431478)">
                    <path d="M3.23343252,0.149432599 C0.906765914,0.773432584 -0.473234052,3.16409919 0.149432599,5.4907658 C0.772099251,7.81609907 3.16409919,9.19743237 5.48943247,8.57343239 C7.81743241,7.95076574 9.19743237,5.56009913 8.57343239,3.23343252 C7.95076574,0.906765914 5.5587658,-0.473234052 3.23343252,0.149432599" id="path676"></path>
                </g>
                <g id="g678" transform="translate(110.924531, 70.149977) scale(-1, -1) rotate(-180.000000) translate(-110.924531, -70.149977) translate(106.563864, 65.789310)">
                    <path d="M4.36133322,0 C1.95199995,0 0,1.95199995 0,4.36133322 C0,6.76799983 1.95199995,8.72133312 4.36133322,8.72133312 C6.76933316,8.72133312 8.72133312,6.76799983 8.72133312,4.36133322 C8.72133312,1.95199995 6.76933316,0 4.36133322,0" id="path680"></path>
                </g>
                <g id="g682" transform="translate(109.561192, 80.505846) scale(-1, -1) rotate(-180.000000) translate(-109.561192, -80.505846) translate(105.199487, 76.144533)">
                    <path d="M5.48997694,0.149977074 C3.16464367,-0.474022911 0.772643725,0.905977055 0.149977074,3.233977 C-0.474022911,5.55931027 0.905977055,7.94997688 3.233977,8.57264353 C5.55931027,9.19664351 7.95131021,7.81664355 8.57397686,5.48997694 C9.19664351,3.16464367 7.81664355,0.772643725 5.48997694,0.149977074" id="path684"></path>
                </g>
                <g id="g686" transform="translate(105.564057, 90.156352) scale(-1, -1) rotate(-180.000000) translate(-105.564057, -90.156352) translate(101.202562, 85.795501)">
                    <path d="M6.54156873,0.58487567 C4.45623545,-0.6191243 1.78956885,0.0955423489 0.58423555,2.1795423 C-0.618431086,4.26620891 0.0949022291,6.93287551 2.18023551,8.13687548 C4.26690212,9.34087545 6.93356872,8.6262088 8.13756869,6.54087552 C9.342902,4.45554224 8.62690202,1.78754231 6.54156873,0.58487567" id="path688"></path>
                </g>
                <g id="g690" transform="translate(99.205064, 98.442909) scale(-1, -1) rotate(-180.000000) translate(-99.205064, -98.442909) translate(94.844731, 94.082576)">
                    <path d="M7.44366648,1.27699997 C5.74099986,-0.425666656 2.97966659,-0.425666656 1.27699997,1.27699997 C-0.425666656,2.97966659 -0.425666656,5.74099986 1.27699997,7.44366648 C2.97966659,9.1463331 5.74099986,9.1463331 7.44366648,7.44366648 C9.1463331,5.74099986 9.1463331,2.97966659 7.44366648,1.27699997" id="path692"></path>
                </g>
                <g id="g694" transform="translate(90.917998, 104.802346) scale(-1, -1) rotate(-180.000000) translate(-90.917998, -104.802346) translate(86.557096, 100.441222)">
                    <path d="M8.13756869,2.18142056 C6.93356872,0.0960872796 4.26690212,-0.619912702 2.18023551,0.585420601 C0.0949022291,1.78808724 -0.618431086,4.45608717 0.58423555,6.54142045 C1.78823552,8.62675373 4.45490212,9.34142038 6.54156873,8.13742041 C8.62690202,6.93208711 9.34023533,4.26542051 8.13756869,2.18142056" id="path696"></path>
                </g>
                <g id="g698" transform="translate(81.267862, 108.799714) scale(-1, -1) rotate(-180.000000) translate(-81.267862, -108.799714) translate(76.906426, 104.437887)">
                    <path d="M8.5734381,3.23288871 C7.94943812,0.907555437 5.55877151,-0.472444529 3.2321049,0.148888789 C0.906771627,0.772888773 -0.473228339,3.16355538 0.149438312,5.49022199 C0.772104963,7.8168886 3.16277157,9.19688856 5.48943818,8.57422191 C7.81610479,7.95022193 9.19610475,5.55955532 8.5734381,3.23288871" id="path700"></path>
                </g>
                <g id="g702" transform="translate(70.911465, 96.785976) scale(-1, -1) rotate(-180.000000) translate(-70.911465, -96.785976) translate(66.551465, 92.425309)">
                    <path d="M8.71999978,4.35999989 C8.71999978,1.95199995 6.76799983,0 4.35866656,0 C1.95199995,0 0,1.95199995 0,4.35999989 C0,6.76933316 1.95199995,8.72133312 4.35866656,8.72133312 C6.76799983,8.72133312 8.71999978,6.76933316 8.71999978,4.35999989" id="path704"></path>
                </g>
                <g id="g706" transform="translate(57.593199, 93.217582) scale(-1, -1) rotate(-180.000000) translate(-57.593199, -93.217582) translate(53.232371, 88.856434)">
                    <path d="M8.13682789,6.54087552 C9.34082786,4.45687557 8.62616121,1.78887564 6.54082793,0.58487567 C4.45549465,-0.6191243 1.78882805,0.0955423489 0.584828075,2.1795423 C-0.619171894,4.26620891 0.0954947543,6.93287551 2.18082804,8.13687548 C4.26616132,9.34220878 6.93282792,8.6262088 8.13682789,6.54087552" id="path708"></path>
                </g>
                <g id="g710" transform="translate(47.843119, 83.467733) scale(-1, -1) rotate(-180.000000) translate(-47.843119, -83.467733) translate(43.481971, 79.106882)">
                    <path d="M6.54216126,8.13682789 C8.62616121,6.93416125 9.34216119,4.26616132 8.13682789,2.18082804 C6.93416125,0.0954947543 4.26749465,-0.619171894 2.18082804,0.584828075 C0.0954947543,1.78882805 -0.619171894,4.45549465 0.584828075,6.54216126 C1.79016138,8.62616121 4.45682798,9.34082786 6.54216126,8.13682789" id="path712"></path>
                </g>
                <g id="g714" transform="translate(44.274799, 70.149977) scale(-1, -1) rotate(-180.000000) translate(-44.274799, -70.149977) translate(39.914132, 65.789310)">
                    <path d="M4.36133322,8.72133312 C6.76933316,8.72133312 8.72133312,6.76799983 8.72133312,4.35999989 C8.72133312,1.95199995 6.76933316,0 4.36133322,0 C1.95199995,0 0,1.95199995 0,4.35999989 C0,6.76799983 1.95199995,8.72133312 4.36133322,8.72133312" id="path716"></path>
                </g>
                <g id="g718" transform="translate(47.843193, 56.830934) scale(-1, -1) rotate(-180.000000) translate(-47.843193, -56.830934) translate(43.482045, 52.470082)">
                    <path d="M2.18142056,8.13682789 C4.26675384,9.34082786 6.93342044,8.62616121 8.13742041,6.54216126 C9.34142038,4.45549465 8.62675373,1.78882805 6.54275379,0.584828075 C4.45608717,-0.619171894 1.78942057,0.0954947543 0.585420601,2.18082804 C-0.619912702,4.26749465 0.0960872796,6.93416125 2.18142056,8.13682789" id="path720"></path>
                </g>
                <g id="g722" transform="translate(93.979301, 56.830934) scale(-1, -1) rotate(-180.000000) translate(-93.979301, -56.830934) translate(89.618103, 52.470082)">
                    <path d="M2.18082804,0.584828075 C0.0954947543,1.78882805 -0.619171894,4.45549465 0.584828075,6.54216126 C1.78882805,8.62616121 4.45549465,9.34082786 6.54216126,8.13682789 C8.62749454,6.93416125 9.34082786,4.26749465 8.13816122,2.18082804 C6.93282792,0.0954947543 4.26616132,-0.619171894 2.18082804,0.584828075" id="path724"></path>
                </g>
                <g id="g726" transform="translate(97.547598, 70.149977) scale(-1, -1) rotate(-180.000000) translate(-97.547598, -70.149977) translate(93.186264, 65.789310)">
                    <path d="M4.36133322,0 C1.95333328,0 0,1.95199995 0,4.36133322 C0,6.76799983 1.95333328,8.72133312 4.36133322,8.72133312 C6.7706665,8.72133312 8.72266645,6.76799983 8.72266645,4.36133322 C8.72266645,1.95199995 6.7706665,0 4.36133322,0" id="path728"></path>
                </g>
                <g id="g730" transform="translate(93.979227, 83.467600) scale(-1, -1) rotate(-180.000000) translate(-93.979227, -83.467600) translate(89.618029, 79.106748)">
                    <path d="M6.54156873,0.584828075 C4.45623545,-0.619171894 1.78956885,0.0954947543 0.58423555,2.18082804 C-0.618431086,4.26616132 0.0949022291,6.93416125 2.18023551,8.13682789 C4.26690212,9.34082786 6.93356872,8.62616121 8.13756869,6.54216126 C9.34156866,4.45549465 8.62690202,1.78882805 6.54156873,0.584828075" id="path732"></path>
                </g>
                <g id="g734" transform="translate(84.229841, 93.217656) scale(-1, -1) rotate(-180.000000) translate(-84.229841, -93.217656) translate(79.868989, 88.856508)">
                    <path d="M8.13687548,2.18013482 C6.93287551,0.0961348756 4.26620891,-0.619865106 2.1795423,0.585468197 C0.0955423489,1.78813483 -0.6191243,4.45613477 0.58487567,6.54146805 C1.78754231,8.62680133 4.45420891,9.34146798 6.54087552,8.13746801 C8.6262088,6.9321347 9.34087545,4.2654681 8.13687548,2.18013482" id="path736"></path>
                </g>
                <g id="g738" transform="translate(70.911465, 83.937710) scale(-1, -1) rotate(-180.000000) translate(-70.911465, -83.937710) translate(66.551465, 79.576376)">
                    <path d="M8.71999978,4.36133322 C8.71999978,1.95199995 6.76799983,0 4.35866656,0 C1.95199995,0 0,1.95199995 0,4.36133322 C0,6.76933316 1.95199995,8.72266645 4.35866656,8.72266645 C6.76799983,8.72266645 8.71999978,6.76933316 8.71999978,4.36133322" id="path740"></path>
                </g>
                <g id="g742" transform="translate(61.161632, 79.899143) scale(-1, -1) rotate(-180.000000) translate(-61.161632, -79.899143) translate(56.801799, 75.539310)">
                    <path d="M7.44366648,7.44266648 C9.14499977,5.74133319 9.14499977,2.97866659 7.44366648,1.27599997 C5.74099986,-0.425333323 2.97966659,-0.425333323 1.27699997,1.27599997 C-0.425666656,2.97866659 -0.425666656,5.74133319 1.27699997,7.44266648 C2.97966659,9.1453331 5.74099986,9.1453331 7.44366648,7.44266648" id="path744"></path>
                </g>
                <g id="g746" transform="translate(57.123065, 70.149977) scale(-1, -1) rotate(-180.000000) translate(-57.123065, -70.149977) translate(52.761732, 65.789310)">
                    <path d="M4.36133322,8.72133312 C6.7706665,8.72133312 8.72266645,6.76799983 8.72266645,4.35999989 C8.72266645,1.95199995 6.7706665,0 4.36133322,0 C1.95333328,0 0,1.95199995 0,4.35999989 C0,6.76799983 1.95333328,8.72133312 4.36133322,8.72133312" id="path748"></path>
                </g>
                <g id="g750" transform="translate(61.161632, 60.399977) scale(-1, -1) rotate(-180.000000) translate(-61.161632, -60.399977) translate(56.801799, 56.039644)">
                    <path d="M1.27699997,7.44366648 C2.97966659,9.1463331 5.74099986,9.1463331 7.44366648,7.44366648 C9.14499977,5.74099986 9.14499977,2.97966659 7.44366648,1.27699997 C5.74099986,-0.425666656 2.97966659,-0.425666656 1.27699997,1.27699997 C-0.425666656,2.97966659 -0.425666656,5.74099986 1.27699997,7.44366648" id="path752"></path>
                </g>
                <g id="g754" transform="translate(80.660798, 60.399977) scale(-1, -1) rotate(-180.000000) translate(-80.660798, -60.399977) translate(76.300465, 56.039644)">
                    <path d="M1.27699997,1.27699997 C-0.425666656,2.97966659 -0.425666656,5.74099986 1.27699997,7.44366648 C2.97966659,9.1463331 5.74099986,9.1463331 7.44366648,7.44366648 C9.1463331,5.74099986 9.1463331,2.97966659 7.44366648,1.27699997 C5.74099986,-0.425666656 2.97966659,-0.425666656 1.27699997,1.27699997" id="path756"></path>
                </g>
                <g id="g758" transform="translate(84.699198, 70.149977) scale(-1, -1) rotate(-180.000000) translate(-84.699198, -70.149977) translate(80.338531, 65.789310)">
                    <path d="M4.36133322,0 C1.95199995,0 0,1.95199995 0,4.36133322 C0,6.76799983 1.95199995,8.72133312 4.36133322,8.72133312 C6.76933316,8.72133312 8.72133312,6.76799983 8.72133312,4.36133322 C8.72133312,1.95199995 6.76933316,0 4.36133322,0" id="path760"></path>
                </g>
                <g id="g762" transform="translate(80.660798, 79.899143) scale(-1, -1) rotate(-180.000000) translate(-80.660798, -79.899143) translate(76.300465, 75.539310)">
                    <path d="M7.44366648,1.27599997 C5.74099986,-0.425333323 2.97966659,-0.425333323 1.27699997,1.27599997 C-0.425666656,2.97866659 -0.425666656,5.74133319 1.27699997,7.44266648 C2.97966659,9.1453331 5.74099986,9.1453331 7.44366648,7.44266648 C9.1463331,5.74133319 9.1463331,2.97866659 7.44366648,1.27599997" id="path764"></path>
                </g>
                <g id="g766" transform="translate(70.911465, 70.149977) scale(-1, -1) rotate(-180.000000) translate(-70.911465, -70.149977) translate(66.551465, 65.788643)">
                    <path d="M8.71999978,4.36133322 C8.71999978,1.95199995 6.76799983,0 4.35866656,0 C1.95199995,0 0,1.95199995 0,4.36133322 C0,6.76933316 1.95199995,8.72266645 4.35866656,8.72266645 C6.76799983,8.72266645 8.71999978,6.76933316 8.71999978,4.36133322" id="path768"></path>
                </g>
            </g>
        </g>
    </g>
</svg>