<?xml version="1.0" encoding="UTF-8"?>
<svg width="171px" height="352px" viewBox="0 0 171 352" version="1.1" xmlns="http://www.w3.org/2000/svg" xmlns:xlink="http://www.w3.org/1999/xlink">
    <title>Group</title>
    <g id="Page-1" stroke="none" stroke-width="1" fill="none" fill-rule="evenodd">
        <g id="Group" transform="translate(0.718570, 0.847055)" fill-rule="nonzero">
            <path d="M103.755366,2.64506566 C103.995018,4.75244603 103.829015,6.85982641 103.48298,8.94180055 C103.306456,10.0048509 103.080831,11.0598783 102.843517,12.1082198 C102.65764,12.934591 102.522032,13.8706102 102.121052,14.6060539 C101.494448,15.7546832 100.129013,16.0488606 98.9097072,16.0983359 C98.7822822,16.5208817 98.6560262,16.9434276 98.5286011,17.3646362 C98.4549518,17.6120127 98.3018079,17.8125882 98.1100859,17.9222362 C96.2326124,23.2628943 93.5496723,28.6129127 89.1365575,31.6763698 C85.1945645,34.4148946 79.7737398,35.0166212 75.8598037,31.9344437 C72.8436881,33.6273013 69.0548391,32.6137262 66.9552485,29.6345108 C64.9924353,31.0438883 62.8379,31.6790441 60.658815,30.4675679 C58.5790981,29.3122527 57.3890184,26.8839515 57.1715775,24.3139102 C57.0581809,22.9740656 57.4755271,21.7304972 57.4427941,20.4160588 C57.4240895,19.6391629 56.9202345,19.42789 56.5367904,18.8823245 C56.2328407,18.4477441 56.0270902,17.9396194 55.9347363,17.3927168 C55.7278167,16.1625201 56.020076,14.9376721 56.5847209,13.8813076 C57.1084495,12.9011618 57.8917043,11.6482332 58.7719892,11.0572039 C58.8877239,10.9809852 58.9999514,10.9208126 59.1110099,10.8740116 C59.1156861,10.8633143 59.1215313,10.8512797 59.1285455,10.8405824 C59.5342013,10.162637 60.2554972,9.96874733 60.9008057,10.3150744 C61.3345184,10.5490792 61.5905375,10.9903454 61.7740763,11.4730639 C61.8453876,11.5546313 61.9073466,11.6549191 61.95177,11.7779387 C62.1528443,12.3235042 62.3843137,12.8503493 62.6450089,13.358474 C63.406052,14.3118764 64.1670952,15.2626045 64.9281383,16.2146698 C66.7459909,15.1074928 68.8186936,14.5980309 70.8761988,14.7945949 C71.8839087,14.8922083 72.8834354,15.124876 73.8291864,15.5367244 C74.258223,15.7239283 74.6790763,15.9352012 75.0847322,16.1799033 C75.362963,16.3470496 75.6318415,16.5315791 75.8937058,16.7294803 C76.0526948,16.8498256 76.2771499,17.1266199 76.4583507,17.1600491 C76.971558,17.2536511 77.8483357,16.4968127 78.2820485,16.2587964 C78.8595528,15.9405498 79.4382261,15.6303263 80.0262518,15.3388232 C81.1450202,14.7838975 82.2883384,14.3025162 83.4678968,13.9401431 C85.9170294,13.1846419 88.4702064,12.9038361 91.0000025,13.0709824 C91.079497,13.0763311 91.1508083,13.0937143 91.2174434,13.1177834 C92.0661643,8.59146193 93.666576,4.28042492 95.9286627,0.44007185 C96.0712852,0.198044027 96.3191211,-0.0279377517 96.5950138,0.00281716496 C98.7635776,0.244844987 100.929803,0.508267534 103.09486,0.791747636 C103.81148,0.885349556 104.006709,1.86415821 103.667688,2.32414479 C103.709773,2.41774671 103.741337,2.52472033 103.755366,2.64506566" id="path152" fill="#1A1720" transform="translate(79.868230, 17.000000) scale(-1, 1) rotate(-180.000000) translate(-79.868230, -17.000000) "></path>
            <path d="M72.9323005,19.7978424 C73.1085156,21.3473868 72.9864544,22.8969312 72.7320169,24.4277945 C72.6022194,25.2094492 72.4363193,25.9852046 72.2618233,26.756044 C72.1251491,27.3636699 72.0254372,28.0519193 71.7305991,28.5926867 C71.269861,29.437267 70.2658645,29.653574 69.3693162,29.6899529 C69.2756213,30.0006483 69.182786,30.3113438 69.0890912,30.621056 C69.0349372,30.8029505 68.9223315,30.9504325 68.7813593,31.031056 C67.4008641,34.9580105 65.4281141,38.8918476 62.1831767,41.1443896 C59.2846525,43.1580107 55.2987519,43.6004568 52.4208578,41.3341498 C50.2031257,42.578898 47.4172073,41.8336222 45.8733907,39.6430226 C44.4301457,40.6793296 42.8459286,41.146356 41.2436602,40.2555646 C39.7144566,39.4060682 38.839398,37.6205526 38.679515,35.7308163 C38.5961351,34.7456364 38.9030073,33.8312479 38.8789389,32.8647491 C38.8651855,32.2935021 38.4947039,32.1381544 38.2127597,31.7370033 C37.9892673,31.4174589 37.8379802,31.0438378 37.7700729,30.6417035 C37.6179262,29.7371471 37.8328227,28.8365236 38.2480027,28.059785 C38.6330973,27.3390895 39.20902,26.4178185 39.8562883,25.9832382 C39.9413873,25.927195 40.0239076,25.8829504 40.1055682,25.848538 C40.1090066,25.8406722 40.1133045,25.8318233 40.118462,25.8239576 C40.4167384,25.3254684 40.947103,25.1829024 41.4215945,25.4375547 C41.7405009,25.6096171 41.9287503,25.9340775 42.0637053,26.2890176 C42.11614,26.3489936 42.1616981,26.4227346 42.1943624,26.5131902 C42.3422112,26.9143413 42.5124092,27.3017274 42.7040969,27.6753485 C43.2636874,28.3763797 43.823278,29.0754445 44.3828685,29.7754925 C45.7195248,28.9613917 47.2435709,28.5867874 48.7564424,28.7313198 C49.4974056,28.8030944 50.2323517,28.9741735 50.9277568,29.2770032 C51.2432249,29.4146531 51.5526759,29.5700009 51.8509522,29.7499289 C52.0555337,29.8728306 52.2532385,30.0085141 52.4457858,30.1540296 C52.5626895,30.2425189 52.72773,30.446044 52.8609658,30.4706244 C53.2383241,30.5394493 53.8830137,29.9829505 54.2019201,29.8079385 C54.6265556,29.5739337 55.0520507,29.3458282 55.4844225,29.1314877 C56.3070464,28.7234541 57.1477215,28.3694972 58.0150439,28.1030464 C59.8158767,27.5475308 61.6932127,27.341056 63.5533569,27.4639576 C63.6118088,27.4678905 63.6642435,27.4806723 63.7132399,27.4983701 C64.3372994,24.1701926 65.5140727,21.0003124 67.1773718,18.1765234 C67.2822413,17.9985618 67.4644735,17.8323987 67.6673358,17.8550126 C69.261868,18.0329743 70.8546809,18.2266673 72.4466343,18.4351086 C72.9735606,18.5039335 73.1171115,19.2236457 72.8678315,19.5618712 C72.8987766,19.6306961 72.9219854,19.7093532 72.9323005,19.7978424" id="path152" fill="#1A1720" transform="translate(55.368230, 30.352941) scale(-1, 1) rotate(-90.000000) translate(-55.368230, -30.352941) "></path>
            <path d="M98.4267433,115.368315 C98.2160766,119.245648 97.9800767,123.122981 97.7227433,126.997648 C97.6827433,127.600314 97.2147433,127.918981 96.74141,127.952314 C94.1240768,134.044314 91.6387435,140.192314 89.2787435,146.388314 C94.3254101,155.180314 95.7280767,165.82298 93.1214101,175.62298 C92.9614101,176.225647 92.4240768,176.409647 91.9520768,176.297647 C89.2120769,176.96698 86.4027436,177.26298 83.5814103,177.15498 C83.4147437,177.148313 83.2707437,177.108313 83.148077,177.045646 C82.5374104,177.040313 81.9494104,176.56698 82.2227437,175.84298 C83.292077,173.016313 82.0400771,169.644313 78.9094105,168.948313 C75.9880772,168.29898 73.1454106,170.83098 73.8174106,173.85498 C73.9054106,174.25498 73.7654106,174.789647 73.3587439,174.980313 C72.418744,175.420313 71.450744,175.545647 70.474744,175.197647 C70.010744,175.292313 69.4734107,175.108313 69.2720774,174.53898 C67.1014108,168.392313 65.7774108,161.836314 66.1480775,155.293647 C66.3347441,152.012314 67.0454108,148.872314 67.9160774,145.714981 C68.7294107,142.761647 69.554744,139.706981 69.0440774,136.649648 C68.982744,136.561648 68.930744,136.460314 68.894744,136.338981 C64.6454108,122.220315 61.7547442,107.718982 60.2334109,93.0536486 C60.2080776,92.8136486 60.2587443,92.6189819 60.3587443,92.4696486 C59.0160776,86.5189821 57.3587443,80.6376489 55.3867444,74.857649 C55.1334111,74.1163157 55.7507444,73.6336491 56.3640777,73.6443157 C56.5200777,73.4709824 56.737411,73.3456491 57.017411,73.3109824 C62.8467442,72.5883158 68.7134107,72.7856491 74.5587439,73.1843158 C74.6614106,72.8163158 74.9640772,72.5309824 75.4720772,72.5803158 C77.5334105,72.7789824 79.6054104,72.9829824 81.6787437,72.8763158 C83.6174103,72.7776491 85.5134103,72.3309824 87.4360769,72.0936491 C89.2947435,71.8629825 91.0907435,71.9509825 92.9120768,72.3896491 C93.7427434,72.5896491 94.5654101,72.8376491 95.3907434,73.0616491 C96.3707434,73.0269824 97.3520767,73.0149824 98.33741,73.0323158 C98.5267433,73.0363158 98.68941,73.0843158 98.8227433,73.1616491 C99.3107433,73.1736491 99.7854099,73.4923158 99.7775097,74.1216491 C99.6214099,87.8789821 99.1747433,101.630982 98.4267433,115.368315" id="path160" fill="#A2E4B8" transform="translate(77.552965, 124.573304) scale(-1, 1) rotate(-180.000000) translate(-77.552965, -124.573304) "></path>
            <path d="M98.45341,64.5731687 C97.1187433,69.6545019 94.2574101,74.4331684 89.8014102,77.347835 C87.2360769,79.0265017 84.2454103,80.071835 81.3120771,80.8958349 C78.0574105,81.8118349 74.7107439,82.3665016 71.3400773,82.6078349 C70.6334107,82.6585016 70.3200773,82.0758349 70.3934107,81.5265016 C61.2120776,79.6291683 54.7147444,71.2385019 53.1627444,62.2358354 C52.2707445,57.0705022 52.6547445,51.6505023 54.1427444,46.6278358 C54.9027444,44.0545025 56.0440777,41.6398359 57.7507443,39.555836 C59.4280776,37.507836 61.5614109,35.8238361 63.7627442,34.3705028 C66.2267441,32.7438362 68.9440774,31.4358362 71.794744,30.6478362 C71.8734106,28.2865029 71.9494106,25.9251697 72.030744,23.5651697 C72.1014106,21.4891698 72.4440773,19.4811698 74.3960772,18.3611698 C75.1880772,17.9051699 76.0534105,17.6905032 76.9320772,17.6558365 C78.6827438,17.1105032 80.6040771,17.1025032 82.3307437,17.7398365 C84.3414103,18.4798365 86.1854103,20.5025031 85.392077,22.5265031 C85.4867436,22.6745031 85.5387436,22.8611697 85.5214103,23.0918364 C85.316077,25.7651697 84.9027436,28.4078363 84.2774103,31.0091695 C87.0587436,32.0585028 89.5587435,33.7825028 91.6240768,36.0798361 C98.3600766,43.5731692 101.008077,54.8478356 98.45341,64.5731687" id="path162" fill="#E4A485" transform="translate(76.049432, 49.932399) scale(-1, 1) rotate(-180.000000) translate(-76.049432, -49.932399) "></path>
            <path d="M67.1867465,44.2546336 C66.940829,44.685916 66.4564086,44.9750853 65.9621021,44.9862072 C65.6173233,45.1493284 65.2292926,45.0788897 64.9129365,44.8156715 C64.4631175,44.4412343 64.3160613,43.8628956 64.4161584,43.3327519 C64.4359307,43.1745738 64.4853613,43.0163957 64.5619788,42.8606891 C64.5953445,42.7964293 64.6385963,42.739584 64.688027,42.6876819 C64.8758635,42.4219921 65.1464963,42.2131476 65.4925109,42.1229366 C66.0189473,41.9857666 66.6207655,42.1377658 67.0013816,42.5307395 C67.4549078,43.0003307 67.5031027,43.6960672 67.1867465,44.2546336" id="path166" fill="#1A1720" transform="translate(65.887816, 43.573473) scale(-1, 1) rotate(-180.000000) translate(-65.887816, -43.573473) "></path>
            <path d="M86.8254103,44.1985672 C86.7614103,44.3359005 86.6774103,44.4665672 86.5694103,44.5879005 C86.4614103,45.0199005 86.0854103,45.4292338 85.604077,45.3812338 C85.1494103,45.3372338 84.7334103,45.1439005 84.448077,44.8199005 C84.436077,44.8105672 84.4267437,44.8025672 84.4147437,44.7945672 C84.4094103,44.7892339 84.4027437,44.7865672 84.3974103,44.7812339 C84.020077,44.4825672 83.792077,44.0012339 83.8334103,43.5105672 C83.8854103,42.8959006 84.220077,42.3132339 84.8054103,42.0652339 C85.4054103,41.8132339 86.1227436,41.9625673 86.5520769,42.4679006 C86.6387436,42.5705672 86.7094103,42.6785672 86.7694103,42.7919006 C86.7734103,42.7959006 86.7760769,42.7985672 86.7800769,42.8039006 C87.0880769,43.2012339 87.0534103,43.7559006 86.8254103,44.1985672" id="path168" fill="#1A1720" transform="translate(85.416180, 43.665098) scale(-1, 1) rotate(-180.000000) translate(-85.416180, -43.665098) "></path>
            <path d="M77.6400772,44.224091 C75.8147439,45.6907576 76.4507439,48.1534242 76.9680772,50.1027575 C77.2960772,51.3440908 75.3747439,51.8720908 75.0467439,50.6320908 C74.3520772,48.0160909 73.8214106,44.7507577 76.2320772,42.816091 C77.2227438,42.0200911 78.6400771,43.4214244 77.6400772,44.224091" id="path170" fill="#1A1720" transform="translate(76.221608, 46.959193) scale(-1, 1) rotate(-180.000000) translate(-76.221608, -46.959193) "></path>
            <path d="M80.8694104,55.2293327 C79.2734105,52.7839994 75.9494105,52.5506661 73.9414106,54.6213327 C73.0467439,55.5439993 71.6400773,54.1333327 72.5334106,53.2119994 C75.4640772,50.1893328 80.3094104,50.7279995 82.5894104,54.2239994 C83.292077,55.3013327 81.5667437,56.3013327 80.8694104,55.2293327" id="path172" fill="#1A1720" transform="translate(77.501074, 53.463814) scale(-1, 1) rotate(-180.000000) translate(-77.501074, -53.463814) "></path>
            <path d="M155.029409,198.152346 C154.974742,198.365679 154.870742,198.525679 154.740075,198.640346 C154.581409,198.867012 154.329409,199.033679 153.981409,199.057679 C140.450742,200.004346 127.026743,202.145679 113.868076,205.440346 C113.60141,205.505679 113.366743,205.469679 113.176076,205.369679 C109.720076,219.663012 107.140076,234.165678 105.500076,248.779011 C105.216076,251.313678 104.962743,253.852344 104.73341,256.392344 C105.014743,256.609678 105.20141,256.959011 105.128076,257.396344 C103.95741,264.435011 102.90541,271.491011 101.968077,278.56301 C102.208077,278.71901 102.376077,278.984344 102.36941,279.361677 C102.18941,289.692344 101.580077,300.012343 100.54141,310.293676 C100.42541,311.449676 98.74541,311.557676 98.56141,310.588343 C98.4720766,310.616343 98.3760766,310.636343 98.26941,310.636343 C98.17341,310.636343 98.08141,310.616343 97.99341,310.589676 C97.8040767,310.98301 97.3987433,311.29501 96.8600767,311.221676 C89.9867435,310.285676 83.1134104,309.416343 76.1707439,309.27901 C69.2894107,309.140343 62.3987442,309.600343 55.597411,310.653676 C54.4720777,310.828343 53.9214111,309.300343 54.7360777,308.844343 C54.4694111,308.592343 54.2507444,308.296343 54.0934111,307.972343 C49.4787445,302.96701 51.1280778,295.913677 50.6507445,289.572344 C46.7640779,274.985677 42.1200781,260.655011 38.4534115,246.012345 C38.4227448,246.016345 38.2374115,246.108345 38.2054115,246.109678 C34.4547449,246.321678 30.7854117,245.247011 28.9040784,242.124345 C26.6760784,238.421678 27.5827451,232.151012 27.3600784,227.932345 C27.1067451,223.107012 25.9254118,217.827012 25.9814118,213.000345 C26.0400785,208.028346 25.5920785,203.779012 25.3974118,198.809679 C25.2120785,194.073679 25.4374118,190.139013 25.0254118,185.417679 C24.5307452,185.412346 25.2454118,184.02168 25.2360785,183.38568 C25.0520785,170.168347 88.8414102,172.623013 88.3867436,187.577679 C88.3600769,188.467013 88.3254102,189.355013 88.2907436,190.243013 C89.6214102,185.908346 91.3134102,181.687013 93.0374101,177.492346" id="path174" fill="#DB8B2B" transform="translate(89.940120, 243.007984) scale(-1, 1) rotate(-180.000000) translate(-89.940120, -243.007984) "></path>
            <path d="M94.6400767,252.158227 C94.1120768,254.951561 93.5334101,257.735561 92.9787434,260.524894 C92.7294101,261.780894 90.8094102,261.248894 91.0574102,259.995561 C91.5987435,257.270227 92.1547435,254.547561 92.6814101,251.819561 C93.1654101,249.306228 93.2907434,246.943561 92.0854101,244.620894 C90.2720768,241.127561 87.2267436,238.415561 86.7000769,234.342228 C86.5360769,233.074228 88.5307436,233.086228 88.6920769,234.342228 C89.2107435,238.352894 92.8960768,241.187561 94.3627434,244.831561 C95.3240767,247.216894 95.1054101,249.684894 94.6400767,252.158227" id="path176" fill="#1A1720" transform="translate(90.863569, 247.318925) scale(-1, 1) rotate(-180.000000) translate(-90.863569, -247.318925) "></path>
            <path d="M96.77741,178.806905 C92.2614101,177.878905 87.6920769,177.226905 83.1014104,176.854905 C83.3267437,177.073572 83.456077,177.392238 83.3774104,177.781572 C82.8254104,180.488238 82.2747437,183.193572 81.7227437,185.900238 C83.5654103,185.936238 85.408077,185.989572 87.2494103,186.052238 C87.4827436,183.492238 88.2094102,181.018905 89.3974102,178.712238 C89.9840769,177.572238 91.7040768,178.578905 91.1174102,179.717572 C90.0787435,181.734905 89.4547435,183.893572 89.2427435,186.126905 C90.8774102,186.190905 92.5107435,186.268238 94.1454101,186.353572 C94.1480768,186.324238 94.1507434,186.294905 94.1560768,186.264238 C94.5427434,184.098905 94.9294101,181.933572 95.3160767,179.768238 C95.54141,178.508238 97.46141,179.042905 97.23741,180.297572 C96.8507433,182.462905 96.4640767,184.628238 96.07741,186.793572 C96.06541,186.864238 96.04541,186.928238 96.0240767,186.988238 C96.2947434,187.593572 96.0120767,188.446905 95.1640767,188.398905 C93.1520768,188.286905 91.1387435,188.190905 89.1240769,188.110905 C88.8734102,189.045571 87.3720769,189.022905 87.1880769,188.040238 C78.2040771,187.729572 69.2094107,187.742905 60.2254109,188.084238 C58.9427443,188.132238 58.945411,186.140238 60.2254109,186.092238 C61.8454109,186.030905 63.4640775,185.980238 65.0840775,185.940238 C65.0827441,185.924238 65.0787441,185.906905 65.0774108,185.890905 C64.8387442,183.134905 65.2400775,180.380238 66.2614108,177.809572 C66.7294108,176.632238 68.6560774,177.145572 68.1827441,178.338905 C67.2174108,180.766905 66.8440774,183.288238 67.0694108,185.890905 C67.0694108,185.892238 67.0694108,185.893572 67.0694108,185.896238 C68.882744,185.860238 70.6960773,185.842905 72.510744,185.833572 C72.0280773,182.906905 72.3120773,179.945572 73.4414106,177.186905 C73.9200773,176.016238 75.8480772,176.528238 75.3614106,177.716238 C74.3214106,180.256238 73.9880773,182.978905 74.4960772,185.685572 C74.5054106,185.733572 74.5094106,185.780238 74.5134106,185.825572 C76.2427439,185.826905 77.9720772,185.840238 79.7014104,185.864238 C80.2867438,182.993572 80.8707437,180.122905 81.4560771,177.252238 C81.5014104,177.032238 81.5974104,176.868238 81.7240771,176.752238 C73.3174106,176.174905 64.8480775,176.534905 56.5160777,177.841572 C55.2627444,178.038905 54.7214111,176.120238 55.9867444,175.921572 C69.7040774,173.768239 83.7054103,174.086905 97.3067433,176.886905 C98.56141,177.144238 98.0307433,179.065572 96.77741,178.806905" id="path178" fill="#1A1720" transform="translate(76.644437, 181.655265) scale(-1, 1) rotate(-180.000000) translate(-76.644437, -181.655265) "></path>
            <path d="M98.70541,302.581976 C95.4000767,310.599309 92.6080768,318.819309 90.3467435,327.191309 C90.1654102,327.864642 89.5120769,328.015309 89.0094102,327.812642 C88.9960769,329.351309 88.9827435,330.888642 88.9694102,332.428642 C88.9200769,338.113975 88.8707435,343.799308 88.8200769,349.485975 C88.8094102,350.767308 86.8174103,350.771308 86.8280769,349.485975 L87.0880769,319.733976 L87.2147436,305.055309 C87.2587436,300.088643 87.4627436,295.08731 87.1880769,290.12331 C86.8960769,284.848643 85.6494103,279.71531 83.7067437,274.81131 C83.2347437,273.617977 85.160077,273.101977 85.6267436,274.280643 C87.3454103,278.620643 88.5240769,283.148643 89.0000769,287.796643 C89.5040769,292.72731 89.2707435,297.72731 89.2280769,302.675309 C89.1654102,309.933976 89.1014102,317.189976 89.0387435,324.445976 C91.1854102,316.837976 93.7707434,309.361976 96.7840767,302.051309 C97.26541,300.881976 99.1947433,301.395309 98.70541,302.581976" id="path186" fill="#1A1720" transform="translate(91.208545, 312.031465) scale(-1, 1) rotate(-180.000000) translate(-91.208545, -312.031465) "></path>
            <path d="M95.1707434,231.844853 C91.2907435,231.796853 87.4107436,231.750187 83.5307437,231.70352 C80.4320771,231.666187 76.7294105,231.160853 74.0960773,233.150187 C73.0720773,233.922187 72.0774106,232.192853 73.0894106,231.428853 C75.8280772,229.360853 79.5040771,229.662187 82.7414104,229.702187 C86.8840769,229.75152 91.0280768,229.800853 95.1707434,229.85152 C96.4520767,229.86752 96.4547434,231.85952 95.1707434,231.844853" id="path196" fill="#1A1720" transform="translate(84.399831, 231.504239) scale(-1, 1) rotate(-180.000000) translate(-84.399831, -231.504239) "></path>
            <path d="M69.2920774,303.756943 C64.5520775,301.35161 60.1360776,298.370276 56.121411,294.89561 C55.985411,294.914277 55.8347444,294.900943 55.6707444,294.84361 C44.424078,290.896943 36.3387449,281.644944 29.3880784,272.350277 C22.4680785,263.098277 16.8880787,252.864944 12.8107455,242.056944 C11.6747455,239.046278 10.6574122,235.990278 9.76674553,232.896945 C9.21341221,230.971611 8.71607889,229.010278 8.44007889,227.026278 C8.34274556,226.948945 8.25474556,226.847612 8.18141223,226.714278 C3.59074568,218.292945 -0.0825875602,208.875612 0.0014124377,199.147612 C0.0400791034,194.592946 0.993412413,190.131612 2.8307457,185.966279 C4.63207899,181.880946 7.24407892,178.198279 10.1494122,174.827613 C13.4840788,170.95828 17.2427453,167.483613 21.0094119,164.043613 C21.1000786,163.960946 21.1960786,163.899613 21.2934119,163.855613 C21.7814119,162.020946 22.3214119,160.183613 23.0027452,158.41028 C21.9814119,153.783613 21.6600786,149.01828 20.9667452,144.32628 C20.5134119,141.26628 19.8334119,138.27428 18.8720786,135.332947 C17.9027453,132.368947 16.741412,129.472947 15.7120787,126.530281 C13.6320788,120.588948 12.3387455,114.404948 11.9280788,108.119615 C11.5240788,101.954281 11.8054121,95.5836148 13.9467454,89.7342816 C16.1680787,83.6689485 19.9000786,78.3529486 23.6120785,73.126282 C24.2134118,72.2769487 25.4800785,72.7889487 25.5134118,73.5769487 C25.6254118,73.7236154 25.7000785,73.914282 25.7080785,74.146282 C26.0560785,83.2729485 26.4027451,92.3996149 26.7507451,101.527615 L27.2640784,115.019614 C27.4240784,119.216948 27.2494118,123.632947 28.2480784,127.739614 C29.0574117,131.068947 31.0240783,134.371614 34.2707449,135.603614 C34.3414116,135.062281 34.8134116,134.535614 35.5080782,134.679614 C36.3654115,134.855614 37.1747448,135.192947 37.8827448,135.711614 C38.7574115,136.348947 38.9280781,136.799614 39.0587448,137.852947 L39.7520781,143.464947 C39.8147448,143.548947 39.8667448,143.647614 39.9067448,143.76228 C42.608078,151.628947 44.8414113,159.65428 46.5720779,167.79028 C47.4307446,171.82628 48.1680779,175.888946 48.7814112,179.970279 C49.3547445,183.798279 49.7000779,187.658279 50.2920778,191.480946 C50.6760778,193.960946 51.2200778,196.482279 52.2294111,198.784946 C52.5080778,198.868946 52.7454111,199.079612 52.8440778,199.448946 C52.9440778,199.824946 53.0414111,200.200946 53.1400778,200.576946 C53.5094111,201.203612 53.9240778,201.804945 54.3920777,202.375612 C54.7214111,202.776945 54.6814111,203.251612 54.4654111,203.603612 C58.8160776,218.563612 62.1760776,233.799611 64.5200775,249.202278 C64.5600775,249.468944 64.5040775,249.703611 64.3907442,249.895611 C65.0827441,251.990278 65.7747441,254.083611 66.4654108,256.178277 C67.7040774,259.926277 69.482744,263.772944 68.6974107,267.792944 C68.3334107,269.658277 67.6280774,271.444944 67.1454108,273.282277 C66.6827441,275.042277 66.3187441,276.83161 66.0720775,278.63561 C65.5840775,282.216943 65.5414108,285.884943 65.9987441,289.47161 C66.5227441,293.57961 67.7574107,297.588943 69.7000774,301.24761 C69.798744,301.43561 69.8334107,301.618276 69.8214107,301.790276 C69.9800774,301.87161 70.1374107,301.95561 70.2974107,302.03561 C71.4414107,302.616943 70.4334107,304.33561 69.2920774,303.756943" id="path198" fill="#5B57EB" transform="translate(35.400527, 188.280952) scale(-1, 1) rotate(-180.000000) translate(-35.400527, -188.280952) "></path>
            <path d="M169.397408,191.002366 C168.760075,203.163699 166.869408,215.377032 162.557408,226.811698 C158.744075,236.925031 153.025409,246.370364 145.248075,253.933031 C141.649409,257.433031 137.622742,260.494364 133.253409,262.965031 C131.149409,266.971697 128.482743,270.713031 124.889409,273.50503 C122.429409,275.41703 119.621409,276.703697 116.756076,277.879697 C113.71741,279.126364 110.658743,280.378364 107.488076,281.254364 C104.52541,282.07303 101.490743,282.494364 98.4480766,282.231697 C97.4187433,283.551697 96.3707434,284.855697 95.2974101,286.142363 C94.4760767,287.127697 93.0720768,285.711697 93.8894101,284.73303 C94.1854101,284.378363 94.4774101,284.018364 94.7694101,283.66103 C94.2747434,283.54103 93.8160768,283.086364 93.9147434,282.442364 C95.2800767,273.499697 92.3974101,264.627697 89.6587435,256.227698 C89.5387435,255.857031 89.6307435,255.553031 89.8294102,255.339698 C89.7774102,255.127698 89.7987435,254.887698 89.9294102,254.643698 C92.4814101,249.861031 94.9667434,245.042364 97.3867433,240.190365 C97.3427433,240.082365 97.3147433,239.959698 97.3107433,239.821031 C96.75341,219.139698 98.12141,198.467699 100.174743,177.898366 C102.234743,157.249033 104.828076,136.651701 107.252076,116.042368 C108.614743,104.454368 109.978743,92.869035 111.34141,81.2810352 C111.428076,80.5410353 112.154743,80.2303686 112.708076,80.3610353 C112.90941,79.5383686 113.520076,78.855702 114.350743,78.4530353 C115.014743,78.1330353 115.74141,78.0423687 116.44141,77.8343687 C117.264076,77.5903687 117.989409,77.179702 118.636076,76.6170354 C119.228076,76.1010354 119.988076,76.4330354 120.264076,76.959702 C124.557409,75.867702 128.954743,75.1983687 133.350742,74.6223687 C136.689409,74.1863688 140.032076,73.7810354 143.372076,73.3650354 C146.638742,72.9570355 149.922742,72.4770355 153.222742,72.5330355 C154.628075,72.5557021 158.306742,72.6357021 159.560075,74.0477021 C160.149408,73.7863688 161.005408,74.0757021 161.008075,74.9170354 C161.037408,86.0917018 160.372075,97.2597015 159.017408,108.350368 C164.726742,116.670368 169.677408,126.093034 167.104075,136.409034 C166.469408,138.949034 165.340075,141.322367 163.741408,143.377034 C163.776075,143.4357 163.808075,143.4997 163.833408,143.570367 C169.133408,157.9277 169.408075,173.462366 168.520075,188.565033 C168.492075,189.057033 168.457408,189.550366 168.426742,190.043699 C168.932075,190.031699 169.430742,190.350366 169.397408,191.002366" id="path200" fill="#5B57EB" transform="translate(129.502055, 179.502329) scale(-1, 1) rotate(-180.000000) translate(-129.502055, -179.502329) "></path>
            <path d="M45.5787446,202.17091 C40.8840781,199.257577 36.1174115,196.28691 32.226745,192.316244 C31.274745,191.345577 30.3854117,190.316244 29.5694117,189.229577 C28.8680784,188.297577 28.3960784,187.088244 29.1734117,186.045577 C30.590745,184.142911 33.5840783,185.337577 35.3027449,186.012244 C38.3400781,187.204244 41.1254114,188.844244 43.6734113,190.880244 C44.6747447,191.680244 43.2574114,193.080244 42.264078,192.288244 C39.8694114,190.374911 37.1600782,188.816244 34.2867449,187.746911 C33.6774116,187.520244 33.0534116,187.273577 32.4200783,187.126911 C32.1134116,187.054911 31.1800783,186.868244 30.906745,187.140244 C30.3974117,187.646911 32.4240783,189.609577 32.8374116,190.064244 C36.7400782,194.341577 41.7040781,197.42291 46.5840779,200.45091 C47.6720779,201.125577 46.6720779,202.849577 45.5787446,202.17091" id="path202" fill="#1A1720" transform="translate(37.912721, 193.671934) scale(-1, 1) rotate(-180.000000) translate(-37.912721, -193.671934) "></path>
            <path d="M67.2054108,210.04821 C67.6934107,208.54421 68.1747441,207.074876 67.9414107,205.449543 C67.6707441,203.561543 66.9960774,201.70021 66.4814108,199.866876 C65.6720775,196.98421 64.8614108,194.102877 64.0520775,191.218877 C63.5987442,192.741543 63.1427442,194.26421 62.6854109,195.785543 C62.9414109,195.93621 63.1187442,196.209543 63.0960775,196.60821 C62.8187442,201.42821 64.2574108,206.226876 67.2054108,210.04821 L67.2054108,210.04821 Z M61.2440776,200.598876 C60.6267443,202.68021 60.0227443,204.76421 59.4387443,206.853543 C59.5307443,206.93221 59.6134109,207.034876 59.6800776,207.169543 C61.4734109,210.802876 63.2680775,214.436209 65.0627441,218.069543 C65.6280775,219.214876 63.9107442,220.225543 63.3427442,219.074876 C61.7880776,215.928209 60.2347443,212.781543 58.6800776,209.633543 C58.597411,209.938876 58.513411,210.244209 58.433411,210.549543 C57.9480777,212.400209 57.5040777,214.276209 57.1507443,216.166876 C57.6080777,215.637543 58.653411,215.622876 58.893411,216.504209 C59.8827443,220.117543 61.9640776,223.252209 64.8747441,225.604209 C64.9960775,225.702876 65.0800775,225.808209 65.1347441,225.918876 C65.0334108,224.158876 65.0374108,222.389543 65.1547441,220.620209 C65.3454108,217.798876 65.8040775,214.990876 66.5427441,212.260209 C66.4334108,212.205543 66.3267441,212.122876 66.2294108,212.005543 C63.5120775,208.73221 61.7787442,204.770876 61.2440776,200.598876 L61.2440776,200.598876 Z M70.2574107,239.437542 C70.7520773,240.604209 69.0360774,241.621542 68.5374107,240.442875 C66.6600774,236.002876 65.5174108,231.286876 65.1747441,226.496209 C64.9827441,227.096209 64.1280775,227.548209 63.4667442,227.013542 C60.3187443,224.468209 58.0627443,220.976209 56.9867443,217.078876 C56.569411,219.508209 56.313411,221.960209 56.3147444,224.409542 C56.665411,224.150876 57.149411,224.110876 57.525411,224.536209 C60.1600776,227.516209 62.7960775,230.494876 65.4307441,233.473542 C66.2774108,234.430876 64.8747441,235.845542 64.0227442,234.882876 C61.4694109,231.996209 58.917411,229.110876 56.3640777,226.225542 C56.4600777,227.942876 56.693411,229.657542 57.101411,231.357542 C57.401411,232.604209 55.4814111,233.136209 55.1814111,231.888209 C53.4947444,224.866876 54.5600777,217.654876 56.321411,210.758876 C58.1680777,203.526876 60.4547443,196.393543 62.5627442,189.234877 C62.6827442,188.825543 62.9774109,188.610877 63.3027442,188.55221 L62.9387442,187.26021 C62.8160775,186.821543 62.9787442,186.473543 63.2534109,186.26021 C61.9680776,178.861544 60.5987443,171.477544 59.1400776,164.112211 C58.405411,160.402877 57.6507443,156.696211 56.869411,152.996211 C56.1547444,149.614878 55.4040777,146.220211 54.1840777,142.978878 C54.0947444,142.742878 54.0014111,142.506878 53.9054111,142.272211 C53.6627444,142.548211 53.2974111,142.690878 52.9080778,142.585545 C52.0654111,145.720211 49.8960779,147.818878 47.2240779,149.144211 C47.5387446,149.280211 47.7787446,149.570878 47.7800779,150.016211 C47.7814112,157.122877 48.5160779,164.197544 49.9894112,171.150877 C50.2547445,172.401544 48.3347446,172.93621 48.0694112,171.68021 C48.0200779,171.44821 47.9734112,171.21621 47.9267446,170.985544 C46.5254113,176.16421 45.1254113,181.345544 43.7254113,186.525543 C43.3907447,187.761543 41.4680781,187.237543 41.8040781,185.994877 C43.4974114,179.730877 45.1907446,173.465544 46.8840779,167.201544 C46.9374113,167.005544 47.0294113,166.854877 47.1467446,166.742877 C46.9387446,165.466877 46.7560779,164.188211 46.5960779,162.904211 C45.764078,164.614877 44.700078,166.208211 43.424078,167.637544 C42.3654114,168.824211 41.1587447,169.876211 39.8520781,170.78421 C39.1960781,171.241544 38.5067448,171.634877 37.8067448,172.021544 C37.7014115,172.08021 36.1174115,173.121544 36.5560782,173.30421 C37.7214115,173.79221 37.2094115,175.72021 36.0254115,175.225544 C34.4800782,174.578877 34.1480783,172.70821 35.2374116,171.446877 C35.8320782,170.758877 36.6734115,170.389544 37.4467448,169.946877 C38.2880781,169.468211 39.0960781,168.925544 39.8454114,168.312211 C42.2667447,166.332211 44.140078,163.778877 45.3067446,160.902877 C39.4720781,163.633544 33.9587449,167.032211 28.9254117,171.058877 C27.9320784,171.85221 26.5134118,170.450877 27.5160784,169.649544 C33.2134116,165.094877 39.4480781,161.290877 46.1254113,158.354877 C45.9027446,155.582878 45.788078,152.801544 45.788078,150.016211 C45.7867446,149.922878 45.7987446,149.836211 45.8187446,149.756211 C43.900078,150.484211 41.8120781,150.874878 39.8134114,151.008211 C33.2427449,151.449544 26.4587451,150.446878 20.2120786,148.409544 C19.037412,148.026878 16.5360787,147.638878 16.421412,146.073544 C16.3240787,144.737544 18.1107453,144.360211 18.7600786,145.433544 C18.8360786,145.558878 18.877412,145.701544 18.8907453,145.846878 C18.9800786,145.878878 19.0680786,145.912211 19.1560786,145.944211 C19.5654119,146.092211 19.9760786,146.234878 20.3880786,146.372211 C21.0947452,146.608211 21.8067452,146.828211 22.5214119,147.034878 C24.0734118,147.482878 25.6440785,147.857544 27.2294118,148.162878 C30.4334117,148.781544 33.6960783,149.089544 36.9587448,149.097544 C42.2454114,149.108211 49.3894112,148.077544 50.9960778,142.022878 C51.1614112,141.401545 51.7294111,141.224211 52.2107445,141.358878 C52.3947445,140.838878 52.5774111,140.318878 52.7614111,139.798878 C52.4880778,139.273545 52.2027445,138.757545 51.9000778,138.246878 C51.5547445,137.666878 51.2027445,137.088211 50.8680778,136.500211 C50.8920778,136.916211 50.6867445,137.342878 50.1734112,137.497545 C40.2774114,140.480211 29.2320784,138.890878 20.5894119,133.217545 C19.5214119,132.517545 20.5187453,130.792211 21.5947452,131.497545 C29.818745,136.894878 40.2240781,138.416211 49.6440779,135.576211 C49.9507445,135.484211 50.2134112,135.534878 50.4160778,135.666878 C50.0987445,135.052211 49.8134112,134.422878 49.5907445,133.762878 C48.4640779,130.406878 49.1254112,126.770878 48.8534112,123.308212 C48.5560779,119.537545 47.5440779,115.862879 46.6014113,112.214879 C45.6587446,108.560212 44.7147447,104.905545 43.772078,101.250879 L39.2387448,83.6948793 C39.2120781,83.7068793 39.1854115,83.717546 39.1574115,83.7282127 C33.4294116,85.7282126 28.7480784,90.0455458 26.1854118,95.5295457 C25.6427451,96.6895457 23.9254118,95.678879 24.4654118,94.5228791 C27.2480784,88.5682125 32.4334116,83.969546 38.6267448,81.8068794 C38.6667448,81.793546 38.7054115,81.7828794 38.7427448,81.773546 L37.2667448,76.0562129 C36.9467448,74.8135462 38.8680781,74.2842129 39.1880781,75.5255462 C41.1080781,82.9628793 43.028078,90.4002125 44.948078,97.8362123 C45.908078,101.554879 46.8680779,105.273545 47.8280779,108.992212 C48.7680779,112.633545 49.8174112,116.272212 50.4307445,119.988212 C50.7254112,121.776212 50.9187445,123.580212 50.9360778,125.393545 C50.9520778,127.153545 50.8334112,128.920212 50.9920778,130.676211 C51.2800778,133.856211 53.1734111,136.337545 54.6134111,139.064211 C54.7174111,139.188211 54.7934111,139.332211 54.8307444,139.486878 C54.9560777,139.734878 55.0774111,139.984211 55.1920777,140.237545 C58.0827443,146.642878 59.1067443,153.854878 60.4854109,160.696211 C62.1760776,169.096211 63.7507442,177.518877 65.2147441,185.96021 C65.2840775,186.354877 65.1414108,186.677543 64.9067441,186.89621 C65.9294108,190.533543 66.9507441,194.17221 67.9734107,197.809543 C68.4694107,199.57621 68.986744,201.337543 69.458744,203.109543 C69.906744,204.786876 70.166744,206.453543 69.826744,208.17621 C69.4960774,209.858876 68.8040774,211.466876 68.3707441,213.125543 C67.9347441,214.786876 67.5987441,216.478876 67.3814108,218.182876 C66.9614108,221.478876 66.9454108,224.830876 67.3080774,228.133542 C67.7360774,232.009542 68.7387441,235.848209 70.2574107,239.437542" id="path204" fill="#1A1720" transform="translate(43.381788, 157.892585) scale(-1, 1) rotate(-180.000000) translate(-43.381788, -157.892585) "></path>
            <path d="M33.6880783,157.716959 C30.670745,157.470292 27.6534117,157.224959 24.6360785,156.978292 C23.3667452,156.875625 23.3560785,154.882292 24.6360785,154.986292 C27.6534117,155.232959 30.670745,155.478292 33.6880783,155.724959 C34.9574116,155.827626 34.9680782,157.820959 33.6880783,157.716959" id="path206" fill="#1A1720" transform="translate(29.162078, 156.351625) scale(-1, 1) rotate(-180.000000) translate(-29.162078, -156.351625) "></path>
            <path d="M96.25341,242.753108 C95.0707434,245.237108 93.8894101,247.721108 92.7080768,250.205108 C92.0160768,251.661108 91.1200768,253.141108 90.6734102,254.695774 C90.1920768,256.371774 91.2080768,257.935774 91.8627435,259.421107 C91.9920768,259.713107 92.1187435,260.005107 92.2440768,260.298441 C93.8774101,257.642441 95.5120767,254.987774 97.1467433,252.330441 C97.5760767,251.631774 98.4400766,251.793108 98.82541,252.287774 C98.71741,251.607774 98.5960766,250.929108 98.45741,250.253108 C97.9347433,247.697108 97.1987433,245.185108 96.25341,242.753108 L96.25341,242.753108 Z M94.9640767,267.902441 C96.4360767,265.743774 97.90941,263.586441 99.38141,261.429107 C99.4787433,258.667774 99.3387433,255.897107 98.9547433,253.157108 C98.9320766,253.215774 98.9027433,253.275774 98.8667433,253.337108 C97.14141,256.141107 95.4147434,258.945107 93.6894101,261.750441 C93.5187434,262.027774 93.2814101,262.169107 93.0307434,262.209107 C93.7694101,264.070441 94.4294101,265.970441 94.9640767,267.902441 L94.9640767,267.902441 Z M96.3267434,276.70244 C97.70141,273.06644 98.62141,269.26244 99.07741,265.401107 L96.5867434,269.051774 C96.27341,269.511774 95.7667434,269.581107 95.3574101,269.425107 C95.9267434,271.811774 96.2827434,274.243774 96.3267434,276.70244 Z M153.422742,74.0997787 C146.904075,74.009112 140.382742,74.3224454 133.904076,75.0637787 C130.593409,75.441112 127.297409,75.9344453 124.020076,76.5357786 C122.433409,76.8264453 120.850743,77.1424453 119.274743,77.485112 C117.930743,77.7757786 116.472076,77.9984453 115.236076,78.6317786 C113.912076,79.3131119 113.33341,80.4757785 113.020076,81.8824452 C112.67341,83.4424451 112.49341,85.0504451 112.252076,86.6304451 C111.754743,89.8731116 111.270743,93.1197782 110.800076,96.3664448 C109.844076,102.969111 108.938743,109.578444 108.086743,116.195778 C106.396076,129.346444 104.910743,142.522444 103.63341,155.718443 C102.350743,168.98111 101.27741,182.262443 100.41341,195.558442 C99.5547433,208.789109 98.9040766,222.031775 98.4627433,235.283775 C98.4080766,236.922441 98.3560766,238.563775 98.3080766,240.203775 C98.2947433,240.655775 98.03741,240.947775 97.7107433,241.079775 C99.9867433,246.619774 101.20941,252.550441 101.370743,258.514441 C101.664077,258.085107 101.95741,257.655774 102.250743,257.225107 C102.968077,256.173107 104.696076,257.167774 103.970743,258.231774 C103.09341,259.515774 102.21741,260.799774 101.34141,262.085107 C101.14141,266.619774 100.326743,271.131774 98.89341,275.461107 C98.0187433,278.103774 96.91341,280.66644 95.5960767,283.11844 C95.2840767,284.33844 94.8720767,285.535773 94.3547434,286.70244 C93.8374101,287.873107 92.1200768,286.859773 92.6347435,285.697107 C92.7347435,285.467773 92.8294101,285.23844 92.9214101,285.007773 C92.6920768,284.729107 92.6120768,284.33844 92.8534101,283.931773 C93.1667434,283.405107 93.4654101,282.87044 93.7574101,282.331773 C94.8800767,277.55044 94.2200767,272.469107 92.8494101,267.759774 C91.9720768,264.749107 90.7947435,261.850441 89.4987435,258.999774 C88.8907435,257.662441 88.3614102,256.311774 88.6080769,254.818441 C88.8640769,253.279774 89.7360769,251.829108 90.3987435,250.438441 L95.4520767,239.815775 C95.6080767,239.487775 95.9787434,239.322441 96.3440767,239.327775 C96.74541,226.039775 97.3520767,212.758442 98.17341,199.489109 C99.0107433,185.927776 100.066743,172.38111 101.342743,158.854443 C102.61741,145.327777 104.10941,131.822444 105.820076,118.345111 C106.666743,111.679778 107.564076,105.021111 108.514743,98.3704448 C108.99741,94.9931115 109.494743,91.6157783 110.004076,88.242445 C110.260076,86.5544451 110.51741,84.8664451 110.780076,83.1811118 C110.988076,81.8491118 111.194743,80.5077785 111.816076,79.2944452 C113.152076,76.689112 116.14141,76.1277787 118.744076,75.5637787 C122.024076,74.853112 125.328076,74.2504454 128.648076,73.7597787 C135.185409,72.7931121 141.781409,72.2344454 148.389409,72.1144454 C150.066742,72.0837788 151.745409,72.0837788 153.422742,72.1077788 C154.704075,72.1264454 154.706742,74.1184454 153.422742,74.0997787" id="path208" fill="#1A1720" transform="translate(121.465431, 179.656367) scale(-1, 1) rotate(-180.000000) translate(-121.465431, -179.656367) "></path>
            <path d="M147.348075,100.511962 C144.630742,101.717295 142.036076,103.174628 139.610742,104.897295 C137.372076,106.487962 134.865409,108.341295 133.372076,110.690628 C131.689409,113.333295 131.872076,116.942628 131.601409,119.961295 C131.300076,123.331961 130.997409,126.705294 130.696076,130.077294 C129.500076,143.433294 128.304076,156.789294 127.108076,170.145293 C126.426743,177.74796 125.745409,185.353293 125.065409,192.955959 C125.022743,193.423959 124.724076,193.721293 124.369409,193.843959 C125.410743,210.537292 127.145409,227.186625 129.596076,243.730625 C130.317409,248.593291 131.100076,253.445291 131.938742,258.287958 C132.156076,259.541291 130.237409,260.079958 130.017409,258.817291 C127.025409,241.554625 124.781409,224.162625 123.314743,206.705292 C122.962743,202.522626 122.660076,198.335959 122.396076,194.146626 C119.321409,198.507959 116.602743,203.105293 114.266743,207.905292 C113.70541,209.057292 111.988076,208.049292 112.546743,206.899959 C115.148076,201.551959 118.221409,196.455959 121.736076,191.661293 C121.912076,191.419959 122.142743,191.291959 122.381409,191.247959 C122.565409,190.959959 122.913409,190.827959 123.260076,190.847959 C124.436076,177.73196 125.610743,164.61596 126.785409,151.498627 C127.406743,144.557294 128.028076,137.614627 128.650743,130.671961 L129.573409,120.357295 C129.848076,117.298628 129.741409,113.817295 130.980076,110.955961 C132.225409,108.077295 134.912076,105.966628 137.340076,104.110628 C140.121409,101.985295 143.144076,100.210628 146.344075,98.7906285 C147.505409,98.2759618 148.520075,99.9932951 147.348075,100.511962" id="path210" fill="#1A1720" transform="translate(130.152463, 179.116459) scale(-1, 1) rotate(-180.000000) translate(-130.152463, -179.116459) "></path>
            <path d="M164.828075,197.476541 C164.260075,198.908541 165.264075,200.655207 165.756075,201.987207 C166.852075,204.959207 167.697408,208.020541 168.325408,211.124541 C169.568075,217.273874 169.986742,223.565874 169.958742,229.831207 C169.926742,237.05254 169.312075,244.25654 168.674742,251.44454 C168.562742,252.711206 166.568075,252.724539 166.681408,251.44454 C167.784075,239.017873 168.909408,226.32854 166.826742,213.94054 C166.312075,210.880541 165.601408,207.852541 164.654742,204.897874 C164.181408,203.419207 163.573408,201.987207 163.090742,200.513874 C162.653408,199.177874 162.472075,197.728541 163.114742,196.428541 C163.684075,195.275208 164.778742,194.492541 165.452075,193.404541 C166.118742,192.327208 166.505408,191.103208 166.672075,189.849874 C167.022742,187.220541 166.521408,184.521875 165.829408,181.987208 C163.977408,175.208541 161.082742,168.675208 157.585408,162.591208 C156.945409,161.477875 158.666742,160.473875 159.306742,161.585875 C162.454742,167.064542 165.038742,172.867208 166.973408,178.883208 C168.529408,183.720541 170.057408,189.747208 167.172075,194.409874 C166.512075,195.476541 165.288075,196.319208 164.828075,197.476541" id="path212" fill="#1A1720" transform="translate(163.702596, 206.750749) scale(-1, 1) rotate(-180.000000) translate(-163.702596, -206.750749) "></path>
            <path d="M144.960075,176.094783 C146.321409,177.130783 147.706742,178.136117 149.114742,179.10945 C151.980075,181.092117 154.937409,182.934783 157.972075,184.646783 C159.089408,185.27745 158.086742,186.998783 156.966742,186.366783 C151.316075,183.178783 145.873409,179.53345 140.873409,175.390783 C139.333409,174.114783 137.512076,170.87745 140.316076,169.80145 C141.578742,169.31745 143.245409,169.778784 144.528075,170.022784 C145.966742,170.296117 147.386742,170.67345 148.773409,171.14945 C152.008075,172.25745 155.045409,173.868117 157.772075,175.92945 C158.781408,176.69345 157.789408,178.424117 156.766742,177.650783 C154.224075,175.728117 151.416075,174.176117 148.402742,173.12545 C146.913409,172.60545 145.384075,172.198783 143.832076,171.912117 C143.093409,171.776117 142.224076,171.52945 141.469409,171.60145 C140.514742,171.692117 140.849409,172.34545 141.268076,172.942783 C142.152076,174.20945 143.749409,175.172117 144.960075,176.094783" id="path214" fill="#1A1720" transform="translate(148.656820, 178.046537) scale(-1, 1) rotate(-180.000000) translate(-148.656820, -178.046537) "></path>
            <path d="M154.210742,167.986292 L141.944076,162.738292 C140.768076,162.235625 141.782742,160.518292 142.949409,161.016959 L155.216075,166.264959 C156.390742,166.767625 155.377409,168.484959 154.210742,167.986292" id="path216" fill="#1A1720" transform="translate(148.579780, 164.501625) scale(-1, 1) rotate(-180.000000) translate(-148.579780, -164.501625) "></path>
            <path d="M156.068075,151.587962 C155.657409,152.007962 155.077409,151.922629 154.658742,151.587962 C153.581409,150.725295 152.502742,149.862629 151.424075,148.999962 C151.000075,148.661295 151.077409,147.945296 151.424075,147.590629 C151.834742,147.171962 152.414742,147.257296 152.832075,147.590629 C153.910742,148.454629 154.989409,149.317295 156.068075,150.179962 C156.492075,150.518629 156.414742,151.234629 156.068075,151.587962" id="path218" fill="#1A1720" transform="translate(153.746075, 149.589794) scale(-1, 1) rotate(-180.000000) translate(-153.746075, -149.589794) "></path>
            <path d="M103.276091,32.8147608 C102.225425,35.4534274 100.590758,37.844094 98.3427582,39.6040939 C95.7267583,41.6534272 92.5147584,42.5440938 89.3014251,43.1534272 C82.3814253,44.4680938 75.1240921,45.0307605 68.1014256,44.3040938 C62.0894258,43.6814272 56.1734259,41.5987605 52.805426,36.2627607 C48.5507595,29.5227608 49.5574261,21.2560944 50.5800927,13.7707612 C50.6320927,13.3934279 50.8320927,13.1694279 51.0880927,13.0720946 C51.3560927,12.2320946 52.7947594,12.0320946 53.0987593,13.1054279 C54.525426,18.1454278 56.4654259,23.0200943 58.9334259,27.6414276 C60.6787592,30.9094275 63.6174257,37.420094 68.3294256,35.0267607 C70.2294256,34.0614274 71.7907589,32.6094274 73.8400922,31.9147608 C75.9907588,31.1854275 78.328092,31.2120941 80.540092,31.6227608 C81.704092,31.8387608 82.8427586,32.1800941 83.9467586,32.6054274 C85.1787585,33.0800941 86.3640918,33.8480941 87.6427585,34.1800941 C90.2320917,34.8507607 91.4280917,31.7080941 92.4107584,29.8720942 C95.1760916,24.7120943 97.2134249,19.2054278 98.5374249,13.5054279 C98.8014249,12.3707613 100.353425,12.6400946 100.556091,13.5880946 C100.801425,13.6387612 101.030758,13.7947612 101.188091,14.0854279 C104.260091,19.7440944 105.736091,26.6494276 103.276091,32.8147608" id="path82" fill="#1A1720" transform="translate(77.099613, 28.497195) scale(-1, 1) rotate(-180.000000) translate(-77.099613, -28.497195) "></path>
        </g>
    </g>
</svg>