<?xml version="1.0" encoding="UTF-8"?>
<svg width="142px" height="142px" viewBox="0 0 142 142" version="1.1" xmlns="http://www.w3.org/2000/svg" xmlns:xlink="http://www.w3.org/1999/xlink">
    <title>telephone</title>
    <g id="Page-1" stroke="none" stroke-width="1" fill="none" fill-rule="evenodd">
        <g id="g12" transform="translate(63.333320, -103.666620) scale(-1, 1) rotate(-180.000000) translate(-63.333320, 103.666620) translate(-470.000000, -636.999940)">
            <g id="telephone" transform="translate(470.436048, 288.254121)">
                <g id="Group" transform="translate(12.563940, 12.871987)">
                    <g id="path630-2" transform="translate(-0.000000, 0.000000)" fill="#282727" fill-rule="nonzero">
                        <path d="M58.0573319,112.757882 C58.0586652,112.757882 58.0599985,112.757882 58.0626652,112.757882 C58.0666652,112.757882 58.0719985,112.757882 58.0773319,112.756549 L58.0639985,112.757882 L58.0626652,112.757882 L58.0639985,112.757882 L58.0573319,112.757882 Z M78.0386647,107.851216 L78.0413314,107.849882 C78.0213314,107.859216 77.999998,107.868549 77.9786647,107.877882 C77.9986647,107.868549 78.019998,107.860549 78.0386647,107.851216 Z M79.163998,107.377882 L79.1666647,107.375216 C79.135998,107.388549 79.103998,107.401882 79.071998,107.413882 C79.1093314,107.399216 79.1453314,107.383216 79.183998,107.367216 L79.2493314,107.331216 L78.6413314,107.597882 C78.815998,107.524549 78.9906647,107.451216 79.163998,107.377882 Z M79.859998,77.5085498 L79.8946647,77.4378831 C79.8773313,77.4565498 79.8626647,77.4778831 79.8493313,77.4978831 C79.863998,77.4765498 79.879998,77.4565498 79.895998,77.4352164 L79.895998,77.4338831 C79.875998,77.4592164 79.8573313,77.4845498 79.8373313,77.5112164 L79.8493313,77.4978831 L79.859998,77.5085498 Z M21.7239995,103.704549 C21.7466661,103.725882 21.7693328,103.747216 21.7906661,103.768549 C21.7906661,103.767216 21.7919995,103.765882 21.7919995,103.765882 C21.7693328,103.744549 21.7479995,103.725882 21.7239995,103.704549 Z M14.1359996,94.8685493 C14.257333,95.031216 14.381333,95.1938827 14.5039996,95.3565493 L14.541333,95.3885493 C14.4079996,95.2205493 14.273333,95.047216 14.1359996,94.8685493 L14.1359996,94.8685493 Z M14.4426663,95.2845493 C14.457333,95.303216 14.4719996,95.323216 14.4879996,95.343216 C14.473333,95.323216 14.457333,95.303216 14.4426663,95.2845493 Z M6.43999984,82.029883 C6.52399984,82.2565497 6.60933317,82.4832163 6.6946665,82.709883 L6.73333317,82.7792163 C6.6346665,82.529883 6.53599984,82.2805497 6.43999984,82.029883 Z M6.6706665,82.6672163 C6.6466665,82.6125497 6.6226665,82.557883 6.5986665,82.5032163 C6.62133317,82.5552163 6.64399983,82.6072163 6.6666665,82.6592163 L6.6706665,82.6672163 Z M108.713331,35.8098842 C109.125331,37.1952175 109.463997,38.5965508 109.826664,39.997884 C110.187997,41.3832173 110.619997,42.7472173 111.066664,44.1072173 C111.487997,45.4138839 111.947997,46.7112172 112.270664,48.0445505 C112.598664,49.4245505 112.895997,50.8098838 113.218664,52.1898837 C113.38533,52.9192171 113.526664,53.643217 113.64533,54.383217 C113.775997,55.2058837 113.84933,56.039217 113.915997,56.8725503 C114.035997,58.2685503 114.098664,59.6645502 114.10933,61.0605502 C114.114664,61.7472168 114.086664,62.4352168 114.05733,63.1178835 C114.030664,63.8365501 113.99333,64.5498834 113.931997,65.2685501 C113.854664,66.0965501 113.738664,66.92455 113.571997,67.7418834 C113.426664,68.4712167 113.233331,69.1898833 113.046664,69.90855 C112.687997,71.2845499 112.343997,72.6645499 111.947997,74.0285499 C111.738664,74.7365498 111.487997,75.4298832 111.253331,76.1232165 C111.026664,76.8098831 110.802664,77.4978831 110.577331,78.1845498 C110.135997,79.5605497 109.654664,80.945883 108.982664,82.2272163 C108.630664,82.8992163 108.270664,83.565883 107.910664,84.2325496 C107.598664,84.8258829 107.297331,85.4298829 106.958664,86.0085496 C106.603997,86.6125496 106.218664,87.1845495 105.831997,87.7685495 C105.447997,88.3565495 105.071997,88.9458828 104.693331,89.5338828 C103.854664,90.8365494 102.931997,92.0658827 101.973331,93.2845494 C101.571997,93.7898827 101.154664,94.2898827 100.738664,94.7845493 C100.297331,95.3045493 99.8639975,95.831216 99.3999975,96.331216 C98.4426642,97.3725493 97.4319976,98.3618826 96.4106643,99.3512159 C95.3906643,100.341883 94.349331,101.320549 93.2386643,102.211216 C92.057331,103.164549 90.8213311,104.033882 89.5626644,104.872549 C88.3319978,105.684549 87.0466645,106.413882 85.7866645,107.179216 C84.5719979,107.908549 83.3373312,108.591216 82.0719979,109.216549 C80.7333313,109.877882 79.3493313,110.451216 77.9639981,111.008549 C77.2493314,111.293882 76.5306648,111.575216 75.8066648,111.841882 C75.1773315,112.075216 74.5266648,112.252549 73.8799982,112.424549 C72.4786649,112.793882 71.0666649,113.096549 69.6599983,113.424549 C68.270665,113.752549 66.8853317,114.080549 65.4879984,114.367216 C62.8999984,114.903216 60.3119985,115.424549 57.6933319,115.784549 C57.5773319,115.809882 57.4586652,115.825882 57.3439986,115.825882 C57.2439986,115.841882 57.1453319,115.851215 57.0519986,115.867215 C55.6359986,116.044549 54.2186653,116.200549 52.7906653,116.257882 C51.3639987,116.315215 49.9426654,116.345882 48.5146655,116.341882 C47.7959988,116.341882 47.0826655,116.345882 46.3639988,116.345882 C45.6506655,116.345882 44.9319989,116.341882 44.2186656,116.315215 C43.4466656,116.289882 42.6759989,116.179215 41.915999,116.039215 C41.207999,115.903215 40.5093323,115.741882 39.8226657,115.523215 C38.4466657,115.085882 37.0879991,114.517882 35.7853324,113.899216 C35.1346658,113.585882 34.4893325,113.268549 33.8333325,112.965882 C33.2493325,112.700549 32.6506659,112.471216 32.0719992,112.189882 C31.2799992,111.799216 30.5093326,111.367216 29.7386659,110.935216 C28.9426659,110.487216 28.1453326,110.060549 27.3853326,109.560549 C27.0719993,109.351216 26.7653327,109.137882 26.4573327,108.919216 C25.4159994,108.408549 24.3693327,107.899216 23.3693327,107.315216 C21.7599995,106.372549 20.3799995,105.065882 19.0199995,103.799216 C17.9733329,102.820549 17.0039996,101.763216 16.0666663,100.675216 C15.1186663,99.5752159 14.1866663,98.4565493 13.2706663,97.3312159 C12.3639997,96.2165493 11.4679997,95.091216 10.6293331,93.9245494 C9.77066642,92.7325494 8.93733311,91.5232161 8.12933313,90.2938828 C7.71866647,89.6698828 7.33733315,89.0285495 6.95199983,88.3885495 C6.59333317,87.7898829 6.22799984,87.1898829 5.90533319,86.5752162 C5.70799986,86.2058829 5.51466653,85.8365496 5.32266653,85.4658829 C5.17599987,85.1898829 5.05599987,84.8992163 4.93199988,84.6125496 C4.75999988,84.2218829 4.56133322,83.825883 4.41066656,83.4245496 C4.26533323,83.033883 4.1239999,82.6485497 3.97866657,82.2632163 C3.48399991,80.9405497 3.04133326,79.5965497 2.60399993,78.2578831 C2.17599995,76.9245498 1.80133329,75.5858832 1.53599996,74.2058832 C1.25466664,72.7325499 1.01466664,71.2472166 0.790666647,69.7632166 C0.577333319,68.32055 0.37999999,66.8778834 0.265333327,65.4245501 C0.161333329,64.0085501 0.0719999982,62.5965502 0.0466666655,61.1752169 C0.0146666663,59.6752169 0.0039999999,58.1792169 0,56.679217 C0,55.227217 0.0773333314,53.7685504 0.161333329,52.3152171 C0.197333328,51.6592171 0.238666661,50.9978838 0.301333326,50.3418838 C0.385333324,49.4872171 0.494666654,48.6325505 0.609333318,47.7792172 C0.697333316,47.1538839 0.822666646,46.5285506 0.942666643,45.9085506 C1.09866664,45.1125506 1.2493333,44.3152173 1.4053333,43.517884 C1.67066662,42.117884 1.92133329,40.7112174 2.19733328,39.3045507 C2.46266661,37.9765508 2.8426666,36.6485508 3.29066658,35.3725508 C3.77066657,34.0032175 4.27066656,32.6432176 4.80666655,31.2938843 C5.89466652,28.5698843 7.06133316,25.8618844 8.47866645,23.2898845 C8.85866645,22.6072178 9.2333331,21.9298845 9.63999976,21.2632179 C10.3066664,20.1645512 11.0933331,19.1485512 11.989333,18.2272179 C13.0359997,17.143218 14.1239996,16.091218 15.197333,15.0338847 C17.2546662,13.0085514 19.6866662,11.4405514 22.1093328,9.88855147 C23.3533327,9.08588482 24.6133327,8.31521818 25.910666,7.60188486 C27.166666,6.91388488 28.478666,6.32588489 29.7759993,5.72188491 C31.1613326,5.07521826 32.5666659,4.48188494 33.9786658,3.90321829 C35.2439991,3.38855163 36.5466658,2.95655164 37.8426657,2.52855165 C39.243999,2.07521833 40.655999,1.68455167 42.0826656,1.32055168 C43.5519989,0.945885026 45.0519989,0.736551698 46.5519988,0.544551703 C47.2026655,0.460551705 47.8639988,0.424551706 48.5146655,0.37788504 C49.2439988,0.325885042 49.9679988,0.273885043 50.6973321,0.232551711 C52.1186654,0.153885046 53.541332,0.0552183819 54.969332,0.0178850495 C56.4586653,-0.0181149496 57.9426652,0.00321838315 59.4373318,0.0552183819 C60.8639985,0.101885047 62.2919984,0.153885046 63.7133317,0.26855171 C64.3799984,0.325885042 65.046665,0.37788504 65.7133317,0.424551706 C66.4199983,0.471218371 67.1359983,0.503218371 67.8439983,0.575218369 C68.7079983,0.6645517 69.5626649,0.773885031 70.4199982,0.899218361 C71.1306649,0.997885025 71.8373315,1.14855169 72.5359982,1.29388502 C73.9373315,1.58588501 75.3213315,1.95655167 76.6879981,2.38321832 C77.9986647,2.79388498 79.2813314,3.30455163 80.5466647,3.83121829 C81.259998,4.12721828 81.963998,4.43521827 82.6453313,4.79921826 C83.2706646,5.13788492 83.8853312,5.49255158 84.4786646,5.88321824 C85.0986645,6.28988489 85.7186645,6.69521822 86.3439978,7.10188487 C86.9199978,7.48188486 87.5213311,7.83655152 88.1039978,8.21655151 C88.7293311,8.6325515 89.3439978,9.04988482 89.9586644,9.48188481 C90.6359977,9.96055147 91.2813311,10.4818848 91.937331,10.9925514 C92.437331,11.3832181 92.9319977,11.7845514 93.4199977,12.1845514 C93.9826643,12.6538847 94.5626643,13.1125514 95.0986643,13.607218 C95.3693309,13.851218 95.6359976,14.0965514 95.9053309,14.3458847 C96.2133309,14.623218 96.4879976,14.9405513 96.7813309,15.2325513 C97.2653309,15.727218 97.7133309,16.2525513 98.1599975,16.7738846 C99.1039975,17.8832179 99.9533308,19.0698846 100.791997,20.2578845 C101.649331,21.4712178 102.510664,22.6898845 103.321331,23.9405511 C104.057331,25.0805511 104.781331,26.2418844 105.379997,27.4658844 C106.041331,28.8258843 106.665331,30.1952176 107.233331,31.5965509 C107.521331,32.2938842 107.786664,32.9978842 108.046664,33.7058842 C108.302664,34.3938842 108.503997,35.1072175 108.713331,35.8098842 Z" id="path630"></path>
                    </g>
                    <path d="M90.0349472,41.7064429 C89.6957038,39.9541526 89.0396463,38.2999905 88.4144291,36.6570431 C88.1845286,36.1215432 87.9434134,35.5860433 87.7022983,35.0477397 C87.3742695,34.3131796 86.9481125,33.6234781 86.5752252,32.922562 C85.9303823,31.7197899 85.1285343,30.5899131 84.3294899,29.4740547 C83.3986733,28.3021229 82.456642,27.1526204 81.3071395,26.1769452 C80.1464224,25.3442568 78.9100064,24.6321261 77.6063024,24.0321418 C76.0278393,23.429354 74.4521798,22.902265 72.7868031,22.5966656 C72.4027011,22.5630216 72.0326174,22.5405923 71.65973,22.5405923 C71.4410441,22.5405923 71.2223583,22.551807 71.0008688,22.5630216 C69.4476387,22.8602101 67.9364635,23.39571 66.436503,23.9115843 C65.1103697,24.3713853 63.795451,24.8424009 62.491747,25.3442568 C60.2263861,26.3535761 57.9918655,27.4357906 55.8106145,28.6301516 C53.6433818,29.8132981 51.6275471,31.2151303 49.6565709,32.6926615 C46.973464,34.8626978 44.3464303,37.0972185 41.8371506,39.4719223 C39.3839442,41.8045712 37.1606382,44.3671205 35.0130312,46.9857432 C34.3121151,47.9389891 33.6111989,48.892235 32.9439268,49.8875359 C32.1336677,51.0931117 31.379482,52.3295277 30.6224926,53.5687474 C29.2963593,55.7471948 28.1692861,58.026574 27.0954826,60.3367936 C26.8347418,60.9816364 26.5711974,61.6404976 26.3076529,62.2853404 C25.9908388,63.0731701 25.7609383,63.8946438 25.4861792,64.6936882 C24.9703049,66.2272927 24.6983495,67.8393998 24.3899464,69.4150592 C24.3142474,69.9842031 24.2497631,70.553347 24.1712605,71.1112763 C23.9301454,73.0289828 23.9525747,75.0111736 24.1824752,76.9288801 C24.468449,78.6699558 24.9394646,80.3549581 25.5843074,81.9979055 C26.6020377,84.2660701 27.6982705,86.4557321 29.198231,88.4491376 C30.6561365,90.2014279 32.3747829,91.6369041 34.1607172,93.049951 C34.3906177,93.2125636 34.6317328,93.3779798 34.8616333,93.5405923 C35.299005,93.3106918 35.7812353,93.1901343 36.2971095,93.1817233 C36.6363529,93.1705086 36.9643817,93.1705086 37.3036251,93.1480793 C37.872769,93.0275217 38.4306982,92.8621055 38.9886275,92.665849 C40.5895199,91.9312889 42.1231244,90.969632 43.5361713,89.9378834 C44.8819303,88.8668836 46.1632049,87.7033628 47.3014927,86.4136771 C47.9603539,85.4716459 48.5070685,84.4959706 48.9780841,83.4558111 C49.2528432,82.7661096 49.4603144,82.0651935 49.6145159,81.3418481 C49.6229269,81.1988612 49.6229269,81.0558743 49.6229269,80.915691 C49.4939584,80.4110314 49.3397568,79.9175865 49.1435003,79.4241415 C48.8350972,78.7792987 48.4734245,78.1652962 48.0584821,77.573723 C47.5762518,77.0045791 47.0715922,76.4690791 46.5697363,75.9083462 C45.8884458,75.1653751 45.2884616,74.3439014 44.6744591,73.5336424 C43.6230849,72.1626505 42.7679672,70.6514753 42.14275,69.0421719 C41.290436,66.8861539 41.1250198,64.6067746 41.4979072,62.330199 C41.8035066,60.4797804 42.5492814,58.7359011 43.4913127,57.1378124 C44.2034434,55.912611 45.1875297,54.8388075 46.1099353,53.765004 C46.9846786,52.7472737 47.9715685,51.7715985 49.0117281,50.9276955 C51.5854921,48.8585911 54.2882247,46.9969578 56.9825463,45.090466 C58.0787791,44.3138509 59.1862266,43.5372358 60.3665693,42.8895893 C62.1188597,41.9251287 64.0029222,41.0279561 65.9654874,40.6130137 C67.4318039,40.293396 68.9205497,40.4027389 70.3335967,40.8625399 C71.5279577,41.2578566 72.6998895,41.7625162 73.7849077,42.3737151 C74.8250672,42.9765029 75.6885959,43.8652646 76.5661429,44.6867383 C77.300703,45.3764397 78.0016191,46.1109998 78.7670195,46.7558427 C79.0193493,46.9212589 79.2604645,47.0614421 79.5127943,47.204429 C79.7426947,47.2801279 79.9725952,47.3362012 80.2024957,47.3810599 C81.2650846,47.4567588 82.3248698,47.4231148 83.376244,47.3249866 C84.0771601,47.1819997 84.7472359,47.0081725 85.4032934,46.7670573 C86.5219555,46.2203428 87.5284711,45.5390523 88.5041463,44.8072959 C88.8854447,44.4764634 89.2471174,44.1484347 89.5863608,43.7755473 C89.6648634,43.6465787 89.7405624,43.5035919 89.8050467,43.360605 C89.9059786,43.0858458 89.9816775,42.8138904 90.0461618,42.5279166 C90.0573765,42.2559611 90.0461618,41.981202 90.0349472,41.7064429 L90.0349472,41.7064429 Z" id="path270-path" fill="#FFFFFF"></path>
                </g>
                <g id="telephone_1" transform="translate(0.000000, 0.000000)" fill="#282727" fill-rule="nonzero">
                    <path d="M6.71860656,94.9125362 C7.50527321,96.2298695 8.16127319,97.6258695 8.84393984,99.0005361 C9.66660649,100.667203 10.4692731,102.344536 11.2759398,104.011203 C11.4532731,104.371203 11.5319398,104.724536 11.4226064,105.120536 C11.3226064,105.475203 11.0839398,105.787203 10.7652731,105.975203 C10.5506065,106.100536 10.2959398,106.161869 10.0386065,106.161869 C9.53593982,106.161869 9.0266065,105.925869 8.80260651,105.459203 C7.98927319,103.792536 7.17193988,102.125869 6.36927323,100.448536 C6.04660658,99.7725361 5.70793992,99.0952027 5.40127326,98.4125361 C5.2186066,98.0058694 5.03593993,97.6058695 4.85460661,97.2045361 C4.66660661,96.7872028 4.47460662,96.3445361 4.39060662,95.8912028 C4.28127329,95.3285362 4.45327328,94.7618695 4.9746066,94.4538695 C5.57860659,94.1058695 6.3599399,94.3192029 6.71860656,94.9125362" id="path566"></path>
                    <path d="M3.6652733,89.5378697 C3.55193997,89.5685363 3.43193997,89.5845363 3.31193998,89.5845363 C2.69327333,89.5845363 2.04260668,89.1858697 1.92527335,88.5525363 C1.62794002,86.995203 1.31060669,85.4392031 1.06527337,83.8765365 C0.826606706,82.3858698 0.539940047,80.8818699 0.513273381,79.3658699 C0.503940048,78.8192033 0.894606705,78.3192033 1.41994002,78.1778699 C2.06127334,78.0005366 2.76393999,78.3858699 2.93593999,79.0378699 C3.29460664,80.3858699 3.52927331,81.7618698 3.77993997,83.1312031 C4.06127329,84.6885364 4.35727328,86.2458697 4.64927328,87.803203 C4.72260661,88.1885364 4.71193994,88.543203 4.50793995,88.891203 C4.32127329,89.2045363 4.01327329,89.443203 3.6652733,89.5378697" id="path568"></path>
                    <path d="M1.41327336,63.3072036 C2.02794001,63.3072036 2.47060667,63.8018703 2.50127333,64.3952036 C2.56927333,65.8325369 2.63727333,67.2712035 2.67860666,68.7085368 C2.72527333,70.3845368 2.81460666,72.0618701 2.90793999,73.7392034 C2.94927332,74.42187 2.30927334,74.9952033 1.65194002,74.9952033 C0.938606703,74.9952033 0.433273383,74.42187 0.397273384,73.7392034 C0.303940053,72.0618701 0.203940055,70.3845368 0.173273389,68.7085368 C0.15727339,67.9378702 0.147940057,67.1658702 0.151940056,66.3898702 C0.151940056,65.6298703 0.178606722,64.8432036 0.366606718,64.104537 C0.481273382,63.6352036 0.938606703,63.3072036 1.41327336,63.3072036" id="path570"></path>
                    <path d="M3.94793996,51.5018706 C3.84793996,52.0178706 3.73860663,52.5338706 3.6452733,53.0498706 C3.37993998,54.4712039 3.11460665,55.8978705 2.85327332,57.3205371 C2.78660666,57.6792038 2.48394,58.0178704 2.18127334,58.1952038 C1.95460668,58.3245371 1.69860668,58.3912038 1.43994002,58.3912038 C1.31194003,58.3912038 1.1826067,58.3765371 1.05727337,58.3405371 C0.697273376,58.2418704 0.379940051,57.9965371 0.186606722,57.6685371 C-0.0213932725,57.3098705 -0.0320599389,56.9445371 0.0412733926,56.5498705 C0.301273386,55.1165372 0.566606713,53.6898705 0.838606706,52.2685373 C0.93727337,51.7418706 1.03594003,51.2112039 1.17194003,50.7005373 C1.39594003,49.835204 1.55727335,48.663204 2.44794,48.2365374 C3.01460665,47.9658707 3.54660664,48.0338707 4.02527329,48.4445373 C4.05727329,48.4658707 4.08260662,48.487204 4.10927329,48.5125373 C4.59327328,48.9258707 4.56527328,49.6698706 4.21327329,50.1565373 C4.11060662,50.6005373 4.03727329,51.0538706 3.94793996,51.5018706" id="path572"></path>
                    <path d="M9.79593982,39.6752042 C9.07727317,40.9832042 8.44793985,42.3365375 7.84260653,43.6965375 C7.72393987,43.9672041 7.39060654,44.1805375 7.11993988,44.2538708 C7.01460655,44.2832041 6.90527322,44.2978708 6.79727322,44.2978708 C6.58260656,44.2978708 6.36927323,44.2418708 6.18127324,44.1338708 C5.91060658,43.9725375 5.70793992,43.7125375 5.62393992,43.4098708 C5.53060659,43.0658708 5.61460659,42.7845375 5.74927325,42.4725375 C6.3479399,41.1072042 6.97860655,39.7538709 7.70260653,38.4512043 C7.8532732,38.1752043 8.00527319,37.9045376 8.16127319,37.6285376 C8.32793985,37.3272043 8.53593985,37.045871 8.72393984,36.7592043 C9.1346065,36.117871 9.63460649,35.5405377 10.1199398,34.9565377 C10.4212731,34.5872044 11.0359398,34.5605377 11.4212731,34.789871 C11.9319398,35.0872043 12.1039398,35.753871 11.8066064,36.2645377 C11.1506064,37.409871 10.4372731,38.5192043 9.79593982,39.6752042" id="path574"></path>
                    <path d="M12.6132731,106.921869 C12.8732731,106.921869 13.1292731,107.031203 13.3159397,107.213869 C13.5146064,107.416536 13.5826064,107.645869 13.6079397,107.916536 C13.6092731,107.932536 13.6106064,107.948536 13.6132731,107.964536 C13.6412731,108.123203 13.6772731,108.276536 13.7306064,108.433869 C13.977273,108.947203 14.2879397,109.412536 14.629273,109.867202 C15.4559397,110.911202 16.385273,111.873869 17.2319396,112.900536 C18.1519396,114.015202 19.0266063,115.163202 19.9039396,116.308536 C19.9106062,116.315202 19.9159396,116.323202 19.9212729,116.328536 C19.9492729,116.365869 19.9759396,116.400536 20.0039396,116.437869 C19.9866062,116.415202 19.9706062,116.393869 19.9532729,116.373869 C19.9652729,116.388536 19.9772729,116.404536 19.9879396,116.421869 C20.1706062,116.651202 20.3012729,116.859202 20.3012729,117.165869 C20.3012729,117.441869 20.1866062,117.713869 19.9879396,117.911202 C19.7879396,118.109869 19.5052729,118.217869 19.2226062,118.217869 C18.9532729,118.217869 18.6866063,118.119202 18.4986063,117.911202 C17.4159396,116.713869 16.4826063,115.389869 15.505273,114.108536 C14.9959397,113.489869 14.4866064,112.864536 13.977273,112.244536 C13.5972731,111.785869 13.2226064,111.323202 12.8639397,110.843202 C12.5506064,110.427202 12.2746064,109.984536 12.0399398,109.515202 C11.9106064,109.255202 11.8012731,108.973869 11.7279398,108.692536 C11.6599398,108.447203 11.6386064,108.171203 11.6186064,107.916536 C11.5612731,107.380536 12.1079398,106.921869 12.6132731,106.921869" id="path576"></path>
                    <path d="M21.9772728,118.127202 C22.3892728,118.127202 22.6972728,118.293869 22.9986062,118.549869 C24.3052728,119.643202 25.6079394,120.736536 26.9212727,121.820536 C27.9879394,122.695202 29.070606,123.553869 30.082606,124.496535 C30.5039393,124.892535 30.5652726,125.569869 30.2852726,126.059202 C30.042606,126.469869 29.6132727,126.687202 29.1732727,126.687202 C28.9519393,126.687202 28.7292727,126.631202 28.5252727,126.517869 C27.2172727,125.799202 26.0706061,124.804535 24.9106061,123.883202 C23.5706061,122.815202 22.2692728,121.684536 20.9572729,120.585869 C20.3586062,120.080536 20.4412729,119.064536 20.9572729,118.549869 C21.2279395,118.277869 21.5972729,118.127202 21.9772728,118.127202" id="path578"></path>
                    <path d="M33.3026059,127.461869 C34.7306059,128.289869 36.1572725,129.128535 37.6052725,129.909869 C38.9226058,130.617869 40.2306057,131.368535 41.567939,132.040535 C42.0426057,132.279202 42.2506057,132.899202 42.115939,133.388535 C41.9772723,133.895202 41.4812724,134.275202 40.9626057,134.275202 C40.8572724,134.275202 40.7506057,134.260535 40.6466057,134.227202 C39.1412724,133.737869 37.7399391,132.956535 36.3399392,132.237869 C35.8026058,131.956535 35.2772725,131.644535 34.7452725,131.347202 C33.8186059,130.821869 32.8919392,130.289869 31.9639393,129.753869 C31.3399393,129.388535 31.1252726,128.560535 31.4906059,127.936535 C31.8546059,127.311202 32.6772726,127.103202 33.3026059,127.461869" id="path580"></path>
                    <path d="M46.2772722,133.801869 C46.9679389,134.139202 47.6639389,134.461869 48.3679389,134.765869 C49.2092722,135.112535 50.0652721,135.393869 50.9492721,135.629869 C51.2919388,135.723202 51.6466054,135.785868 51.9906054,135.864535 C52.6519387,136.015202 53.3332721,136.104535 53.9999387,136.197868 C54.2039387,136.255202 54.381272,136.359202 54.5319387,136.504535 C54.7506054,136.728535 54.881272,137.036535 54.881272,137.353868 C54.881272,137.947202 54.3719387,138.553868 53.7519387,138.553868 C53.7292721,138.553868 53.7052721,138.552535 53.6826054,138.551202 C52.7039387,138.479202 51.7452721,138.337868 50.7919388,138.093868 C48.7972722,137.577868 46.9226056,136.744535 45.0839389,135.837868 C44.5052723,135.556535 44.3492723,134.749869 44.6572723,134.223202 C44.9999389,133.635202 45.6932723,133.515202 46.2772722,133.801869" id="path582"></path>
                    <path d="M59.2572719,137.436535 C60.4012719,137.695202 61.5639385,137.839202 62.7292718,138.005868 C64.2212718,138.104535 65.7079384,138.201868 67.194605,138.295202 C68.6319383,138.384535 70.0639383,138.540535 71.4906049,138.660535 C71.7932716,138.685868 72.0532716,138.764535 72.2719383,138.983202 C72.4759382,139.191202 72.5946049,139.472535 72.5946049,139.764535 C72.5946049,140.312535 72.1239383,140.864535 71.5519383,140.864535 C71.5332716,140.864535 71.5119383,140.864535 71.4906049,140.863202 C69.4599383,140.717868 67.438605,140.497868 65.4079384,140.321868 C64.8452718,140.269868 64.2826051,140.221868 63.7146051,140.175202 C63.2572718,140.133868 62.7879385,140.107202 62.3292718,140.040535 C61.1212719,139.847202 59.9026052,139.691202 58.7092719,139.415202 C58.1626053,139.289868 57.8452719,138.675202 57.9906053,138.149868 C58.1479386,137.592535 58.7092719,137.311202 59.2572719,137.436535" id="path584"></path>
                    <path d="M75.7439382,138.091202 C76.8532715,137.961868 77.9639381,137.819202 79.0732714,137.677868 C79.8399381,137.564535 80.6066047,137.460535 81.3692714,137.325868 C82.3426047,137.153868 83.331938,137.007202 84.279938,136.725868 C84.9466046,136.528535 85.6599379,136.955202 85.8426046,137.611202 C85.9306046,137.940535 85.8839379,138.299202 85.7119379,138.591202 C85.5359379,138.897868 85.2746046,139.049868 84.9572713,139.173868 C83.539938,139.716535 81.987938,139.861868 80.4932714,140.053868 C78.9159381,140.268535 77.3266048,140.455202 75.7439382,140.627202 C75.7172715,140.631202 75.6906048,140.632535 75.6639382,140.632535 C75.3666048,140.632535 75.0426049,140.453868 74.8426049,140.257868 C74.6079382,140.017868 74.4732715,139.695202 74.4732715,139.356535 C74.4732715,139.023202 74.6079382,138.700535 74.8426049,138.460535 C75.1026048,138.200535 75.3892715,138.127202 75.7439382,138.091202" id="path586"></path>
                    <path d="M90.3346045,134.692535 C92.0826044,134.287202 93.7999377,133.823202 95.4639377,133.169869 C96.6319376,132.665869 97.7852709,132.131202 98.9666043,131.656535 C99.5386042,131.427202 100.262604,131.801869 100.549271,132.301869 C100.929271,132.941869 100.721271,133.859202 100.049271,134.223202 C99.2212709,134.671202 98.4026043,135.161869 97.549271,135.556535 C96.757271,135.927202 95.961271,136.260535 95.133271,136.556535 C93.8399377,137.020535 92.4852711,137.328535 91.1479378,137.640535 C91.0226045,137.668535 90.8959378,137.681868 90.7706045,137.681868 C90.0906045,137.681868 89.4612712,137.273868 89.2679378,136.572535 C89.0546045,135.791202 89.5292712,134.884535 90.3346045,134.692535" id="path588"></path>
                    <path d="M103.582604,129.492535 C104.951937,128.768535 106.326604,128.053869 107.711937,127.361869 C109.035937,126.700535 110.369271,126.069869 111.758604,125.553869 C112.331937,125.340535 113.025271,125.689869 113.321271,126.189869 C113.686604,126.815202 113.493271,127.736535 112.821271,128.085869 C111.618604,128.711202 110.369271,129.231202 109.149271,129.820535 C107.749271,130.492535 106.369271,131.195202 104.998604,131.913869 C104.770604,132.033869 104.525271,132.092535 104.282604,132.092535 C103.805271,132.092535 103.345271,131.861869 103.082604,131.408535 C102.706604,130.773869 102.910604,129.851202 103.582604,129.492535" id="path590"></path>
                    <path d="M121.074604,115.847202 C121.72527,115.237869 122.746604,115.201869 123.391937,115.847202 C123.699937,116.155202 123.875937,116.576536 123.875937,117.008536 C123.875937,117.483202 123.678604,117.811202 123.391937,118.169869 C121.678604,120.352536 119.746604,122.336535 117.818604,124.331202 C117.478604,124.685869 117.01327,124.859202 116.547937,124.859202 C116.074604,124.859202 115.599937,124.680535 115.251937,124.331202 C114.542604,123.623202 114.563937,122.477869 115.251937,121.764536 C117.17327,119.773869 119.058604,117.743202 121.074604,115.847202" id="path592"></path>
                    <path d="M123.966604,112.395202 C124.82527,111.228536 125.70527,110.077869 126.591937,108.927203 C127.42527,107.837869 128.35727,106.817869 129.294603,105.817869 C129.862603,105.208536 130.87727,105.244536 131.450603,105.817869 C131.73727,106.104536 131.898603,106.495203 131.898603,106.895203 C131.898603,107.337869 131.710603,107.640536 131.450603,107.973869 C130.69727,108.943203 129.918603,109.897869 129.14527,110.852536 C128.339937,111.903202 127.531937,112.955202 126.742604,114.020536 C126.48127,114.369869 126.22127,114.635202 125.783937,114.760536 C125.646604,114.797869 125.503937,114.817869 125.363937,114.817869 C125.07727,114.817869 124.791937,114.740536 124.543937,114.593869 C124.18527,114.384536 123.914604,114.036536 123.80527,113.635202 C123.70127,113.255202 123.72127,112.723202 123.966604,112.395202" id="path594"></path>
                    <path d="M130.98527,101.351203 C132.418603,99.1072027 133.839937,96.8672028 135.50127,94.7885362 C135.918603,94.2632029 136.79327,94.2365362 137.334603,94.5498695 C137.995937,94.9405362 138.350603,95.9445362 137.875937,96.6165361 C136.41327,98.6792028 135.011937,100.777869 133.642603,102.903203 C133.335937,103.379203 132.82527,103.663203 132.295937,103.663203 C132.039937,103.663203 131.78127,103.597869 131.53727,103.455203 C130.834603,103.044536 130.53727,102.059203 130.98527,101.351203" id="path596"></path>
                    <path d="M137.10927,90.7458696 C136.31727,90.5325363 135.906603,89.7245363 136.083937,88.9485363 C136.422603,87.5058697 136.770603,86.0685364 137.17727,84.6472031 C137.567937,83.2765365 137.931937,81.8965365 138.483937,80.5845365 C138.630603,80.2352032 138.775937,79.9645366 139.114603,79.7618699 C139.431937,79.5792032 139.81727,79.5272032 140.171937,79.6258699 C140.88527,79.8245366 141.33327,80.5952032 141.130603,81.3138699 C140.739937,82.6778698 140.38527,84.0525365 140.00527,85.4232031 C139.603937,86.8498697 139.24527,88.287203 138.906603,89.7245363 C138.754603,90.3738696 138.12127,90.7965363 137.482603,90.7965363 C137.358603,90.7965363 137.231937,90.779203 137.10927,90.7458696" id="path598"></path>
                    <path d="M141.323937,73.87787 C141.318603,74.7205367 140.626603,75.4192033 139.782603,75.4192033 C138.94927,75.4192033 138.235937,74.7205367 138.24124,73.87787 C138.25727,71.8152034 138.251937,69.7472035 138.282603,67.6792035 C138.30927,65.8778702 138.32927,64.0752036 138.454603,62.2738703 C138.506603,61.5178704 139.047937,60.8872037 139.84527,60.8872037 C140.63727,60.8872037 141.18927,61.5178704 141.235937,62.2738703 C141.46527,66.1325369 141.355937,70.0178701 141.323937,73.87787" id="path600"></path>
                    <path d="M139.011937,59.4592037 C138.895937,59.4912037 138.77727,59.5058704 138.659937,59.5058704 C138.42527,59.5058704 138.194603,59.4445371 137.990603,59.3245371 C137.71327,59.1672037 137.438603,58.8552038 137.375937,58.5325371 C137.110603,57.0378705 136.84527,55.5378705 136.490603,54.0632039 C136.150603,52.6365372 135.807937,51.2152039 135.483937,49.7818706 C135.32927,49.115204 135.678603,48.423204 136.36127,48.235204 C136.68927,48.147204 137.042603,48.1938707 137.334603,48.3605373 C137.635937,48.543204 137.787937,48.7978707 137.91327,49.115204 C138.427937,50.4485373 138.72927,51.8498706 139.051937,53.2405372 C139.40127,54.7565372 139.67327,56.2925372 139.938603,57.8245371 C140.006603,58.1885371 140.00127,58.5165371 139.807937,58.8498704 C139.630603,59.1472037 139.34527,59.3712037 139.011937,59.4592037" id="path602"></path>
                    <path d="M18.6119396,26.2792046 C18.2439396,26.7818712 17.8906063,27.2925379 17.541273,27.8098712 C16.7506063,28.9765378 15.9226063,30.0965378 14.969273,31.1325378 C14.7306064,31.3898711 14.3986064,31.5125378 14.0639397,31.5125378 C13.7186064,31.5125378 13.3692731,31.3818711 13.1199397,31.1325378 C12.6039397,30.6165378 12.6412731,29.8152045 13.1199397,29.2885378 C13.4972731,28.8792045 13.857273,28.4538712 14.205273,28.0192045 C14.7519397,27.2885379 15.2279397,26.5072046 15.7239397,25.7365379 C15.8799397,25.4925379 16.057273,25.2525379 16.2239397,25.0125379 C16.6719396,24.3725379 17.2186063,23.8778713 17.8546063,23.4352046 C18.3132729,23.116538 18.9999396,23.2578713 19.3799396,23.632538 C19.8652729,24.1218713 19.8546062,24.9192046 19.3799396,25.4085379 C19.1066062,25.6872046 18.8546063,25.9765379 18.6119396,26.2792046" id="path604"></path>
                    <path d="M26.1439394,18.4725381 C25.0759394,19.6232047 24.0599395,20.8312047 23.0346062,22.0192047 C22.7466062,22.3498713 22.3266062,22.500538 21.9026062,22.500538 C21.4532729,22.500538 20.9959395,22.3298713 20.6852729,22.0192047 C20.3772729,21.7072047 20.2012729,21.284538 20.2012729,20.8472047 C20.2012729,20.3792047 20.3879396,20.0138714 20.6852729,19.6698714 C21.2999395,18.9618714 21.9146062,18.2538714 22.5386062,17.5512048 C22.9559395,17.0765381 23.3626061,16.5818715 23.7999395,16.1285382 C24.9039394,14.9832049 25.9719394,13.7792049 27.3572727,12.9565382 C27.9292727,12.6178716 28.690606,12.7218716 29.1639393,13.1912049 C29.7159393,13.7485382 29.762606,14.7538715 29.1639393,15.3005382 C28.086606,16.2792048 27.1279394,17.4045381 26.1439394,18.4725381" id="path606"></path>
                    <path d="M39.8879391,10.1498716 C39.3386057,10.3405383 38.8039391,10.559205 38.2652724,10.775205 C37.8906058,10.9378716 37.5132725,11.0952049 37.1426058,11.2698716 C36.6172725,11.5245383 36.0959392,11.7898716 35.5906058,12.0925383 C35.1039392,12.3845382 34.6479392,12.7272049 34.1999392,13.0725382 C33.7599392,13.4245382 33.3346059,13.7832049 32.9079392,14.1552049 C32.6066059,14.4098715 32.2839393,14.5765382 31.8772726,14.5765382 C31.4972726,14.5765382 31.1212726,14.4258715 30.850606,14.1552049 C30.3199393,13.6178716 30.2572726,12.6178716 30.850606,12.0978716 C31.7572726,11.3058716 32.6946059,10.5458716 33.6786059,9.84720498 C34.4452725,9.31120499 35.2839392,8.87387167 36.1372725,8.49387168 C37.1119391,8.06053836 38.0799391,7.62853837 39.1319391,7.41520504 C39.8879391,7.26453838 40.6586057,7.62320503 40.8772724,8.40453835 C41.0906057,9.19120499 40.611939,9.89387164 39.8879391,10.1498716" id="path608"></path>
                    <path d="M45.0386056,4.33253845 C45.1066056,4.30320512 45.1732723,4.27520512 45.2386056,4.24853845 C45.2212723,4.25653845 45.2026056,4.26453845 45.1839389,4.27253845 C45.1359389,4.29120512 45.0879389,4.31253845 45.0386056,4.33253845" id="path610"></path>
                    <path d="M54.4359387,3.8298718 C54.085272,3.89520513 53.7626054,3.98320513 53.4319387,4.10587179 C52.2092721,4.63653844 51.0119388,5.22587176 49.7852721,5.75253841 C48.1332722,6.44987173 46.4879389,7.14853838 44.8319389,7.83520503 C44.7146056,7.88453836 44.5826056,7.90587169 44.4466056,7.90587169 C44.1492723,7.90587169 43.831939,7.8058717 43.607939,7.6738717 C43.2532723,7.4658717 42.987939,7.12187171 42.8786057,6.72587172 C42.763939,6.31520507 42.8212723,5.86720508 43.0346057,5.50187175 C43.263939,5.1112051 43.5866056,4.94053843 43.987939,4.77387177 C44.3386056,4.62453844 44.6879389,4.47920511 45.0386056,4.33253845 C45.0052723,4.34720512 44.9706056,4.36187178 44.9359389,4.37787178 C45.0186056,4.34187178 45.1012723,4.30720512 45.1839389,4.27253845 C45.2279389,4.25253845 45.2719389,4.23387179 45.3159389,4.21653845 C45.2906056,4.22587179 45.2639389,4.23653845 45.2386056,4.24853845 C46.2786056,3.80453846 47.3172722,3.35520514 48.3572722,2.91387182 C48.9666055,2.65387183 49.5759388,2.38720517 50.1852721,2.12187184 C50.5972721,1.94453851 51.0132721,1.77387185 51.4306054,1.60187185 C51.7852721,1.44987186 52.1439388,1.31520519 52.5079387,1.20053853 C53.0132721,1.04453853 53.5239387,0.992538533 54.045272,0.9712052 C54.6906054,0.940538535 55.285272,1.43520519 55.4519387,2.03920517 C55.649272,2.75787182 55.217272,3.68453847 54.4359387,3.8298718" id="path612"></path>
                    <path d="M68.9866053,3.30053848 C67.4092717,3.38453847 65.8412717,3.53520514 64.2679385,3.66453847 C62.4132718,3.81120513 60.5546052,3.89387179 58.6999386,3.98320513 C58.6772719,3.98453846 58.6559386,3.98453846 58.6346053,3.98453846 C57.7306053,3.98453846 56.9866053,3.14987181 56.9866053,2.26987183 C56.9866053,1.30587186 57.7679386,0.60720521 58.6999386,0.560538544 C60.5026052,0.472538546 62.3039385,0.384538548 64.1066051,0.232538552 C64.8972718,0.164538554 65.6946051,0.103205222 66.4866053,0.0458718903 C67.3199384,-0.0167947748 68.158605,-0.00212810854 68.9866053,0.0138718911 C69.882605,0.0298718907 70.6332716,0.748538539 70.6332716,1.66053852 C70.6332716,2.58720516 69.882605,3.25920514 68.9866053,3.30053848" id="path614"></path>
                    <path d="M86.8332712,4.97253843 C86.8026046,4.97253843 86.7692712,4.9712051 86.7372712,4.96853843 C85.0346046,4.8232051 83.3306046,4.64053844 81.6332714,4.47387178 C80.9346047,4.41120511 80.2426047,4.38053845 79.5439381,4.34320512 C78.3879381,4.27520512 77.2266048,4.22320512 76.0652715,4.18720512 C75.2012715,4.15653845 74.4812715,3.48453847 74.4812715,2.59920516 C74.4812715,1.75520518 75.2012715,0.984538533 76.0652715,1.00987187 C77.2266048,1.0472052 78.3826048,1.10453853 79.5439381,1.1712052 C80.2426047,1.20853853 80.939938,1.23387186 81.6332714,1.31253853 C83.471938,1.50987185 85.3052713,1.73387185 87.1386045,2.00987184 C87.3932712,2.07787184 87.6172712,2.2085385 87.8052712,2.39520516 C88.0866045,2.67653849 88.2426045,3.06187181 88.2426045,3.46320514 C88.2426045,4.19920512 87.6132712,4.97253843 86.8332712,4.97253843" id="path616"></path>
                    <path d="M102.473271,10.6485383 C102.347938,10.6485383 102.222604,10.6285383 102.098604,10.5858716 C100.593271,10.059205 99.0932709,9.52320499 97.593271,8.99653833 C95.9266043,8.40853835 94.229271,7.88720503 92.5412711,7.35120504 C91.7079378,7.09120505 91.1879378,6.24720507 91.4226044,5.38320509 C91.6466044,4.56987178 92.5572711,4.00187179 93.3906044,4.26853845 C94.453271,4.60187178 95.5106043,4.94453843 96.5626043,5.29920509 C97.1879376,5.50720509 97.8226043,5.70053842 98.4319376,5.94453841 C100.041271,6.59120506 101.625271,7.25787171 103.166604,8.04987169 C103.713271,8.32987168 103.958604,9.04453833 103.802604,9.61653832 C103.647937,10.1898716 103.071937,10.6485383 102.473271,10.6485383" id="path618"></path>
                    <path d="M114.021271,17.2138715 C113.805271,17.2138715 113.591937,17.1565381 113.406604,17.0258715 C112.687937,16.5258715 111.931937,16.1045382 111.171937,15.6765382 C110.750604,15.4418715 110.333271,15.1978715 109.906604,14.9792049 C108.589271,14.2965382 107.270604,13.6192049 105.942604,12.9685382 C105.250604,12.6245382 105.062604,11.6565383 105.431937,11.0258716 C105.619937,10.7085383 105.926604,10.4685383 106.281271,10.375205 C106.671937,10.2658716 107.021271,10.343205 107.374604,10.515205 C108.702604,11.1658716 110.015937,11.8485383 111.333271,12.5365382 C111.759937,12.7552049 112.166604,13.0258716 112.578604,13.2712049 C113.426604,13.7805382 114.229271,14.3325382 114.974604,14.9952048 C115.401271,15.3805382 115.458604,16.0832048 115.177271,16.5618715 C114.946604,16.9512048 114.478604,17.2138715 114.021271,17.2138715" id="path620"></path>
                    <path d="M124.523937,27.6005379 C124.091937,27.6005379 123.77327,27.4232045 123.450604,27.1578712 C121.262604,25.3392046 119.27327,23.308538 117.27327,21.2978714 C116.63327,20.652538 116.627937,19.5792047 117.27327,18.9338714 C117.914604,18.2925381 118.991937,18.2872048 119.63327,18.9338714 C121.63327,20.9432047 123.710604,22.8912047 125.591937,25.0165379 C126.138604,25.6312046 126.20127,26.5485379 125.591937,27.1578712 C125.310604,27.4392045 124.919937,27.6005379 124.523937,27.6005379" id="path622"></path>
                    <path d="M132.351937,38.6885376 C132.034603,38.6885376 131.61727,38.5578709 131.403937,38.2978709 C129.534603,35.9752043 127.846604,33.5112044 126.095937,31.0952044 C125.867937,30.7765378 125.84127,30.2725378 125.939937,29.9018711 C126.04927,29.5165378 126.30527,29.1778712 126.65327,28.9752045 C127.01327,28.7672045 127.450604,28.7098712 127.846604,28.8192045 C128.267937,28.9338712 128.52927,29.1938712 128.77327,29.5325378 C129.679937,30.7872045 130.622603,32.0378711 131.48127,33.3285377 C132.195937,34.4072044 132.991937,35.4805377 133.51327,36.6672043 C133.63327,36.8765376 133.695937,37.105871 133.695937,37.3445376 C133.695937,37.6992043 133.554603,38.0432043 133.30527,38.2978709 C133.054603,38.5485376 132.710603,38.6885376 132.351937,38.6885376" id="path624"></path>
                    <path d="M135.72527,45.6005374 C135.559937,45.6952041 135.37327,45.7418707 135.187937,45.7418707 C134.906603,45.7418707 134.627937,45.6352041 134.423937,45.4285374 C133.943937,44.9432041 133.579937,44.3605374 133.235937,43.7725375 C132.875937,43.1525375 132.53727,42.5165375 132.194603,41.8818708 C131.866603,41.2872042 132.03727,40.5272042 132.642603,40.1725376 C133.214603,39.8392042 134.027937,40.0218709 134.350603,40.6205375 C134.694603,41.2565375 135.03727,41.8858708 135.370603,42.5272042 C135.683937,43.1365375 135.959937,43.7512041 136.219937,44.3858708 C136.39727,44.8245374 136.10527,45.3765374 135.72527,45.6005374" id="path626"></path>
                    <path d="M115.82927,27.9832045 C115.094604,27.1552045 114.329271,26.3738712 113.527937,25.6178713 C112.814604,24.9458713 112.037271,24.3365379 111.303937,23.6912046 C110.535937,23.0138713 109.762604,22.3418713 108.961271,21.7032047 C107.898604,20.9458714 106.791937,20.2618714 105.683937,19.5765381 C104.563937,18.8845381 103.413271,18.2378714 102.282604,17.5658715 C101.121271,16.8792048 99.9706042,16.1698715 98.7932709,15.5032048 C97.609271,14.8392049 96.4106043,14.2258715 95.161271,13.6898715 C94.1479377,13.2752049 93.1319377,12.8845382 92.0799378,12.5818716 C90.9079378,12.2378716 89.7252712,11.9312049 88.5426045,11.6125383 C87.3812712,11.3005383 86.2039379,11.0512049 85.0279379,10.795205 C83.887938,10.5458716 82.7586047,10.315205 81.6106047,10.131205 C81.5346047,10.1258716 81.4572714,10.1138716 81.3826047,10.0978716 C80.1506047,9.93253831 78.9199381,9.76320498 77.6839381,9.66987165 C76.2826048,9.56587165 74.8812715,9.52453832 73.4706049,9.52453832 C71.9852716,9.52453832 70.5012716,9.56053832 69.0172717,9.66053832 C67.6159384,9.75387165 66.2039384,9.78987165 64.8092718,9.93120498 C64.2719385,9.98320498 63.7359385,10.051205 63.1999385,10.1178716 C63.3039385,10.107205 63.4026051,10.0925383 63.5066051,10.0818716 C62.1546052,10.263205 60.7972719,10.395205 59.4452719,10.5605383 C58.0946053,10.7738716 56.753272,11.0712049 55.4079387,11.3218716 C54.7666054,11.4458716 54.1106054,11.5352049 53.4759387,11.6965383 C52.7572721,11.8792049 52.0479388,12.0872049 51.3399388,12.3112049 C50.0119388,12.7325382 48.6732722,13.1338716 47.3452722,13.5658716 C45.9439389,14.0245383 44.5799389,14.5658715 43.1892723,15.0352048 C42.683939,15.2072048 42.1786057,15.3578715 41.6732724,15.5298715 C41.1706057,15.7032048 40.6772724,15.8885382 40.1839391,16.0845382 C39.3826057,16.4552048 38.5852724,16.8312048 37.8039391,17.2432048 C36.9812725,17.6752048 36.1892725,18.1498714 35.4132725,18.6605381 C33.9959392,19.5818714 32.6772726,20.648538 31.3412726,21.6778713 C31.3479393,21.6738713 31.3546059,21.668538 31.3612726,21.664538 C29.6679393,23.0032046 28.1212727,24.5032046 26.5479394,25.9778712 C25.0866061,27.3525379 23.6692728,28.7832045 22.3932728,30.3352045 C21.5826062,31.4072044 20.8146062,32.5125377 20.0372729,33.6072044 C19.6266062,34.185871 19.2199396,34.7645377 18.8239396,35.3525377 C18.4332729,35.9365377 18.0799396,36.545871 17.7146063,37.1445376 C17.001273,38.3165376 16.261273,39.4778709 15.5586063,40.6605375 C15.225273,41.2325375 14.9079397,41.8218708 14.5999397,42.4045375 C14.2719397,43.0245383 13.9439397,43.6445375 13.6426064,44.2792041 C13.3986064,44.7925374 13.1652731,45.3072041 12.9346064,45.8285374 C12.5159397,46.8472041 12.1199398,47.871204 11.7252731,48.899204 C11.3399398,49.8938706 10.9546065,50.8845373 10.6159398,51.8938706 C9.95460648,53.8752039 9.50527316,55.9232038 9.19327316,57.9872038 C9.01993983,59.4538704 8.9226065,60.9218704 8.85060651,62.3938703 C8.78260651,63.7592036 8.69993984,65.1232036 8.68393984,66.4885369 C8.64260651,69.4205368 8.80393984,72.3418701 8.89727317,75.2645367 C8.94393984,76.8165366 9.03727317,78.3525366 9.18927316,79.8938699 C9.33327316,81.3792032 9.47193982,82.8578698 9.61993982,84.3365364 C9.80527315,85.6538698 10.0532731,86.9565364 10.3292731,88.2645364 C10.4812731,88.9938697 10.6426065,89.7218696 10.8039398,90.4458696 C10.9706065,91.1965363 11.1839398,91.9312029 11.4026064,92.6645362 C11.4519398,92.8272029 11.5106064,92.9832029 11.5626064,93.1432029 C11.5639398,93.1525362 11.5706064,93.1592029 11.5732731,93.1672029 C11.5746064,93.1765362 11.5772731,93.1845362 11.5786064,93.1938696 C11.9466064,94.3352029 12.3652731,95.4605362 12.7306064,96.6032028 C13.0639397,97.6552028 13.3959397,98.7112028 13.7332731,99.7658694 C14.2426064,100.841869 14.7719397,101.911203 15.3746063,102.939203 C15.8599397,103.761869 16.333273,104.584536 16.8599396,105.381869 C17.3439396,106.120536 17.8439396,106.855203 18.3746063,107.573869 C18.3172729,107.500536 18.2652729,107.428536 18.2079396,107.360536 C18.8106063,108.136536 19.4066062,108.917869 20.0039396,109.699202 C20.4159395,110.216536 20.8346062,110.727202 21.2812729,111.215202 C21.7919395,111.772536 22.3226062,112.308536 22.8692728,112.833869 C23.8746061,113.804536 24.9039394,114.745869 25.9972727,115.621869 C28.2439394,117.261869 30.6172726,118.745869 32.9692726,120.240536 C34.1612725,120.995202 35.3492725,121.756536 36.5572725,122.491202 C37.7559391,123.219202 38.9692724,123.939202 40.2079391,124.595202 C41.5266057,125.281869 42.843939,125.975202 44.1986056,126.595202 C45.4159389,127.152535 46.6426056,127.695202 47.8732722,128.227202 C48.6959388,128.552535 49.5359388,128.839202 50.3692721,129.131202 C51.3079388,129.459202 52.2399388,129.808535 53.1879387,130.120535 C54.161272,130.439202 55.1559387,130.677869 56.1559387,130.912535 C57.089272,131.125869 58.0212719,131.328535 58.9639386,131.491202 C58.9546053,131.491202 58.9466053,131.489869 58.9372719,131.488535 C60.2146052,131.644535 61.4959385,131.756535 62.7759385,131.876535 C63.5106051,131.943202 64.2452718,131.995202 64.9839384,132.032535 C65.6932718,132.063202 66.4012717,132.063202 67.1092717,132.068535 C67.7452717,132.073869 68.3799384,132.079202 69.010605,132.032535 C69.7452716,131.980535 70.4799383,131.923202 71.2132716,131.871202 C72.5932716,131.776535 73.9692715,131.688535 75.3386048,131.543202 C76.7559381,131.385869 78.1772714,131.328535 79.5932714,131.199202 C80.2759381,131.136535 80.9532714,131.032535 81.6252714,130.953869 C82.2452713,130.877869 82.8692713,130.824535 83.4892713,130.752535 C84.407938,130.597869 85.3266046,130.403202 86.2399379,130.219202 C87.2292712,130.021869 88.1986045,129.751202 89.1826045,129.527202 C90.1719378,129.303202 91.1612711,129.068535 92.1466044,128.819202 C93.0212711,128.597869 93.869271,128.315202 94.7026044,127.981869 C94.7066044,127.980535 94.7106044,127.977869 94.713271,127.976535 C94.9399377,127.781869 95.1866043,127.609869 95.4706043,127.524538 C95.649271,127.471202 95.8319377,127.439202 96.0119377,127.401869 C96.513271,127.177869 97.0159376,126.957869 97.5159376,126.735202 C97.8079376,126.609869 98.0626043,126.537869 98.3746043,126.620535 C98.4332709,126.637869 98.4812709,126.676535 98.5359376,126.701869 C98.6119376,126.671202 98.6919376,126.645869 98.7666043,126.615202 C99.4092709,126.316535 100.022604,125.972535 100.631938,125.607202 C101.261271,125.227202 101.913271,124.893869 102.569271,124.560535 C104.034604,123.809869 105.395937,122.869869 106.695937,121.865869 C107.701271,121.052536 108.699937,120.231202 109.678604,119.384536 C110.757271,118.451202 111.777271,117.472536 112.777271,116.456536 C114.637271,114.555202 116.314604,112.483202 117.938604,110.384536 C118.774604,109.280536 119.59327,108.169869 120.370604,107.024538 C121.151937,105.863203 121.875937,104.660536 122.610604,103.472536 C124.099937,101.060536 125.46527,98.5818694 126.67327,96.0192028 C127.011937,95.2965362 127.338604,94.5698695 127.66127,93.8378695 C128.551937,91.6925363 129.402603,89.5285363 130.094603,87.311203 C130.459937,86.1392031 130.818603,84.9565364 131.058603,83.7592031 C131.298603,82.5512032 131.48127,81.3445365 131.646603,80.1325366 C131.775937,78.9125366 131.892973,77.6978699 131.892973,76.4672033 C131.89727,75.1032033 131.88127,73.73787 131.86127,72.3792034 C131.834603,71.0712034 131.782603,69.7698701 131.67327,68.4672035 C131.570603,67.1885369 131.402603,65.9098702 131.23327,64.6365369 C131.043937,63.316537 130.839937,61.9952037 130.579937,60.6858704 C130.303937,59.2738704 130.01727,57.8632038 129.70927,56.4512038 C129.402603,55.0512038 129.011937,53.6698705 128.615937,52.2898706 C128.22527,50.915204 127.77727,49.5605373 127.314604,48.207204 C126.87327,46.9205374 126.390604,45.6565374 125.86927,44.4018708 C124.81327,41.9618708 123.639937,39.5858709 122.339937,37.2645376 C121.63727,35.997871 120.875937,34.773871 120.079937,33.5658711 C119.355937,32.4538711 118.61727,31.3658711 117.815937,30.3138711 C117.167937,29.5272045 116.503937,28.7498712 115.82927,27.9832045 L115.82927,27.9832045 Z M81.6506047,10.1325383 L81.6506047,10.1325383 C81.703938,10.1405383 81.7586047,10.147205 81.8146047,10.155205 C81.7586047,10.147205 81.7052714,10.1405383 81.6506047,10.1325383 Z M96.3186043,130.268535 C96.3599377,130.236535 96.3999377,130.207202 96.4386043,130.175202 C96.3986043,130.205869 96.3546043,130.240535 96.3146043,130.271202 C96.3146043,130.269869 96.317271,130.269869 96.3186043,130.268535 L96.3186043,130.268535 Z M120.94927,30.7645378 C121.72527,31.9458711 122.490604,33.1392044 123.214604,34.3525377 C123.943937,35.581871 124.610604,36.841871 125.27727,38.1072043 C126.615937,40.6232042 127.834604,43.2218708 128.84527,45.8885374 C129.850603,48.535204 130.70927,51.2538706 131.41327,53.9978705 C131.75727,55.3632038 132.058603,56.7325371 132.334603,58.1125371 C132.62127,59.5298704 132.907937,60.9458704 133.13727,62.3738703 C133.599937,65.2792036 133.98527,68.2072035 134.079937,71.1498701 C134.126603,72.6178701 134.13727,74.0925367 134.143407,75.5605367 C134.151937,76.9832033 134.079937,78.3938699 133.927937,79.8112032 C133.766603,81.3365365 133.53327,82.8525365 133.235937,84.3578698 C132.98127,85.6805364 132.594603,86.9938697 132.178603,88.2698697 C131.266603,91.0712029 130.230603,93.8472029 129.00127,96.5298695 C127.80927,99.1285361 126.53327,101.680536 125.042604,104.128536 C124.266604,105.409869 123.48527,106.696536 122.683937,107.967203 C121.93327,109.155202 121.115937,110.295202 120.27727,111.425869 C119.391937,112.617869 118.48127,113.789869 117.55327,114.951202 C116.647937,116.087202 115.657271,117.160536 114.678604,118.227202 C113.730604,119.264536 112.699937,120.232536 111.642604,121.164536 C110.590604,122.092536 109.527937,123.019202 108.427937,123.888535 C107.459937,124.655202 106.475937,125.431202 105.418604,126.081869 C104.938604,126.379202 104.459937,126.669869 103.959937,126.936535 C103.481271,127.191202 102.995937,127.431202 102.533271,127.712535 C101.501271,128.336535 100.490604,128.956535 99.3559376,129.388535 C98.8706043,129.571202 98.3812709,129.743202 97.8812709,129.879202 C97.6266043,129.951202 97.3666043,129.997869 97.1106043,130.071202 C96.849271,130.143202 96.5746043,130.204535 96.3146043,130.284535 C96.2599377,130.317869 96.2066043,130.353869 96.157271,130.393869 C96.201271,130.360535 96.2426043,130.328535 96.285271,130.293869 C96.2839377,130.295202 96.2826043,130.295202 96.2799377,130.296535 C95.989271,130.523202 95.717271,130.680535 95.329271,130.680535 C95.1466043,130.680535 94.965271,130.643202 94.797271,130.572535 C93.5946044,131.025869 92.3452711,131.345869 91.1092711,131.683202 C90.4639378,131.865869 89.8132711,132.016535 89.1612712,132.172535 C88.4946045,132.333869 87.8279379,132.485869 87.1506045,132.605869 C85.7132713,132.855202 84.275938,133.125869 82.8172713,133.245869 C81.447938,133.355202 80.0839381,133.552535 78.7132714,133.641869 C77.9799381,133.693869 77.2506048,133.735202 76.5159381,133.787202 C75.8226048,133.839202 75.1306048,133.933869 74.4372715,134.011202 C73.0986049,134.152535 71.7506049,134.219202 70.406605,134.333869 C69.6932717,134.396535 68.9799383,134.459202 68.2652717,134.500535 C67.5932717,134.543202 66.9172717,134.532535 66.2506051,134.537869 C65.5519384,134.537869 64.8546051,134.537869 64.1612718,134.495202 C63.4226051,134.448535 62.6879385,134.391202 61.9479385,134.319202 C61.2706052,134.251202 60.5839385,134.204535 59.9066052,134.136535 C59.0932719,134.052535 58.2919386,133.939202 57.489272,133.797869 C56.8439386,133.683202 56.2026053,133.516535 55.5679387,133.365869 C54.8279387,133.193869 54.089272,133.027202 53.3599387,132.808535 C52.0466054,132.412535 50.7706055,131.901869 49.4746055,131.448535 C48.7866055,131.215202 48.0986055,130.975202 47.4226055,130.704535 C46.7132722,130.412535 46.0159389,130.100535 45.3172723,129.781869 C44.0892723,129.224535 42.843939,128.704535 41.6306057,128.109869 C40.3492724,127.485869 39.0786057,126.849869 37.8332724,126.157869 C36.5212725,125.417869 35.2292725,124.647202 33.9532725,123.855202 C31.6306059,122.412535 29.3332727,120.917869 27.0679394,119.385869 C26.4799394,118.991202 25.8799394,118.600536 25.3132728,118.177869 C24.6506061,117.683202 24.0052728,117.177869 23.3799395,116.636536 C22.8386062,116.172536 22.3332728,115.667202 21.8226062,115.172536 C21.3172729,114.677869 20.8226062,114.172536 20.3332729,113.661869 C19.3652729,112.641869 18.5052729,111.495202 17.713273,110.328536 C17.3279396,109.767202 16.937273,109.199202 16.5519396,108.636536 C16.177273,108.095203 15.865273,107.516536 15.5466063,106.939203 C15.4799397,106.817869 15.4159397,106.693869 15.349273,106.572536 C15.129273,106.279203 14.8959397,105.995203 14.6946064,105.691203 C14.2826064,105.071203 13.8759397,104.451203 13.5226064,103.789869 C13.1626064,103.112536 12.8506064,102.409869 12.5532731,101.701869 C12.0119398,100.393869 11.5946064,99.0405361 11.1266064,97.7072028 C10.6372731,96.3112028 10.1159398,94.9258695 9.61593982,93.5298696 C9.13727317,92.1912029 8.79860651,90.8005363 8.47593985,89.415203 C8.15193986,88.0085364 7.81860653,86.6125364 7.59993987,85.1912031 C7.38127321,83.7698698 7.25193988,82.3312032 7.09060655,80.9045365 C6.92393989,79.4938699 6.76127322,78.0765366 6.69993989,76.6552033 C6.63727323,75.1805367 6.58527323,73.70187 6.52260656,72.2218701 C6.4599399,70.8005368 6.43327323,69.3738702 6.4379422,67.9458702 C6.4379422,66.5512036 6.50127323,65.1605369 6.5799399,63.764537 C6.66260656,62.248537 6.73060656,60.732537 6.86660656,59.2178704 C7.00127322,57.7378704 7.25727321,56.2738705 7.56393987,54.8218705 C7.85593986,53.4618706 8.22527319,52.1338706 8.66260651,50.8165373 C8.88127317,50.1445373 9.15193983,49.483204 9.40260649,48.8218707 C9.63193982,48.2125374 9.86660648,47.603204 10.0999398,46.9978707 C10.6426065,45.6032041 11.1946064,44.2125375 11.8666064,42.8738708 C12.5119397,41.5712042 13.1946064,40.2898709 13.933273,39.0405376 C14.637273,37.8472043 15.3866063,36.6805376 16.105273,35.497871 C16.8039396,34.3525377 17.569273,33.2645377 18.3346063,32.1645378 C19.1892729,30.9405378 20.0332729,29.7125378 20.9652729,28.5458712 C21.8292728,27.4672045 22.7986062,26.4778712 23.7772728,25.5032046 C24.7519394,24.5298713 25.7772727,23.6178713 26.7879394,22.6912047 C27.8812727,21.6912047 28.9812727,20.7178714 30.1572726,19.8218714 C31.2826059,18.9618714 32.3919393,18.0765381 33.5426059,17.2645381 C34.6999392,16.4458715 35.9026058,15.6965382 37.1679391,15.0658715 C37.8146058,14.7432049 38.4652724,14.4312049 39.1212724,14.1285382 C39.8452724,13.7952049 40.599939,13.5458716 41.3506057,13.2845382 C42.0226057,13.0552049 42.699939,12.8472049 43.3706056,12.6232049 C44.0372723,12.3992049 44.6946056,12.1445383 45.3506056,11.8992049 C46.6319389,11.4205383 47.9492722,11.0405383 49.2519388,10.639205 C50.5119388,10.2485383 51.7612721,9.76987165 53.0532721,9.50320499 C54.4759387,9.20720499 55.913272,8.951205 57.3346053,8.66053834 C58.7079386,8.37520502 60.1012719,8.21787169 61.4906052,8.05787169 C62.9159385,7.85520503 64.3306051,7.60320503 65.7612717,7.45653837 C66.4706051,7.38853837 67.178605,7.33653837 67.8812717,7.27920504 C68.5692717,7.21787171 69.2572717,7.14987171 69.938605,7.09787171 C72.8039382,6.88453839 75.6999382,6.86853839 78.5586048,7.13387171 C79.2612714,7.19653838 79.9599381,7.28987171 80.6626047,7.37387171 C80.9706047,7.40987171 81.2772714,7.45653837 81.5852714,7.4978717 C81.599938,7.49920504 81.615938,7.5018717 81.6306047,7.50453837 C81.6466047,7.50453837 81.6626047,7.5058717 81.6786047,7.50853837 C81.8666047,7.53520504 82.047938,7.55520504 82.235938,7.58720504 C82.6052713,7.6498717 82.975938,7.7018717 83.339938,7.7698717 C84.0332713,7.90987169 84.7199379,8.05520502 85.4132713,8.20720502 C86.8092712,8.52453834 88.1999379,8.84187167 89.5746045,9.23253833 C90.9812711,9.62320498 92.3866044,10.0085383 93.7666044,10.4725383 C94.4079377,10.6858716 95.037271,10.951205 95.657271,11.2125383 C96.3919377,11.5192049 97.1159376,11.8418716 97.8399376,12.1858716 C99.1052709,12.7898716 100.329271,13.5138716 101.527938,14.2432049 C103.913271,15.7018715 106.345271,17.0818715 108.678604,18.6178714 C109.323937,19.0405381 109.970604,19.4672047 110.574604,19.9512047 C111.142604,20.3992047 111.694604,20.8578714 112.230604,21.336538 C112.761271,21.8058713 113.287937,22.2738713 113.818604,22.7378713 C114.345271,23.196538 114.875937,23.644538 115.381271,24.1232046 C116.423937,25.1178713 117.370604,26.1965379 118.303937,27.2952045 C119.24127,28.4045378 120.151937,29.5458712 120.94927,30.7645378" id="path628"></path>
                </g>
            </g>
        </g>
    </g>
</svg>