<?xml version="1.0" encoding="UTF-8"?>
<svg width="158px" height="158px" viewBox="0 0 158 158" version="1.1" xmlns="http://www.w3.org/2000/svg" xmlns:xlink="http://www.w3.org/1999/xlink">
    <title>twitter</title>
    <g id="Page-1" stroke="none" stroke-width="1" fill="none" fill-rule="evenodd">
        <g id="icons" transform="translate(-839.000000, -74.999940)" fill="#282727" fill-rule="nonzero">
            <g id="g10" transform="translate(533.333320, 533.333320) scale(-1, 1) rotate(-180.000000) translate(-533.333320, -533.333320) translate(0.000000, 0.000000)">
                <g id="twitter" transform="translate(839.873114, 833.914348)">
                    <path d="M148.236194,90.7896285 C148.228194,90.7722952 148.220194,90.7536285 148.213528,90.7362952 C148.218861,90.7522952 148.224194,90.7682952 148.229528,90.7842952 C148.232194,90.7856285 148.233528,90.7869618 148.236194,90.7896285 Z M137.380195,122.408294 C137.377528,122.413628 137.373528,122.418961 137.372195,122.425628 L137.373528,122.428294 C137.374861,122.421628 137.377528,122.414961 137.380195,122.408294 L137.380195,122.408294 Z M7.48819796,73.1429623 L7.48819796,73.1429623 L7.48819796,73.1442956 C7.51886462,73.0842956 7.54419796,73.021629 7.56553129,72.9562956 C7.54019796,73.0189623 7.51486462,73.081629 7.48819796,73.1429623 Z M152.990861,77.6189622 C152.976194,77.5522955 152.957528,77.4869622 152.936194,77.4202955 C152.888194,77.3322955 152.837528,77.2442955 152.784194,77.1576289 C152.658861,77.0202955 152.528194,76.8936289 152.388194,76.7722955 C151.965528,76.4856289 151.509528,76.2576289 151.041528,76.0496289 C150.238861,75.7282956 149.440194,75.4042956 148.646861,75.0549622 C147.901528,74.7309622 147.156194,74.3042956 146.646861,73.6642956 C146.458861,73.4296289 146.308194,73.2309623 146.177528,72.9709623 C146.021528,72.6682956 145.901528,72.3349623 145.817528,72.0122956 C145.646861,71.3309623 145.677528,70.6069623 145.792195,69.9242957 C146.057528,68.3202957 146.860194,66.8669624 147.589528,65.4296291 C147.929528,64.7709625 148.246861,64.1029625 148.556194,63.4282959 C149.049528,62.1109626 149.484194,60.7802959 149.725528,59.3949626 C149.746861,59.1669626 149.757528,58.940296 149.750861,58.708296 C149.734861,58.6416293 149.717528,58.5776293 149.700194,58.512296 C149.661528,58.440296 149.621528,58.3709627 149.578861,58.3029627 C149.517528,58.2376293 149.454861,58.1749627 149.389528,58.1136293 C149.109528,57.9309627 148.814861,57.7749627 148.509528,57.632296 C147.753528,57.3416293 146.970861,57.0949627 146.193528,56.8669627 C145.380195,56.6269627 144.573528,56.3616294 143.761528,56.132296 C142.781528,55.8562961 142.182861,54.8202961 142.453528,53.8309628 C142.549528,53.4816294 142.745528,53.1869628 142.998861,52.9576295 C143.005528,52.7416295 143.053528,52.5496295 143.141528,52.3736295 C143.181528,52.1336295 143.232195,51.8962961 143.306861,51.6589628 C143.384195,51.4136295 143.462861,51.1682962 143.536195,50.9189628 C143.692195,50.3722962 143.858861,49.8309629 144.030861,49.2882962 C144.429528,48.0149629 144.937528,46.7869629 145.162861,45.470963 C145.204195,44.9722963 145.189528,44.4802963 145.140195,43.9856297 C145.086861,43.714963 145.018861,43.4522964 144.928195,43.1922964 C144.913528,43.166963 144.898861,43.1416297 144.882861,43.114963 C144.670861,43.106963 144.464195,43.114963 144.254861,43.134963 C143.524195,43.258963 142.805528,43.4282964 142.082861,43.606963 C141.202861,43.830963 140.321528,44.0696297 139.405528,44.074963 C139.113528,44.074963 138.821528,44.0176297 138.545528,43.934963 C138.296195,43.8616297 137.878861,43.6376297 137.712195,43.434963 C137.670861,43.3776297 137.624195,43.3256297 137.582861,43.2682964 C137.394861,43.0802964 137.269528,42.8616297 137.197528,42.606963 C137.056195,42.2309631 137.056195,41.8669631 137.118861,41.4762964 C137.186861,41.0642964 137.342861,40.6536298 137.488195,40.2629631 C137.654861,39.8149631 137.826861,39.3722965 138.004195,38.9296298 C138.482861,37.7162965 139.005528,36.5109632 139.232195,35.2202966 C139.286861,34.6882966 139.320195,34.1602966 139.286861,33.6296299 C139.254861,33.4656299 139.213528,33.3056299 139.164195,33.1442966 C139.118861,33.0562966 139.068195,32.9682966 139.014861,32.8829633 C138.929528,32.83363 138.842861,32.7882966 138.756195,32.74563 C137.594861,32.3269633 136.436195,31.9402966 135.214861,31.73363 C134.238861,31.61763 133.254861,31.5749633 132.269528,31.56963 C131.921528,31.5642967 131.572195,31.5749633 131.222862,31.5802967 C130.312195,31.60163 129.389528,31.62163 128.488195,31.4762967 C128.197528,31.4242967 127.978862,31.3509633 127.702862,31.22563 C127.441528,31.1122967 127.238862,30.9349633 127.020195,30.7629633 C126.936195,30.6589633 126.858862,30.5589633 126.780195,30.4549634 C126.640195,30.29363 126.540195,30.1122967 126.488195,29.9029634 C126.389528,29.5909634 126.348195,29.2682967 126.378862,28.9402967 C126.430862,28.3202967 126.645528,27.7309634 126.826862,27.1429634 C127.122862,26.1709635 127.388195,25.1909635 127.561528,24.1962968 C127.626862,23.5456302 127.630862,22.8936302 127.568195,22.2416302 C127.516195,21.9682969 127.449528,21.7029636 127.361528,21.4402969 C127.305528,21.3322969 127.244195,21.2269636 127.177528,21.1242969 C126.637528,20.9496303 126.070862,20.8442969 125.510862,20.7616303 C124.205528,20.6282969 122.925528,20.7496303 121.629528,20.8869636 C120.921528,21.0029636 120.206862,21.1162969 119.498862,21.2629636 C119.050862,21.3562969 118.608195,21.4402969 118.154862,21.5122969 C117.681529,21.5856302 117.217529,21.6589636 116.744195,21.6016302 C116.197529,21.5282969 115.738862,21.3882969 115.312195,21.0282969 C114.941529,20.7256303 114.702862,20.3202969 114.536195,19.8776303 C114.285529,19.2109636 114.233529,18.4456303 114.113529,17.7416303 C113.926862,16.588297 113.800195,15.4216304 113.412195,14.3109638 C113.277529,14.0376304 113.126862,13.7802971 112.952195,13.5296304 C112.792195,13.3376304 112.625529,13.1602971 112.442862,12.9962971 C112.288195,12.8976305 112.133529,12.8096305 111.970862,12.7256305 C111.765529,12.6576305 111.560195,12.6016305 111.349529,12.5576305 C110.853529,12.5109638 110.362862,12.5202971 109.862862,12.5709638 C109.293529,12.6776305 108.750862,12.8389638 108.213529,13.0469638 C107.837529,13.2229638 107.473529,13.4096304 107.108195,13.6016304 C106.446862,13.9456304 105.733529,14.3349638 104.968196,14.2936304 C104.452196,14.2629638 104.050862,14.0549638 103.697529,13.6789638 C103.400196,13.3669638 103.254862,12.9496305 103.113529,12.5549638 C103.004196,12.2416305 102.889529,11.9349638 102.774862,11.6269638 C102.268196,10.2256305 101.792196,8.81496389 101.236196,7.43229726 C100.948196,6.78429728 100.633529,6.15763063 100.226862,5.57629731 C100.085529,5.40963065 99.9361956,5.25229732 99.773529,5.10163065 C99.681529,5.04563065 99.589529,4.99496399 99.4921957,4.94696399 C99.4521957,4.93496399 99.4121957,4.92296399 99.3708623,4.91363066 C99.2508623,4.90829732 99.1348623,4.90963066 99.0161957,4.91496399 C98.1041957,5.10563065 97.2348624,5.50563064 96.3735291,5.8562973 C95.7495291,6.11229729 95.1295291,6.36163062 94.5041958,6.61629728 C93.4228625,7.05496394 92.3321958,7.46829726 91.2428625,7.88163058 C91.1468625,7.97763058 91.0601959,8.08163058 90.9348625,8.15496391 C90.1855292,8.59763057 89.1068626,8.35763057 88.6855293,7.56563059 C88.4615293,7.15496393 88.1908626,6.76963061 87.9921959,6.34163062 C87.7575293,5.8482973 87.4628626,5.37363065 87.1428626,4.92296399 C86.972196,4.72429733 86.7948626,4.53629733 86.6015293,4.36029734 C86.3695293,4.20029734 86.1308627,4.06029735 85.876196,3.93629735 C85.512196,3.80829735 85.1428627,3.71629735 84.7615294,3.65096402 C84.1148627,3.59496402 83.4788627,3.59896402 82.8335294,3.66296402 C82.1508628,3.77629735 81.4841961,3.95363068 80.8375295,4.20429734 C79.4095295,4.86963066 78.1495295,5.82296397 76.8881962,6.75363061 C76.4095296,7.10296394 75.9348629,7.45629726 75.4561963,7.80563059 C74.5081963,8.5029639 73.570863,9.23763055 72.466863,9.67496387 C70.8161964,10.3322972 69.0348631,9.8362972 67.4615298,9.19629722 C66.2281965,8.6909639 65.0228632,8.11763058 63.7975299,7.58563059 C62.7001966,7.1376306 61.5815299,6.77363061 60.4121966,6.57496395 C59.76553,6.50696395 59.12553,6.48296395 58.4761967,6.53896395 C58.19353,6.59229728 57.9201967,6.66696395 57.6481967,6.76163061 C57.5308634,6.82163061 57.4188634,6.88563061 57.3068634,6.95629727 C57.20553,7.05096394 57.1081967,7.14829727 57.0148634,7.25229727 C56.9081967,7.4096306 56.8121967,7.56963059 56.7201967,7.74029725 C56.4215301,8.5629639 56.2815301,9.43629721 56.1388634,10.3002972 C56.0495301,10.8216305 55.9455301,11.3362972 55.8468634,11.8576305 C55.7321968,12.4256305 55.5761968,12.9936305 55.3201968,13.5136304 C55.0241968,14.1282971 54.5761968,14.6229637 53.9921968,14.9722971 C53.4775301,15.2802971 52.8001968,15.3269637 52.2215302,15.3989637 C51.7428635,15.4616304 51.2588635,15.4256304 50.7841969,15.3936304 C49.6908636,15.3216304 48.5961969,15.1602971 47.5188636,14.9722971 C46.5015303,14.7989637 45.484197,14.6296304 44.4668637,14.4656304 C43.9895304,14.4189638 43.5121971,14.3669638 43.0348637,14.3216304 C41.9575304,14.2069638 40.8668638,14.2256304 39.7975305,14.3469638 C39.1188638,14.4482971 38.4615305,14.5936304 37.8161972,14.8349637 C37.6508639,14.9202971 37.4908639,15.0122971 37.3348639,15.1149637 C37.1908639,15.2416304 37.0561972,15.3749637 36.9268639,15.5189637 C36.8375306,15.6482971 36.7588639,15.7802971 36.6855306,15.9189637 C36.6241972,16.116297 36.5748639,16.3176304 36.5335306,16.5229637 C36.4081972,17.932297 36.6748639,19.356297 36.8415306,20.7536303 C36.9615306,21.7269636 37.1121972,22.7069635 37.0401972,23.6856302 C36.9828639,24.5402968 36.7628639,25.3936301 36.2681972,26.1029635 C36.0761972,26.3736301 35.8775306,26.6082968 35.6175306,26.8109634 C35.4668639,26.9416301 35.3055306,27.0602968 35.1281973,27.1602968 C34.9148639,27.2949634 34.6588639,27.3682968 34.4255306,27.4616301 C32.6855307,28.1656301 30.7481974,27.9616301 28.9201974,27.8736301 C27.3481975,27.7989634 25.7668642,27.6256301 24.1988642,27.7616301 C23.8788642,27.8176301 23.5668642,27.8869634 23.2601976,27.9909634 C23.1788642,28.0336301 23.1001976,28.0776301 23.0241976,28.1242967 C23.0215309,28.1336301 23.0188642,28.1416301 23.0161976,28.1509634 C23.0081976,28.3282967 23.0135309,28.5016301 23.0295309,28.6762967 C23.2508642,29.96563 23.6015309,31.2189633 23.9615309,32.47763 C24.1335309,33.0762966 24.3001975,33.6802966 24.4668642,34.2802966 C24.6961975,35.0922966 24.8161975,35.9416299 24.8735309,36.7802965 C24.9041975,37.2802965 24.8161975,37.8002965 24.6961975,38.2802965 C24.5708642,38.7642965 24.3055309,39.1696298 24.0028642,39.5562965 C23.4775309,40.2322964 22.7321976,40.6282964 21.9295309,40.8989631 C21.6121976,41.0082964 21.2895309,41.1176298 20.9721976,41.2229631 C20.3468643,41.4202964 19.7268643,41.5976297 19.0868643,41.7322964 C17.5361977,42.0709631 15.9255311,42.1042964 14.4268645,42.6522964 C14.2948645,42.718963 14.1655311,42.7882964 14.0401978,42.8642964 C13.9961978,42.9056297 13.9535311,42.9482964 13.9121978,42.9936297 C13.8881978,43.030963 13.8655311,43.0696297 13.8441978,43.1082964 C13.8268645,43.158963 13.8135311,43.2096297 13.8015311,43.2602964 C13.7975311,43.474963 13.8068645,43.6856297 13.8281978,43.8976297 C13.9375311,44.5696297 14.0948645,45.2256296 14.2895311,45.878963 C14.3935311,46.222963 14.5295311,46.5602963 14.6441978,46.8989629 C14.8228644,47.4189629 15.0401978,47.9202962 15.2455311,48.4282962 C15.8801977,49.8722962 16.5508644,51.3122962 17.0295311,52.8109628 C17.2268644,53.4202961 17.3161977,54.0869628 17.3308644,54.7269627 C17.3521977,55.5562961 17.0921977,56.4936294 16.4975314,57.092296 C16.0028644,57.5869627 15.4095311,57.9416293 14.7535311,58.1749627 C14.3415311,58.316296 13.9295311,58.4309627 13.5081978,58.5349627 C11.3148645,59.0856293 9.12153125,59.6696293 7.0215313,60.5216293 C6.72286464,60.6616293 6.44286465,60.8162959 6.17486466,61.0002959 C6.16286466,61.0109626 6.15219799,61.0216293 6.14153133,61.0322959 C6.14286466,61.0802959 6.14553133,61.1269626 6.14819799,61.1736293 C6.35886465,62.2229626 6.75353131,63.2056292 7.15486463,64.1922958 C7.61886462,65.1896292 8.08819794,66.1722958 8.57619793,67.1602958 C9.29486458,68.5976291 10.0441979,70.0349624 10.5241979,71.5762957 C10.6441979,71.9509623 10.7321979,72.3989623 10.7428645,72.789629 C10.7588645,73.1909623 10.7015312,73.5816289 10.6335312,73.9776289 C10.5241979,74.6082956 10.0868646,75.1856289 9.6281979,75.6082956 C9.15886458,76.0456289 8.59219793,76.4469622 8.04019794,76.7802955 C7.55486462,77.0762955 7.07086464,77.3469622 6.55486465,77.5869622 C5.88686467,77.9016288 5.19086468,78.1442955 4.50553137,78.4189622 C4.19086471,78.5656288 3.89086472,78.7256288 3.60286472,78.9189621 C3.57219806,78.9469621 3.54153139,78.9776288 3.51219806,79.0082955 C3.50686472,79.0162955 3.50286472,79.0242955 3.49753139,79.0309621 C3.50953139,79.0496288 3.52153139,79.0669621 3.53353139,79.0856288 C5.39753134,81.3882954 7.57086462,83.4242954 9.65886457,85.518962 C10.0401979,85.898962 10.4148646,86.2842953 10.7895312,86.6802953 C11.1535312,87.0656286 11.5028645,87.4776286 11.8361978,87.8989619 C12.2375312,88.4096286 12.6281978,88.9509619 12.8308645,89.5816285 C13.2108645,90.7322952 12.8828645,91.9309618 12.1068645,92.8362951 C11.8001979,93.1962951 11.4561979,93.5296284 11.1228645,93.8629618 C10.6441979,94.3469618 10.1441979,94.8162951 9.61753124,95.2429617 C8.91753126,95.8216284 8.18953127,96.3549617 7.46686463,96.9016284 C7.28419796,97.0536284 7.10686463,97.208295 6.93886464,97.3709617 C7.05086464,97.468295 7.16419797,97.5629617 7.2735313,97.660295 C7.52419796,97.884295 7.77353128,98.1029617 8.02953128,98.3216283 C8.5548646,98.780295 9.08686459,99.2376283 9.62286457,99.6909616 C10.7108645,100.613628 11.8201979,101.518962 12.9201978,102.436295 C13.4455311,102.873628 13.9721978,103.316295 14.4868645,103.769628 C14.8108644,104.054962 15.1388644,104.332295 15.4508644,104.628295 C15.7735311,104.936295 16.0761977,105.253628 16.3628644,105.592295 C16.7375311,106.034961 17.1228644,106.549628 17.2948644,107.124295 C17.5601977,108.004295 17.3521977,108.961628 16.6335311,109.570961 C16.3055311,109.846961 15.9295311,110.092295 15.5548644,110.294961 C14.8588644,110.669628 14.1748645,111.088295 13.5401978,111.560295 C13.1588645,111.888295 12.8121978,112.234961 12.4895312,112.620295 C12.3601978,112.813628 12.2388645,113.010961 12.1295312,113.220295 C12.1295312,113.222961 12.1295312,113.225628 12.1281978,113.228295 C12.1281978,113.246961 12.1281978,113.266961 12.1281978,113.285628 C12.3041978,113.453628 12.4841978,113.612295 12.6721978,113.764295 C13.1828645,114.154961 13.6988645,114.533628 14.2268645,114.904295 C14.6281978,115.185628 15.0295311,115.466961 15.4401978,115.733628 C16.2068644,116.224295 17.0068644,116.642961 17.829531,117.020295 C19.6788643,117.762961 21.5335309,118.506961 23.3681976,119.294961 C23.8628642,119.509628 24.3001975,119.769628 24.6908642,120.149628 C24.9668642,120.420294 25.1335309,120.790961 25.2375308,121.154961 C25.3468642,121.554961 25.2788642,121.961628 25.1695308,122.352294 C25.0401975,122.821628 24.9148642,123.290961 24.7895309,123.758961 C24.5708642,124.598961 24.3548642,125.457628 24.2335309,126.317628 C24.1761975,126.764294 24.1188642,127.209628 24.0761975,127.660294 C23.9815309,128.596294 23.8735309,129.541628 23.9535309,130.478961 C23.9681975,130.544294 23.9841975,130.608294 24.0028642,130.670961 C24.2175309,130.716294 24.4348642,130.749628 24.6521975,130.780294 C25.5961975,130.876294 26.5201975,130.860294 27.4548641,130.757628 C28.0148641,130.662961 28.5801974,130.576294 29.1335308,130.457628 C29.8415307,130.310961 30.5441974,130.138961 31.2481974,129.966961 C31.706864,129.857628 32.1695307,129.780294 32.638864,129.758961 C33.106864,129.737628 33.5495306,129.882961 33.9615306,130.097628 C34.3201973,130.285628 34.6281973,130.680294 34.8161973,131.024294 C34.9615306,131.285627 35.0401973,131.581627 35.1281973,131.862961 C35.3161973,132.466961 35.4868639,133.066961 35.6495306,133.670961 C35.9721972,134.873627 36.2588639,136.086961 36.5348639,137.300294 C36.6855306,137.946961 36.8161972,138.581627 36.9348639,139.233627 C37.1455306,140.348294 37.2921972,141.492294 37.6881972,142.560294 C37.7055305,142.593627 37.7228639,142.625627 37.7415305,142.657627 C37.7855305,142.685627 37.8295305,142.710961 37.8761972,142.736294 C37.8841972,142.738961 37.8935305,142.741627 37.9028639,142.744294 C38.0441972,142.742961 38.1815305,142.736294 38.3201972,142.721627 C39.7228638,142.492294 41.0815305,142.058961 42.4295304,141.628294 C43.0401971,141.436294 43.6441971,141.237627 44.2588637,141.054961 C44.7588637,140.909627 45.2588637,140.764294 45.7735303,140.690961 C46.040197,140.654961 46.3055303,140.642961 46.5628636,140.676294 C46.640197,140.650961 46.7188636,140.626961 46.7975303,140.626961 C47.1535303,140.626961 47.4015303,140.837627 47.524197,141.128294 C47.8175303,141.410961 48.0348636,141.797627 48.1495303,142.165627 C48.3468636,142.816294 48.4295303,143.504294 48.5868636,144.160294 C48.7321969,144.79096 48.8881969,145.41496 49.0495303,146.040294 C49.2268636,146.712294 49.4041969,147.37896 49.5815302,148.049627 C49.8295302,148.97896 50.0775302,149.90696 50.3908636,150.813627 C51.3881969,150.61496 52.3788635,150.29496 53.3281968,149.932294 C54.1081968,149.585627 54.8521968,149.169627 55.5575301,148.67896 C56.2708634,148.189627 56.9588634,147.664294 57.7041967,147.209627 C57.8708634,147.112294 58.0468634,147.02296 58.2241967,146.93496 C58.6561967,146.721627 59.1308633,146.50696 59.62553,146.512294 C61.0521966,146.533627 62.1775299,147.481627 63.2348632,148.33096 C64.0135299,148.957627 64.7961965,149.573627 65.5841965,150.18696 C66.5561965,150.921627 67.5308631,151.645627 68.5321964,152.340294 C69.3388631,152.908294 70.1761964,153.485627 71.0601964,153.94696 C71.2841964,153.316294 71.4575297,152.665627 71.7041964,152.03896 C71.958863,151.388294 72.2295297,150.741627 72.5321963,150.10696 C72.666863,149.81496 72.802863,149.52296 72.942863,149.236294 C73.1561963,148.78296 73.4121963,148.392294 73.734863,148.00296 C74.0321963,147.64296 74.5001963,147.465627 74.9228629,147.304294 C75.3175296,147.15896 75.8028629,147.169627 76.2135296,147.209627 C77.1561962,147.309627 78.0468629,147.669627 78.8708628,148.132294 C80.0415295,148.79896 81.2135294,149.465627 82.3855294,150.14296 C82.8548627,150.41896 83.3335294,150.669627 83.8135294,150.924294 C84.6948627,151.397627 85.5708627,151.860294 86.484196,152.264294 C87.6668626,152.736294 88.8788626,153.052294 90.1415292,153.24696 C90.1188626,153.244294 90.0961959,153.241627 90.0748626,153.23896 C90.4495292,153.28696 90.8228625,153.336294 91.1988625,153.388294 C91.0628625,153.36696 90.9281959,153.35096 90.7868625,153.33096 C91.3175292,153.39096 91.8428625,153.468294 92.3735292,153.44696 C92.3988625,153.421627 92.4241958,153.397627 92.4481958,153.37096 C92.5401958,153.221627 92.6188625,153.06696 92.6961958,152.90696 C93.2601958,151.441627 93.4175291,149.880294 93.7455291,148.35096 C93.8708625,147.773627 93.9841958,147.209627 94.2508625,146.673627 C94.6721958,145.825627 95.5001958,145.216294 96.4375291,145.09096 C96.6468624,145.05496 96.8548624,145.028294 97.0628624,145.017627 C97.349529,144.997627 97.6561957,145.05496 97.937529,145.096294 C98.4801957,145.17896 98.953529,145.38296 99.453529,145.601627 C100.094862,145.88296 100.693529,146.257627 101.270862,146.64296 C102.374862,147.376294 103.464196,148.14296 104.604196,148.820294 C105.825529,149.540294 107.057529,150.23096 108.338862,150.849627 C108.458862,150.452294 108.534862,150.04696 108.596195,149.633627 C108.716195,148.520294 108.741529,147.39496 108.756195,146.27896 C108.761529,145.580294 108.761529,144.888294 108.822862,144.189627 C108.865529,143.741627 108.917529,143.282961 109.073529,142.856294 C109.245529,142.392294 109.484195,142.038961 109.808195,141.673627 C110.120195,141.320294 110.594862,141.090961 111.026862,140.924294 C111.442862,140.768294 111.860195,140.721627 112.302862,140.664294 C113.046862,140.569627 113.833529,140.716294 114.568195,140.836294 C115.021529,140.913627 115.464195,141.028294 115.912195,141.137627 C116.526862,141.298961 117.146862,141.454961 117.761529,141.616294 C118.954862,141.921627 120.162862,142.221627 121.380195,142.416294 C121.750862,142.453627 122.114862,142.465627 122.486862,142.446961 C122.518862,142.440294 122.549528,142.433627 122.581528,142.426961 C122.590862,142.229627 122.588195,142.036294 122.574862,141.837627 C122.392195,140.785627 122.042862,139.770961 121.729528,138.752294 C121.537528,138.121627 121.374862,137.476294 121.224195,136.836294 C121.046862,136.090961 120.896195,135.320294 120.942862,134.554961 C121.005528,133.574961 121.437528,132.542961 122.213528,131.924294 C123.537528,130.882961 125.276195,130.700294 126.912195,130.689628 C128.412195,130.673628 129.917528,130.689628 131.417528,130.700294 C132.890861,130.709628 134.378861,130.720294 135.845528,130.556294 C136.466861,130.458961 137.080195,130.326961 137.688195,130.173628 C137.916195,130.113628 138.144195,130.053628 138.369528,129.989628 C138.180195,129.692294 137.972195,129.409628 137.757528,129.128294 C136.940195,128.080294 136.125528,127.036294 135.380195,125.934961 C135.057528,125.460294 134.792195,124.960294 134.532195,124.449628 C134.297528,123.992294 134.089528,123.492294 133.964195,122.997628 C133.724195,122.006961 134.109528,120.970961 134.880195,120.330961 C135.822861,119.549628 137.062861,119.273628 138.224195,118.960294 C138.734861,118.820294 139.250861,118.689628 139.761528,118.554961 C141.045528,118.205628 142.340195,117.876295 143.581528,117.392295 C144.165528,117.128295 144.706861,116.820295 145.228195,116.448295 C145.573528,116.166961 145.905528,115.864295 146.209528,115.538961 C146.202861,115.512295 146.193528,115.485628 146.184194,115.458961 C146.009528,115.121628 145.808195,114.802961 145.585528,114.490961 C144.988195,113.758961 144.328195,113.088295 143.646861,112.429628 C143.000195,111.798961 142.328195,111.184295 141.756195,110.486961 C141.437528,110.096295 141.150861,109.669628 141.016195,109.178961 C140.854861,108.612295 140.828195,107.976295 140.964195,107.397628 C141.224195,106.293628 141.937528,105.408295 142.693528,104.596295 C143.245528,104.006962 143.860195,103.476295 144.458861,102.940295 C145.532195,101.986962 146.609528,101.033628 147.688194,100.085628 C148.204194,99.6376283 148.718861,99.1896283 149.229528,98.736295 C149.696194,98.3189617 150.116194,97.8589617 150.521528,97.384295 C150.596194,97.280295 150.668194,97.1749617 150.738861,97.068295 C150.658861,96.9909617 150.577528,96.9176284 150.492194,96.844295 C149.048194,95.7802951 147.508194,94.8669617 146.125528,93.7162951 C145.776195,93.4242951 145.474861,93.0642951 145.234861,92.6789618 C145.098861,92.4602951 145.010861,92.1736285 144.980195,91.9136285 C144.922861,91.5229618 144.890861,91.1376285 145.005528,90.7469618 C145.245528,89.9456285 145.693528,89.2829619 146.161528,88.6069619 C146.584194,87.9922952 147.005528,87.3762953 147.428194,86.7576286 C148.270861,85.5016286 149.141528,84.2682953 150.026861,83.038962 C150.961528,81.7416287 151.938861,80.4402954 152.614861,78.9882955 C152.768194,78.6016288 152.900194,78.2096288 152.99307,77.8056288 C152.99307,77.7429622 152.99307,77.6816288 152.990861,77.6189622 L152.990861,77.6189622 Z M117.124195,18.6416303 C117.108195,18.6429636 117.093529,18.6456303 117.077529,18.648297 C117.093529,18.6456303 117.108195,18.6429636 117.124195,18.6416303 Z M52.5135302,12.3229638 C52.5148635,12.3229638 52.5161968,12.3229638 52.5175302,12.3216305 C52.5495302,12.3002971 52.5828635,12.2749638 52.6121968,12.2482971 C52.5801968,12.2736305 52.5455302,12.2976305 52.5135302,12.3229638 Z M33.694864,24.4936302 L33.694864,24.4949635 C33.7255306,24.4816302 33.758864,24.4696302 33.7895306,24.4562968 C33.758864,24.4696302 33.7255306,24.4816302 33.694864,24.4936302 Z M33.6761973,24.5016302 C33.6815306,24.4989635 33.686864,24.4976302 33.6935306,24.4949635 L33.6935306,24.4949635 C33.6881973,24.4962968 33.6815306,24.4989635 33.6761973,24.5016302 Z M14.0108645,55.0056294 C14.0135311,55.0042961 14.0175311,55.0029627 14.0201978,55.0016294 C14.0321978,54.9909627 14.0441978,54.9802961 14.0561978,54.9709627 C14.0401978,54.9816294 14.0255311,54.9936294 14.0108645,55.0056294 L14.0108645,55.0056294 Z M13.8681978,55.1176294 C13.9188645,55.0842961 13.9681978,55.0469627 14.0135311,55.0069627 C14.0095311,55.0096294 14.0055311,55.0109627 14.0015311,55.0122961 C13.9575311,55.0469627 13.9121978,55.0829627 13.8681978,55.1176294 Z M9.54419791,90.6216285 L9.54419791,90.6202952 C9.53086457,90.5802952 9.51219791,90.5389619 9.49219791,90.4989619 C9.50953124,90.5402952 9.52686457,90.5816285 9.54419791,90.6216285 Z M12.0188645,113.102961 C12.0348645,113.148295 12.0535312,113.192295 12.0748645,113.234961 C12.0761978,113.236295 12.0775312,113.237628 12.0788645,113.238961 C12.0588645,113.192295 12.0401978,113.146961 12.0188645,113.102961 L12.0188645,113.102961 Z M22.3375309,122.694961 C22.3801976,122.713628 22.4241976,122.730961 22.4668643,122.748294 C22.4241976,122.730961 22.3788643,122.712294 22.3348643,122.694961 C22.3361976,122.694961 22.3361976,122.694961 22.3375309,122.694961 L22.3375309,122.694961 Z M71.4935297,154.15096 C71.5015297,154.149627 71.5081964,154.148294 71.5161964,154.148294 C71.5081964,154.148294 71.5001964,154.149627 71.4935297,154.15096 Z M108.362862,150.861627 C108.365529,150.853627 108.368195,150.84696 108.370862,150.840294 C108.368195,150.84696 108.365529,150.853627 108.362862,150.861627 Z M108.622862,150.957627 C108.636195,150.952294 108.649529,150.945627 108.661529,150.940294 C108.648195,150.945627 108.634862,150.95096 108.620195,150.957627 C108.621529,150.957627 108.621529,150.957627 108.622862,150.957627 Z M124.389528,134.381627 L124.389528,134.381627 C124.377528,134.386961 124.366862,134.390961 124.356195,134.394961 C124.366862,134.390961 124.377528,134.386961 124.389528,134.381627 Z M124.450862,134.357627 C124.437528,134.361627 124.425528,134.366961 124.412195,134.373627 L124.412195,134.373627 L124.412195,134.373627 C124.425528,134.368294 124.437528,134.362961 124.450862,134.357627 Z M146.253528,115.676295 L146.252194,115.674961 C146.242861,115.697628 146.233528,115.718961 146.224194,115.741628 C146.234861,115.720295 146.244194,115.697628 146.253528,115.676295 Z M144.748195,108.204295 C144.748195,108.205628 144.748195,108.205628 144.748195,108.205628 C144.762861,108.244295 144.778861,108.282961 144.797528,108.320295 C144.780195,108.280295 144.762861,108.242961 144.748195,108.204295 Z M150.882861,96.8349617 L150.882861,96.8349617 C150.882861,96.8269617 150.881528,96.820295 150.880194,96.8149617 C150.881528,96.8216284 150.881528,96.828295 150.882861,96.8349617 Z M156.218861,79.6376288 C155.942861,80.3762954 155.609528,81.1069621 155.182861,81.7736287 C154.776194,82.4082954 154.349528,83.0336287 153.901528,83.642962 C152.989528,84.8722953 152.068194,86.0962953 151.182861,87.3402953 C150.776194,87.9082952 150.385528,88.4869619 149.994861,89.0589619 C149.541528,89.7229619 149.046861,90.3789619 148.636194,91.0789618 C150.168194,92.1162951 151.858861,92.9282951 153.286861,94.1162951 C153.698861,94.4549618 154.016194,94.8509617 154.328194,95.2882951 C154.688194,95.7882951 154.761528,96.408295 154.838861,96.9976284 C154.833528,97.064295 154.828194,97.132295 154.822861,97.1949617 C154.808194,97.440295 154.770861,97.6789617 154.708194,97.9136283 C154.646861,98.184295 154.500194,98.440295 154.380194,98.684295 C154.234861,98.9816283 154.041528,99.2469616 153.844194,99.512295 C153.322861,100.189628 152.786861,100.809628 152.161528,101.392295 C151.636194,101.888295 151.073528,102.345628 150.526861,102.820295 C149.922861,103.336295 149.322861,103.861628 148.724194,104.382962 C147.510861,105.445628 146.224194,106.465628 145.141528,107.664295 C145.073528,107.736295 145.009528,107.810961 144.946861,107.888295 C144.890861,107.968295 144.838861,108.048295 144.790861,108.130961 C145.214861,108.604295 145.678861,109.041628 146.136194,109.486961 C146.656194,109.992295 147.172194,110.502961 147.661528,111.033628 C148.265528,111.689628 148.833528,112.413628 149.286861,113.178961 C149.750861,113.960295 150.156194,114.970961 150.052194,115.897628 C149.989528,116.445628 149.865528,116.918961 149.552194,117.382961 C149.317528,117.725628 149.021528,118.049628 148.708194,118.320294 C148.265528,118.700294 147.817528,119.064294 147.354861,119.413628 C146.193528,120.282961 144.802861,120.778961 143.422861,121.184294 C142.838861,121.356294 142.250861,121.512294 141.656195,121.658961 C141.000195,121.820294 140.338861,121.992294 139.677528,122.158961 C138.948195,122.337628 138.205528,122.510961 137.492195,122.766961 C137.502861,122.793628 137.513528,122.820294 137.524195,122.846961 C137.837528,123.505628 138.189528,124.116294 138.578861,124.730961 C138.980195,125.361628 139.437528,125.965628 139.880195,126.564294 C140.286861,127.121628 140.698861,127.673628 141.084195,128.246961 C141.656195,129.106961 142.136195,130.298961 141.729528,131.325627 C141.594861,131.658961 141.453528,131.897627 141.193528,132.142961 C140.989528,132.336294 140.781528,132.449627 140.537528,132.564294 C140.224195,132.705627 139.906861,132.809627 139.584195,132.918961 C139.240195,133.038961 138.880195,133.132294 138.532195,133.230961 C137.333528,133.569627 136.109528,133.814961 134.865528,133.882961 C134.062861,133.929627 133.265528,133.960294 132.458862,133.970961 C131.688195,133.981627 130.917528,133.976294 130.146862,133.970961 C129.453528,133.970961 128.761528,133.965627 128.068195,133.976294 C127.258862,133.985627 126.456195,133.977627 125.650862,134.048294 C125.285528,134.109627 124.926862,134.188294 124.574862,134.312294 C124.494862,134.352294 124.417528,134.394961 124.340195,134.440294 C124.329528,134.449627 124.318862,134.461627 124.309528,134.470961 C124.285528,134.512294 124.262862,134.553627 124.241528,134.594961 C124.221528,134.658961 124.205528,134.722961 124.189528,134.788294 C124.180195,135.016294 124.186862,135.238961 124.205528,135.468294 C124.386862,136.594961 124.673528,137.702961 124.980195,138.804294 C125.302862,139.976294 125.656195,141.173627 125.604195,142.408294 C125.589528,142.782961 125.526862,143.158961 125.406862,143.517627 C125.256195,143.954961 124.984195,144.320294 124.656195,144.64296 C123.980195,145.304294 123.026862,145.440294 122.130862,145.52296 C121.437528,145.59096 120.713528,145.481627 120.032195,145.372294 C119.698862,145.31496 119.365528,145.257627 119.032195,145.200294 C118.526862,145.116294 118.016195,145.00696 117.516195,144.888294 C116.206862,144.580294 114.902862,144.200294 113.576195,143.982961 C113.168195,143.940294 112.764195,143.921627 112.354862,143.953627 C112.272195,143.972294 112.190862,143.993627 112.109529,144.017627 C112.049529,144.225627 112.009529,144.437627 111.977529,144.656294 C111.844195,145.957627 111.881529,147.27096 111.750862,148.569627 C111.713529,148.913627 111.677529,149.257627 111.646862,149.596294 C111.594862,150.116294 111.500195,150.637627 111.396195,151.148294 C111.292195,151.653627 111.104195,152.116294 110.901529,152.59096 C110.808195,152.804294 110.584195,153.085627 110.432195,153.252294 C110.256195,153.440294 110.046862,153.585627 109.844195,153.741627 C109.786862,153.768294 109.734862,153.788294 109.682862,153.81496 C109.510862,153.908294 109.333529,153.976294 109.141529,154.012294 C108.885529,154.07496 108.614862,154.09096 108.354862,154.069627 C107.557529,153.997627 106.833529,153.632294 106.109529,153.304294 C104.890862,152.741627 103.672196,152.116294 102.537529,151.392294 C101.948196,151.012294 101.354862,150.637627 100.770862,150.252294 C99.8041957,149.605627 98.8508623,148.941627 97.801529,148.436294 C97.6241957,148.373627 97.4468624,148.320294 97.2641957,148.280294 C97.177529,148.276294 97.0908624,148.27496 97.0028624,148.276294 C97.0001957,148.280294 96.9975291,148.285627 96.9948624,148.29096 C96.7561957,148.96296 96.6081957,149.68296 96.4588624,150.376294 C96.2508624,151.345627 96.0415291,152.309627 95.7295291,153.252294 C95.4281958,154.153627 95.0268624,155.12696 94.2655291,155.736294 C93.8748625,156.049627 93.4535291,156.268294 92.9641958,156.38296 C92.5161958,156.48696 92.0108625,156.50296 91.5521959,156.465627 C90.4801959,156.388294 89.4121959,156.28296 88.3495293,156.112294 C86.5108626,155.81496 84.7295294,155.07496 83.0948627,154.205627 C82.3855294,153.836294 81.6668628,153.481627 80.9801961,153.085627 C80.2815295,152.684294 79.5895295,152.28296 78.8908628,151.88296 C78.1215295,151.43496 77.3441962,150.968294 76.5361962,150.59096 C76.3375296,150.517627 76.1401962,150.457627 75.9348629,150.409627 C75.9121962,150.408294 75.8881962,150.40696 75.8655296,150.405627 C75.5761963,150.856294 75.3348629,151.341627 75.0895296,151.809627 C74.8708629,152.221627 74.6788629,152.640294 74.4921963,153.061627 C74.1681963,153.969627 73.902863,154.913627 73.442863,155.76296 C73.046863,156.50296 72.3601963,157.00696 71.5161964,157.064294 C71.466863,157.069627 71.4175297,157.069627 71.3681964,157.069627 C70.8215297,157.069627 70.3255297,156.841627 69.8281964,156.621627 C68.8335298,156.17896 67.8908631,155.585627 66.9895298,154.976294 C65.9481965,154.26296 64.9321965,153.512294 63.9228632,152.752294 C62.8255299,151.928294 61.7855299,151.03896 60.7081966,150.19096 C60.38553,149.953627 60.06153,149.725627 59.70553,149.541627 C59.7028633,149.541627 59.7001967,149.540294 59.6961967,149.53896 C59.58953,149.577627 59.4841967,149.616294 59.37753,149.656294 C58.6041967,150.01096 57.8681967,150.44696 57.1361967,150.88296 C56.1668634,151.460294 55.1361968,151.945627 54.0681968,152.309627 C53.9521968,152.348294 53.8321968,152.373627 53.7148635,152.405627 C53.0161968,152.785627 52.3148635,153.160294 51.5761969,153.452294 C51.3375302,153.54296 51.0761969,153.581627 50.8175302,153.581627 C50.6921969,153.581627 50.5668635,153.572294 50.4455302,153.55496 C49.9988636,153.489627 49.6508636,153.257627 49.3361969,152.937627 C49.1401969,152.876294 48.9481969,152.796294 48.7761969,152.669627 C48.2868636,152.309627 48.1361969,151.793627 48.0268636,151.221627 C47.9255303,150.67096 47.8681969,150.105627 47.7988636,149.549627 C47.636197,148.585627 47.3855303,147.65096 47.1308636,146.705627 C47.0068636,146.23096 46.8575303,145.756294 46.7228636,145.281627 C46.5348636,144.692294 46.344197,144.102961 46.124197,143.524294 C46.0815303,143.429627 46.0375303,143.338961 45.988197,143.249627 C45.2615303,143.402961 44.544197,143.637627 43.8308637,143.852294 C43.1588637,144.054961 42.4868638,144.264294 41.8108638,144.452294 C41.1175305,144.63896 40.4255305,144.81096 39.7215305,144.941627 C39.0815305,145.05496 38.4348639,145.176294 37.7841972,145.133627 C36.8361972,145.076294 35.9975306,144.457627 35.5815306,143.618961 C35.1748639,142.794961 35.0135306,141.852294 34.8415306,140.957627 C34.7628639,140.545627 34.6695306,140.138961 34.5868639,139.726961 C34.4295306,138.993627 34.2481973,138.269627 34.054864,137.545627 C33.710864,136.246961 33.3095306,134.957627 32.8241973,133.706961 C32.706864,133.445627 32.590864,133.182961 32.4601973,132.928294 C31.810864,133.054961 31.1735307,133.238961 30.5241974,133.357627 C29.7068641,133.509627 28.8828641,133.628294 28.0548641,133.737627 C26.7428641,133.909627 25.3828642,133.873627 24.0921975,133.576294 C23.5188642,133.446961 22.9455309,133.321627 22.4508643,132.982961 C21.7068643,132.466961 21.3775309,131.618961 21.2788643,130.748294 C21.1441976,129.592294 21.3055309,128.409628 21.3988643,127.248294 C21.4508643,126.638961 21.5028643,126.029628 21.5601976,125.420294 C21.6281976,124.790961 21.7068643,124.165628 21.7788643,123.534961 C21.8175309,123.196294 21.8561976,122.850961 21.8748643,122.504294 C20.7308643,122.033628 19.581531,121.573628 18.4348644,121.108294 C17.721531,120.816294 17.0135311,120.513628 16.3108644,120.206961 C15.0241978,119.654961 13.8415311,118.878961 12.7375312,118.034961 C12.0708645,117.529628 11.4201979,117.018961 10.7841979,116.472295 C10.6281979,116.342961 10.4775312,116.201628 10.3255312,116.066961 C10.2215312,115.966961 10.1228646,115.868295 10.0241979,115.764295 C9.84153123,115.566961 9.61219791,115.321628 9.48286458,115.092295 C8.96686459,114.221628 8.88819792,113.118961 9.26819791,112.180295 C9.9201979,110.597628 11.3001979,109.425628 12.6695312,108.472295 C13.0308645,108.224295 13.3948645,107.984295 13.7521978,107.736295 C13.1628645,107.108295 12.5055312,106.553628 11.8521978,105.988295 C11.3735312,105.570961 10.8775312,105.170961 10.3828646,104.764295 C9.39353124,103.946962 8.39353127,103.133628 7.41486463,102.300295 C6.40953132,101.446962 5.41486468,100.576295 4.44019803,99.6909616 C3.84153138,99.144295 3.31619806,98.456295 3.30019806,97.6029617 C3.2895314,97.1389617 3.37753139,96.6549617 3.60153139,96.248295 C3.82553138,95.8362951 4.13886471,95.4776284 4.45619803,95.1389617 C4.94553136,94.6282951 5.56019801,94.2269618 6.12286466,93.8056284 C6.33753132,93.6469618 6.54819798,93.4882951 6.76286464,93.3296284 C7.73619795,92.5122951 8.69619793,91.6589618 9.50953124,90.6776285 C9.51486457,90.6696285 9.52153124,90.6616285 9.52686457,90.6522952 C9.44019791,90.5056285 9.34953125,90.3629619 9.25219791,90.2229619 C8.20019794,88.9562952 6.99086464,87.8202953 5.820198,86.6656286 C4.94019802,85.8002953 4.03486471,84.946962 3.19619807,84.034962 C2.81086474,83.6176287 2.42019809,83.206962 2.04953143,82.774962 C1.50819811,82.1442954 0.950864789,81.4989621 0.497531467,80.7949621 C0.278864805,80.4509621 0.133531476,80.0456288 0.0601981442,79.6442955 C0.00819814546,79.4096288 -0.0131351873,79.1696288 0.00819814546,78.9309621 C0.0135314787,78.5242955 0.133531476,78.2269622 0.289531472,77.8682955 C0.64419813,77.0456289 1.30553145,76.4362955 2.04953143,75.9669622 C2.66419808,75.5922956 3.37353139,75.3469622 4.04953138,75.1136289 C4.3508647,75.0096289 4.6468647,74.8909622 4.94153136,74.7776289 C5.680198,74.4296289 6.37886465,74.0336289 7.05219797,73.5602956 C7.1895313,73.4469623 7.31886463,73.3296289 7.44286463,73.2029623 C7.44686463,73.1882956 7.45086463,73.1722956 7.45486463,73.157629 C7.45753129,73.1002956 7.45753129,73.0442956 7.45619796,72.9882956 C7.36553129,72.533629 7.21219797,72.0949623 7.0415313,71.6629623 C6.39486465,70.2189624 5.628198,68.8216291 4.89886469,67.4149624 C4.54419803,66.7229624 4.21619804,66.0082958 3.91486471,65.2949625 C3.75353139,64.9096292 3.59219806,64.5296292 3.43486473,64.1496292 C3.03486474,63.1962959 2.77886474,62.1962959 2.68553141,61.1696293 C2.59619808,60.1282959 3.12819807,59.1029626 3.91486471,58.4469627 C4.75353136,57.7429627 5.77886467,57.3576293 6.80019798,56.9936294 C7.62819795,56.696296 8.4868646,56.4416294 9.33619791,56.2069627 C10.0188646,56.0189627 10.7015312,55.8322961 11.3881979,55.6749627 C12.2255312,55.4816294 13.0961978,55.3349627 13.9055311,55.0442961 C13.9615311,55.0136294 14.0175311,54.9816294 14.0721978,54.9469627 C14.0801978,54.7789627 14.0788645,54.6109627 14.0681978,54.4416294 C13.9388645,53.7829628 13.7108645,53.1549628 13.4628645,52.5336295 C12.5295312,50.3842962 11.4308645,48.2616296 10.8055312,45.9936296 C10.6281979,45.362963 10.5441979,44.7122963 10.4615312,44.0656297 C10.3775312,43.450963 10.4201979,42.8002964 10.6175312,42.2122964 C10.8308645,41.5509631 11.2428645,40.9616298 11.7588645,40.5029631 C12.2735312,40.0509631 12.8988645,39.7896298 13.5348645,39.5602965 C14.1068645,39.3522965 14.7375311,39.2642965 15.3361978,39.1749631 C15.6641978,39.1282965 15.9921977,39.0922965 16.3201977,39.0562965 C16.7228644,39.0109631 17.1215311,38.9669631 17.5188644,38.9229631 C18.1361977,38.8309631 18.7441977,38.7269631 19.3468643,38.5709631 C19.945531,38.4122965 20.545531,38.2136298 21.1268643,37.9936298 C21.2455309,37.9349632 21.3575309,37.8736298 21.4668643,37.8056298 C21.4948643,37.7789632 21.5228643,37.7509632 21.5481976,37.7229632 C21.5881976,37.6602965 21.6241976,37.5976298 21.6575309,37.5336298 C21.6708643,37.4896298 21.6828643,37.4456298 21.6935309,37.4002965 C21.7081976,37.1429632 21.7028643,36.8922965 21.6788643,36.6322965 C21.5281976,35.7162966 21.2455309,34.8376299 20.9721976,33.9469633 C20.7788643,33.3269633 20.581531,32.7069633 20.3828643,32.0869633 C20.2108643,31.5509633 20.049531,31.0082967 19.925531,30.46163 C19.8201977,30.0082967 19.721531,29.56563 19.649531,29.1082967 C19.4828643,28.0816301 19.5868643,26.9936301 20.221531,26.1336301 C21.3828643,24.5562968 23.5655309,24.3469635 25.3735308,24.3989635 C26.1588642,24.4256302 26.9455308,24.5029635 27.7268641,24.5709635 C28.4401974,24.6389635 29.1495308,24.7016302 29.8628641,24.7589635 C30.7215307,24.8296302 31.594864,24.9042968 32.458864,24.8376302 C32.8281973,24.7709635 33.186864,24.6776302 33.542864,24.5509635 C33.562864,24.5402968 33.582864,24.5296302 33.6001973,24.5176302 C33.6375306,24.4829635 33.6721973,24.4482968 33.706864,24.4122968 C33.722864,24.3856302 33.738864,24.3576302 33.754864,24.3309635 C33.8161973,24.1536302 33.8641973,23.9789635 33.9001973,23.7976302 C33.9335306,23.2469635 33.8961973,22.7096302 33.8375306,22.1576302 C33.6161973,20.7069636 33.354864,19.256297 33.2215306,17.7949637 C33.138864,16.8896304 33.210864,15.988297 33.4401973,15.1136304 C33.7015306,14.1229638 34.3775306,13.2269638 35.1748639,12.6082971 C35.5401973,12.3269638 35.8881972,12.0869638 36.3108639,11.8989638 C36.8108639,11.6749638 37.3255305,11.5029638 37.8575305,11.3682972 C38.3575305,11.2429638 38.8735305,11.1962972 39.3775305,11.1282972 C39.8935305,11.0602972 40.4148638,11.0296305 40.9295305,11.0136305 C42.1068638,10.9882972 43.2628637,11.1389638 44.4255304,11.2802972 C45.2215303,11.3736305 46.0135303,11.5296305 46.8055303,11.6696305 C48.0641969,11.8949638 49.3135302,12.1429638 50.5748635,12.3336305 C51.1161969,12.3869638 51.6521969,12.4376305 52.1975302,12.3989638 C52.2721968,12.3842971 52.3468635,12.3669638 52.4215302,12.3482971 C52.4268635,12.3389638 52.4295302,12.3309638 52.4348635,12.3229638 C52.6601968,11.6656305 52.7508635,10.9669638 52.8388635,10.2749639 C52.9068635,9.66829721 52.9735302,9.05896389 53.0601968,8.4509639 C53.1388635,7.87896392 53.2428635,7.31096393 53.3988635,6.74829728 C53.5961968,6.0562973 53.9828635,5.41496398 54.4295301,4.86296399 C56.2481967,2.64429738 59.40953,2.70696405 61.9615299,3.2536307 C63.2948632,3.54029736 64.5601965,4.10829734 65.7895298,4.66963066 C66.3255298,4.91496399 66.8521965,5.18029732 67.3735298,5.44163064 C68.1281964,5.81896397 68.8775298,6.19629729 69.6415297,6.54429728 C69.9921964,6.67363061 70.3428631,6.78696394 70.710863,6.86696394 C70.8161964,6.87363061 70.918863,6.87629728 71.0241964,6.87229728 C71.1561964,6.84163061 71.2841964,6.80429728 71.4121964,6.76029728 C71.9455297,6.48563062 72.4321963,6.13096396 72.910863,5.7642973 C74.1041963,4.82829733 75.2988629,3.89096402 76.4961962,2.96296404 C76.4708629,2.98163071 76.4455296,3.00163071 76.4201962,3.01896404 C76.5028629,2.95496404 76.5881962,2.89096404 76.6708629,2.82696404 C76.7015296,2.80429738 76.7295296,2.78163071 76.7588629,2.75896404 C76.7335296,2.77896404 76.7081962,2.79763071 76.6841962,2.81629738 C77.1241962,2.48163072 77.5695295,2.15496406 78.0295295,1.84696407 C78.8055295,1.33629741 79.6495295,0.956297423 80.5135295,0.628297431 C81.4401961,0.274964107 82.4348628,0.122964111 83.4255294,0.034964113 C84.4148627,-0.058369218 85.4508627,0.0402974462 86.4148627,0.269630774 C87.3775293,0.493630768 88.3001959,0.982964089 89.0495293,1.61763074 C89.7068626,2.16963073 90.2161959,2.86296404 90.6535292,3.59763069 C90.8761959,3.96029735 91.0641959,4.37363067 91.2175292,4.77496399 C92.0695292,4.446964 92.9255292,4.12429734 93.7695291,3.77896402 C94.4415291,3.49763069 95.1188624,3.2216307 95.7908624,2.94029737 C96.9881957,2.44963072 98.217529,1.8562974 99.545529,1.9402974 C101.400196,2.05896406 102.654862,3.57496402 103.430862,5.12696399 C103.993529,6.25229729 104.394862,7.44963059 104.790862,8.64829723 C105.078862,9.50829721 105.308196,10.3856305 105.569529,11.2536305 C105.821529,11.1029638 106.070862,10.9429638 106.321529,10.7882972 C107.264195,10.2002972 108.342862,9.7362972 109.426862,9.47629721 C109.930862,9.35096388 110.462862,9.28829721 110.984195,9.24696388 C111.509529,9.20029722 112.036195,9.27896388 112.556195,9.36163055 C113.113529,9.44963054 113.670862,9.72563054 114.150862,10.0069639 C114.613529,10.2736305 115.020195,10.6482972 115.364195,11.0496305 C116.170862,11.9762971 116.670862,13.0549638 116.926862,14.2522971 C117.093529,15.0336304 117.176195,15.8309637 117.264195,16.6216304 C117.337529,17.276297 117.402862,17.9336303 117.458862,18.5909636 C118.852195,18.3736303 120.220195,18.020297 121.618862,17.8256303 C122.681528,17.6736303 123.738862,17.528297 124.817528,17.5069637 C125.484195,17.4976303 126.150862,17.5696303 126.806862,17.664297 C127.249528,17.7216303 127.681528,17.7789637 128.113528,17.888297 C129.681528,18.2736303 130.545528,19.8096303 130.826862,21.2882969 C131.108195,22.7936302 130.993528,24.4402968 130.566862,25.9082968 C130.405528,26.4816301 130.233528,27.0496301 130.045528,27.6162968 C129.937528,27.9349634 129.802862,28.2522967 129.678862,28.5722967 C130.320195,28.5856301 130.961528,28.5309634 131.602862,28.5229634 C132.238862,28.5122967 132.873528,28.4922967 133.509528,28.5069634 C134.717528,28.5442967 135.910861,28.6162967 137.102861,28.8402967 C137.821528,28.9762967 138.525528,29.1896301 139.222861,29.39763 C139.806861,29.5749634 140.405528,29.75763 140.916195,30.08563 C141.722861,30.6122967 142.181528,31.4602967 142.484195,32.34563 C142.608195,32.7002966 142.624195,33.0962966 142.676195,33.4656299 C142.733528,33.9189633 142.686861,34.3776299 142.650861,34.8309632 C142.566861,35.7522966 142.378861,36.6322965 142.077528,37.5069632 C141.764195,38.4136298 141.342861,39.2936298 140.946861,40.1682964 C140.842861,40.4016298 140.738861,40.6336298 140.636195,40.8656298 C141.798861,40.5482964 142.932195,40.1082964 144.118861,39.8776298 C144.936195,39.7162965 145.889528,39.7256298 146.629528,40.1589631 C147.441528,40.6269631 147.962861,41.3509631 148.274861,42.2216297 C148.826861,43.7576297 148.780194,45.434963 148.416194,47.0016296 C148.145528,48.1682962 147.650861,49.2882962 147.249528,50.4189629 C147.072194,50.9402962 146.894861,51.4602962 146.717528,51.9816295 C146.634861,52.2256295 146.550861,52.4709628 146.457528,52.7109628 C146.425528,52.7909628 146.385528,52.8669628 146.353528,52.9469628 C146.694861,53.0376295 147.037528,53.1269628 147.374861,53.2309628 C147.833528,53.3762961 148.297528,53.5229628 148.756194,53.6642961 C149.308194,53.8349628 149.838861,54.0749628 150.370861,54.3042961 C150.953528,54.5549627 151.448194,54.9189627 151.953528,55.3096294 C152.354861,55.6216294 152.677528,56.0909627 152.932194,56.5229627 C153.297528,57.148296 153.412194,57.8096293 153.494861,58.512296 C153.526861,58.7576293 153.500194,59.0016293 153.480194,59.2416293 C153.437528,59.668296 153.370861,60.0856293 153.286861,60.5016293 C153.229528,60.7936293 153.146861,61.0749626 153.068194,61.3616292 C152.845528,62.1789626 152.564194,62.9882959 152.241528,63.7709625 C152.276194,63.6882959 152.313528,63.6042959 152.349528,63.5229625 C151.953528,64.4549625 151.562861,65.3882958 151.078861,66.2736291 C150.533528,67.2709624 149.957528,68.2562957 149.489528,69.2949624 C149.326861,69.7149624 149.196194,70.1349624 149.104194,70.5762957 C149.094861,70.7469623 149.092194,70.9162957 149.100194,71.0869623 C149.116194,71.1522957 149.133528,71.2162957 149.152194,71.2802957 C149.176194,71.3229623 149.201528,71.365629 149.226861,71.4082957 C149.440194,71.541629 149.658861,71.6522957 149.896194,71.757629 C149.882861,71.7522957 149.872194,71.7469623 149.858861,71.741629 C149.916194,71.765629 149.972194,71.789629 150.029528,71.813629 C150.681528,72.0669623 151.337528,72.3109623 151.994861,72.5589623 C152.781528,72.8562956 153.552194,73.1842956 154.256194,73.6429623 C154.677528,73.9136289 155.073528,74.2576289 155.412194,74.6269622 C155.901528,75.1642956 156.204194,75.7736289 156.453528,76.4496289 C156.552194,76.7162955 156.584194,77.0749622 156.609528,77.3456288 C156.630861,77.5696288 156.636194,77.7736288 156.614861,77.9976288 C156.568194,78.5696288 156.417528,79.1069621 156.218861,79.6376288" id="path22"></path>
                    <path d="M112.549529,95.2762951 C112.540195,95.2789617 112.532195,95.2816284 112.522862,95.2842951 L112.522862,95.2856284 C112.532195,95.2829617 112.540195,95.2802951 112.549529,95.2762951 L112.549529,95.2762951 Z M54.0201968,86.9322953 C54.0628635,86.8416286 54.1041968,86.7509619 54.1481968,86.6602953 C54.1455301,86.6602953 54.1441968,86.6589619 54.1415301,86.6589619 L54.0201968,86.9322953 Z M115.558862,91.1962952 C115.381529,91.0562952 115.200195,90.9096285 115.022862,90.7749618 C115.012195,90.7642952 115.001529,90.7589618 114.990862,90.7482952 C114.345529,90.2589619 113.689529,89.7749619 113.033529,89.3056285 C112.720195,89.0816286 112.402862,88.8576286 112.085529,88.6389619 C111.933529,88.5296286 111.777529,88.4309619 111.626862,88.3322952 C111.381529,88.1749619 111.116195,88.0402952 110.929529,87.8162953 C110.908195,87.7949619 110.886862,87.7696286 110.86153,87.7429619 C110.668195,87.7896286 110.454862,87.7896286 110.236195,87.7322953 C109.553529,87.5456286 109.162862,86.8322953 109.340195,86.1496286 C109.413529,85.8576286 109.460195,85.5602953 109.548195,85.274962 C109.642862,84.9562953 109.725529,84.6336287 109.798862,84.310962 C109.929529,83.7322954 110.042862,83.1442954 110.137529,82.5562954 C110.200195,81.6962954 110.173529,80.8216288 110.137529,79.9562954 C110.105529,79.1549621 110.053529,78.3576288 109.965529,77.5602955 C109.730862,76.1549622 109.392195,74.7482956 109.006862,73.3736289 C108.616195,71.9722956 108.090862,70.633629 107.533529,69.2949624 C107.137529,68.4416291 106.741529,67.6029624 106.236195,66.8056291 C105.720196,66.0029625 105.157529,65.2429625 104.596196,64.4722958 C104.090862,63.8522959 103.585529,63.2322959 103.064196,62.6282959 C102.533529,62.0082959 101.938862,61.4469626 101.345529,60.8896293 C100.225529,59.836296 99.0228623,58.8789626 97.809529,57.9309627 C97.345529,57.5869627 96.8868624,57.2376293 96.4081957,56.9096294 C95.8815291,56.5456294 95.3455291,56.2016294 94.7988624,55.8576294 C93.7521958,55.2016294 92.6268625,54.6442961 91.5335292,54.0562961 C89.3508626,52.8896295 87.116196,51.8322962 84.8508627,50.8269628 C83.996196,50.4669629 83.1428627,50.1136295 82.2668628,49.8109629 C81.7415294,49.6282962 81.2148628,49.4309629 80.6788628,49.2696295 C80.1108628,49.0976296 79.5428628,48.8936296 78.9655295,48.7482962 C77.9295295,48.4936296 76.8975296,48.2269629 75.8455296,48.0242962 C74.7828629,47.8162963 73.714863,47.6282963 72.642863,47.4616296 C72.0175297,47.4042963 71.386863,47.3269629 70.766863,47.3162963 C69.9441964,47.3002963 69.1268631,47.3002963 68.3041964,47.3269629 C66.8721965,47.3842963 65.4495298,47.5242963 64.0228632,47.6696296 C63.5481966,47.7376296 63.0801966,47.8109629 62.6108632,47.8842963 C62.1001966,47.9562962 61.5961966,48.0816296 61.0961966,48.1856296 C60.1001966,48.3896296 59.12153,48.6749629 58.1481967,48.9616296 C57.1948634,49.2482962 56.2415301,49.5402962 55.2988634,49.8789629 C54.3348635,50.2269629 53.3815301,50.5922962 52.4335302,50.9722962 C51.9961968,51.1749628 51.5535302,51.3896295 51.1161969,51.5976295 C50.2095302,52.0242961 49.3668636,52.5816295 48.5588636,53.1802961 C48.2001969,53.4616294 47.8295303,53.7482961 47.4908636,54.0656294 C47.2775303,54.2642961 47.0695303,54.4669628 46.8615303,54.6696294 C46.9028636,54.6696294 46.9388636,54.6696294 46.9815303,54.6696294 C47.6895303,54.6802961 48.3975303,54.6962961 49.1055303,54.7322961 C50.6788635,54.8109627 52.2361968,54.9829627 53.7881968,55.2269627 C55.4855301,55.4936294 57.1948634,55.8002961 58.8508633,56.2429627 C59.8561966,56.508296 60.8348633,56.9149627 61.7468633,57.404296 C62.1735299,57.6389627 62.5748632,57.9309627 62.9601966,58.2229627 C63.4081966,58.5509627 63.8455299,58.8989626 64.2255299,59.3056293 C64.3868632,59.472296 64.5855299,59.7069626 64.7055299,59.8989626 C64.8295299,60.1082959 64.9188632,60.3362959 65.0068632,60.5602959 C65.0175299,60.6136293 65.0281965,60.6602959 65.0388632,60.7069626 C65.1108632,60.9882959 65.1108632,61.2642959 65.0388632,61.5456292 C64.9855299,61.8056292 64.8815299,62.0349626 64.7521965,62.2642959 C64.5015299,62.7122959 64.0855299,63.0656292 63.6895299,63.3936292 C62.5228632,64.3682958 61.4335299,65.4149625 60.3615303,66.4936291 C59.0228633,67.8416291 57.4601967,68.9989624 56.2628634,70.477629 C55.9495301,70.9202957 55.6788634,71.3789623 55.4495301,71.873629 C55.3455301,72.1442956 55.2521968,72.4202956 55.1895301,72.701629 C55.1788634,72.841629 55.1788634,72.9829623 55.1841968,73.1229623 C55.2148634,73.2536289 55.2521968,73.3789623 55.2935301,73.5082956 C55.3761968,73.6802956 55.4761968,73.8522956 55.5855301,74.0136289 C55.8241968,74.2536289 56.0961967,74.4616289 56.3188634,74.7122956 C56.5588634,74.9722956 56.6681967,75.2536289 56.7828634,75.5816289 C56.8921967,75.8842956 56.8295301,76.2122955 56.7575301,76.5082955 C56.6108634,77.1029622 56.1001967,77.5656288 55.7148634,78.0136288 C55.2881968,78.5136288 54.8668634,79.0242955 54.4548635,79.5402955 C54.0588635,80.0762954 53.6948635,80.6282954 53.4028635,81.2269621 C53.3041968,81.4989621 53.2148635,81.7642954 53.1575302,82.0509621 C53.1481968,82.2122954 53.1428635,82.3789621 53.1521968,82.5402954 C53.1788635,82.6856287 53.2201968,82.8216287 53.2628635,82.9616287 C53.2988635,83.0242954 53.3295301,83.0816287 53.3668635,83.1442954 C53.3721968,83.1442954 53.3721968,83.1496287 53.3761968,83.1496287 C53.4815301,83.2176287 53.5908635,83.2802954 53.7055301,83.3362954 C54.0535301,83.4562954 54.4135301,83.5456287 54.7775301,83.6176287 C55.6481968,83.690962 56.6428634,83.5922954 57.2721967,84.3002953 C57.3508634,84.4042953 57.42953,84.502962 57.5068634,84.6082953 C57.6481967,84.8416287 57.7148634,85.0976287 57.7148634,85.3736286 C57.74153,85.5762953 57.68953,85.774962 57.65753,85.9776286 C57.63753,86.0242953 57.6161967,86.070962 57.6001967,86.1176286 C57.5388634,86.2896286 57.46553,86.4562953 57.3721967,86.6136286 C57.2881967,86.7696286 57.18953,86.9202953 57.0961967,87.0709619 C56.7361967,87.6802953 56.3761967,88.2896286 56.0481967,88.9149619 C55.3615303,90.2069619 54.7095301,91.5082952 54.1108635,92.8322951 C53.9761968,93.1962951 53.8401968,93.5602951 53.7001968,93.9256284 C53.3295301,94.9096284 53.1161968,95.9616284 52.9601968,97.0029617 C52.8401968,97.9829617 52.8241968,98.9469616 52.9241968,99.9256283 C52.9761968,100.226962 53.0481968,100.513628 53.1481968,100.794962 C53.2095301,100.914962 53.2721968,101.029628 53.3401968,101.144295 C53.4028635,101.206962 53.4601968,101.269628 53.5228635,101.332295 C53.5588635,101.352295 53.5908635,101.373628 53.6215301,101.388295 C53.6321968,101.393628 53.6428635,101.393628 53.6521968,101.400295 C53.7001968,101.400295 53.7521968,101.400295 53.7988635,101.400295 C54.3561968,101.264295 54.8868634,101.054962 55.4295301,100.852295 C55.6575301,100.748295 55.8921967,100.649628 56.1268634,100.549628 C56.4761967,100.393628 56.8095301,100.196295 57.1481967,100.024295 C58.03353,99.5709616 58.88153,99.0189616 59.6788633,98.4256283 C61.1521966,97.2536283 62.4708633,95.8936284 63.9135299,94.6856284 C65.1735298,93.6336284 66.5428631,92.7376285 67.9961964,91.9722951 C68.7001964,91.5976285 69.4081964,91.2376285 70.1268631,90.8896285 C71.4815297,90.2229619 72.8815297,89.6602952 74.2935296,89.1229619 C74.8921963,88.8896286 75.4961963,88.6656286 76.0908629,88.4256286 C76.5175296,88.2589619 76.9388629,88.0869619 77.3668629,87.9202952 C77.9815295,87.6802953 78.6268628,87.5189619 79.2721962,87.5189619 C79.6215295,87.5189619 79.9708628,87.5656286 80.3188628,87.6696286 C80.9388628,87.8576286 81.6215294,88.2642952 81.9815294,88.8216286 C82.2201961,89.1856286 82.3401961,89.6029619 82.4601961,90.0136285 C82.5961961,90.4722952 82.7095294,90.9362952 82.8295294,91.3989618 C83.1268627,92.5709618 83.2468627,93.8056284 83.6628627,94.9469617 C84.028196,95.7429617 84.496196,96.4669617 85.0228627,97.1656284 C85.788196,98.108295 86.6628626,98.9469616 87.616196,99.7069616 C88.4708626,100.346962 89.3761959,100.904295 90.3561959,101.346962 C91.1841959,101.680295 92.0388625,101.920295 92.9135292,102.066962 C93.3815291,102.124295 93.8455291,102.154962 94.3241958,102.154962 C94.5748624,102.144295 94.8295291,102.124295 95.0801958,102.097628 C96.3415291,101.866962 97.5828624,101.522962 98.769529,101.028295 C99.253529,100.824295 99.7361957,100.617628 100.205529,100.378962 C100.709529,100.118962 101.168196,99.7749616 101.626862,99.4416283 C101.850862,99.2749616 102.074862,99.1229616 102.324196,98.9989616 C102.757529,98.780295 103.214862,98.7229616 103.694862,98.7749616 C104.033529,98.8109616 104.376196,98.8629616 104.709529,98.936295 C105.413529,99.092295 106.110862,99.2696283 106.814862,99.452295 C108.814862,99.9576283 110.834862,100.373628 112.840195,100.846962 C112.465529,100.060295 112.038862,99.2949616 111.600195,98.5456283 C111.304195,98.0296283 111.001529,97.5136283 110.700195,96.9989617 C110.372195,96.4309617 109.996195,95.8629617 109.741529,95.2536284 C109.585529,94.8682951 109.590862,94.3936284 109.804195,94.0242951 C109.913529,93.8416284 110.053529,93.7016284 110.236195,93.5922951 C110.418862,93.4562951 110.616195,93.3842951 110.824195,93.3056284 C111.110862,93.1962951 111.418862,93.1336285 111.709529,93.0456285 C112.262862,92.8736285 112.814862,92.6962951 113.366862,92.5242951 C114.272195,92.2429618 115.162862,91.9362951 116.042862,91.5869618 C115.881529,91.4562952 115.714862,91.3269618 115.558862,91.1962952 L115.558862,91.1962952 Z M52.5961968,58.2176293 C52.5601968,58.212296 52.5268635,58.208296 52.4921968,58.204296 L52.4855302,58.204296 C52.5228635,58.208296 52.5588635,58.2136293 52.5961968,58.2176293 Z M52.7815302,58.2629627 C52.6628635,58.244296 52.5455302,58.224296 52.4281968,58.2056293 L52.3815302,58.2069627 L52.1735302,58.180296 C52.3761968,58.2056293 52.5788635,58.2336293 52.7815302,58.2629627 Z M136.814861,80.5136288 C136.662861,81.9042954 136.465528,83.294962 136.298861,84.6856287 C136.132195,86.0562953 135.949528,87.4202953 135.782861,88.7896286 C135.605528,90.2229619 135.481528,91.6602952 135.350861,93.1029618 C135.205528,94.6336284 135.012195,96.1696284 134.642861,97.6696283 C134.293528,99.1029616 133.902861,100.524295 133.533528,101.957628 C133.168195,103.357628 132.814861,104.753628 132.397528,106.138961 C131.970862,107.560295 131.485528,108.957628 130.960195,110.346961 C130.798862,110.764295 130.600195,111.176295 130.418862,111.586961 C130.293528,111.873628 130.173528,112.170961 130.028195,112.452295 C129.652195,113.176295 129.277528,113.882961 128.866862,114.592295 C128.132195,115.846961 127.293528,117.029628 126.413528,118.185628 C124.553528,120.624294 122.454862,122.888294 120.006862,124.753628 C118.804195,125.670961 117.600195,126.581628 116.314862,127.388294 C116.053529,127.549628 115.804195,127.726961 115.538862,127.873628 C115.142862,128.081628 114.741529,128.294961 114.345529,128.509628 C114.116195,128.633628 113.886862,128.774961 113.648195,128.878961 C113.257529,129.049628 112.872195,129.221628 112.485529,129.388294 C111.069529,130.013628 109.642862,130.586961 108.178862,131.092294 C106.757529,131.581627 105.334862,132.070961 103.924196,132.602961 C101.162862,133.638961 98.429529,134.758961 95.6735291,135.821627 C94.9908624,136.086961 94.2988625,136.332294 93.6108625,136.581627 C93.0068625,136.800294 92.3815292,137.013627 91.7628625,137.185627 C90.3815292,137.570961 89.0068626,137.977627 87.596196,138.226961 C86.6948626,138.388294 85.7935293,138.529627 84.8815294,138.644294 C84.116196,138.742961 83.3508627,138.816294 82.5855294,138.888294 C81.2628628,139.013627 79.9335295,139.128294 78.6055295,139.216294 C77.2255295,139.316294 75.8295296,139.400294 74.438863,139.400294 C74.3975296,139.400294 74.3561963,139.400294 74.3095296,139.400294 C72.8241963,139.400294 71.3455297,139.368294 69.8615297,139.357627 C68.4655298,139.342961 67.0748631,139.342961 65.6841965,139.269627 C64.9655299,139.226961 64.2521965,139.180294 63.5335299,139.128294 C62.7001966,139.066961 61.8721966,138.930961 61.0428633,138.805627 C60.3921966,138.712294 59.7468633,138.566961 59.1108633,138.425627 C58.4081967,138.274961 57.70553,138.133627 57.0068634,137.961627 C55.5908634,137.618961 54.2001968,137.212294 52.8455302,136.676294 C51.4295302,136.113627 50.0481969,135.452294 48.6788636,134.780294 C47.3615303,134.133627 46.0428637,133.482961 44.8455304,132.628294 C43.6481971,131.774961 42.5281971,130.780294 41.4495304,129.780294 C40.4295305,128.826961 39.4708638,127.810961 38.5641972,126.753628 C37.6268639,125.649628 36.7361972,124.509628 35.8348639,123.373628 C34.8668639,122.154961 33.9135306,120.930961 33.006864,119.670961 C32.4081973,118.842961 31.8295307,118.004294 31.2721974,117.149628 C30.954864,116.649628 30.662864,116.144295 30.3868641,115.628295 C29.6268641,114.665628 28.9815308,113.618961 28.4081974,112.518961 C27.6681975,111.092295 27.0855308,109.586961 26.4961975,108.097628 C25.9855308,106.810961 25.5428642,105.488295 25.1161975,104.176295 C24.6321975,102.685628 24.1788642,101.185628 23.7468642,99.680295 C23.3455309,98.2896283 22.9961976,96.884295 22.6375309,95.4829617 C22.2828643,94.0869618 21.9241976,92.6909618 21.5695309,91.2949618 C21.2095309,89.8989619 20.8921976,88.4722952 20.7361976,87.0349619 C20.5908643,85.6696286 20.4548643,84.3056287 20.4188643,82.930962 C20.3761976,81.4562954 20.4761976,79.9989621 20.7001976,78.5402955 C20.8041976,77.8629622 20.913531,77.1856289 21.0428643,76.5082955 C21.2721976,75.3322956 21.5068643,74.1549623 21.7095309,72.9669623 C21.9188643,71.789629 22.1001976,70.613629 22.2721976,69.4309624 C22.4241976,68.0869624 22.5388642,66.7429624 22.6948642,65.4042958 C22.8721976,63.9149625 23.0801976,62.4416292 23.4601976,60.9829626 C23.6948642,60.0816293 24.0175309,59.2016293 24.3148642,58.316296 C24.5281975,57.6909627 24.7668642,57.0709627 25.0121975,56.4616294 C25.2721975,55.8109627 25.5228642,55.1602961 25.7935308,54.5136294 C26.4028642,53.0509628 27.0388641,51.5922962 27.6735308,50.1389629 C28.2775308,48.7589629 28.8668641,47.3736296 29.4655307,45.9882963 C29.7415307,45.346963 30.0428641,44.7176297 30.3455307,44.086963 C30.730864,43.2696297 31.230864,42.5029631 31.762864,41.7749631 C32.314864,41.0189631 32.9135307,40.2896298 33.5535306,39.6082965 C34.5641973,38.5349632 35.5961973,37.4829632 36.6481972,36.4509632 C37.1948639,35.9149632 37.7521972,35.3936299 38.3095305,34.8736299 C38.8508638,34.3736299 39.4188638,33.8989633 39.9855305,33.4202966 C40.4241971,33.04563 40.9028638,32.7069633 41.3615304,32.3522966 C41.6948638,32.09763 42.0335304,31.8522967 42.3721971,31.6082967 C43.0961971,31.0762967 43.8148637,30.5402967 44.5428637,30.0242967 C44.9815304,29.71763 45.4135303,29.40963 45.8455303,29.1029634 C46.7668636,28.4562967 47.7468636,27.8989634 48.7628636,27.4096301 C50.0335302,26.8002968 51.3721969,26.3162968 52.6841968,25.8002968 C52.9441968,25.6802968 53.2001968,25.5602968 53.4548635,25.4469635 C53.7415301,25.3109635 54.0481968,25.1909635 54.3295301,25.0349635 C54.9441968,24.6909635 55.5641968,24.3576302 56.1681967,23.9936302 C57.1521967,23.4042969 58.1321967,22.7949635 59.15753,22.2749636 C60.06953,21.8162969 61.03353,21.4362969 62.0121966,21.1389636 C63.0748632,20.8162969 64.1735299,20.6496303 65.2775298,20.5082969 C66.9028631,20.3002969 68.5535298,20.2536303 70.1948631,20.1962969 C71.5535297,20.1496303 72.9241963,20.1856303 74.282863,20.1962969 C75.0281963,20.2016303 75.7721963,20.2069636 76.5175296,20.2016303 C77.2721962,20.1909636 78.0281962,20.1549636 78.7828628,20.1176303 C80.1628628,20.0456303 81.5428628,19.8789636 82.9135294,19.7376303 C84.340196,19.592297 85.772196,19.3936303 87.2055293,19.2949636 C87.9335293,19.2429636 88.6521959,19.1856303 89.3815292,19.1749636 C89.7001959,19.1696303 90.0281959,19.144297 90.3508626,19.1656303 C90.7988625,19.1909636 91.2415292,19.212297 91.6841959,19.2376303 C92.0175292,19.2589636 92.3455292,19.3216303 92.6735292,19.3629636 C93.1055292,19.420297 93.5388625,19.4776303 93.9655291,19.556297 C94.7521958,19.696297 95.5388624,19.8416303 96.3188624,19.9882969 C97.6841957,20.2482969 99.033529,20.5509636 100.356196,20.9669636 C101.757529,21.4149636 103.126862,21.9362969 104.501529,22.4416302 C105.184196,22.6962969 105.866862,22.9362969 106.548195,23.1909635 C107.100195,23.3936302 107.642862,23.6082969 108.184195,23.8362969 C109.157529,24.2536302 110.074862,24.7589635 110.970862,25.3216301 C111.746862,25.8056301 112.481529,26.3522968 113.230862,26.8736301 C113.809529,27.2749634 114.366862,27.7069634 114.929529,28.1229634 C116.157529,29.0402967 117.372195,29.9722967 118.548195,30.9509633 C119.132195,31.4362967 119.662862,31.9562966 120.205528,32.4829633 C120.705528,32.9669633 121.148195,33.5082966 121.605528,34.0349633 C121.818862,34.2749633 122.006862,34.5456299 122.205528,34.8002966 C122.485528,35.1656299 122.777528,35.5242966 123.053528,35.8936299 C123.470862,36.4562965 123.892195,37.0136299 124.304195,37.5816298 C125.194862,38.8162965 126.080195,40.0509631 126.881528,41.3469631 C127.668195,42.622963 128.345528,43.9562963 129.017528,45.3002963 C129.668195,46.5976296 130.288195,47.9256296 130.824195,49.2749629 C131.366862,50.6389628 131.856195,52.0189628 132.340195,53.3989628 C133.162861,55.7269627 133.965528,58.060296 134.725528,60.4096293 C134.881528,60.8989626 135.038861,61.3989626 135.168195,61.8989626 C135.246861,62.2176292 135.324195,62.5296292 135.408195,62.8469625 C135.490861,63.1909625 135.533528,63.5509625 135.600195,63.8989625 C135.700195,64.4469625 135.757528,65.0082958 135.834861,65.5602958 C135.917528,66.1962958 136.002861,66.8296291 136.090861,67.4696291 C136.089528,67.4616291 136.086861,67.4549624 136.085528,67.4469624 C136.282861,68.8896291 136.522861,70.3162957 136.700195,71.7589623 C136.872195,73.165629 137.038861,74.5869622 137.049255,76.0082955 C137.053528,76.8002955 137.038861,77.5816288 137.001528,78.3682955 C136.970861,79.0869621 136.886861,79.8002955 136.814861,80.5136288" id="path24"></path>
                </g>
            </g>
        </g>
    </g>
</svg>