<?xml version="1.0" encoding="UTF-8"?>
<svg width="154px" height="154px" viewBox="0 0 154 154" version="1.1" xmlns="http://www.w3.org/2000/svg" xmlns:xlink="http://www.w3.org/1999/xlink">
    <title>whatsapp_icon</title>
    <g id="Page-1" stroke="none" stroke-width="1" fill="none" fill-rule="evenodd">
        <g id="whatsapp_icon" transform="translate(0.410143, 0.780039)" fill="#282727" fill-rule="nonzero">
            <path d="M149.389846,78.0036727 C149.224513,76.8223394 148.98718,75.6556728 148.65918,74.5063395 C148.45118,73.7836728 148.19518,73.0796729 147.93518,72.3770062 C147.65518,71.6130062 147.345846,70.8676729 147.03518,70.1223396 C146.672513,69.3290063 146.313846,68.5290063 145.913846,67.7463397 C145.465846,66.8770064 144.992513,66.027673 144.512513,65.1730064 C143.636513,63.6236731 142.59518,62.1650065 141.545847,60.7303398 C140.493847,59.4396732 139.37118,58.1916732 138.408513,56.8303399 C137.76318,55.9130066 137.325847,54.8356733 137.53918,53.6996734 C137.621847,53.26234 137.83118,52.8490067 137.997847,52.4450067 C138.148513,52.0796734 138.288513,51.7156734 138.43518,51.3450067 C138.725847,50.5943401 138.909847,49.8063401 139.033847,49.0090068 C139.172513,47.7036735 139.113847,46.4050069 138.95518,45.1036736 C138.692513,43.3223403 138.265847,41.547807 137.596513,39.870207 C137.373847,39.3119404 137.152513,38.7515404 136.929847,38.1906071 C136.616513,37.5207404 136.296513,36.8463404 135.981847,36.1786071 C135.81518,35.8307405 135.59118,35.5026071 135.40318,35.1640738 C135.21118,34.8250072 135.012513,34.4916738 134.820513,34.1530072 C134.62718,33.8087405 134.377847,33.4863405 134.15918,33.1583405 C133.93518,32.8307405 133.716513,32.4974072 133.492513,32.1692739 C133.284513,31.8540739 133.033847,31.5635406 132.809847,31.2666072 C132.64718,31.0598073 132.48718,30.8478073 132.32718,30.6368739 C131.629847,29.8316739 130.944514,29.019674 130.200514,28.257274 C129.83118,27.8702073 129.47118,27.4811407 129.07518,27.1250073 C128.525847,26.6275407 127.97918,26.1359407 127.400514,25.6718074 C126.744514,25.1728741 126.061847,24.7010074 125.340514,24.2983408 C124.908514,24.0635408 124.48718,23.7916741 124.049847,23.5848741 C123.265847,23.2035408 122.485847,22.8420741 121.69118,22.4974075 C120.64718,22.0848741 119.608514,21.6863408 118.533847,21.3608742 C118.003181,21.1942075 117.476514,21.0275408 116.960514,20.8035408 C116.288514,20.5119408 115.695181,19.9916742 115.383181,19.3144742 C115.127181,18.7635409 114.907181,18.1968742 114.677847,17.6332743 C114.327181,16.8275409 113.961847,16.035941 113.539181,15.2624743 C113.108514,14.4754077 112.597847,13.7572743 112.072514,13.034341 C111.103181,11.8343411 110.005847,10.7583411 108.799181,9.79420778 C107.504514,8.82500781 106.111181,8.01820783 104.629848,7.36660784 C101.644514,6.16247454 98.487181,5.55834122 95.3098477,5.11194123 C93.9551811,4.96087457 92.6071811,4.88900791 91.2418478,4.9598079 C90.4978479,5.0026079 89.7525145,5.04887457 89.0071812,5.11714123 C87.6405146,5.24207456 86.2685146,5.37594123 84.901848,5.55300789 C84.4405147,5.61967455 83.9805147,5.70100788 83.5231814,5.80354122 C82.941848,5.93020788 82.3845147,6.11967454 81.8338481,6.33687454 C81.1351814,6.64207453 80.4391814,6.96660785 79.7218481,7.23020785 C79.2111815,7.42394117 78.5698482,7.47020784 78.0445148,7.32500784 C77.5858482,7.19994118 77.2165149,6.90260785 76.8885149,6.57967453 C76.6791815,6.37020787 76.4645149,6.16767454 76.2391815,5.97447454 C75.7325149,5.63847455 75.1685149,5.40354123 74.6178483,5.1530079 C74.2351816,4.97287457 73.8498483,4.80620791 73.4605149,4.63954124 C72.5378483,4.26660792 71.5978483,3.98634126 70.6178484,3.8212746 C68.3271817,3.57700794 66.0511818,3.90260793 63.7791819,4.20514126 C63.9405152,4.18220792 64.1071818,4.16407459 64.2738485,4.14207459 C63.5551819,4.26660792 62.8365152,4.39314125 62.1218486,4.52074125 C60.6831819,4.77287457 59.2938486,5.2130079 57.9445153,5.75727455 C56.263182,6.49580786 54.6538488,7.37287451 53.0551821,8.27180782 C51.8071822,8.9718078 50.5831822,9.74207445 49.4351822,10.6010078 C48.6458489,11.2368744 47.9138489,11.9264744 47.2711823,12.7062077 C46.7191823,13.4676744 46.2485156,14.2650077 45.8471823,15.115541 C45.7405156,15.4144743 45.641849,15.710341 45.549849,16.015541 C45.5125156,16.1530076 45.4765156,16.2916743 45.4405156,16.4291409 C45.4085157,16.5062076 45.3831823,16.5796743 45.3565157,16.6583409 C45.273849,16.9488743 45.1271823,17.2035409 44.9085157,17.4182076 C44.6271823,17.7718076 44.1845157,17.9811409 43.7471824,18.0692742 C42.913849,18.2463409 42.0605157,18.3359409 41.2165158,18.4291409 C40.5071824,18.5062076 39.7991825,18.5488742 39.0965158,18.6119409 C38.3618492,18.6744742 37.6311825,18.7504742 36.9005159,18.8384742 C36.2325159,18.9583409 35.5685159,19.0863409 34.9085159,19.2359409 C34.1018493,19.4182075 33.3098493,19.6368742 32.512516,19.8608742 C31.1191827,20.2530075 29.776516,20.7999408 28.4365161,21.3384742 C25.9098495,22.4676741 23.3671829,23.6092741 21.1271829,25.2530074 C19.9325163,26.1958074 18.8618496,27.2478073 17.9125163,28.431674 C17.0605164,29.5718073 16.2845164,30.7728739 15.6978497,32.0702072 C15.2485164,33.2239405 14.9431831,34.3994072 14.7418498,35.6196738 C14.6871831,35.9436738 14.6458498,36.2702071 14.6018498,36.5958071 C14.5218498,37.2999404 14.4658498,38.0051404 14.4711831,38.7155404 C14.4765164,39.095807 14.5178498,39.470207 14.5445164,39.8488737 C14.5751831,40.2420737 14.6245164,40.6332737 14.6751831,41.0239403 C14.8858497,42.207807 15.1245164,43.3863403 15.2791831,44.5796736 C15.3311831,44.9916736 15.2938497,45.3823402 15.2311831,45.7876735 C15.1845164,46.0956735 15.0858497,46.4543402 14.9191831,46.7156735 C14.6271831,47.1730068 14.2791831,47.5330068 13.8831831,47.8930068 C13.4765164,48.2623402 13.0645165,48.6316735 12.6645165,49.0063401 C11.8258498,49.7783401 11.0338498,50.5850068 10.2685165,51.4290067 C9.54451655,52.2276734 8.88318323,53.0796734 8.21651658,53.9196733 C7.72984993,54.5556733 7.2525166,55.19034 6.77384995,55.83034 C5.9311833,56.9676733 5.21784999,58.2063399 4.64318334,59.5023399 C4.11785002,60.8036732 3.75785003,62.1570065 3.54185003,63.5450064 C3.3525167,65.3143397 3.43385003,67.139673 3.64851669,68.9063396 C3.79251669,69.7850063 3.99518335,70.6636729 4.25251668,71.5116729 C4.46851667,72.2263396 4.70851667,72.9196729 4.96984999,73.6170062 C5.25384999,74.2770062 5.54318331,74.9316728 5.86184997,75.5743395 C6.0751833,76.0116728 6.28451663,76.4503394 6.49251662,76.8930061 C6.93518328,77.8356727 7.26318327,78.7930061 7.27384994,79.845006 C7.2845166,80.7463393 6.83651661,81.5796727 6.37784996,82.3303393 C6.16451663,82.673006 5.9551833,83.0156726 5.74184998,83.3610059 C5.18718332,84.2530059 4.59251667,85.1263392 4.15251668,86.0823392 C3.81918336,86.9490059 3.59518336,87.8463392 3.45785003,88.7610058 C3.35918337,89.7463391 3.3685167,90.7223391 3.46718337,91.7130057 C3.56185003,92.3863391 3.66451669,93.0530057 3.78451669,93.7210057 C3.91385002,94.450339 4.08051668,95.1730056 4.24185001,95.8970056 C4.40318334,96.5996723 4.61251667,97.2983389 4.83651666,97.9863389 C4.95518333,98.3450056 5.05518333,98.7210056 5.20051666,99.0743389 C5.32984999,99.3796722 5.45651665,99.6810055 5.58184998,99.9863389 C5.77118331,100.358339 5.95784997,100.734339 6.1431833,101.111672 C6.35118329,101.521005 6.61251662,101.913005 6.84584995,102.309005 C7.27918327,103.051672 7.79251659,103.745005 8.30584991,104.433005 C9.28984989,105.621005 10.3191832,106.761005 11.4031832,107.854339 C12.5551831,109.015672 13.7218498,110.158339 14.9031831,111.287672 C15.1485164,111.515672 15.3978497,111.751672 15.6218497,112.006339 C15.7685164,112.169005 15.9138497,112.330339 16.0605164,112.491672 C16.2365164,112.687672 16.4298497,112.933005 16.575183,113.147672 C16.7578497,113.418339 16.8725164,113.705005 16.987183,114.006339 C17.0858497,114.262339 17.075183,114.673005 17.0645164,114.950338 C17.0605164,115.038338 17.055183,115.121005 17.055183,115.210338 C17.0445164,115.371672 17.039183,115.533005 17.0338497,115.687672 C17.0178497,116.117005 17.007183,116.549005 16.9978497,116.975672 C16.9818497,117.730338 16.9818497,118.491672 17.0285164,119.251672 C17.0738497,119.973005 17.151183,120.691672 17.243183,121.409005 C17.399183,122.503672 17.7245163,123.603672 18.123183,124.625005 C18.5898497,125.691672 19.1685163,126.693005 19.867183,127.625005 C21.0111829,129.038338 22.4605162,130.190338 23.8551829,131.347671 C24.8671828,131.970338 25.9671828,132.413005 27.0591828,132.895671 C28.0565161,133.337005 29.0431827,133.795671 30.0351827,134.246338 C30.6898494,134.511671 31.344516,134.762338 32.028516,134.953005 C32.8978493,135.198338 33.7725159,135.395671 34.6471826,135.594338 C36.1351825,135.934338 37.6138492,136.310338 39.1245158,136.537005 C39.4605158,136.578338 39.7965158,136.617005 40.1271824,136.662338 C40.4338491,136.709005 40.7831824,136.777005 41.0378491,136.949005 C41.3978491,137.187671 41.7418491,137.458338 42.0231824,137.786338 C42.4605157,138.297005 42.8925157,138.813005 43.3351824,139.323671 C43.7471824,139.802338 44.1631823,140.277005 44.5805157,140.750338 C45.265849,141.533004 46.0165156,142.250338 46.8338489,142.901004 C47.8418489,143.657004 48.9111822,144.325004 50.0018489,144.958338 C50.5898489,145.307671 51.2005155,145.610338 51.8098488,145.927671 C52.2325155,146.141004 52.6751821,146.321004 53.1125155,146.505004 C53.6098488,146.689004 54.1085154,146.885004 54.6165154,147.037004 C55.2098487,147.219671 55.7991821,147.365004 56.403182,147.505004 C56.9605154,147.635671 57.5338487,147.698338 58.095182,147.797004 C58.5138487,147.866338 58.939182,147.919671 59.3605153,147.977004 C60.5951819,148.099671 61.8245152,148.225004 63.0645152,148.219671 C63.4031819,148.214338 63.7471819,148.214338 64.0898485,148.214338 C64.4805152,148.209004 64.8765152,148.151671 65.2671818,148.125004 C65.8818485,148.078338 66.4858485,147.979671 67.0951818,147.901004 C66.9551818,147.917004 66.8098484,147.938338 66.6685151,147.958338 C67.9711818,147.751671 69.2671817,147.554338 70.5031817,147.091671 C71.156515,146.783671 71.7578483,146.391671 72.3458483,145.979671 C72.444515,145.911671 72.5378483,145.843671 72.632515,145.771671 C72.9391816,145.547671 73.2311816,145.391671 73.6005149,145.266338 C73.8245149,145.198338 74.0485149,145.187671 74.2725149,145.234338 C74.4231816,145.255671 74.5698483,145.277004 74.7205149,145.297004 C74.9231816,145.370338 75.1271816,145.449004 75.3245149,145.542338 C75.6005149,145.667671 75.8711816,145.813004 76.1378482,145.958338 C77.2658482,146.594338 78.3991815,147.221004 79.5618481,147.790338 C80.0165148,147.981004 80.4698481,148.171671 80.9285148,148.334338 C81.6271814,148.578338 82.3191814,148.802338 83.0231814,149.010338 C83.6431814,149.193004 84.2885147,149.297004 84.913848,149.433004 C85.429848,149.542338 85.9551813,149.603671 86.473848,149.678338 C86.8951813,149.722338 87.3125146,149.766338 87.7311813,149.807671 C88.2525146,149.860395 88.7938479,149.838338 89.3138479,149.854338 C90.2005145,149.883671 91.0911812,149.801004 91.9751812,149.723671 C92.9071811,149.570338 93.8351811,149.415671 94.7565144,149.225004 C95.9658477,148.970338 97.159181,148.630338 98.3058477,148.171671 C99.883181,147.481004 101.325848,146.585004 102.723181,145.593004 C103.156514,145.241004 103.583181,144.883671 104.001848,144.505004 C104.428514,144.125004 104.861847,143.734338 105.252514,143.318338 C105.689847,142.843671 106.121847,142.370338 106.537847,141.875671 C106.923181,141.417004 107.296514,140.950338 107.667181,140.483671 C107.997847,140.055671 108.323181,139.623671 108.647181,139.193005 C108.835181,138.938338 109.012514,138.677005 109.179181,138.411671 C109.420514,138.035671 109.603181,137.630338 109.779181,137.223671 C109.997847,136.683671 110.207181,136.138338 110.480514,135.625005 C110.668514,135.271671 111.043181,134.818338 111.413847,134.630338 C111.627181,134.515671 111.845847,134.417005 112.075181,134.334338 C112.403181,134.271671 112.731181,134.229005 113.059181,134.198338 C113.476514,134.162338 113.897847,134.182338 114.313847,134.182338 C114.756514,134.187671 115.200514,134.198338 115.643181,134.187671 C116.131181,134.182338 116.613847,134.143671 117.101847,134.103671 C117.584514,134.031671 118.063181,133.954338 118.54318,133.870338 C119.200514,133.750338 119.845847,133.562338 120.49118,133.386338 C121.63918,133.077005 122.744514,132.675671 123.84718,132.243671 C124.804514,131.819671 125.75918,131.391671 126.673847,130.870338 C127.157847,130.589005 127.66318,130.323671 128.121847,129.995671 C128.52318,129.714338 128.912514,129.425005 129.301847,129.129005 C130.26718,128.321005 131.17518,127.461005 132.048513,126.553005 C132.821847,125.747672 133.520513,124.881005 134.20718,124.003672 C135.756513,121.899672 137.09518,119.631672 138.213847,117.271672 C138.412513,116.751672 138.609847,116.233005 138.777847,115.703672 C138.989847,115.019672 139.104513,114.313005 139.21518,113.610339 C139.284513,112.945005 139.341847,112.281005 139.356513,111.610339 C139.361847,111.239672 139.38718,110.859672 139.356513,110.490339 C139.329847,110.191672 139.297847,109.893005 139.261847,109.594339 C139.12318,108.669005 138.993847,107.741005 138.87518,106.811672 C138.728513,105.775672 138.556513,104.741005 138.41918,103.703672 C138.43918,103.870339 138.465847,104.042339 138.485847,104.209005 C138.428513,103.829005 138.356513,103.449005 138.26718,103.073005 C138.204513,102.782339 138.089847,102.495672 138.048513,102.198339 C138.00718,101.906339 137.949847,101.630339 137.965847,101.343672 C137.985847,101.026339 138.033847,100.698339 138.121847,100.395672 C138.26718,99.8956722 138.476513,99.4063389 138.720513,98.9530056 C139.21518,98.0316722 139.83518,97.2290056 140.480513,96.406339 C140.64318,96.202339 140.833847,96.0330056 141.01118,95.8490056 C141.15918,95.438339 141.436513,95.070339 141.83118,94.830339 C142.085847,94.6730057 142.33118,94.5116723 142.59118,94.366339 C142.88318,94.2050057 143.17918,94.054339 143.47118,93.8930057 C144.01118,93.5850057 144.53518,93.254339 145.036513,92.8890057 C145.733846,92.3250057 146.360513,91.6983391 146.93118,91.0050058 C147.40318,90.3610058 147.816513,89.6983391 148.153846,88.9756725 C148.788513,87.3383392 149.089846,85.6276726 149.380513,83.9076726 C149.489846,82.9583393 149.557846,82.009006 149.570873,81.0543393 C149.580513,80.0343394 149.50718,79.0143394 149.389846,78.0036727 L149.389846,78.0036727 Z M39.1511825,139.995671 C39.1485158,139.993005 39.1471825,139.991671 39.1458491,139.989005 C39.1231825,139.979671 39.1018491,139.971671 39.0805158,139.963671 C39.1031825,139.974338 39.1271825,139.985005 39.1511825,139.995671 L39.1511825,139.995671 Z M39.3765158,140.141005 C39.3538491,140.118338 39.3298491,140.099671 39.3045158,140.081005 C39.3018491,140.079671 39.2978491,140.078338 39.2951825,140.077005 C39.3231825,140.099671 39.3498491,140.119671 39.3765158,140.141005 Z M153.440513,83.2930059 C153.345846,84.3143393 153.173846,85.3250059 153.00318,86.3356725 C152.804513,87.4916725 152.512513,88.6370058 152.121846,89.7410058 C151.845846,90.5210058 151.497846,91.2930057 151.080513,92.0063391 C150.637846,92.766339 150.064513,93.470339 149.50318,94.142339 C148.653846,95.1530056 147.601846,95.9650056 146.52318,96.7103389 C146.101846,97.0023389 145.653846,97.2570056 145.205846,97.5023389 C145.044513,97.5876723 144.881846,97.6623389 144.71918,97.7423389 C144.657847,97.8130056 144.600513,97.8890056 144.533847,97.9530056 C144.361847,98.1156722 144.189847,98.2716722 144.02318,98.4330056 C143.71918,98.7276722 143.445847,99.0556722 143.18318,99.3850055 C142.745847,99.9756722 142.34718,100.577006 142.021847,101.235672 C141.972513,101.369005 141.929847,101.505005 141.89518,101.642339 C141.89518,101.671672 141.89518,101.703672 141.89518,101.734339 C141.96318,102.079672 142.048513,102.423672 142.11118,102.771672 C142.212513,103.347672 142.269847,103.929005 142.340513,104.505005 C142.436513,105.209005 142.532513,105.913005 142.61118,106.619672 C142.684513,107.307672 142.71518,108.005005 142.78318,108.693005 C142.840513,109.334339 142.92318,109.985005 142.90318,110.625005 C142.876513,111.338339 142.824513,112.053005 142.752513,112.761005 C142.66318,113.615672 142.52318,114.463672 142.37118,115.307672 C142.17918,116.395672 141.756513,117.422338 141.35118,118.443672 C141.048513,119.209005 140.64718,119.938338 140.241847,120.657005 C139.88718,121.282338 139.533847,121.911672 139.16318,122.531672 C138.788513,123.162338 138.408513,123.786338 137.985847,124.395672 C137.517847,125.078338 137.017847,125.739672 136.501847,126.391672 C135.64318,127.495672 134.725847,128.573005 133.725847,129.553005 C132.637847,130.619671 131.50718,131.630338 130.272514,132.531671 C129.07518,133.401005 127.793847,134.119671 126.47118,134.786338 C125.40318,135.323671 124.288514,135.782338 123.173847,136.203671 C122.225847,136.562338 121.252514,136.881005 120.272514,137.135671 C119.080514,137.449005 117.892514,137.687671 116.663181,137.838338 C115.605847,137.967671 114.541847,137.945005 113.479181,137.998338 C113.171181,138.545005 112.908514,139.118338 112.595181,139.667671 C112.283181,140.225005 111.845847,140.714338 111.433847,141.203671 C111.225847,141.453004 111.007181,141.698338 110.788514,141.943671 C109.840514,143.031671 108.876514,144.119671 107.835181,145.125004 C104.991181,147.886338 101.585848,150.187671 97.799181,151.417004 C96.403181,151.870338 94.9551811,152.141004 93.5125144,152.391671 C92.1125145,152.630338 90.6885145,152.809004 89.2631812,152.809004 C89.2031812,152.809004 89.1445146,152.809004 89.0858479,152.809004 C88.6525146,152.802338 88.2151812,152.797004 87.7831813,152.791671 C87.4285146,152.791671 87.0698479,152.745004 86.7151813,152.714338 C86.0125146,152.662338 85.313848,152.558338 84.6165147,152.463671 C83.069848,152.266338 81.5698481,151.881004 80.0858481,151.406338 C79.0125148,151.062338 77.9445148,150.646338 76.9338482,150.146338 C76.4231815,149.895671 75.9191816,149.646338 75.4191816,149.386338 C74.9898482,149.166338 74.5658483,148.933004 74.1378483,148.713004 C74.0258483,148.783671 73.9151816,148.858338 73.8045149,148.927671 C73.5018483,149.119671 73.1951816,149.297004 72.892515,149.479671 C72.1431816,149.911671 71.324515,150.225004 70.4911817,150.463671 C69.9858484,150.605004 69.4658484,150.698338 68.9551817,150.802338 C68.2151817,150.958338 67.4605151,151.042338 66.7151818,151.141004 C65.9085151,151.250338 65.1165152,151.334338 64.3098485,151.395671 C63.7005152,151.443671 63.0805152,151.449004 62.4765152,151.422338 C61.7045152,151.391671 60.9391819,151.359671 60.1685153,151.291671 C59.387182,151.219671 58.6058487,151.125004 57.8245153,151.021004 C57.4445153,150.974338 57.0645154,150.917004 56.6845154,150.859671 C56.3138487,150.802338 55.9391821,150.766338 55.5751821,150.687671 C55.2045154,150.610338 54.8298487,150.531671 54.4551821,150.453004 C54.1005154,150.381004 53.7525154,150.261004 53.3978488,150.162338 C52.7365155,149.979671 52.0858488,149.714338 51.4445155,149.453004 C50.0338489,148.875671 48.6271822,148.229004 47.3245156,147.427671 C46.673849,147.021004 46.0285156,146.619671 45.397849,146.182338 C44.2885157,145.422338 43.2565157,144.567671 42.3245157,143.594338 C41.3298491,142.553004 40.3871824,141.453004 39.4711825,140.338338 C39.3845158,140.239671 39.2965158,140.143671 39.2045158,140.050338 C38.6885158,139.895671 38.1511825,139.795671 37.6325158,139.651671 C36.9551825,139.469005 36.2831825,139.277005 35.6111826,139.083671 C34.2365159,138.687671 32.840516,138.354338 31.4858493,137.901005 C30.7258494,137.646338 29.9711827,137.359671 29.2471827,137.010338 C28.5898494,136.698338 27.9498494,136.365005 27.3138494,136.026338 C27.0418494,135.881005 26.7631828,135.743671 26.4871828,135.602338 C25.9071828,135.331671 25.3391828,135.033005 24.7845162,134.714338 C24.1951828,134.407671 23.6071829,134.101005 23.0431829,133.755671 C22.3151829,133.310338 21.6738496,132.703671 21.0685163,132.082338 C20.5925163,131.701005 20.1178496,131.318338 19.6538496,130.923671 C18.8565163,130.241005 18.1378497,129.511671 17.4978497,128.678338 C17.0858497,128.142338 16.7058497,127.590338 16.3565164,127.011672 C15.9138497,126.278338 15.5645164,125.502338 15.2311831,124.715672 C14.7685164,123.611672 14.4658498,122.454338 14.2165164,121.287672 C13.9925164,120.205005 13.8311831,119.105005 13.7058498,118.006338 C13.6685164,117.687672 13.6551831,117.367672 13.6378498,117.049005 C13.5351831,116.569005 13.4271831,116.093005 13.3458498,115.610338 C13.3085165,115.394338 13.3565165,115.189005 13.4738498,115.031672 C12.5351831,113.897005 11.4618498,112.871672 10.4511832,111.803672 C9.27918322,110.559672 8.10718325,109.314339 7.00318328,108.011672 C4.77385,105.377005 2.96585004,102.387672 1.9031834,99.0903389 C1.11785009,96.6583389 0.61251677,94.126339 0.331183444,91.5850057 C0.159183448,90.0063391 0.293850112,88.4236725 0.621850103,86.8716725 C0.908516763,85.5063392 1.45518342,84.2303393 2.14851673,83.0276726 C2.68718339,82.0916726 3.24318337,81.1596727 3.70051669,80.1823394 C3.73518336,80.0796727 3.76451669,79.977006 3.79118336,79.873006 C3.79118336,79.8276727 3.78985002,79.781006 3.78718336,79.7343394 C3.72185003,79.4343394 3.63385003,79.145006 3.52718336,78.8596727 C3.22185004,78.1943394 2.88185005,77.5463394 2.56985005,76.8823394 C2.18985006,76.0596728 1.81518341,75.2263395 1.50318341,74.3663395 C0.727183434,72.2210062 0.200516781,70.0116729 0.0858501168,67.7210063 C0.064516784,67.283673 0.0391834513,66.8450064 0.0178501185,66.4023397 C-0.0448165466,65.1730064 0.064516784,63.9383398 0.23651678,62.7263398 C0.549850105,60.5156732 1.33118342,58.3930066 2.37251673,56.4330066 C2.87251671,55.4916733 3.48718337,54.6116733 4.12185002,53.7516734 C4.65385,53.0276734 5.19518332,52.3036734 5.75251664,51.5996734 C6.68451662,50.4236734 7.60718326,49.2210068 8.6538499,48.1423402 C9.20584989,47.5796735 9.76318321,47.0276735 10.3365165,46.4810069 C10.8191832,46.0196735 11.3285165,45.5730069 11.7938498,45.0850069 C11.7911832,44.8396736 11.7698498,44.5983402 11.7431832,44.3543403 C11.6138498,43.5879403 11.4738498,42.825007 11.3511832,42.054607 C11.2005165,41.1420737 11.1178498,40.2155404 11.0605165,39.2863404 C10.9605165,37.8035404 11.2058498,36.3359405 11.4191832,34.8702072 C11.7271832,32.7983405 12.4191831,30.8196739 13.4458498,28.9974073 C14.0071831,28.0062073 14.6738498,27.069274 15.3778497,26.169274 C16.0698497,25.2822074 16.8205164,24.4650074 17.6538497,23.7092741 C18.4605163,22.9811408 19.331183,22.3196741 20.2218496,21.7035408 C21.1738496,21.0546075 22.1898496,20.5119408 23.2111829,19.9863409 C24.7005162,19.2092742 26.2365161,18.5026076 27.7938494,17.8702076 C29.0031827,17.3759409 30.216516,16.8702076 31.476516,16.5119409 C32.752516,16.1478076 34.0231826,15.786341 35.3258492,15.5426076 C37.6258492,15.115541 39.9578491,15.0078077 42.2805157,14.7744743 C42.3165157,14.6420743 42.3538491,14.510341 42.3978491,14.3822077 C42.5605157,13.893141 42.7418491,13.3968744 42.9711824,12.9384744 C43.5551824,11.7786077 44.2525157,10.7155411 45.0911823,9.72647445 C46.205849,8.40780782 47.6271823,7.38794118 49.0498489,6.4291412 C49.7058489,5.98114121 50.3885155,5.57447455 51.0698488,5.15834123 C53.0071821,3.97540793 55.0645154,2.94527462 57.159182,2.08487464 C59.607182,1.07967467 62.2311819,0.67860801 64.8365152,0.335941352 C66.1698485,0.158341357 67.4978484,0.0155413602 68.8405151,0.00119131669 C69.8831817,-0.0136586391 70.9191817,0.111941358 71.940515,0.28740802 C72.992515,0.475408015 73.9871816,0.882208005 74.9658482,1.29834133 C75.7005149,1.60514132 76.4245149,1.95047465 77.1378482,2.3087413 C77.8098482,2.64207463 78.4031815,3.09060795 78.9298481,3.62074127 C78.9951815,3.68740794 79.0591815,3.75834127 79.1191815,3.82914126 C80.0258481,3.43167461 80.9351814,3.01967462 81.8725147,2.72127463 C83.3565147,2.2411413 84.945848,2.13167464 86.4871813,1.94527465 C88.1125146,1.75154132 89.7365145,1.59060799 91.3725145,1.48114132 C93.8778478,1.32500799 96.3938477,1.68220799 98.8618476,2.09994131 C99.6898476,2.2411413 100.517848,2.41300797 101.345848,2.58487463 C103.288514,2.98634129 105.173847,3.64780794 106.981847,4.45980792 C109.361847,5.53327456 111.497847,7.11194118 113.351181,8.93327447 C114.435181,9.99740778 115.393847,11.2359411 116.211181,12.515541 C117.204514,14.0718077 117.908514,15.7728743 118.59118,17.4811409 C118.600514,17.5010076 118.609847,17.5196743 118.61918,17.5395409 C119.368514,17.8103409 120.141847,18.0144742 120.888514,18.2863409 C121.653847,18.5598076 122.413847,18.8395409 123.15918,19.1583409 C124.09118,19.5488742 125.00318,19.9583409 125.913847,20.3931409 C126.284514,20.5635408 126.632514,20.7822075 126.992514,20.9811408 C127.648514,21.3395408 128.273847,21.7411408 128.888514,22.1692741 C129.976514,22.9291408 130.960514,23.8035408 131.95118,24.6822074 C132.236513,24.9332741 132.48718,25.2264741 132.752513,25.4974074 C133.00318,25.7515407 133.26318,25.9974074 133.50318,26.2666074 C134.12718,26.9811407 134.768513,27.6786073 135.35118,28.433274 C135.836513,29.0635406 136.36718,29.6786073 136.81518,30.3452739 C137.236513,30.9702073 137.664513,31.5999406 138.085847,32.2302072 C138.22718,32.4332739 138.340513,32.6640739 138.460513,32.8822072 C138.700513,33.2916739 138.93518,33.7035405 139.173847,34.1155405 C139.48718,34.6583405 139.72718,35.2463405 139.997847,35.8144738 C140.320513,36.5026071 140.601847,37.2035404 140.88318,37.9078071 C141.31518,38.9974071 141.716513,40.0848737 142.02318,41.2092737 C142.27918,42.125007 142.460513,43.059807 142.60718,43.9974069 C142.773847,45.0996736 142.893847,46.2156735 142.91918,47.3356735 C142.93518,48.3196735 142.825847,49.2876735 142.673847,50.2570068 C142.560513,51.0023401 142.356513,51.7410067 142.096513,52.45034 C141.976513,52.7876734 141.85118,53.12634 141.721847,53.4650067 C141.620513,53.7250067 141.509847,53.9836733 141.424513,54.2490067 C141.59518,54.5476733 141.788513,54.8276733 141.992513,55.1050066 C142.561847,55.8156733 143.160513,56.5010066 143.74718,57.1996733 C144.340513,57.8970066 144.893846,58.6316732 145.43518,59.3716732 C146.361846,60.6316732 147.24718,61.9383398 148.017846,63.2983398 C148.45518,64.0636731 148.88318,64.8303397 149.284513,65.6116731 C149.673846,66.3770064 150.033846,67.1583397 150.393846,67.9383397 C150.768513,68.7463396 151.09118,69.579673 151.43518,70.3970063 C151.601846,70.7876729 151.73118,71.1943396 151.877846,71.5850062 C152.10718,72.1996729 152.31518,72.8196729 152.50718,73.4450062 C152.97118,74.9970062 153.216513,76.6050061 153.40318,78.2103394 C153.601846,79.897006 153.601846,81.5996727 153.440513,83.2930059" id="path268" transform="translate(76.778605, 76.404502) scale(-1, 1) rotate(-180.000000) translate(-76.778605, -76.404502) "></path>
            <path d="M91.9511812,64.623713 C91.7898478,63.7903797 91.4778478,63.003713 91.1805145,62.2223797 C91.0711812,61.967713 90.9565145,61.7130464 90.8418478,61.4570464 C90.6858479,61.1077131 90.4831812,60.7797131 90.3058479,60.4463797 C89.9991812,59.8743798 89.6178479,59.3370464 89.2378479,58.8063798 C88.7951812,58.2490465 88.3471812,57.7023798 87.8005146,57.2383798 C87.2485146,56.8423798 86.6605146,56.5037132 86.0405146,56.2183798 C85.289848,55.9317132 84.5405147,55.6810465 83.7485147,55.5357132 C83.565848,55.5197132 83.389848,55.5090465 83.2125147,55.5090465 C83.1085147,55.5090465 83.0045147,55.5143799 82.8991814,55.5197132 C82.1605147,55.6610465 81.4418481,55.9157132 80.7285148,56.1610465 C80.0978481,56.3797132 79.4725148,56.6037132 78.8525148,56.8423798 C77.7751815,57.3223798 76.7125149,57.8370465 75.6751816,58.4050465 C74.6445149,58.9677131 73.6858483,59.6343798 72.748515,60.3370464 C71.472515,61.3690464 70.2231817,62.431713 69.0298484,63.5610463 C67.8631818,64.6703796 66.8058484,65.8890463 65.7845151,67.1343796 C65.4511818,67.5877129 65.1178485,68.0410462 64.8005152,68.5143795 C64.4151818,69.0877129 64.0565152,69.6757128 63.6965152,70.2650462 C63.0658485,71.3010461 62.5298486,72.3850461 62.0191819,73.4837127 C61.8951819,73.7903794 61.7698486,74.1037127 61.6445152,74.4103794 C61.4938486,74.785046 61.3845153,75.1757127 61.2538486,75.5557127 C61.0085153,76.285046 60.8791819,77.0517127 60.7325153,77.801046 C60.6965153,78.0717126 60.6658486,78.3423793 60.6285153,78.6077126 C60.5138486,79.5197126 60.5245153,80.4623792 60.6338486,81.3743792 C60.7698486,82.2023792 60.9938486,83.0037125 61.3005153,83.7850458 C61.7845152,84.8637125 62.3058486,85.9050458 63.0191819,86.8530457 C63.7125152,87.6863791 64.5298485,88.3690457 65.3791818,89.0410457 C65.4885151,89.118379 65.6031818,89.1970457 65.7125151,89.274379 C65.9205151,89.1650457 66.1498485,89.1077124 66.3951818,89.1037124 C66.5565151,89.098379 66.7125151,89.098379 66.8738484,89.0877124 C67.1445151,89.030379 67.4098484,88.9517124 67.6751818,88.858379 C68.4365151,88.5090465 69.1658484,88.0517124 69.8378484,87.5610457 C70.4778484,87.0517124 71.0871817,86.4983791 71.628515,85.8850458 C71.9418483,85.4370458 72.2018483,84.9730458 72.4258483,84.4783791 C72.556515,84.1503791 72.6551816,83.8170458 72.728515,83.4730458 C72.732515,83.4050458 72.732515,83.3370458 72.732515,83.2703792 C72.6711816,83.0303792 72.5978483,82.7957125 72.504515,82.5610458 C72.3578483,82.2543792 72.1858483,81.9623792 71.988515,81.6810459 C71.7591817,81.4103792 71.5191817,81.1557126 71.280515,80.8890459 C70.956515,80.5357126 70.6711817,80.1450459 70.3791817,79.7597126 C69.8791817,79.1077126 69.472515,78.389046 69.1751817,77.6237126 C68.7698484,76.5983793 68.6911817,75.5143794 68.8685151,74.4317127 C69.0138484,73.5517127 69.3685151,72.7223794 69.816515,71.9623794 C70.1551817,71.3797128 70.6231817,70.8690461 71.0618483,70.3583795 C71.4778483,69.8743795 71.9471817,69.4103795 72.4418483,69.0090465 C73.6658483,68.0250462 74.9511816,67.1397129 76.2325149,66.2330463 C76.7538482,65.8637129 77.2805149,65.4943796 77.8418482,65.1863796 C78.6751815,64.727713 79.5711815,64.3010463 80.5045148,64.103713 C81.2018481,63.951713 81.9098481,64.003713 82.5818481,64.2223796 C83.149848,64.4103796 83.7071814,64.6503796 84.2231813,64.9410463 C84.717848,65.2277129 85.1285147,65.6503796 85.545848,66.0410463 C85.8951813,66.3690463 86.2285146,66.7183796 86.5925146,67.0250462 C86.7125146,67.1037129 86.8271813,67.1703796 86.9471813,67.2383796 C87.0565146,67.2743796 87.1658479,67.3010462 87.2751813,67.3223796 C87.7805146,67.3583796 88.2845146,67.3423796 88.7845146,67.2957129 C89.1178479,67.2277129 89.4365145,67.1450462 89.7485145,67.0303796 C90.2805145,66.7703796 90.7591812,66.4463796 91.2231812,66.0983796 C91.4045145,65.9410463 91.5765145,65.7850463 91.7378478,65.6077129 C91.7751812,65.5463796 91.8111812,65.4783796 91.8418478,65.4103796 C91.8898478,65.2797129 91.9258478,65.1503796 91.9565145,65.0143796 C91.9618478,64.8850463 91.9565145,64.7543796 91.9511812,64.623713 L91.9511812,64.623713 Z M79.6751815,44.3797135 C79.6845148,44.3810468 79.6938481,44.3823801 79.7018481,44.3850468 C79.7031815,44.3850468 79.7031815,44.3850468 79.7045148,44.3850468 C79.6951815,44.3823801 79.6858481,44.3810468 79.6751815,44.3797135 Z M64.8791818,100.546379 L64.8845152,100.546379 C64.8631818,100.535712 64.8471818,100.530379 64.8271818,100.519712 C64.8471818,100.530379 64.8631818,100.535712 64.8791818,100.546379 Z M66.8791818,91.4210456 C66.8738484,91.4157123 66.8685151,91.4157123 66.8631818,91.4157123 C66.8578484,91.4157123 66.8471818,91.4157123 66.8378484,91.410379 C66.8271818,91.410379 66.8218484,91.410379 66.8111818,91.410379 C66.8325151,91.4157123 66.8578484,91.4157123 66.8791818,91.4210456 L66.8791818,91.4210456 Z M66.9258484,91.426379 C66.9258484,91.4210456 66.9205151,91.4210456 66.9205151,91.4210456 C66.9098484,91.4210456 66.8991818,91.4210456 66.8951818,91.4210456 C66.9045151,91.4210456 66.9151818,91.4210456 66.9258484,91.426379 Z M52.0045155,51.22238 C52.0058488,51.2250466 52.0071822,51.2290466 52.0071822,51.2317133 C52.0338488,51.23838 52.0591822,51.24638 52.0845155,51.25438 C52.0578488,51.2437133 52.0311822,51.2330466 52.0045155,51.22238 Z M107.483181,82.5983792 C107.004514,84.5410458 106.373847,86.4890458 105.389847,88.2277124 C105.051181,88.8277124 104.660514,89.3997123 104.289848,89.978379 C103.857848,90.650379 103.415181,91.3170456 102.951181,91.9677123 C102.368514,92.7797123 101.743181,93.5517122 101.004514,94.2330456 C100.395181,94.7903789 99.7178476,95.2743789 99.0458476,95.7543789 C98.4418477,96.1757122 97.8418477,96.6037122 97.243181,97.0357122 C96.7018477,97.4317121 96.1658477,97.8637121 95.5925144,98.2130455 C94.9831811,98.5877121 94.3738478,98.9463788 93.7325144,99.2650454 C93.0511811,99.6037121 92.3738478,99.9463787 91.6965145,100.295712 C90.9258478,100.691712 90.1391812,101.030379 89.3325146,101.347712 C88.7378479,101.582379 88.0925146,101.749045 87.4725146,101.879712 C86.7285146,102.041045 85.9885146,102.202379 85.2485147,102.369045 C83.8791814,102.675712 82.4991814,102.926379 81.1231814,103.207712 C80.4565148,103.342379 79.8058481,103.525045 79.1391815,103.665045 C78.3378482,103.842379 77.5045148,103.957045 76.6858482,104.051712 C76.1965149,104.103712 75.7178482,104.129045 75.2325149,104.129045 C75.0298482,104.129045 74.8271816,104.123712 74.6178483,104.113045 C73.9098483,104.082379 73.1911816,104.071712 72.488515,103.989045 C71.2591817,103.847712 70.0298484,103.665045 68.8058484,103.478379 C68.7431817,103.489045 68.6711817,103.494379 68.6031817,103.489045 C66.7645151,103.358379 65.0138485,102.749045 63.2805152,102.170379 C62.6285152,101.957045 61.9778486,101.727712 61.3418486,101.478379 C60.6285153,101.202379 59.899182,100.926379 59.223182,100.561045 C58.9205153,100.399712 58.6085153,100.254379 58.3218487,100.071712 C57.9618487,99.8423788 57.603182,99.6183788 57.243182,99.3890454 C56.5925154,98.9783788 55.9671821,98.4983788 55.3471821,98.0357121 C54.7538488,97.5983788 54.1551821,97.1503788 53.5978488,96.6703788 C53.2378488,96.3690455 52.8845155,96.0717122 52.5405155,95.7490455 C51.9511822,95.2023789 51.4471822,94.5823789 50.9725155,93.9370456 C49.2018489,91.5610456 47.7485156,88.8997124 46.8165156,86.0823791 C46.6031823,85.4317124 46.4885156,84.7223791 46.3471823,84.0517125 C46.201849,83.3423792 46.1085156,82.6237125 46.0045156,81.9103792 C45.8325156,80.7077126 45.7645156,79.4983793 45.841849,78.2903793 C45.8991823,77.3943793 46.0351823,76.5037127 46.1551823,75.613046 C46.237849,74.9837127 46.3325156,74.3583794 46.4365156,73.7277127 C46.545849,73.0610461 46.6445156,72.3743794 46.8325156,71.7183795 C47.2231823,70.3583795 47.6551823,69.0090462 48.0978489,67.6650462 C48.5458489,66.2957129 48.9991822,64.9103796 49.7231822,63.655713 C50.0658489,63.0610463 50.4151822,62.4730464 50.7698488,61.8850464 C51.1138488,61.3063797 51.4885155,60.7277131 51.7898488,60.1183797 C51.8165155,60.0410464 51.8378488,59.9623797 51.8578488,59.8850464 C51.8631822,59.7543798 51.8631822,59.6237131 51.8525155,59.4943798 C51.6858488,58.5357131 51.3378488,57.6077131 50.9671822,56.7130465 C50.7071822,56.0717132 50.4471822,55.4317132 50.1805155,54.7903799 C49.6965155,53.6183799 49.2898489,52.4210466 48.8631822,51.2330466 C48.7538489,50.9317133 48.6445156,50.6290466 48.5298489,50.3277133 C48.4258489,50.0410467 48.3271822,49.7330467 48.3631822,49.4210467 C48.4151822,49.04638 48.4831822,48.7437134 48.7591822,48.4677134 C48.9418489,48.29038 49.2378489,48.1237134 49.4778489,48.0610467 C50.2018489,47.8583801 50.9671822,48.1650467 51.6231822,48.4370467 C51.9471822,48.5717134 52.2698488,48.7077134 52.5871821,48.8370467 C53.8418488,49.3530467 55.1178487,49.8637133 56.4565154,50.1037133 C56.6605154,50.1237133 56.863182,50.1290467 57.071182,50.1130467 C57.175182,50.0877133 57.275182,50.0610467 57.3738487,50.0250467 C58.1445153,49.6237133 58.8418486,49.0770467 59.535182,48.5557134 C60.1138486,48.1290467 60.6858486,47.6970467 61.2591819,47.2703801 C61.8058486,46.8637134 62.3578486,46.4677134 62.9151819,46.0823801 C63.5298485,45.6557134 64.1911818,45.2903801 64.8418485,44.9263801 C66.1498485,44.1863801 67.5565151,43.6397135 68.9725151,43.1650468 C69.6138484,42.9463802 70.264515,42.7277135 70.9258483,42.5663802 C71.696515,42.3797135 72.4618483,42.2183802 73.2378483,42.0663802 C73.9151816,41.9317135 74.5978483,41.8423802 75.2805149,41.7490469 C76.2898482,41.6130469 77.3005149,41.4783802 78.3218482,41.4517135 C79.7645148,41.4210469 81.1805148,41.6917135 82.5871814,41.9677135 C83.2845147,42.1077135 83.961848,42.3117135 84.6391813,42.5197135 C85.357848,42.7437135 86.061848,43.0250468 86.753848,43.3223802 C87.4151813,43.6037135 88.0711813,43.8850468 88.7071812,44.2277135 C89.9418479,44.8890468 91.1751812,45.6077134 92.3111811,46.4370468 C93.5618478,47.3477134 94.8111811,48.2850467 95.9098477,49.3797133 C96.9205144,50.3850467 97.9098477,51.4050466 98.795181,52.5250466 C99.795181,53.7903799 100.764514,55.0770465 101.717848,56.3743798 C102.171181,56.9983798 102.617848,57.6290465 103.061848,58.2650465 C103.357848,58.6863798 103.639181,59.1130464 103.909848,59.5557131 C104.461848,60.4570464 104.889847,61.431713 105.269847,62.415713 C105.597847,63.2743797 105.857847,64.1650463 106.103181,65.055713 C106.316514,65.8317129 106.529847,66.6130462 106.737847,67.3943796 C107.081847,68.7023795 107.399181,70.0357128 107.597847,71.3743795 C107.728514,72.2543794 107.852514,73.1290461 107.951181,74.0143794 C108.035181,74.749046 108.092514,75.4783794 108.149847,76.2183793 C108.243181,77.4837126 108.191181,78.7703793 108.008514,80.0250459 C107.884514,80.8943792 107.691181,81.7490459 107.483181,82.5983792" id="path270" transform="translate(77.002730, 72.789189) scale(-1, 1) rotate(-180.000000) translate(-77.002730, -72.789189) "></path>
            <path d="M127.604514,64.5109021 L127.58718,64.4509021 L127.556514,64.2482354 C127.621847,64.7255688 127.68718,65.2215687 127.752514,65.7335687 C127.70318,65.3255687 127.653847,64.9189021 127.604514,64.5109021 L127.604514,64.5109021 Z M127.61518,64.5482354 L127.612514,64.5389021 C127.617847,64.5789021 127.62318,64.6162354 127.628514,64.6535688 C127.624514,64.6189021 127.61918,64.5842354 127.61518,64.5482354 Z M111.868514,77.0922351 C111.832514,76.0082351 111.789847,74.9255685 111.743181,73.8469019 C111.701847,72.7842352 111.628514,71.7269019 111.556514,70.6695686 C111.499181,69.8682353 111.384514,69.0762353 111.280514,68.278902 C111.280514,68.2842353 111.280514,68.2842353 111.280514,68.2895687 C111.196514,67.8722353 111.108514,67.450902 111.019181,67.0295687 C110.951181,66.690902 110.895181,66.3415687 110.800514,66.0082354 C110.571181,65.1962354 110.357847,64.3722354 110.092514,63.5709021 C109.421847,61.5282355 108.697847,59.5069022 107.873847,57.5215689 C107.089847,55.7042356 106.159181,53.9189024 104.972514,52.3255691 C104.477848,51.6642357 103.993848,51.0029024 103.499181,50.3415691 C101.639181,48.1442358 99.7485143,45.9255692 97.483181,44.1335693 C96.6605144,43.5189026 95.8058477,42.9509026 94.9258477,42.4295693 C94.0191811,41.888236 93.0871811,41.4295693 92.1285145,41.0029027 C91.3991812,40.7055694 90.6711812,40.4149027 89.9418479,40.1175694 C88.9618479,39.721836 87.9365146,39.4150361 86.9205146,39.1390361 C85.789848,38.8363694 84.6285147,38.6125027 83.4725147,38.4458361 C80.8791814,38.1442361 78.2698482,38.3467694 75.6751816,38.5191694 C74.9778482,38.6177027 74.2805149,38.7109027 73.5818483,38.8109027 C73.228515,38.8629027 72.8738483,38.9614361 72.5191816,39.0390361 C72.056515,39.1390361 71.5871817,39.2431694 71.1178483,39.3415694 C70.8111817,39.4098361 70.504515,39.5243694 70.196515,39.6125027 C69.7178484,39.7535694 69.2431817,39.8935694 68.7645151,40.0389027 C68.4671817,40.128236 68.1751817,40.2535694 67.8791818,40.3629027 C67.4831818,40.508236 67.0871818,40.6535694 66.6911818,40.800236 C65.9045151,41.148236 65.1178485,41.492236 64.3471818,41.872236 C63.6031819,42.2375693 62.8631819,42.648236 62.1805152,43.128236 C61.8738486,43.3469026 61.5658486,43.5655693 61.2538486,43.7842359 C60.6965153,44.2322359 60.1445153,44.6855693 59.5818486,45.1229026 C59.1138486,45.4869026 58.639182,45.9042359 58.0565153,46.0762359 C57.207182,46.3202359 56.3578487,46.0815692 55.5351821,45.8362359 C54.1858488,45.4349026 52.8578488,44.9722359 51.5351822,44.4869026 C48.6805156,43.440236 45.805849,42.440236 42.9365157,41.440236 C41.8951824,41.0815693 40.8418491,40.716236 39.7591825,40.5389027 C39.5911825,40.524236 39.4258491,40.5149027 39.2591825,40.5149027 C39.1991825,40.5149027 39.1378491,40.516236 39.0765158,40.5189027 C39.1338491,40.748236 39.1965158,40.9775693 39.2591825,41.2055693 C39.3471825,41.544236 39.4418491,41.8829027 39.5351825,42.2215693 C39.7538491,42.972236 39.9725158,43.7215693 40.1965158,44.4669026 C40.5978491,45.8055692 41.0085158,47.1482359 41.4938491,48.4562358 C41.9885157,49.7735691 42.4885157,51.0869024 43.0245157,52.3829024 C43.3165157,53.081569 43.6085157,53.7682357 43.8845157,54.4669023 C44.4511823,55.893569 45.0511823,57.4042356 44.617849,58.9509022 C44.4511823,59.5495689 44.0405157,60.0815689 43.6805157,60.5869022 C43.373849,61.0189022 43.0565157,61.4509022 42.7325157,61.8829022 C42.1658491,62.6482355 41.6285157,63.4455688 41.1858491,64.2949021 C40.2951824,66.0029021 39.4098491,67.7162353 38.6285158,69.4775686 C38.1911825,70.6335686 37.8898492,71.8055686 37.6911825,73.0242352 C37.5978492,73.8202352 37.5085158,74.6175685 37.4471825,75.4255685 C37.3845159,76.2682351 37.3271825,77.1175684 37.3271825,77.9615684 C37.3218492,78.8682351 37.3165159,79.7629017 37.3578492,80.664235 C37.3738492,81.0549017 37.3738492,81.4509017 37.4205159,81.8415683 C37.4671825,82.268235 37.5138492,82.6909016 37.5618492,83.1175683 C37.6711825,83.7215683 37.7538492,84.3362349 37.9098492,84.9295682 C38.0191825,85.3575682 38.1285158,85.7789016 38.2325158,86.2055682 C38.3111825,86.4975682 38.3738492,86.8002349 38.4618492,87.0922349 C38.6965158,87.8202348 38.9311825,88.5495682 39.1658491,89.2842348 C39.2751825,89.6389015 39.4311825,89.9815681 39.5618491,90.3255681 C39.6751825,90.6282348 39.7951825,90.9295681 39.9098491,91.2322348 C40.1965158,91.8575681 40.4778491,92.4815681 40.7645158,93.1069014 C40.9151824,93.445568 41.1138491,93.7682347 41.2845158,94.0922347 C41.4778491,94.4562347 41.6711824,94.8149013 41.8631824,95.1802347 C42.0191824,95.4722347 42.2178491,95.7482346 42.3898491,96.029568 C42.6085157,96.377568 42.8271824,96.7269013 43.045849,97.0762346 C43.2231824,97.3629013 43.441849,97.6282346 43.6391824,97.8989013 C43.8325157,98.1695679 44.029849,98.4455679 44.2285157,98.7162346 C44.7751823,99.3882346 45.305849,100.060235 45.889849,100.701568 C46.2805156,101.133568 46.6711823,101.565568 47.0658489,101.992234 C47.4565156,102.420234 47.8951823,102.814901 48.3218489,103.205568 C48.8325156,103.680234 49.3685156,104.122901 49.9205155,104.554901 C50.6031822,105.065568 51.3058488,105.549568 52.0085155,106.038901 C52.1711821,106.153568 52.3471821,106.258901 52.5191821,106.368234 C53.0085155,106.554901 53.4991821,106.732234 53.9885154,106.925568 C54.5871821,107.158901 55.1858487,107.404234 55.7898487,107.622901 C56.415182,107.846901 57.0458487,108.049568 57.6805153,108.242901 C58.3578487,108.450901 59.0245153,108.680234 59.6858486,108.914901 C60.8845153,109.336234 62.1285152,109.606901 63.3525152,109.929568 C64.0245152,110.112234 64.6965152,110.284234 65.3738485,110.445568 C65.9311818,110.576234 66.4991818,110.664234 67.0711818,110.748234 C68.0511818,110.872234 69.0298484,111.013568 70.008515,111.153568 C70.6498484,111.216234 71.284515,111.253568 71.9311817,111.258901 C72.5818483,111.258901 73.232515,111.216234 73.8791816,111.180234 C75.1498482,111.106901 76.4098482,111.044234 77.6711815,110.898901 C78.5658482,110.762901 79.4671815,110.622901 80.3738481,110.544234 C81.1178481,110.472234 81.8631814,110.398901 82.6138481,110.314901 C83.513848,110.158901 84.4151813,109.986901 85.321848,109.836234 C86.3005146,109.674901 87.2591813,109.466901 88.2178479,109.210901 C89.1031812,108.972234 89.9778479,108.690901 90.8578478,108.425568 C92.0085145,108.076234 93.1805145,107.805568 94.3111811,107.372234 C95.3685144,106.898901 96.3845144,106.320234 97.3898477,105.742901 C98.6965143,104.986901 100.019181,104.237568 101.243181,103.346901 C102.368514,102.456234 103.316514,101.393568 104.223181,100.284235 C104.821847,99.5442345 105.420514,98.8002346 106.013847,98.0495679 C106.275181,97.6909013 106.540514,97.3362346 106.800514,96.9775679 C107.212514,96.4149013 107.556514,95.8002346 107.889847,95.1909013 C108.191181,94.6389013 108.461847,94.0762347 108.712514,93.5029014 C109.373847,91.8415681 109.857847,90.1069015 110.373847,88.3989015 C110.915181,86.5922349 111.461847,84.7842349 111.753847,82.920235 C111.983181,80.9815683 111.931181,79.0349017 111.868514,77.0922351 L111.868514,77.0922351 Z M57.0018487,43.2815693 C57.0738487,43.2989026 57.1458487,43.3149026 57.2178487,43.3309026 C57.2245154,43.3255693 57.231182,43.3215693 57.2378487,43.3175693 C57.1565154,43.308236 57.0778487,43.296236 57.0018487,43.2815693 Z M130.545847,93.8882347 C130.20718,95.6122346 129.60318,97.2535679 128.87918,98.8469012 C128.456514,99.7842345 127.972514,100.696235 127.508514,101.612234 C126.717847,103.174901 125.925847,104.742901 124.993847,106.226901 C123.832514,108.065568 122.31118,109.653568 120.81118,111.210901 C119.748514,112.310901 118.70718,113.429568 117.685847,114.570901 C116.732514,115.644234 115.805847,116.748234 114.868514,117.836234 C114.675181,118.049567 114.467181,118.253567 114.269847,118.461567 C114.024514,118.726901 113.784514,119.008234 113.519181,119.253567 C112.993847,119.737567 112.483181,120.253567 111.931181,120.710901 C111.284514,121.253567 110.649847,121.810901 109.977847,122.314901 C109.639181,122.565567 109.305847,122.814901 108.967181,123.070901 C108.737847,123.242901 108.513847,123.429567 108.275181,123.581567 C107.904514,123.814901 107.540514,124.049567 107.175181,124.284234 C106.895181,124.461567 106.617847,124.658901 106.332514,124.820234 C105.707181,125.169567 105.092514,125.544234 104.451181,125.862901 C103.133848,126.513567 101.811181,127.138901 100.461848,127.732234 C99.071181,128.341567 97.675181,128.956234 96.259181,129.508234 C94.8991811,130.0349 93.5405144,130.560234 92.1338478,130.9349 C91.4151812,131.128234 90.7018479,131.320234 89.9725145,131.477567 C89.2325146,131.6389 88.4938479,131.7949 87.7485146,131.945567 C86.3951813,132.216234 85.0405147,132.5029 83.6751814,132.721567 C82.7645147,132.872234 81.8525147,132.997567 80.9311814,133.101567 C80.2018481,133.185567 79.4725148,133.2269 78.7431815,133.273567 C77.2805149,133.372234 75.8111816,133.368234 74.3471816,133.377567 C74.0565149,133.3829 73.7645149,133.3829 73.4725149,133.3829 C72.3418483,133.3829 71.2178483,133.3629 70.092515,133.300234 C68.6858484,133.221567 67.2805151,133.092234 65.8738485,132.981567 C64.3418485,132.857567 62.8005152,132.737567 61.2845153,132.4869 C59.8738486,132.253567 58.4938487,131.9149 57.1085154,131.549567 C55.7018487,131.185567 54.2898488,130.841567 52.8898488,130.456234 C51.5405155,130.0869 50.2325155,129.601567 48.9418489,129.065567 C47.4365156,128.4349 45.9205156,127.814901 44.441849,127.128234 C43.201849,126.554901 42.0245157,125.820234 40.8631824,125.101567 C40.2071824,124.696234 39.5925158,124.253567 38.9831825,123.778901 C38.5711825,123.450901 38.1805158,123.101567 37.7898492,122.753567 C37.2125159,122.237567 36.6391825,121.721567 36.0658492,121.205567 C34.9511826,120.196234 33.8218493,119.201567 32.7071826,118.190901 C32.280516,117.810901 32.1858493,117.148234 32.3991826,116.633567 C31.936516,116.092234 31.4831827,115.549567 31.040516,114.981567 C29.2285161,112.653568 27.5618494,110.210901 25.9098495,107.762901 C25.5045161,107.158901 25.0711828,106.565568 24.6911828,105.945568 C24.3165162,105.336234 23.9098495,104.737568 23.5711829,104.101568 C23.2231829,103.456234 22.8631829,102.814901 22.5511829,102.153568 C22.2178496,101.434901 21.8845162,100.721568 21.5765162,99.9922345 C20.9618496,98.5389012 20.3685163,97.0815679 19.7845163,95.6122346 C19.5045163,94.9042347 19.2698496,94.1749013 19.0138496,93.4562347 C18.7805163,92.8055681 18.5925163,92.1335681 18.3898497,91.4722348 C17.9938497,90.1802348 17.6605163,88.8629015 17.379183,87.5389015 C17.0765164,86.1229016 16.7898497,84.7055683 16.5765164,83.2789016 C16.4565164,82.440235 16.3058497,81.6069017 16.2178497,80.7629017 C16.1445164,80.0815684 16.0458497,79.4042351 16.0045164,78.7162351 C15.9565164,78.0082351 15.8898497,77.2949018 15.8738497,76.5869018 C15.8631831,75.8002351 15.8165164,75.0029018 15.8378497,74.2162352 C15.8578497,73.4202352 15.8845164,72.6175686 15.9045164,71.8202352 C15.9205164,71.1175686 16.0191831,70.4095686 16.0818497,69.710902 C16.1085164,69.3935686 16.1605164,69.0762353 16.2018497,68.762902 C16.259183,68.2842353 16.3165164,67.8055687 16.3845164,67.3255687 C16.4778497,66.674902 16.571183,66.0242354 16.671183,65.3722354 C16.9045164,63.8629021 17.1445164,62.3575688 17.4418497,60.8575688 C17.723183,59.4509022 18.139183,58.0815689 18.551183,56.7109023 C18.947183,55.4042357 19.4258496,54.117569 19.8685163,52.8309024 C20.3471829,51.4349024 20.8005163,50.0295691 21.3418496,48.6589025 C21.8991829,47.2375692 22.4991829,45.8362359 23.2178495,44.4869026 C23.9471829,43.1229026 24.6965162,41.7735693 25.4885161,40.440236 C25.8631828,39.8109027 26.2591828,39.1910361 26.6551828,38.5707694 C27.0405161,37.9723694 27.4831828,37.4041028 27.8991828,36.8254361 C28.3325161,36.2218361 28.8058494,35.6390361 29.2805161,35.0655695 C29.7178494,34.5390362 30.1551827,34.0030362 30.6031827,33.4775695 C31.1138493,32.8723695 31.628516,32.2682362 32.1498493,31.6697029 C32.6231826,31.1177029 33.1338493,30.6015696 33.6338493,30.076503 C33.8738493,29.8254363 34.1605159,29.6067696 34.4151826,29.3723696 C34.7178493,29.1015696 35.0245159,28.8467696 35.3418492,28.5962363 C35.9311826,28.1483697 36.5138492,27.6910363 37.1138492,27.2587697 C39.5138491,25.5390364 41.9045157,23.8109031 44.3631823,22.1749031 C46.2125156,20.9458365 48.3418489,20.2161032 50.4151822,19.4614366 C51.7751822,18.9671699 53.1285155,18.4510366 54.4831821,17.9401033 C55.7325154,17.4775699 57.0245154,17.0655699 58.327182,16.7734366 C59.847182,16.4349033 61.3738486,16.1442366 62.9098485,15.8885033 C64.3111818,15.64837 65.7178485,15.4614367 67.1285151,15.2682367 C68.6445151,15.06557 70.160515,14.9869033 71.6858483,14.9098367 C72.0298483,14.8937033 72.3791816,14.9098367 72.7231816,14.9098367 C73.0658483,14.9098367 73.420515,14.8989033 73.7645149,14.9098367 C74.4565149,14.92957 75.1445149,14.9401033 75.8378482,14.97237 C77.3218482,15.0349033 78.8058481,15.0921033 80.2898481,15.1910367 C83.2845147,15.38277 86.2645146,15.78957 89.2125146,16.34157 C90.5925145,16.60157 91.9778478,16.8723699 93.3378478,17.2218366 C94.1178478,17.4202366 94.8898477,17.6442366 95.6605144,17.8827699 C96.3325144,18.0921033 96.9885144,18.3525032 97.655181,18.5962366 C98.2805143,18.8202366 98.8898476,19.1067699 99.5085143,19.3629032 C100.300514,19.6910365 101.071181,20.0817032 101.847181,20.4458365 C102.513848,20.7587699 103.160514,21.1229032 103.811181,21.4614365 C104.447181,21.7895698 105.056514,22.1749031 105.675181,22.5295698 C105.925847,22.6749031 106.155181,22.8525031 106.395181,23.0134365 C106.789847,23.2791698 107.185847,23.5390364 107.576514,23.8057031 C108.175181,24.2015698 108.737847,24.6535698 109.316514,25.0765031 C109.920514,25.5191697 110.504514,26.0030364 111.092514,26.4671697 C111.384514,26.6910364 111.655181,26.9458364 111.936514,27.1858364 C112.171181,27.388503 112.409847,27.581703 112.639181,27.7947697 C113.171181,28.2895697 113.717847,28.7682363 114.232514,29.2791696 C114.769847,29.8150363 115.332514,30.3363696 115.847181,30.8989029 C116.389847,31.4973029 116.936514,32.0921029 117.477847,32.6858362 C118.008514,33.2682362 118.488514,33.8989029 118.988514,34.5030362 C119.44718,35.0551695 119.873847,35.6338361 120.31118,36.1962361 C120.75918,36.7734361 121.196514,37.3525028 121.62318,37.9401028 C122.01918,38.4869027 122.43118,39.0295694 122.79518,39.596236 C123.19118,40.2109027 123.628514,40.8109027 123.972514,41.4455693 C124.316514,42.092236 124.70718,42.7269026 125.004514,43.3935693 C125.341847,44.1482359 125.696514,44.8935692 125.977847,45.6695692 C126.22318,46.3629025 126.477847,47.0442359 126.696514,47.7482358 C126.920514,48.4402358 127.13918,49.1389025 127.352514,49.8362358 C127.764514,51.1909024 128.201847,52.5442357 128.58718,53.909569 C128.784514,54.6122357 129.013847,55.3149023 129.180514,56.029569 C129.341847,56.7269023 129.53518,57.4255689 129.665847,58.1282356 C130.201847,61.0869022 130.65518,64.0655688 130.993847,67.054902 C131.316514,69.934902 131.529847,72.8255685 131.628513,75.7269018 C131.732513,78.7535684 131.837847,81.7735683 131.769847,84.8002349 C131.732513,86.2842349 131.524513,87.7629015 131.337847,89.2375681 C131.13918,90.8002348 130.852514,92.3469014 130.545847,93.8882347" id="path272" transform="translate(73.811875, 74.142783) scale(-1, 1) rotate(-180.000000) translate(-73.811875, -74.142783) "></path>
        </g>
    </g>
</svg>